<svg id="Capa_1" xmlns="http://www.w3.org/2000/svg" viewBox="0 0 447.6 447.6"><style>.st0{fill:#00bd9c}</style><path class="st0" d="M447.6 244.4c0-8.8-2-17.2-5.6-24.9-.4-2-.8-3.9-1.3-5.9l-38.9-96.4-.3-.9c-13.6-40.5-33-78-82-78H131.9c-50.3 0-68.1 38.4-82 77.8L9.2 212.7C3.3 222.2 0 232.9 0 244.4v30c0 4.6.5 9.2 1.6 13.5-1 2.6-1.6 5.5-1.6 8.5v89.2c0 13.1 10.6 23.7 23.7 23.7h49.1c13.1 0 23.7-10.6 23.7-23.7V341H354v44.6c0 13.1 10.6 23.7 23.7 23.7H424c13.1 0 23.7-10.6 23.7-23.7v-89.2c0-3-.6-5.8-1.6-8.5 1-4.4 1.6-8.9 1.6-13.5l-.1-30zM78.8 125.8c15.5-43.7 27.9-57 53.1-57h187.7c25 0 38.9 14.9 53.1 56.8l28.4 57.5c-9.3-3.4-19.5-5.3-30.2-5.3H76.8c-9.6 0-18.9 1.6-27.4 4.4l29.4-56.4zm24.3 160H51.3c-9.3 0-16.9-7.6-16.9-16.9 0-9.3 7.6-16.9 16.9-16.9h51.8c9.3 0 16.9 7.6 16.9 16.9 0 9.3-7.5 16.9-16.9 16.9zm183.2-3.4H165.7c-5.9 0-10.7-4.8-10.7-10.7 0-5.9 4.8-10.7 10.7-10.7h120.6c5.9 0 10.7 4.8 10.7 10.7 0 5.9-4.8 10.7-10.7 10.7zm108.8 3.4h-51.8c-9.3 0-16.9-7.6-16.9-16.9 0-9.3 7.6-16.9 16.9-16.9h51.8c9.3 0 16.9 7.6 16.9 16.9 0 9.3-7.6 16.9-16.9 16.9z"/></svg>