<svg id="Capa_1" xmlns="http://www.w3.org/2000/svg" viewBox="0 0 72 72"><style>.st0{fill:none;stroke:#fff}.st1{fill:#fff}</style><title>icons</title><circle id="Oval-1-Copy-4" class="st0" cx="36" cy="36" r="35"/><g id="Group"><path id="Shape" class="st1" d="M31.5 8.7l-1.5.8c-.4.2-.9.1-1.1-.3l-3.2-5.7c-.3-.4-.8-.9-1.5-.9h-5.5c.3.5 5.3 9.3 5.3 9.3.1.2.1.4.1.6s-.2.4-.4.5l-1.3 1c-.1 0 0 .1 0 .1l7.2 1.9h.1l1.8-7.3c.1 0 .1 0 0 0z" transform="translate(16 16)"/><path id="Shape_1_" class="st1" d="M16.9 3.6c-.2 0-.4.1-.6.4l-.3.5-4.3 7.4v.2s4.7 2.7 4.7 2.8h.2l3.5-6v-.1-.1l-2.5-4.4c-.1-.3-.3-.7-.7-.7z" transform="translate(16 16)"/><path id="Shape_2_" class="st1" d="M3.7 18l1.4.8c.4.2.5.7.3 1.1l-3.3 5.7c-.3.4-.4 1.2 0 1.7l2.8 4.8c.3-.6 5.4-9.3 5.4-9.3.1-.2.3-.3.5-.4.2 0 .4 0 .6.1l1.4.8h.1L11.1 16s0-.1-.1-.1L3.7 18c0-.1 0 0 0 0z" transform="translate(16 16)"/><path id="Shape_3_" class="st1" d="M6.5 33.7c.1.2.3.4.8.4h9.1c.1 0 .1 0 .1-.1v-5.5c0-.1 0-.1-.1-.1h-7c-.1 0-.1 0-.2.1l-2.5 4.3c-.2.1-.5.5-.2.9z" transform="translate(16 16)"/><path id="Shape_4_" class="st1" d="M25.9 37.2v-1.7c0-.4.4-.8.8-.8h6.5c.5 0 1.2-.3 1.5-.8l2.8-4.8H26.8c-.3 0-.5-.1-.7-.3s-.2-.4-.2-.6v-1.6c0-.1 0-.1-.1 0l-5.2 5.2v.1l5.3 5.3c-.1.1 0 .1 0 0z" transform="translate(16 16)"/><path id="Shape_5_" class="st1" d="M38 26.5c.1-.2.2-.4-.1-.8l-.2-.4-4.2-7.4v-.1h-.1s-4.7 2.7-4.8 2.7c0 0-.1 0-.1.1v.1s3.4 6 3.5 6c0 .1.1.1.2.1H37c.3 0 .7 0 1-.3z" transform="translate(16 16)"/></g></svg>