<svg id="Capa_1" xmlns="http://www.w3.org/2000/svg" viewBox="0 0 72 72"><style>.st0{fill:none;stroke:#fff}.st1{fill:#fff}</style><title>icons</title><circle id="Oval-1-Copy" class="st0" cx="36" cy="36" r="35"/><path id="Shape_13_" class="st1" d="M45.9 42.3v1.5c0 .3-.3.6-.6.6h-14c-.3 0-.6-.3-.6-.6v-1.5c0-.3.3-.6.6-.6h14c.3 0 .6.3.6.6zm-21-.2c-2 0-3.7 1.6-3.7 3.7 0 2 1.6 3.7 3.7 3.7 2 0 3.7-1.6 3.7-3.7s-1.7-3.7-3.7-3.7zm25.9 0c-2 0-3.7 1.6-3.7 3.7 0 2 1.6 3.7 3.7 3.7s3.7-1.6 3.7-3.7-1.6-3.7-3.7-3.7zM16 36.9c0-.3.1-.8.3-1.1l4.8-8.2c.2-.3.6-.5.9-.5h6.4c.3 0 .6.3.6.6v12c0 .3-.3.6-.6.6h-3.9c-4.6 0-5 4.1-5.2 4.8-.1.3-.5.6-.8.6h-1.9c-.3 0-.6-.3-.6-.6v-8.2zm3.7-3.2c-.3.5 0 .8.4.8h6.5c.3 0 .5-.2.5-.5v-4.7c0-.3-.2-.5-.5-.5h-3.7c-.3 0-.4.2-.7.5l-2.5 4.4zm11-10.5c0-.3.3-.6.6-.6h24.1c.3 0 .6.3.6.6v16.5c0 .3-.3.6-.6.6H31.3c-.3 0-.6-.3-.6-.6V23.2zm7.1 8.2c0 3.1 2.5 5.5 5.6 5.5 3.1 0 5.6-2.5 5.6-5.5 0-3.1-2.5-5.5-5.5-5.5-3.2 0-5.7 2.5-5.7 5.5zm1.1 0c0-2.5 2-4.5 4.5-4.5s4.5 2 4.5 4.5-2 4.5-4.5 4.5-4.5-2-4.5-4.5zm2 1.1c-.2.2-.3.5-.1.7.1.1.3.2.4.2.1 0 .2 0 .3-.1l2.2-1.5c.1-.1.2-.2.2-.4v-2.7c0-.3-.2-.5-.5-.5s-.5.2-.5.5v2.4l-2 1.4z"/></svg>