<svg id="Capa_1" xmlns="http://www.w3.org/2000/svg" viewBox="0 0 72 72"><style>.st0{fill:none;stroke:#fff}.st1{fill:#fff}</style><title>icons</title><circle id="Oval-1-Copy-3" class="st0" cx="36" cy="35.9" r="35"/><path id="Path" class="st1" d="M51.9 27.7c-1.4-.8-2.2.3-2.6.8-.4.5-5 7.7-5 7.7s-.5.1-.4-.6c.1-.7 2.5-10.6 2.5-10.6s.6-3.3-.9-3.5c-1.5-.2-2 .9-2.3 1.9-.3 1-3 10.7-3 10.7s-.8 1.1-.8-.1-.2-11.6-.2-11.6.2-3.1-1.9-2.9c-2.1.2-1.9 2.2-1.9 2.2l.2 12.1s-.8 1.3-1.2.2c-.4-1.2-3.8-10.6-3.8-10.6s-.6-1.4-2.2-.8c-1.6.6-1 2.4-1 2.4l3 10.4s.3.9.3 1.8-.2 2.3-.4 3l-.3.8h-.1.1l-.1.2h-.4C26 35.5 21 35.9 21 35.9s-1.9.6-1.3 1.9c.6 1.3.9.4 3.3 2.7 2.4 2.3 3.2 4.6 3.6 5.5.4.8 1.9 3.3 3.6 4.4 1.7 1 3.1 2.1 3.1 2.1h9.8s3.1-1.8 4-8.2l.2-4.7s0-.4.3-1 3.8-6.8 3.8-6.8 2-3.3.5-4.1z"/></svg>