<svg width="137" height="95" viewBox="0 0 137 95" xmlns="http://www.w3.org/2000/svg"><title>Group 13</title><path d="M39.427 52.605c-.351.621-.226.976-.226.976l.46 4.609c-.229 6.306-4.21 8.368-4.21 8.368l5.631 25.12c-6.404-1.598-12.407-3.741-17.9-6.336l-2.34-18.125s-1.259-.44-3.761-1.239c-2.497-.796-5.114-3.036-5.78-3.802-.654-.769-2.2-2.917-5.96-4.885-3.753-1.969-4.115-1.029-5.106-2.224-.997-1.191 1.5-1.943 1.5-1.943s6.938-.938 12.8 4.133c0 0 .177-.032.493-.062l.082-.193c-.071.006-.112.006-.112.006.038-.004.073-.006.114-.007l.352-.822.032-.332c1.874-.027 8.67.181 11.537 4.397.18.2.362.404.539.621 0 0-.54-5.907-12.073-5.033.057-.636.16-1.985.052-2.626-.147-.854-.681-1.675-.681-1.675l-5.941-9.714s-1.133-1.637.97-2.404c2.098-.766 3.245.553 3.245.553s6.295 8.725 7.006 9.805c.71 1.078 1.658-.315 1.658-.315l-2.268-11.66s-.654-1.904 2.295-2.33c2.949-.424 3.207 2.607 3.207 2.607s1.985 10.037 2.252 11.202c.27 1.163 1.19.04 1.19.04s2.22-9.655 2.434-10.676c.223-1.023.68-2.154 2.86-2.105 2.177.047 1.878 3.304 1.878 3.304s-1.664 9.797-1.737 10.532c-.071.736.623.541.623.541s5.274-7.54 5.705-8.077c.435-.54 1.282-1.705 3.422-1.104 2.138.596.014 3.872.014 3.872s-3.9 6.386-4.256 7.003zm96.48-5.117c-1.808-.859-2.94.104-3.499.537-.558.436-7.665 6.691-7.665 6.691s-.7.08-.416-.59c.283-.671 4.708-9.52 4.708-9.52s1.23-2.984-.771-3.339-2.76.633-3.273 1.548c-.493.914-5.391 9.558-5.391 9.558s-1.193.914-1.09-.198c.093-1.118 1.202-10.713 1.202-10.713s.653-2.848-2.209-2.872c-2.867-.02-2.807 1.839-2.807 1.839l-1.331 11.134s-1.294 1.161-1.634.06c-.34-1.104-3.616-10.088-3.616-10.088s-.67-1.39-2.845-.974c-2.176.414-1.607 2.092-1.607 2.092l2.655 9.85s.256.835.142 1.648c-.085.597-.556 1.785-.803 2.383 10.561.916 9.36 6.34 9.36 6.34-.1-.228-.212-.445-.323-.659-1.335-4.053-6.938-5.315-9.051-5.65-.082.2-.139.33-.139.33l-.569.712-.117-.01.117.012-.133.168c-.303-.016-.48-.014-.48-.014-3.945-5.536-10.654-5.645-10.654-5.645s-2.543.347-1.971 1.592c.569 1.251 1.187.432 4.09 2.786 2.907 2.357 3.71 4.57 4.094 5.374.39.804 2.157 3.257 4.245 4.344a120.193 120.193 0 0 1 3.12 1.683l-4.015 21.788c5.99-1.952 11.547-4.401 16.57-7.26l1.18-13.075s4.299-1.346 6.365-7.165l.926-4.339s-.01-.347.504-.872c.51-.527 6.004-5.894 6.004-5.894s2.938-2.736 1.127-3.592zm-29.466-34.45c-3.29-1.25-4.988.516-5.84 1.326-.85.808-11.461 12.288-11.461 12.288s-1.17.22-.85-.956c.316-1.18 5.73-16.78 5.73-16.78s1.377-5.222-2.122-5.592c-3.499-.366-4.563 1.4-5.198 3.02-.637 1.617-6.897 16.922-6.897 16.922s-1.805 1.694-1.908-.22c-.104-1.915-.528-18.396-.528-18.396s.424-4.932-4.46-4.637c-4.882.294-4.351 3.46-4.351 3.46l.422 19.13s-1.912 2.132-2.761.295c-.847-1.84-8.594-16.777-8.594-16.777s-1.486-2.283-5.094-1.326c-3.608.957-2.23 3.754-2.23 3.754l6.9 16.483s.634 1.399.634 2.794c0 1.399-.956 4.784-.956 4.784l-.095.153c18.807.153 18.03 9.739 18.03 9.739a21.31 21.31 0 0 0-.686-1.055c-3.422-7.16-14.24-8.436-17.36-8.657l-.684 1.099-.19-.002.188.007-.188.3c-.518.012-.814.038-.814.038-8.06-8.98-19.523-8.39-19.523-8.39s-4.245.883-2.962 2.943c1.274 2.06 2.12.591 7.64 4.267 5.516 3.68 7.428 7.36 8.277 8.683.85 1.328 4.457 5.3 8.278 6.916 3.814 1.62 5.728 2.504 5.728 2.504l-1.83 43.575c2.63.177 5.3.27 8 .27 6.807 0 13.416-.578 19.716-1.66L86.284 52.04s7.006-2.795 9.127-12.95l.528-7.508s-.104-.589.632-1.546c.746-.953 8.808-10.741 8.808-10.741s4.348-5.004 1.062-6.255z" fill="#FFF" fill-rule="evenodd"/></svg>