<svg width="99" height="95" viewBox="0 0 99 95" xmlns="http://www.w3.org/2000/svg"><title>Group 12</title><g fill="#FFF" fill-rule="evenodd"><path d="M95.42 11.176H42.332a2.794 2.794 0 1 0 0 5.589H95.42a2.794 2.794 0 1 0 0-5.589zM95.42 44.706H42.332a2.794 2.794 0 1 0 0 5.588H95.42a2.794 2.794 0 1 0 0-5.588zM95.42 78.235H42.332a2.794 2.794 0 1 0 0 5.589H95.42a2.794 2.794 0 1 0 0-5.589zM3.214 27.941h22.353a2.794 2.794 0 0 0 2.794-2.794V2.794A2.794 2.794 0 0 0 25.567 0H3.214A2.794 2.794 0 0 0 .42 2.794v22.353a2.794 2.794 0 0 0 2.794 2.794zM6.01 5.588h16.764v16.765H6.01V5.588zM.42 58.676a2.794 2.794 0 0 0 2.794 2.795h22.353a2.794 2.794 0 0 0 2.794-2.795V36.324a2.794 2.794 0 0 0-2.794-2.795H3.214A2.794 2.794 0 0 0 .42 36.324v22.352zM6.01 39.118h16.764v3.612l-6.985 6.985-4.6-4.6a1.398 1.398 0 0 0-1.976 1.976l5.588 5.588a1.393 1.393 0 0 0 1.976 0l5.997-5.997v9.2H6.01V39.118zM.42 92.206A2.794 2.794 0 0 0 3.214 95h22.353a2.794 2.794 0 0 0 2.794-2.794V69.853a2.794 2.794 0 0 0-2.794-2.794H3.214A2.794 2.794 0 0 0 .42 69.853v22.353zM6.01 72.647h16.764v16.765H6.01V72.647z"/></g></svg>