<svg width="142" height="95" viewBox="0 0 142 95" xmlns="http://www.w3.org/2000/svg"><title>Shape</title><path d="M35.703 69.837c0-1.187.974-2.158 2.161-2.158h49.574c1.188 0 2.159.97 2.159 2.158v5.133c0 1.187-.971 2.158-2.159 2.158H37.862c-1.185 0-2.161-.97-2.161-2.158v-5.133h.002zm74.148-.773c-7.164 0-12.966 5.814-12.968 12.966 0 7.161 5.804 12.97 12.968 12.97 7.161 0 12.965-5.809 12.965-12.97 0-7.152-5.804-12.966-12.965-12.966zm-91.57 0c-7.16 0-12.965 5.814-12.965 12.966C5.316 89.19 11.12 95 18.282 95c7.161 0 12.965-5.809 12.965-12.97 0-7.152-5.804-12.966-12.965-12.966zm123.11-18.47v28.634a2.167 2.167 0 0 1-2.162 2.163h-6.711c-1.185 0-2.576-.759-2.995-1.993-.761-2.25-2.293-16.814-18.412-16.814H97.243a2.17 2.17 0 0 1-2.163-2.163V17.919c0-1.19.976-2.161 2.163-2.161h22.731c1.188 0 2.656.839 3.26 1.864l17.056 28.952c.608 1.023 1.1 2.832 1.1 4.02zm-12.976-11.25l-9.228-15.722c-.808-1.367-1.287-1.904-2.333-1.904h-12.97a1.892 1.892 0 0 0-1.892 1.892v16.585c0 1.046.846 1.894 1.892 1.894h23.14c1.478 0 2.367-1.086 1.391-2.745zM89.597 2.161v58.347c0 1.192-.971 2.158-2.159 2.158H2.161C.97 62.666 0 61.7 0 60.508V2.16C0 .973.97 0 2.16 0h85.278c1.185 0 2.159.973 2.159 2.16zm-25.18 29.173c0-10.835-8.787-19.617-19.62-19.617-10.837 0-19.618 8.785-19.618 19.617 0 10.836 8.783 19.618 19.618 19.618 10.833 0 19.62-8.782 19.62-19.618zm-3.798 0c0 8.738-7.084 15.824-15.82 15.824-8.74 0-15.823-7.083-15.823-15.824 0-8.738 7.083-15.821 15.823-15.821 8.736 0 15.82 7.083 15.82 15.821zm-7.18 3.688l-6.896-4.64.021-8.615a1.768 1.768 0 0 0-1.762-1.772h-.005c-.975 0-1.765.787-1.767 1.763l-.024 9.558c0 .589.292 1.14.78 1.47l7.678 5.165a1.763 1.763 0 0 0 2.453-.478 1.767 1.767 0 0 0-.479-2.45z" fill="#FFF" fill-rule="evenodd"/></svg>