<svg width="100" height="95" viewBox="0 0 100 95" xmlns="http://www.w3.org/2000/svg"><title>Group</title><g fill="#FFF" fill-rule="evenodd"><path d="M80.02 17.122l-4.08 2.32c-.993.552-2.427.22-2.978-.773L64.027 2.872c-.772-1.215-2.316-2.43-4.191-2.43H44.504s-.11 0 0 .11c.772 1.436 14.78 25.96 14.78 25.96.331.552.331 1.104.22 1.657-.11.552-.55.994-.992 1.325l-3.97 2.32c-.221.11-.111.22 0 .22l19.964 5.414c.11 0 .22 0 .33-.11l5.406-20.105c0-.11-.11-.221-.221-.11zM38.658 1.215c-.552 0-1.213.221-1.765 1.215l-.772 1.215-11.913 20.547s-.11.11-.11.22c0 .111 0 .111.11.222.11 0 13.126 7.622 13.126 7.732.11.11.22.11.331.11.11 0 .11 0 .22-.11 0-.11 9.707-16.79 9.707-16.79s.11-.11.11-.221c0-.11-.11-.221-.11-.221L40.754 2.983c-.331-.774-.883-1.768-2.096-1.768zM5.347 42.86l3.97 2.32c.993.553 1.324 1.989.773 2.983L1.045 63.959c-.772 1.215-.993 3.314 0 4.86 0 0 7.721 13.257 7.721 13.367h.11c.883-1.546 15.112-25.96 15.112-25.96.33-.552.772-.883 1.323-.993.552-.11 1.103-.11 1.655.22l3.97 2.32c.221.11.221 0 .221-.11l-5.404-20.105c0-.11-.11-.22-.221-.22L5.347 42.75c-.11 0-.11.11 0 .11zM12.296 86.715c.33.552.772.994 2.096 1.105H39.54c.22 0 .22-.11.22-.221V72.244c0-.22-.11-.331-.22-.331H20.127c-.22 0-.33 0-.44.22l-6.95 11.82c-.441.774-1.103 1.768-.441 2.762zM65.02 94.558v-4.64c0-1.215.993-2.209 2.096-2.209h18.2c1.433 0 3.308-.773 4.19-2.32 0 0 7.722-13.255 7.722-13.366v-.11H67.447a2.66 2.66 0 0 1-1.876-.773 2.183 2.183 0 0 1-.661-1.547v-4.529c0-.221-.11-.221-.221-.11l-14.56 14.58c-.11.111-.11.222 0 .332L64.8 94.558c.11.11.22.11.22 0zM99.434 66.61c.33-.552.441-1.104-.22-2.209l-.662-1.215S86.749 42.64 86.749 42.529c0-.11 0-.11-.11-.22h-.22c-.11 0-13.126 7.51-13.237 7.621-.11.11-.22.11-.22.221v.221c0 .11 9.486 16.57 9.596 16.79.11.222.22.332.662.332h13.567c.882.11 1.985.11 2.647-.884z"/></g></svg>