<svg id="Capa_1" xmlns="http://www.w3.org/2000/svg" viewBox="0 0 98 145"><style>.st0{opacity:.15}.st1{enable-background:new}.st2{fill:#fff}</style><title>2</title><g id="obsocial-02-04-16" class="st0"><g id="Donar---S2" transform="translate(-845 -1105)"><path class="st1 st2" d="M104 298H10.2v-14l37.6-37.8c11.5-11.6 19-19.9 22.7-24.8 3.6-4.9 6.4-9.8 8.2-14.5 1.8-4.7 2.7-9.7 2.7-15.1 0-7.6-2.3-13.7-6.9-18.1-4.6-4.5-11-6.7-19.2-6.7-5.9 0-11.5 1-16.8 2.9-5.3 2-11.2 5.5-17.7 10.6l-8.6-11c13.1-10.9 27.5-16.4 43-16.4 13.4 0 23.9 3.4 31.5 10.3 7.6 6.9 11.4 16.1 11.4 27.7 0 9-2.5 18-7.6 26.9-5.1 8.9-14.6 20.1-28.5 33.6l-31.2 30.6v.8H104v15z" transform="translate(837 952)" id="Group-11"/></g></g></svg>