<svg id="Capa_1" xmlns="http://www.w3.org/2000/svg" viewBox="0 0 97 147"><style>.st0{opacity:.15}.st1{enable-background:new}.st2{fill:#fff}</style><title>3</title><g id="obsocial-02-04-16" class="st0"><g id="Donar---S2"><path class="st1 st2" d="M98.7 188.8c0 9.1-2.6 16.6-7.7 22.4-5.1 5.8-12.4 9.7-21.7 11.6v.8c11.5 1.4 20 5.1 25.5 10.9 5.5 5.9 8.3 13.5 8.3 23 0 13.6-4.7 24.1-14.2 31.4-9.4 7.3-22.9 11-40.2 11-7.6 0-14.5-.6-20.8-1.7-6.3-1.1-12.4-3.1-18.3-6v-15.4c6.2 3.1 12.8 5.4 19.8 7 7 1.6 13.6 2.4 19.9 2.4 24.7 0 37-9.7 37-29 0-17.3-13.6-26-40.8-26H31.4v-14h14.3c11.1 0 20-2.5 26.5-7.4s9.8-11.7 9.8-20.5c0-7-2.4-12.4-7.2-16.4-4.8-4-11.3-6-19.5-6-6.2 0-12.1.8-17.7 2.5-5.5 1.7-11.9 4.8-18.9 9.4L10.4 168c5.9-4.6 12.6-8.3 20.3-10.9 7.6-2.6 15.7-4 24.2-4 13.9 0 24.6 3.2 32.3 9.5 7.6 6.4 11.5 15.2 11.5 26.2z" transform="translate(-8 -153)" id="Group-14"/></g></g></svg>