<svg width="78" height="93" viewBox="0 0 78 93" xmlns="http://www.w3.org/2000/svg"><title>Group</title><g fill="#FFF" fill-rule="evenodd"><path d="M70.62 0H19.408a6.621 6.621 0 0 0-6.613 6.612v4.223H6.776a6.62 6.62 0 0 0-6.612 6.613v68.655a6.62 6.62 0 0 0 6.612 6.612H57.99a6.62 6.62 0 0 0 6.612-6.612V81.88h6.018a6.62 6.62 0 0 0 6.612-6.612V6.612A6.62 6.62 0 0 0 70.62 0zM59.312 86.103c0 .728-.594 1.322-1.322 1.322H6.776a1.326 1.326 0 0 1-1.323-1.322V17.448c0-.73.595-1.323 1.323-1.323h6.02v59.142a6.621 6.621 0 0 0 6.612 6.613h39.904v4.223zm12.63-10.835c0 .728-.593 1.322-1.322 1.322H19.408c-.73 0-1.323-.594-1.323-1.322V6.612c0-.728.593-1.322 1.323-1.322h51.211c.73 0 1.323.594 1.323 1.322v68.656z"/><path d="M64.41 16.427H25.617a2.646 2.646 0 0 0 0 5.29h38.79a2.644 2.644 0 1 0 .001-5.29zM64.41 29.016H25.617a2.645 2.645 0 0 0 0 5.29h38.79a2.644 2.644 0 1 0 .001-5.29zM64.41 41.605H25.617a2.646 2.646 0 0 0 0 5.29h38.79a2.644 2.644 0 1 0 .001-5.29zM64.41 54.194H25.617a2.646 2.646 0 0 0 0 5.29h38.79a2.644 2.644 0 1 0 .001-5.29z"/></g></svg>