<svg width="60" height="90" viewBox="0 0 60 90" xmlns="http://www.w3.org/2000/svg"><title>info-dos</title><path d="M58.3 18.9C54.3 7.4 42.8 0 30.2 0c-1.2 0-2.3.1-3.5.2A30.62 30.62 0 0 0 6.8 10c-8.6 9.4-8.6 23.3-2.5 33.2 1.9 3.2 4.2 6.1 6.4 9.1A22.36 22.36 0 0 1 15 65.1c0 2 1.9 3.7 4.3 3.7 1.3 0 18 .1 20.7.1h.3c2.8 0 4.6-1.7 4.6-4.2 0-.6.1-1.2.1-1.8a23.37 23.37 0 0 1 4.9-11.7c1.7-2.3 3.5-4.5 5-7 5.2-8 6.5-16.5 3.4-25.3zm-9.1 21.6a42.92 42.92 0 0 1-3.4 4.8l-1.4 1.9c-3.7 5.1-5.7 9.8-6.2 14.8H21.8a28.68 28.68 0 0 0-5.5-13.6 35.53 35.53 0 0 0-2.3-3.1 64.24 64.24 0 0 1-3.9-5.7c-4-6.6-5.2-17.2 1.7-24.9A23.62 23.62 0 0 1 27.4 7a22.82 22.82 0 0 1 2.7-.2c9.8 0 18.7 5.9 21.7 14.2 2.4 6.8 1.6 13.2-2.6 19.5zm-7.8 33H18.7a3 3 0 1 0 0 5.9h22.7a3 3 0 1 0 0-5.9zM31.2 89.9a12.85 12.85 0 0 0 9.5-5.8H19.4c2.2 3.3 7.1 6.4 11.8 5.8z" fill="#FFF" fill-rule="evenodd"/></svg>