<svg width="210" height="54" viewBox="0 0 210 54" xmlns="http://www.w3.org/2000/svg" xmlns:xlink="http://www.w3.org/1999/xlink"><title>logo copy</title><defs><path id="a" d="M0 .086h209.697V54H0"/><path id="c" d="M0 .086h209.697V54H0l107.953-17.543 2.862-25.125.573-5.033s53.075.072 2.256-2.763"/></defs><g fill="none" fill-rule="evenodd"><path d="M7.768 32.32a8.011 8.011 0 0 0 2.848 1.637 9.974 9.974 0 0 0 3.118.52c1.021 0 2.06-.173 3.117-.52a8.522 8.522 0 0 0 2.876-1.61c1.936-1.697 2.903-4.156 2.903-7.377 0-3.117-.967-5.54-2.903-7.273-1.612-1.42-3.6-2.13-5.966-2.13-3.87 0-6.558 1.68-8.063 5.04-.538 1.212-.806 2.674-.806 4.389 0 1.714.268 3.178.806 4.39.537 1.212 1.227 2.191 2.07 2.935m5.993-21.065c4.156 0 7.49 1.264 9.998 3.792 2.508 2.563 3.762 5.888 3.762 9.974 0 4.087-1.254 7.412-3.762 9.974-2.509 2.529-5.842 3.792-9.998 3.792-4.192 0-7.526-1.263-9.998-3.792C1.255 32.469 0 29.144 0 25.022c0-4.121 1.255-7.446 3.763-9.974 2.472-2.528 5.806-3.792 9.998-3.792M39.238 30.477c2.437 2.597 5.268 3.896 8.494 3.896 4.084 0 6.807-1.767 8.17-5.3.43-1.176.645-2.527.645-4.051 0-2.978-.825-5.316-2.472-7.013-1.578-1.559-3.693-2.338-6.343-2.338-3.226 0-6.057 1.298-8.494 3.896v10.91zm0-15.274c2.652-2.63 5.715-3.948 9.192-3.948 3.475 0 6.45 1.195 8.923 3.585 2.723 2.632 4.086 6.026 4.086 10.182 0 4.226-1.363 7.636-4.086 10.234-2.509 2.355-5.492 3.532-8.95 3.532-3.458 0-6.513-1.315-9.165-3.948v1.35a2.22 2.22 0 0 1-.699 1.663c-.466.45-1.047.676-1.747.676-.699 0-1.281-.226-1.746-.676a2.22 2.22 0 0 1-.699-1.662V2.476c0-.692.233-1.264.699-1.715.465-.449 1.047-.675 1.746-.675.7 0 1.281.226 1.747.675.466.45.699 1.023.699 1.715v12.727zM76.972 34.425c3.978 0 5.967-1.23 5.967-3.689 0-.761-.395-1.342-1.183-1.74-.788-.398-1.783-.753-2.983-1.065-1.2-.312-2.5-.632-3.897-.96a18.306 18.306 0 0 1-3.897-1.378c-1.2-.588-2.195-1.359-2.983-2.312-.789-.952-1.183-2.12-1.183-3.506 0-1.385.214-2.58.646-3.585a6.956 6.956 0 0 1 1.934-2.597c1.899-1.559 4.533-2.338 7.902-2.338 2.687 0 5.285.433 7.793 1.3.502.173.888.45 1.157.83.268.382.402.806.402 1.273 0 .467-.206.91-.617 1.324-.413.416-.816.624-1.21.624-.395 0-.879-.086-1.451-.26-1.72-.52-3.602-.779-5.644-.779-2.043 0-3.594.347-4.65 1.039-1.057.693-1.586 1.524-1.586 2.493 0 .97.404 1.69 1.21 2.157.806.467 1.801.857 2.983 1.168 1.183.312 2.481.623 3.897.935 1.415.312 2.715.745 3.897 1.3 2.795 1.385 4.194 3.532 4.194 6.441 0 2.216-.862 4.018-2.582 5.402-1.863 1.525-4.461 2.286-7.793 2.286-3.62 0-6.88-.779-9.783-2.338-.61-.415-.914-.935-.914-1.558s.197-1.15.59-1.585c.396-.432.825-.649 1.292-.649.465 0 1.021.14 1.666.416 2.077.9 4.354 1.35 6.826 1.35" fill="#FFF"/><path d="M101.592 31.133a9.48 9.48 0 0 0 3.371 1.937c1.252.41 2.483.615 3.692.615 1.208 0 2.437-.204 3.688-.615a10.081 10.081 0 0 0 3.404-1.906c2.292-2.008 3.436-4.919 3.436-8.73 0-3.69-1.144-6.558-3.436-8.608-1.908-1.68-4.262-2.521-7.062-2.521-4.58 0-7.761 1.988-9.542 5.964-.637 1.435-.955 3.166-.955 5.195 0 2.029.318 3.761.955 5.195.636 1.436 1.452 2.594 2.45 3.474m7.092-24.932c4.92 0 8.865 1.497 11.834 4.489 2.969 3.033 4.452 6.968 4.452 11.805s-1.483 8.772-4.452 11.805c-2.969 2.993-6.914 4.488-11.834 4.488-4.961 0-8.906-1.495-11.832-4.488-2.97-2.992-4.454-6.927-4.454-11.805s1.485-8.813 4.454-11.805c2.926-2.992 6.87-4.489 11.832-4.489" fill="#F5F6F7"/><path d="M144.928 34.373c2.006 0 3.923-.485 5.75-1.455.646-.345 1.219-.52 1.721-.52s.949.227 1.344.676c.393.45.59.987.59 1.61 0 .624-.411 1.195-1.235 1.714-2.545 1.594-5.412 2.39-8.6 2.39-3.978 0-7.329-1.211-10.053-3.636-2.866-2.563-4.3-5.939-4.3-10.13 0-4.19 1.434-7.567 4.3-10.13 2.724-2.424 6.075-3.637 10.053-3.637 2.15 0 3.914.27 5.294.805 1.379.538 2.481 1.065 3.306 1.585.824.52 1.236 1.091 1.236 1.714 0 .624-.198 1.161-.591 1.61-.395.451-.789.676-1.182.676-.61 0-1.237-.173-1.883-.52-1.827-.968-3.744-1.454-5.75-1.454-3.155 0-5.59.857-7.312 2.571-1.72 1.714-2.58 3.974-2.58 6.78 0 2.805.86 5.065 2.58 6.78 1.721 1.714 4.157 2.57 7.312 2.57M161.644 12.19c.465-.45 1.048-.675 1.747-.675.7 0 1.28.225 1.746.675.466.451.7 1.022.7 1.714v22.287a2.22 2.22 0 0 1-.7 1.662c-.466.45-1.047.676-1.746.676-.7 0-1.282-.226-1.747-.676a2.218 2.218 0 0 1-.699-1.662V13.904c0-.692.233-1.263.7-1.714zm4.676-8.468c0 .728-.269 1.351-.806 1.87-.538.52-1.183.78-1.936.78h-.321c-.753 0-1.398-.26-1.936-.78-.537-.519-.805-1.142-.805-1.87v-.207c0-.728.268-1.35.805-1.87a2.687 2.687 0 0 1 1.936-.78h.321c.753 0 1.398.26 1.936.78.537.52.806 1.142.806 1.87v.207zM177.232 30.477c0 2.77 1.898 4.155 5.698 4.155a9.617 9.617 0 0 0 4.703-1.194c1.451-.796 2.642-1.697 3.575-2.702v-4.364h-5.86c-2.545 0-4.533.312-5.966.936-1.434.623-2.15 1.68-2.15 3.169m-1.666-17.352a24.215 24.215 0 0 1 9.352-1.87c3.656 0 6.485 1.074 8.493 3.221 1.792 1.87 2.688 4.208 2.688 7.013v14.702c0 .658-.243 1.212-.726 1.662a2.478 2.478 0 0 1-1.747.676c-.681 0-1.254-.226-1.72-.676a2.219 2.219 0 0 1-.698-1.662v-1.35c-.968.97-2.268 1.87-3.898 2.7-1.63.832-3.7 1.247-6.207 1.247-2.474 0-4.535-.692-6.182-2.077-1.72-1.455-2.581-3.36-2.581-5.715 0-2.562 1.004-4.572 3.01-6.026 2.186-1.593 5.304-2.39 9.353-2.39h6.505v-.415c0-2.32-.592-3.974-1.774-4.961-1.183-.988-2.992-1.481-5.429-1.481-2.079 0-4.462.415-7.15 1.246-.287.07-.609.104-.967.104s-.734-.182-1.128-.545c-.395-.364-.592-.926-.592-1.688 0-.762.465-1.333 1.398-1.715" fill="#FFF"/><g><mask id="b" fill="#fff"><use xlink:href="#a"/></mask><path d="M205.505.761c.465-.45 1.048-.675 1.747-.675.7 0 1.28.226 1.746.675.466.45.7 1.023.7 1.715V36.19a2.22 2.22 0 0 1-.7 1.662c-.466.45-1.047.676-1.746.676-.7 0-1.282-.226-1.747-.676a2.217 2.217 0 0 1-.698-1.662V2.476c0-.692.232-1.264.698-1.715" fill="#FFF" mask="url(#b)"/></g><path d="M117.254 37.33l-16.352 4.434a.805.805 0 0 1-.988-.536l-.668-2.299a.772.772 0 0 1 .555-.955l16.353-4.435a.805.805 0 0 1 .988.537l.668 2.299a.772.772 0 0 1-.556.955M117.254 43.557l-16.352 4.434a.805.805 0 0 1-.988-.537l-.668-2.298a.771.771 0 0 1 .555-.955l16.353-4.435a.805.805 0 0 1 .988.537l.668 2.299a.772.772 0 0 1-.556.955" fill="#F5F6F7"/><g><mask id="d" fill="#fff"><use xlink:href="#c"/></mask><path d="M100.902 53.971a.805.805 0 0 1-.988-.537l-.668-2.298a.771.771 0 0 1 .555-.956l16.353-4.434a.805.805 0 0 1 .988.536l.668 2.3a.772.772 0 0 1-.556.954l-16.352 4.435z" fill="#F5F6F7" mask="url(#d)"/></g><path d="M101.98 24.038s1.057-3.987 2.214-3.934c1.287.06.73 4.601 2.02 4.585 1.112-.015.525-3.937 1.636-3.999.537-.03.8.823 1.042 1.749.284 1.091.537 2.283 1.17 2.25 1.089-.058.548-3.958 1.637-3.906.85.04.138 2.95.962 3.162.929.238 2.02-3.162 2.02-3.162" stroke="#FFF"/></g></svg>