<svg id="Capa_1" xmlns="http://www.w3.org/2000/svg" viewBox="0 0 95.6 95.6"><style>.st0{fill:#00bd9c}</style><path class="st0" d="M49.6 50.3c0 .6.1 1.1.2 1.4s.4.5.7.7c.3.2.7.3 1.2.3h1.2v-1.4c-.5 0-1.2-.1-1.4-.2-.2-.2-.3-.5-.3-.9v-3.4h1.5v-1.2h-1.5v-2h-1.6v2h-1.1v1.2h1c.1-.1.1 3.5.1 3.5zM31 44.1l2.9 8.4h1l2.9-8.4v8.4h1.9v-9.6h-3l-2.1 6.2-2.2-6.2h-3v9.6H31zM62.5 52.6c1.1 0 1.9-.3 2.6-1 .7-.7 1-1.6 1-2.7s-.3-2-1-2.6-1.5-1-2.5-1c-1.1 0-2 .3-2.6 1-.7.7-1 1.6-1 2.6s.3 1.8.9 2.6c.6.7 1.5 1.1 2.6 1.1zm-1.2-5.4c.3-.4.7-.6 1.3-.6.6 0 1 .2 1.3.6.3.4.4 1 .4 1.7 0 1.6-.6 2.4-1.7 2.4-.5 0-1-.2-1.3-.6-.3-.4-.5-1-.5-1.8.1-.7.2-1.2.5-1.7zM44.3 52.6c.9 0 1.6-.2 2.2-.6.6-.4 1-.9 1.2-1.6l-1.6-.2c-.3.8-.9 1.1-1.7 1.1-.4 0-.8-.1-1.1-.3s-.5-.5-.6-.8c-.1-.3-.1-.7-.1-1.2h5.3v-.2c0-1.1-.3-2-.9-2.6s-1.4-1-2.5-1-2 .3-2.7 1c-.7.7-1 1.6-1 2.6 0 1.1.3 2 1 2.7.5.8 1.4 1.1 2.5 1.1zm-1.2-5.8c.3-.3.7-.5 1.2-.5s.9.2 1.2.5c.3.3.5.7.5 1.2h-3.5c.1-.4.3-.9.6-1.2zM56.1 49.2c0-.5.1-1 .4-1.5.3-.5.9-.8 1.8-.8v-1.7h-.2c-.4 0-.8.2-1.2.5s-.7.8-.9 1.4v-1.7h-1.6v7h1.7v-3.2z"/><path class="st0" d="M47.8 18.5L0 47.8 47.8 77l47.8-29.2-47.8-29.3zm0 12.7l11.7 7.2H36.1l11.7-7.2zM24.9 50.4l-4.2-2.6 4.2-2.6v5.2zm22.9 13.9l-11.7-7.2h23.4l-11.7 7.2zm21.9-8.1H25.9V39.3h43.8v16.9zm.9-11l4.2 2.6-4.2 2.6v-5.2z"/></svg>