<svg width="20" height="20" viewBox="0 0 20 20" xmlns="http://www.w3.org/2000/svg"><title>Shape</title><path d="M19.601 10.238L10.221.79l-.068-.067h-.017C9.765.371 9.336.188 8.8.174L4.349.01 4.152 0c-.5.009-.99.2-1.37.585L.585 2.777A2.044 2.044 0 0 0 0 4.237v.005l.013.187.3 4.345v.094c.044.388.2.772.464 1.089l.245.241 9.212 9.323.138.139c.532.468 1.34.446 1.844-.063l7.385-7.439a1.356 1.356 0 0 0 0-1.92zM5.001 7.14a2.144 2.144 0 1 1 0-4.288 2.144 2.144 0 0 1 0 4.288z" fill="#2EB197" fill-rule="evenodd"/></svg>