<svg id="Capa_1" xmlns="http://www.w3.org/2000/svg" viewBox="0 0 116 140"><style>.st0{fill:#fff}</style><title>Shape</title><g id="obsocial-31-03-16"><g id="Nuestro-Proyecto---S2"><path id="Shape" class="st0" d="M371.5 818.6l-6-1.4c-.7-1.6-2.1-3-3.9-3.4l-6.7-1.6c-3.1-.7-6.2 1.2-6.9 4.2-.7 3.1 1.2 6.2 4.2 6.9l6.7 1.6c.5.1.9.2 1.4.2 1.4 0 2.7-.5 3.7-1.4l3.4.8c-.6 15.7-6.8 30-16.9 38.7-2.7 2.3-5.2 3.9-7.5 4.8-.1 0-.1.1-.2.1-6.6 3.3-13 .3-13 .3-1.7-.7-3.7-1.7-5.8-3.2v-16.7c0-5.7-4.6-10.3-10.3-10.3h-7.1c-1.2-4.4-1.9-9-2.1-13.7l3.4-.8c1 .9 2.3 1.4 3.7 1.4.4 0 .9-.1 1.3-.2l6.7-1.6c3.1-.7 5-3.9 4.2-6.9-.7-3.1-3.8-5-6.9-4.2l-6.7 1.6c-1.9.4-3.3 1.8-3.9 3.4l-6 1.4c-1.5.4-2.6 1.7-2.6 3.3 0 6.1.7 11.5 1.8 16.3h-30.4c-5.7 0-10.3 4.6-10.3 10.3v93.1c0 5.7 4.6 10.3 10.3 10.3h44.5c5.7 0 10.3-4.6 10.3-10.3V923h-8.4v5.7c0 2.1-1.7 3.8-3.8 3.8H271c-2.1 0-3.8-1.7-3.8-3.8V851c0-2.1 1.7-3.8 3.8-3.8h40.7c2.1 0 3.8 1.7 3.8 3.8v59h8.4v-36.8c2.9 1.6 5.8 2.5 8.5 2.8v30.2c0 3.8-3.1 7-7 7h-25.9c-1.5 0-4.9-.5-4.9-4.9v-4.9c6.9-1.5 12.1-7.7 12.1-15.1 0-8.6-6.9-15.5-15.5-15.5-8.5 0-15.5 6.9-15.5 15.5 0 7.4 5.2 13.6 12.1 15.1v4.9c0 4.3 1.7 6.9 3.2 8.3 3.2 3.1 7.5 3.3 8.3 3.3h26c7.5 0 13.7-6.1 13.7-13.7V876c4.9-.5 10.3-3.2 15.5-7.7 5.8-5 19.3-19.6 19.3-46.4.3-1.5-.8-2.9-2.3-3.3zm-79.9 119.7c2.5 0 4.5 2 4.5 4.6 0 2.5-2 4.6-4.5 4.6s-4.5-2-4.5-4.6c-.1-2.6 2-4.6 4.5-4.6zm-6.8-50.1c0-3.8 3-6.8 6.8-6.8s6.8 3.1 6.8 6.8c0 3.8-3 6.8-6.8 6.8-3.8.1-6.8-3-6.8-6.8z" transform="translate(-259 -812)"/></g></g></svg>