<svg width="116" height="140" viewBox="0 0 116 140" xmlns="http://www.w3.org/2000/svg"><title>Shape</title><path d="M112.543 6.642l-6.017-1.445c-.674-1.645-2.089-2.962-3.947-3.41L95.865.162a5.742 5.742 0 0 0-6.923 4.24c-.743 3.086 1.15 6.192 4.232 6.937l6.712 1.624c.452.107.905.16 1.352.16 1.39 0 2.704-.523 3.725-1.407l3.403.818c-.629 15.675-6.848 30.003-16.903 38.715-2.691 2.33-5.215 3.854-7.457 4.815-.056.03-.093.058-.152.088-6.585 3.263-12.96.286-12.96.286l.002-.01c-1.741-.652-3.69-1.688-5.766-3.17V36.56c0-5.713-4.624-10.345-10.325-10.345H47.73a62.973 62.973 0 0 1-2.069-13.683l3.4-.816a5.72 5.72 0 0 0 3.728 1.405c.445 0 .897-.053 1.349-.16l6.712-1.624a5.751 5.751 0 0 0 4.233-6.937A5.737 5.737 0 0 0 58.16.161l-6.713 1.624c-1.86.448-3.271 1.765-3.948 3.41L41.48 6.64a3.352 3.352 0 0 0-2.567 3.262c0 6.059.699 11.477 1.83 16.314h-30.42C4.623 26.216 0 30.848 0 36.561v93.093C0 135.368 4.622 140 10.323 140h44.48c5.702 0 10.325-4.632 10.325-10.346v-18.577h-8.413v5.741a3.781 3.781 0 0 1-3.778 3.785h-40.74a3.78 3.78 0 0 1-3.78-3.785V38.982a3.782 3.782 0 0 1 3.78-3.787h40.74a3.783 3.783 0 0 1 3.778 3.787v58.994h8.413V61.157c2.928 1.57 5.824 2.534 8.538 2.83V94.19c0 3.85-3.126 6.982-6.965 6.982H40.788c-1.466 0-4.875-.485-4.875-4.92v-4.883c6.93-1.536 12.117-7.722 12.117-15.128 0-8.564-6.924-15.498-15.463-15.498-8.543 0-15.467 6.934-15.467 15.498 0 7.406 5.188 13.592 12.119 15.128v4.883c0 4.296 1.734 6.904 3.189 8.333 3.19 3.136 7.52 3.293 8.317 3.293h25.976c7.531 0 13.66-6.138 13.66-13.688V63.987c4.868-.533 10.316-3.194 15.477-7.662 5.796-5.02 19.273-19.589 19.273-46.42a3.357 3.357 0 0 0-2.568-3.263zM32.567 126.269a4.547 4.547 0 0 1 4.54 4.551 4.545 4.545 0 0 1-4.54 4.551 4.545 4.545 0 0 1-4.543-4.55 4.547 4.547 0 0 1 4.543-4.552zm-6.804-50.026c0-3.766 3.047-6.818 6.805-6.818 3.757 0 6.802 3.052 6.802 6.818 0 3.764-3.047 6.817-6.802 6.817-3.758 0-6.805-3.053-6.805-6.817z" fill="#2B3E50" fill-rule="evenodd"/></svg>