<svg width="124" height="140" viewBox="0 0 124 140" xmlns="http://www.w3.org/2000/svg"><title>Group</title><g fill="#2B3E50" fill-rule="evenodd"><path d="M107.482 92.968c-.28.237-4.525 3.684-5.469 4.499a47.367 47.367 0 0 1-6.996 5.017c1.51-.27 2.968-.553 4.386-.84 6.343-1.287 11.56-3.847 15.948-7.83 1.418-1.286 3.092-1.966 4.842-1.966.871 0 1.707.18 2.46.5.369-.18.625-.539.564-1.099-.584-5.385-6.001-4.68-9.62-2.675-2.278.974-4.325 2.882-6.115 4.394zM27.088 54.798a45.424 45.424 0 0 0 1.847 6.335 45.387 45.387 0 0 0 2.21 4.989 45.583 45.583 0 0 0 6.084 8.966 45.57 45.57 0 0 0 1.842 1.99c.13.134.26.267.392.4 1.468-.464 3.066-.971 4.693-1.488 7.78-2.47 15.824-5.022 18.12-5.497a16.675 16.675 0 0 1 3.382-.351c4.887 0 8.857 2.29 9.44 5.449.452 2.45-1.19 4.65-4.393 5.884-2.865 1.105-4.477 1.92-5.898 2.639-1.725.872-3.088 1.56-5.626 2.216-.476.123-1.208.274-2.135.464l-1.138.235c6.34.678 12.142 1.01 17.556 1.01 5.744 0 10.703-.379 15.156-.947.099-.042.201-.079.3-.12.034-.016.07-.029.104-.044a42.224 42.224 0 0 0 1.617-.74c.084-.041.167-.079.25-.12a44.482 44.482 0 0 0 1.51-.772c.101-.055.202-.11.305-.164.486-.264.968-.54 1.444-.82l.312-.188c.475-.286.945-.581 1.41-.885.093-.06.183-.123.275-.183.474-.316.945-.638 1.407-.972l.184-.137a44.3 44.3 0 0 0 1.336-1.011c.05-.04.103-.078.152-.119a45.023 45.023 0 0 0 1.57-1.306c.42-.366.833-.74 1.239-1.12l.267-.252c.398-.38.792-.767 1.176-1.162l.254-.263c.386-.403.767-.81 1.14-1.228.07-.077.137-.157.207-.236a46.28 46.28 0 0 0 1.129-1.328l.114-.145c.358-.443.707-.893 1.048-1.35l.127-.168c.346-.469.68-.945 1.01-1.427.058-.087.119-.172.176-.26.316-.47.623-.95.922-1.435l.181-.296c.295-.487.582-.978.86-1.478.053-.096.105-.193.159-.289.279-.51.55-1.027.81-1.55.04-.077.076-.156.115-.234.27-.55.53-1.105.778-1.668l.036-.082c.245-.56.479-1.128.702-1.702a45.09 45.09 0 0 0 .691-1.9c.031-.093.064-.184.093-.276.188-.566.365-1.139.532-1.716l.088-.308a46.07 46.07 0 0 0 .456-1.753l.067-.29c.14-.605.27-1.214.386-1.829l.037-.207a44.65 44.65 0 0 0 .586-4.279 44.436 44.436 0 0 0 .175-3.447 45.108 45.108 0 0 0-2.841-16.375 45.446 45.446 0 0 0-4.988-9.656 45.454 45.454 0 0 0-9.612-10.279 45.39 45.39 0 0 0-4.51-3.102 44.805 44.805 0 0 0-13.482-5.363 45.271 45.271 0 0 0-3.42-.616 45.32 45.32 0 0 0-2.949-.314c-.113-.008-.228-.02-.341-.027a43.27 43.27 0 0 0-1.41-.075l-.27-.007c-.382-.01-.766-.017-1.15-.019h-.363c-.6.002-1.198.016-1.795.042l-.291.014c-.606.03-1.21.07-1.812.126l-.208.02c-.63.06-1.257.13-1.882.216l-.021.004c-.619.085-1.234.186-1.845.298-.068.013-.138.024-.206.036-.583.109-1.163.232-1.74.362l-.29.067c-.562.133-1.12.276-1.673.43l-.315.088c-.551.157-1.099.324-1.641.501-.096.031-.192.064-.29.097-.553.185-1.104.378-1.648.583l-.204.08a46.311 46.311 0 0 0-1.73.7c-.546.236-1.085.485-1.62.741l-.246.117c-.509.247-1.012.507-1.511.773l-.306.163c-.486.265-.968.54-1.446.822-.104.06-.206.123-.308.185-.476.288-.947.582-1.412.887-.092.059-.182.12-.273.18-.476.316-.946.64-1.41.974l-.184.137c-.45.328-.895.665-1.336 1.01l-.152.119c-.45.358-.892.726-1.33 1.101l-.24.206c-.42.365-.832.74-1.238 1.12-.089.082-.177.166-.265.249-.4.38-.792.768-1.178 1.163a47.46 47.46 0 0 0-1.393 1.49l-.207.235a46.28 46.28 0 0 0-1.128 1.329l-.115.144c-.358.444-.707.893-1.048 1.35-.042.057-.085.111-.127.169-.346.468-.68.944-1.009 1.426l-.177.258c-.316.472-.623.95-.922 1.436l-.181.296a46.31 46.31 0 0 0-1.019 1.768c-.279.51-.55 1.027-.809 1.55l-.114.234c-.27.55-.53 1.105-.778 1.668l-.036.084c-.245.56-.477 1.126-.7 1.699-.026.062-.05.123-.074.185a47.767 47.767 0 0 0-.618 1.714l-.095.277a44.893 44.893 0 0 0-.53 1.716l-.088.308a46.763 46.763 0 0 0-.456 1.751l-.066.291c-.14.604-.27 1.213-.386 1.828l-.038.21c-.119.647-.227 1.3-.32 1.958v.003a45.532 45.532 0 0 0-.442 6.904c.028 2.276.225 4.519.583 6.718.114.738.25 1.464.406 2.188z"/><path d="M123.81 80.346c-.002-.028-.007-.056-.011-.084a2.515 2.515 0 0 0-.063-.294 2.7 2.7 0 0 0-.088-.268l-.012-.028a3.134 3.134 0 0 0-.15-.31 2.52 2.52 0 0 0-.112-.183l-.044-.065a3.006 3.006 0 0 0-.173-.226c-.014-.015-.03-.03-.044-.048a3.248 3.248 0 0 0-.16-.168c-.02-.022-.044-.043-.067-.065a4.18 4.18 0 0 0-.177-.154l-.051-.042a3.397 3.397 0 0 0-.512-.333l-.084-.045a4.336 4.336 0 0 0-.257-.12c-.01-.003-.018-.008-.028-.012a4.833 4.833 0 0 0-.297-.108l-.089-.026a3.83 3.83 0 0 0-.238-.062l-.09-.02a4.438 4.438 0 0 0-.326-.055l-.042-.005a4.649 4.649 0 0 0-.398-.026 4.554 4.554 0 0 0-.432.012l-.183.017c-.076.01-.152.02-.228.033l-.188.034c-.077.016-.153.036-.23.056-.063.017-.126.033-.188.053a3.477 3.477 0 0 0-.234.081c-.062.023-.124.045-.186.07-.08.033-.16.07-.24.107-.061.028-.12.055-.18.086a5.07 5.07 0 0 0-.25.142c-.056.032-.111.063-.169.1-.091.058-.183.124-.274.189-.047.033-.093.062-.138.098a6.57 6.57 0 0 0-.406.337c-5.027 4.561-10.695 7.067-16.95 8.337l-.01.001a193.11 193.11 0 0 1-3.296.638l-.87.159-.566.1-.87.149c-.188.03-.377.063-.564.094a160.437 160.437 0 0 1-1.442.232c-.36.056-.724.11-1.088.164-.124.018-.246.037-.37.054-.489.07-.98.137-1.476.202-.115.016-.232.03-.349.044-.094.012-.189.023-.283.036-.289.035-.577.073-.868.107-.18.022-.361.04-.543.062l-.989.109a157.169 157.169 0 0 1-2.201.21c-.328.028-.66.054-.992.08l-.623.05c-.36.026-.725.049-1.093.072-.182.011-.364.025-.55.034-.522.032-1.05.058-1.585.083l-.092.005c-.366.015-.736.03-1.108.042-.203.007-.405.015-.61.021-.182.007-.368.01-.551.014a101.87 101.87 0 0 1-1.897.035c-.375.004-.754.007-1.136.007-.112 0-.222.003-.335.003-.186 0-.378-.001-.566-.003l-.601-.003c-.37-.003-.744-.008-1.121-.015l-.513-.008c-.55-.011-1.105-.025-1.668-.042l-.111-.005c-.527-.017-1.06-.037-1.599-.06-.19-.008-.384-.02-.576-.027-.392-.019-.788-.037-1.186-.059l-.676-.039c-.378-.022-.758-.045-1.14-.07l-.71-.047c-.396-.026-.795-.056-1.197-.087-.226-.017-.45-.032-.677-.051-.48-.037-.966-.08-1.454-.121-.154-.014-.304-.025-.457-.04-.645-.057-1.3-.119-1.961-.184l-.502-.052c-.5-.051-1.002-.102-1.512-.158l-.748-.084c-.442-.05-.887-.101-1.335-.154-.125-.016-.248-.028-.373-.044l-.438-.054c-.449-.055-.903-.112-1.36-.17a226.6 226.6 0 0 1-2.31-.306l-.71-.097c-.742-.104-1.492-.211-2.255-.323l-.006-.002c.758-.41 1.714-.79 2.763-1.139l.025-.007c.293-.097.592-.192.898-.282.47-.141.951-.275 1.437-.404a68.11 68.11 0 0 1 1.943-.484c.161-.037.321-.075.48-.11 2.38-.543 4.519-.934 5.402-1.163.94-.242 1.7-.488 2.383-.75.39-.152.755-.307 1.113-.47.178-.083.356-.166.533-.251.978-.473 1.976-1.013 3.387-1.67a61.07 61.07 0 0 1 3.876-1.637s.002 0 .003-.002c.206-.08.399-.162.583-.247.06-.028.116-.058.174-.086.12-.057.235-.116.345-.177.064-.036.123-.072.183-.107a5.17 5.17 0 0 0 .275-.171l.167-.117a5.9 5.9 0 0 0 .23-.174 3.712 3.712 0 0 0 .336-.303l.116-.119c.062-.067.115-.135.169-.204.028-.035.057-.07.082-.105.065-.094.123-.187.174-.282l.02-.034c.054-.106.097-.212.135-.32.012-.035.018-.07.03-.106.02-.072.04-.144.052-.217.008-.043.01-.085.015-.129a2.082 2.082 0 0 0 .011-.331 2.614 2.614 0 0 0-.04-.325 2.127 2.127 0 0 0-.048-.19c-.013-.044-.025-.089-.04-.132-.024-.066-.053-.13-.081-.196-.019-.04-.034-.08-.054-.12a3.136 3.136 0 0 0-.138-.238l-.042-.072a3.763 3.763 0 0 0-.222-.295c-.03-.036-.063-.07-.094-.104a4.769 4.769 0 0 0-.172-.185c-.04-.04-.083-.078-.126-.117a4.626 4.626 0 0 0-.528-.43c-.053-.037-.107-.076-.163-.111a7.83 7.83 0 0 0-.223-.142c-.058-.034-.115-.07-.174-.104-.084-.047-.17-.094-.257-.139l-.174-.09a8.429 8.429 0 0 0-.336-.152c-.044-.019-.084-.04-.127-.056a8.6 8.6 0 0 0-.489-.185c-.055-.02-.114-.038-.172-.056a7.892 7.892 0 0 0-.355-.11 10.728 10.728 0 0 0-.556-.142c-.08-.02-.16-.035-.24-.052a11.25 11.25 0 0 0-.597-.107c-.12-.019-.242-.034-.364-.05l-.255-.03c-.131-.013-.266-.023-.4-.032-.078-.006-.157-.013-.238-.017a13.425 13.425 0 0 0-.504-.014c-.053 0-.102-.003-.155-.003-.136 0-.276.006-.414.009-.1.003-.2.003-.302.008-.152.008-.305.022-.459.034-.093.008-.183.012-.276.022-.17.017-.344.042-.517.065-.08.011-.157.019-.238.031a16.102 16.102 0 0 0-.96.18c-.137.032-.29.07-.46.111-.339.086-.743.195-1.204.324-.23.065-.475.133-.733.208l-.395.115c-.27.08-.552.162-.846.25-1.321.391-2.87.866-4.54 1.385-.743.23-1.51.471-2.291.716l-1.183.371-1.2.378-2.418.766-1.204.382a4473.59 4473.59 0 0 1-5.713 1.811c-1.057.333-2.045.644-2.933.921-.592.184-1.14.353-1.634.504l-.7.212c-.767.23-1.356.4-1.72.49-3.902.978-7.08 1.902-9.71 2.873-.263.096-.52.194-.773.292-1.262.49-2.392.994-3.412 1.526-.612.319-1.184.647-1.723.988a18.48 18.48 0 0 0-2.854 2.215c-.279.268-.549.543-.807.828-1.295 1.421-2.349 3.064-3.34 5.026-.2.392-.396.798-.591 1.216-1.074 2.305-2.118 5.024-3.37 8.291-.341.891-.699 1.823-1.077 2.799-.504 1.3-1.043 2.678-1.63 4.14a252.542 252.542 0 0 1-3.588 8.484 3.322 3.322 0 0 0-.119.313l-.03.106a3.467 3.467 0 0 0-.058.218c-.01.043-.017.087-.025.132a4.229 4.229 0 0 0-.034.202c-.006.048-.01.097-.014.145a4.37 4.37 0 0 0-.019.351c0 .067 0 .134.002.203a4.59 4.59 0 0 0 .028.362c.006.053.012.107.02.162.01.07.022.14.034.211l.031.165c.014.072.031.145.048.218.012.054.026.109.04.165a7.292 7.292 0 0 0 .115.389c.026.08.054.16.082.24l.054.155.109.272.051.128a12.484 12.484 0 0 0 .707 1.397l.15.256c.034.058.072.115.107.173.051.082.103.166.157.249.038.06.077.12.118.18l.162.246.126.184c.056.08.113.163.172.244.043.062.088.123.133.185l.18.244.138.185c.063.084.129.167.194.25l.14.18.207.256.141.173c.074.09.15.18.226.27l.134.16.263.304.107.123c.253.286.513.572.78.857.035.039.072.076.11.115l.294.31.146.15.265.27c.054.056.11.11.166.165.083.084.169.168.254.252l.172.168.257.249.172.163c.087.082.174.165.262.246.06.054.117.109.176.163l.263.243.177.16.268.241c.059.051.116.104.175.156l.279.244.166.144c.1.088.201.173.3.259.049.04.097.082.145.123l.356.297.09.074a60.676 60.676 0 0 0 1.353 1.081l.138.106.306.234.158.118.282.21.166.121.27.196c.057.04.112.081.17.121.088.063.175.125.263.186l.17.116.257.178.167.113c.085.058.172.115.256.171l.158.106.257.166a24.779 24.779 0 0 0 .549.347c.096.06.192.117.287.175.034.02.068.042.1.06.256.153.506.296.747.426.031.018.06.033.092.05.088.047.175.095.26.139l.123.062c.073.037.145.075.215.109l.132.064.192.091.132.06a67.636 67.636 0 0 0 .305.13l.168.067.122.045.155.055.115.038.144.044.108.03.135.032.098.022c.045.01.087.014.129.02.027.005.057.01.083.013.045.004.085.006.127.007a.152.152 0 0 0 .069.016l.041-.002a1.203 1.203 0 0 0 .214-.024.991.991 0 0 0 .109-.033l.053-.023a.482.482 0 0 0 .085-.058.44.44 0 0 0 .124-.148c.77-1.546 1.527-3.033 2.274-4.46a155.087 155.087 0 0 1 2.225-4.103 101.35 101.35 0 0 1 2.218-3.755c5.44-8.756 11.145-14.428 19.645-17.385.386-.134.778-.263 1.177-.386.023.005.054.01.09.014.01.002.027.002.04.003.026.002.054.005.087.006l.063.004c.031.001.064.003.1.003l.077.001.116.002h.191l.152-.002.068-.001c.076-.002.155-.003.237-.007l.06-.001.197-.006c.033-.002.067-.003.101-.003l.18-.007.104-.004.183-.008.117-.005.2-.01c.034 0 .07-.002.104-.004.076-.003.154-.008.231-.01l.085-.005.298-.016c.022-.001.043-.003.065-.003l.291-.016c.04-.001.083-.004.124-.007l.211-.013.152-.01c.06-.002.12-.007.18-.01l.153-.01c.064-.002.126-.007.19-.012l.16-.01c.055-.002.11-.007.165-.01.056-.003.112-.008.167-.01l.21-.015.113-.008.32-.021c.033-.004.067-.005.101-.008l.22-.016c.04-.003.076-.004.114-.008a101.306 101.306 0 0 0 .32-.023l.171-.012.118-.01c.068-.004.135-.01.2-.015l.066-.005c.075-.006.148-.01.217-.017l.058-.005.245-.02.042-.003c.062-.005.124-.01.18-.016l.086-.007.113-.01.087-.007.1-.01c.023-.001.044-.004.066-.006l.1-.01a3.246 3.246 0 0 0 .126-.014c.013 0 .027-.002.037-.004l.087-.01c4.408-.615 8.628-1.188 12.668-1.78 2.425-.357 4.785-.72 7.084-1.103a216.404 216.404 0 0 0 6.287-1.145c1.74-.346 3.442-.714 5.109-1.11a114.46 114.46 0 0 0 3.293-.832c.977-.262 1.94-.538 2.893-.826a79.474 79.474 0 0 0 5.332-1.807 70.271 70.271 0 0 0 4.907-2.1c4.355-2.074 8.413-4.628 12.198-7.865a55.943 55.943 0 0 0 4.523-4.337c.292-.311 2.184-2.165 2.917-2.83a6.274 6.274 0 0 0 .614-.651c.023-.028.047-.056.068-.084a4.75 4.75 0 0 0 .224-.316l.03-.053c.055-.089.106-.179.15-.267.016-.033.033-.064.047-.097a3.76 3.76 0 0 0 .107-.249c.01-.023.02-.046.028-.07.037-.104.068-.207.093-.31l.016-.076a2.6 2.6 0 0 0 .04-.236 2.9 2.9 0 0 0 .023-.35l.002-.044a1.517 1.517 0 0 0-.014-.292z"/></g></svg>