<svg width="72" height="72" viewBox="0 0 72 72" xmlns="http://www.w3.org/2000/svg"><title>Slice 1</title><g transform="translate(1 1)" fill="none" fill-rule="evenodd"><path d="M49.578 15.911c-1.297-.71-1.967.293-2.303.754-.334.46-4.517 6.984-4.517 6.984s-.461.126-.335-.543c.125-.67 2.258-9.537 2.258-9.537s.544-2.969-.836-3.18c-1.379-.208-1.798.796-2.048 1.717-.251.92-2.719 9.619-2.719 9.619s-.711.963-.752-.126c-.04-1.088-.208-10.456-.208-10.456s.167-2.803-1.758-2.636c-1.925.168-1.715 1.967-1.715 1.967l.166 10.874s-.753 1.212-1.088.168c-.334-1.047-3.387-9.537-3.387-9.537s-.586-1.297-2.008-.753c-1.422.544-.88 2.133-.88 2.133l2.72 9.37s.25.795.25 1.588c0 .795-.376 2.72-.376 2.72l-.038.086c7.413.087 7.107 5.536 7.107 5.536-.088-.21-.177-.405-.27-.6-1.35-4.07-5.613-4.795-6.843-4.92l-.27.624-.075-.001.074.004-.074.17c-.204.007-.32.022-.32.022-3.177-5.104-7.696-4.77-7.696-4.77s-1.673.503-1.167 1.674c.502 1.17.836.336 3.011 2.426 2.174 2.091 2.928 4.183 3.263 4.935.334.755 1.756 3.013 3.262 3.932a79.109 79.109 0 0 1 2.258 1.423l-.72 24.769c1.036.1 2.088.153 3.152.153 2.683 0 5.288-.328 7.771-.943l-.835-23.477s2.762-1.588 3.598-7.361l.208-4.267s-.04-.335.25-.88c.293-.541 3.471-6.105 3.471-6.105s1.714-2.844.419-3.556z" fill="#FFF"/><circle stroke="#FFF" cx="35" cy="35" r="35"/></g></svg>