<svg id="Capa_1" xmlns="http://www.w3.org/2000/svg" viewBox="0 0 72 72"><style>.st0{fill:none;stroke:#fff}.st1{fill:#fff}</style><title>Slice 1</title><circle id="Oval-1_3_" class="st0" cx="36" cy="36.3" r="35"/><path class="st1" d="M17.4 48.4c.9.4 1.4.6 1.4.6l.7 7.8h5.9l-1.3-8.1s1.4-1 1.5-4.1l-.2-2.3s0-.2.1-.5 1.5-3.5 1.5-3.5.8-1.6 0-1.9c-.8-.3-1.1.3-1.2.5-.2.3-2.1 4-2.1 4s-.3.1-.2-.3c0-.4.6-5.2.6-5.2s.1-1.6-.7-1.6c-.8 0-1 .5-1 1-.1.5-.9 5.3-.9 5.3s-.3.6-.4 0c-.1-.6-.8-5.5-.8-5.5s-.1-1.5-1.2-1.3c-1.1.2-.8 1.2-.8 1.2l.8 5.8s-.3.7-.6.2c-.3-.5-2.6-4.8-2.6-4.8s-.4-.7-1.2-.3c-.8.4-.4 1.2-.4 1.2l2.2 4.8s.2.4.2.8V44.1h-.2c-2.1-2.5-4.7-2-4.7-2s-.9.4-.5 1 .5.1 1.9 1.1 1.9 2 2.2 2.4c.1.3 1.1 1.4 2 1.8z"/><path class="st1" d="M25.8 32.1c2 1.8 2.7 3.6 3 4.3.3.7 1.6 2.6 3 3.4 1.4.8 1.6 17 1.6 17h9.7l-.6-15.3s2.6-1.4 3.3-6.4l.2-3.7s0-.3.2-.8c.3-.5 3.2-5.3 3.2-5.3s1.6-2.5.4-3.1c-1.2-.6-1.8.3-2.1.7-.3.4-4.2 6.1-4.2 6.1s-.4.1-.3-.5c.1-.6 2.1-8.3 2.1-8.3s.5-2.6-.8-2.8c-1.3-.2-1.7.7-1.9 1.5-.2.8-2.5 8.4-2.5 8.4s-.7.8-.7-.1-.2-9.1-.2-9.1.2-2.4-1.6-2.3c-1.8.1-1.6 1.7-1.6 1.7l.2 9.5s-.7 1.1-1 .1c-.3-.9-3.1-8.3-3.1-8.3s-.5-1.1-1.9-.7-.7 1.9-.7 1.9l2.5 8.2s.2.7.2 1.4-.7 3.1-.7 3.1h-.3c-2.9-4.4-7.1-4.1-7.1-4.1S22.6 29 23 30c.5 1 .8.3 2.8 2.1z"/><path class="st1" d="M60.6 39.3c-.7-.4-1.1.1-1.3.3-.2.2-2.8 3.3-2.8 3.3s-.3 0-.2-.3c.1-.3 1.7-4.7 1.7-4.7s.4-1.5-.3-1.7c-.7-.2-1 .3-1.2.8-.2.5-2 4.7-2 4.7s-.4.5-.4-.1.4-5.3.4-5.3.2-1.4-.8-1.4-1 .9-1 .9l-.5 5.5s-.5.6-.6 0c-.1-.5-1.3-5-1.3-5s-.2-.7-1-.5c-.8.2-.6 1-.6 1l1 4.9s.1.4.1.8c0 .3-.3 1.4-.3 1.4l-.2.4v.1h-.2c-1.4-2.7-3.9-2.8-3.9-2.8s-.9.2-.7.8c.2.6.4.2 1.5 1.4s1.4 2.3 1.5 2.7c.1.4.8 1.6 1.5 2.1.8.5 1.1.8 1.1.8l-1 7.4h5.2c.1-.1.2-.2.4-.3l.4-6.5s1.6-.7 2.3-3.5l.3-2.1s0-.2.2-.4c.2-.3 2.2-2.9 2.2-2.9s1.2-1.4.5-1.8z"/></svg>