<svg width="72" height="72" viewBox="0 0 72 72" xmlns="http://www.w3.org/2000/svg"><title>Slice 1</title><g transform="translate(1 1)" fill="none" fill-rule="evenodd"><g fill="#FFF"><path d="M21.2 46.5c-.062.062-.373.249-.56.249l-2.672.248-5.595 8.144 1.181 1.18.373.374.808.808 8.143-5.657.187-2.61c0-.187.249-.56.373-.622l5.284-5.098-2.487-2.238L21.2 46.5zM55.39 14.486c-2.612-2.61-6.9-2.61-9.512 0L35.311 25.054c-.87.87-1.43 2.051-1.43 3.232-.186 2.673-2.61 4.725-5.284 4.476-3.046-.373-4.848 3.295-2.61 5.533l1.802 1.802 2.176 2.176 1.803 1.803c2.175 2.175 5.843.435 5.532-2.611-.249-2.673 1.678-5.097 4.476-5.284a5.011 5.011 0 0 0 3.232-1.43l10.568-10.567c2.486-2.798 2.486-7.087-.187-9.698zM38.17 28.97c-.87-.87-.87-2.3 0-3.232l9.822-9.822c.87-.87 2.3-.87 3.232 0L38.17 28.97zm15.603-7.397l-9.884 9.822c-.87.87-2.3.87-3.232 0L53.71 18.34c.932.87.932 2.3.062 3.232z"/></g><circle stroke="#FFF" cx="35" cy="35" r="35"/></g></svg>