<svg id="Capa_1" xmlns="http://www.w3.org/2000/svg" viewBox="0 0 124 140"><style>.st0{fill:#fff}</style><title>Group</title><g id="obsocial-31-03-16"><g id="Nuestro-Proyecto---S2"><g id="Group"><path id="Shape" class="st0" d="M107.5 93c-.3.2-4.5 3.7-5.5 4.5-2.2 1.9-4.5 3.6-7 5 1.5-.3 3-.6 4.4-.8 6.3-1.3 11.6-3.8 15.9-7.8 1.4-1.3 3.1-2 4.8-2 .9 0 1.7.2 2.5.5.4-.2.6-.5.6-1.1-.6-5.4-6-4.7-9.6-2.7-2.3.9-4.3 2.9-6.1 4.4z"/><path id="Shape_1_" class="st0" d="M27.1 54.8c.2 1.1.5 2.2.8 3.2.1.4.2.7.3 1.1.2.7.5 1.4.7 2.1.4 1 .8 2 1.3 3 .3.7.6 1.3 1 2 1.7 3.2 3.7 6.2 6.1 9 .4.4.7.8 1.1 1.2.2.3.5.5.7.8l.4.4c1.5-.5 3.1-1 4.7-1.5 7.8-2.5 15.8-5 18.1-5.5 1.1-.2 2.3-.4 3.4-.4 4.9 0 8.9 2.3 9.4 5.4.5 2.4-1.2 4.6-4.4 5.9-2.9 1.1-4.5 1.9-5.9 2.6-1.7.9-3.1 1.6-5.6 2.2-.5.1-1.2.3-2.1.5-.3.1-.7.1-1.1.2 6.3.7 12.1 1 17.6 1 5.7 0 10.7-.4 15.2-.9.1 0 .2-.1.3-.1h.1c.5-.2 1.1-.5 1.6-.7.1 0 .2-.1.2-.1.5-.2 1-.5 1.5-.8.1-.1.2-.1.3-.2.5-.3 1-.5 1.4-.8.1-.1.2-.1.3-.2.5-.3.9-.6 1.4-.9.1-.1.2-.1.3-.2.5-.3.9-.6 1.4-1 .1 0 .1-.1.2-.1.5-.3.9-.7 1.3-1 0 0 .1-.1.2-.1.5-.4.9-.7 1.3-1.1.1-.1.2-.1.2-.2.4-.4.8-.7 1.2-1.1l.3-.3 1.2-1.2.3-.3c.4-.4.8-.8 1.1-1.2.1-.1.1-.2.2-.2.4-.4.8-.9 1.1-1.3l.1-.1c.4-.4.7-.9 1-1.4 0-.1.1-.1.1-.2.3-.5.7-.9 1-1.4.1-.1.1-.2.2-.3.3-.5.6-1 .9-1.4.1-.1.1-.2.2-.3l.9-1.5c.1-.1.1-.2.2-.3.3-.5.6-1 .8-1.5 0-.1.1-.2.1-.2.3-.5.5-1.1.8-1.7v-.1c.2-.6.5-1.1.7-1.7 0-.1 0-.1.1-.2.2-.6.4-1.1.6-1.7 0-.1.1-.2.1-.3.2-.6.4-1.1.5-1.7 0-.1.1-.2.1-.3.2-.6.3-1.2.5-1.8 0-.1 0-.2.1-.3.1-.6.3-1.2.4-1.8v-.2c.1-.6.2-1.3.3-2 .1-.8.2-1.5.3-2.3s.1-1.5.1-2.3v-1.1-2.3c-.1-1.5-.2-3-.4-4.5s-.5-2.9-.8-4.4c-.1-.4-.2-.7-.3-1.1-.3-1.1-.6-2.1-1-3.2-.1-.3-.2-.7-.4-1-1.1-3.1-2.6-6-4.4-8.8l-.6-.9c-1.6-2.4-3.5-4.6-5.5-6.7-.5-.5-1-1-1.6-1.5-.5-.5-1.1-1-1.7-1.4-.3-.2-.6-.5-.9-.7-.6-.4-1.2-.9-1.8-1.3l-.9-.6c-.6-.4-1.2-.8-1.9-1.2-1.6-.9-3.2-1.8-4.9-2.6l-2.1-.9c-.3-.1-.7-.3-1.1-.4-1.8-.6-3.6-1.2-5.5-1.6-1.1-.2-2.3-.5-3.4-.6-.5-.1-1-.1-1.4-.2h-.4c-.4 0-.7-.1-1.1-.1h-.3c-.5 0-.9-.1-1.4-.1H68.9c-.6 0-1.2.1-1.8.1h-.2c-.6.1-1.3.1-1.9.2l-1.8.3H63c-.6.1-1.2.2-1.7.4-.1 0-.2 0-.3.1-.6.1-1.1.3-1.7.4-.1 0-.2.1-.3.1-.6.2-1.1.3-1.6.5-.1 0-.2.1-.3.1-.6.2-1.1.4-1.6.6-.1 0-.1.1-.2.1-.5.2-1.1.4-1.6.7h-.1c-.5.2-1.1.5-1.6.7-.1 0-.2.1-.2.1-.5.2-1 .5-1.5.8-.1.1-.2.1-.3.2-.5.3-1 .5-1.4.8-.1.1-.2.1-.3.2-.8.6-1.3.8-1.7 1.2-.1.1-.2.1-.3.2-.5.3-.9.6-1.4 1-.1 0-.1.1-.2.1-.5.3-.9.7-1.3 1 0 0-.1.1-.2.1-.5.4-.9.7-1.3 1.1-.1.1-.2.1-.2.2-.4.4-.8.7-1.2 1.1-.1.1-.2.2-.3.2L39 13.6l-.3.3c-.4.4-.8.8-1.1 1.2-.1.1-.1.2-.2.2-.4.4-.8.9-1.1 1.3l-.1.1c-.4.4-.7.9-1 1.4 0 .1-.1.1-.1.2-.3.5-.7.9-1 1.4-.1.1-.1.2-.2.3-.3.5-.6 1-.9 1.4-.1.1-.1.2-.2.3l-.9 1.5c-.1.1-.1.2-.2.3-.3.5-.6 1-.8 1.5 0 .1-.1.2-.1.2-.3.5-.5 1.1-.8 1.7v.1c-.2.6-.5 1.1-.7 1.7 0 .1 0 .1-.1.2-.2.6-.4 1.1-.6 1.7 0 .1-.1.2-.1.3-.2.6-.4 1.1-.5 1.7 0 .1-.1.2-.1.3-.2.6-.3 1.2-.5 1.8 0 .1 0 .2-.1.3-.1.6-.3 1.2-.4 1.8v.2c-.1.6-.2 1.3-.3 2-.2 1.2-.3 2.3-.4 3.5-.1 1.2-.1 2.3-.1 3.4 0 2.3.2 4.5.6 6.7.1.7.2 1.5.4 2.2z"/><path id="Shape_2_" class="st0" d="M123.8 80.3c0-.2 0-.2-.1-.3v-.1c0-.1-.1-.2-.1-.3 0-.1-.1-.2-.1-.2v-.1c0-.1-.1-.1-.1-.2V79c-.1-.1-.1-.2-.2-.2l-.2-.2-.1-.1-.2-.2h-.1c-.1-.1-.2-.1-.2-.2h-.1c-.1 0-.1-.1-.2-.1h-.1c-.1 0-.2-.1-.3-.1-.1 0-.2-.1-.3-.1h-.1c-.1 0-.2 0-.2-.1h-.1c-.1 0-.2 0-.3-.1h-.3H119.3c-.1 0-.2 0-.2.1-.1 0-.1 0-.2.1-.1 0-.2.1-.2.1-.1 0-.1 0-.2.1-.1 0-.2.1-.2.1-.1 0-.1.1-.2.1s-.2.1-.2.1c-.1 0-.1.1-.2.1-.1.1-.2.1-.3.2l-.1.1c-.1.1-.3.2-.4.3-5 4.6-10.7 7.1-16.9 8.3-.5.1-.9.2-1.4.3-.1 0-.3.1-.4.1-.3.1-.6.1-.9.2-.2 0-.4.1-.5.1-.3.1-.6.1-.9.2-.2 0-.4.1-.6.1-.3.1-.6.1-.9.1-.2 0-.4.1-.6.1-.3 0-.6.1-.9.1-.2 0-.4.1-.5.1-.4.1-.7.1-1.1.2-.1 0-.2 0-.4.1-.5.1-1 .1-1.5.2h-.6c-.3 0-.6.1-.9.1-.2 0-.4 0-.5.1-.3 0-.7.1-1 .1-.2 0-.4 0-.6.1-.3 0-.6.1-1 .1-.2 0-.4 0-.6.1-.3 0-.7.1-1 .1h-.6c-.4 0-.7 0-1.1.1h-.6c-.5 0-1.1.1-1.6.1H69.1 69c-.5 0-1.1 0-1.6-.1h-.6c-.4 0-.8 0-1.2-.1h-.7c-.4 0-.8 0-1.1-.1h-.7c-.4 0-.8-.1-1.2-.1-.2 0-.4 0-.7-.1-.5 0-1-.1-1.5-.1h-.5c-.6-.1-1.3-.1-2-.2-.2 0-.3 0-.5-.1-.5-.1-1-.1-1.5-.2-.2 0-.5-.1-.7-.1-.4 0-.9-.1-1.3-.2h-.4c-.1 0-.3 0-.4-.1-.4-.1-.9-.1-1.4-.2-.3 0-.5-.1-.8-.1-.5-.1-1-.1-1.5-.2-.2 0-.5-.1-.7-.1-.7-.1-1.5-.2-2.3-.3.8-.4 1.7-.8 2.8-1.1l.9-.3c.5-.1 1-.3 1.4-.4.6-.2 1.3-.3 1.9-.5.2 0 .3-.1.5-.1 2.4-.5 4.5-.9 5.4-1.2.9-.2 1.7-.5 2.4-.8.4-.2.8-.3 1.1-.5.2-.1.4-.2.5-.3l3.4-1.7c1-.5 2.3-1 3.9-1.6.2-.1.4-.2.6-.2.1 0 .1-.1.2-.1.1-.1.2-.1.3-.2.1 0 .1-.1.2-.1.1-.1.2-.1.3-.2.1 0 .1-.1.2-.1.1-.1.2-.1.2-.2l.1-.1.2-.2.1-.1.2-.2.1-.1c.1-.1.1-.2.2-.3.1-.1.1-.2.1-.3v-.1c0-.1 0-.1.1-.2v-.1-.2-.1-.2-.1-.2-.1c0-.1-.1-.1-.1-.2 0 0 0-.1-.1-.1 0-.1-.1-.2-.1-.2v-.1c-.1-.1-.1-.2-.2-.3l-.1-.1-.2-.2-.1-.1-.2-.2-.1-.1c-.1-.1-.1-.1-.2-.1s-.1-.1-.2-.1-.1-.1-.2-.1-.1-.1-.2-.1-.2-.1-.3-.1c-.1 0-.1-.1-.2-.1-.1-.1-.2-.1-.3-.2 0 0-.1 0-.1-.1-.2-.1-.3-.1-.5-.2-.1 0-.1 0-.2-.1-.1 0-.2-.1-.4-.1-.1 0-.1 0-.2-.1-.1 0-.2-.1-.3-.1-.1 0-.2 0-.2-.1-.1 0-.2 0-.3-.1H64.2c-.2 0-.3 0-.5.1h-.2c-.3 0-.5.1-.8.1h-.2c-.1 0-.3.1-.5.1-.3.1-.7.2-1.2.3-.2.1-.5.1-.7.2-.1 0-.3.1-.4.1-.3.1-.6.2-.8.2-1.3.7-2.9 1.2-4.6 1.7-.7.2-1.5.5-2.3.7-.4.1-.8.2-1.2.4-.4.1-.8.3-1.2.4-.8.3-1.6.5-2.4.8-.4.1-.8.3-1.2.4-1.6.5-3.2 1-4.6 1.5-.4.1-.7.2-1.1.3-1.1.3-2 .6-2.9.9-.6.2-1.1.4-1.6.5-.2.1-.5.1-.7.2-.8.2-1.4.4-1.7.5-3.9 1-7.1 1.9-9.7 2.9-.3.1-.5.2-.8.3-1.3.5-2.4 1-3.4 1.5-.6.3-1.2.6-1.7 1-.9.6-1.7 1.2-2.4 1.8l-.4.4-.8.8c-1.3 1.4-2.3 3.1-3.3 5l-.6 1.2c-1.1 2.3-2.1 5-3.4 8.3-.3.9-.7 1.8-1.1 2.8-.5 1.3-1 2.7-1.6 4.1-1 2.6-2.2 5.4-3.6 8.5 0 .1-.1.2-.1.3v.1c0 .1 0 .1-.1.2v2.4c0 .1 0 .2.1.2v.2c0 .1.1.2.1.2 0 .1 0 .1.1.2 0 .1.1.2.1.3 0 0 0 .1.1.1.1.3.2.5.4.8 0 0 0 .1.1.1 0 .1.1.2.2.3 0 .1.1.1.1.2s.1.2.2.3c0 .1.1.1.1.2.1.1.1.2.2.2 0 .1.1.1.1.2.1.1.1.2.2.2 0 .1.1.1.1.2.1.1.1.2.2.2 0 .1.1.1.1.2.1.1.1.2.2.2 0 .1.1.1.1.2.1.1.1.2.2.3 0 .1.1.1.1.2.1.1.1.2.2.3 0 .1.1.1.1.2.1.1.2.2.2.3 0 .1.1.1.1.2l.3.3.1.1c.3.3.5.6.8.9l.1.1.3.3.1.1.3.3.2.2.3.3.2.2c.1.1.2.2.3.2l.2.2c.1.1.2.2.3.2l.2.2c.1.1.2.2.3.2l.2.2c.1.1.2.2.3.2l.2.2c.1.1.2.2.3.2.1 0 .1.1.2.1l.3.3.1.1c.1.1.2.2.4.3 0 0 .1 0 .1.1.3.3.6.5.9.7 0 0 .1 0 .1.1.1.1.2.2.4.3l.1.1c.1.1.2.2.3.2.1 0 .1.1.2.1.1.1.2.1.3.2.1 0 .1.1.2.1.1.1.2.1.3.2.1 0 .1.1.2.1.1.1.2.1.3.2.1 0 .1.1.2.1.1.1.2.1.3.2.1 0 .1.1.2.1.1.1.2.1.3.2.1 0 .1.1.2.1.1.1.2.1.3.2 0 0 .1.1.2.1.1.1.2.1.3.2l.1.1c.1.1.2.1.3.2 0 0 .1 0 .1.1.3.2.5.3.7.4h.1c.1 0 .2.1.3.1 0 0 .1 0 .1.1.1 0 .1.1.2.1 0 0 .1 0 .1.1.1 0 .1.1.2.1 0 0 .1 0 .1.1.1 0 .1.1.2.1 0 0 .1 0 .1.1.1 0 .1 0 .2.1h.1c.1 0 .1 0 .2.1H20s.1 0 .1-.1l.1-.1c.8-1.5 1.5-3 2.3-4.5.7-1.4 1.5-2.8 2.2-4.1.7-1.3 1.5-2.6 2.2-3.8 5.4-8.8 11.1-14.4 19.6-17.4.4-.1.8-.3 1.2-.4H56.4c4.4-.6 8.6-1.2 12.7-1.8 2.4-.4 4.8-.7 7.1-1.1.8-.1 1.5-.3 2.3-.4 1.4-.2 2.7-.5 4-.8 1.7-.3 3.4-.7 5.1-1.1 1.1-.3 2.2-.5 3.3-.8 1-.3 1.9-.5 2.9-.8 1.8-.6 3.6-1.1 5.3-1.8.8-.3 1.6-.6 2.4-1 .8-.4 1.7-.7 2.5-1.1 4.4-2.1 8.4-4.6 12.2-7.9 1.6-1.3 3.1-2.8 4.5-4.3.3-.3 2.2-2.2 2.9-2.8l.3-.3.1-.1c.1-.1.1-.2.2-.2 0 0 0-.1.1-.1.1-.1.2-.2.2-.3V83c.1-.1.1-.2.2-.3v-.1c0-.1.1-.2.1-.2v-.1c0-.1.1-.2.1-.3v-.1-.2-.1-.3c-1.1-.8-1.1-.9-1.1-1z"/></g></g></g></svg>