<svg id="Capa_1" xmlns="http://www.w3.org/2000/svg" viewBox="0 0 502.5 502.5"><style>.st0{fill:#00bd9c}</style><path class="st0" d="M296.6 397.3c-11.1 21-26.8 37.7-47.1 50.1-20.3 12.4-42.4 18.6-66.4 18.6-35.2 0-65.3-12.5-90.4-37.5-25-25-37.5-55.2-37.5-90.4 0-25.3 6.9-48.6 20.8-69.8 13.9-21.2 32.5-37 55.7-47.3l-4.9-37.4c-32.4 11.8-58.5 31.9-78.4 60.2-19.9 28.4-29.8 59.8-29.8 94.2 0 29.7 7.4 57.2 22.1 82.4s34.7 45.2 60 60c25.2 14.7 52.7 22.1 82.4 22.1 35.6 0 67.9-10.6 96.8-31.7 28.9-21.1 48.9-48.7 60-82.8l-29.1-58.2c1.7 23.9-3 46.4-14.2 67.5z"/><path class="st0" d="M467.2 358.3l-56.5 28.3-65.1-129.9c-3.2-6.7-8.7-10-16.3-10H199.4l-4.6-36.5H311v-36.5H190.3l-10.6-82.5c12.9 1.3 24.4-2.6 34.3-11.8 9.9-9.2 14.8-20.4 14.8-33.5 0-12.6-4.5-23.3-13.4-32.3C206.5 4.5 195.7 0 183.2 0c-10.3 0-19.5 3-27.7 9s-13.6 13.8-16.3 23.6c-1.5 5-2.1 8.9-1.7 12L164.9 267c.6 4.6 2.6 8.4 6.1 11.6 3.5 3.1 7.6 4.7 12.1 4.7h134.8l68.2 136.2c3.2 6.7 8.7 10 16.3 10 3 0 5.8-.7 8.3-2l73.1-36.5-16.6-32.7z"/></svg>