<svg id="Capa_1" xmlns="http://www.w3.org/2000/svg" viewBox="0 0 72 72"><style>.st0{fill:none;stroke:#fff}.st1{fill:#fff}</style><title>Slice 1</title><circle id="Oval-1_5_" class="st0" cx="36" cy="36" r="35"/><circle id="Oval-1_4_" class="st0" cx="36" cy="36" r="35"/><path class="st1" d="M54.9 23.4c-.6.4-2.5 1.1-4.3 1.3 1.1-.7 2.8-2.8 3.2-4.6-1.1.8-3.6 1.9-4.8 1.9-1.4-1.6-3.4-2.6-5.6-2.6-4.3 0-7.8 3.8-7.8 8.4 0 .6.1 1.3.2 1.9-5.8-.2-12.7-3.3-16.5-8.7-2.4 4.4-.3 9.3 2.4 11.1-.9.1-2.6-.1-3.4-.9-.1 2.9 1.3 6.8 6 8.2-.9.5-2.5.4-3.2.3.3 2.5 3.5 5.7 7 5.7-1.3 1.6-5.5 4.4-10.8 3.5 3.6 2.3 7.8 3.7 12.2 3.7 12.6 0 22.4-11 21.8-24.5v-.2c1-1 2.5-2.5 3.6-4.5z"/></svg>