<svg width="25" height="20" viewBox="0 0 25 20" xmlns="http://www.w3.org/2000/svg"><title>Fill 14</title><path d="M20.74 1.587c.844-.072 1.94-.544 2.587-.873l.629-.344c-.37.999-.87 1.78-1.64 2.373-.17.132-.34.31-.554.394 1.096 0 2-.494 2.86-.763-.452.73-1.062 1.458-1.714 1.98l-.788.627c.014 1.162-.017 2.27-.235 3.246-1.261 5.675-4.604 9.527-9.895 11.177-1.9.593-4.97.836-7.147.295-1.08-.268-2.055-.57-2.97-.971-.508-.222-.98-.463-1.43-.738L0 17.72c.49.014 1.065.15 1.614.061.497-.08.984-.059 1.442-.16 1.143-.25 2.157-.582 3.031-1.094.424-.248 1.067-.54 1.368-.898-.567.01-1.082-.121-1.503-.27-1.634-.578-2.585-1.64-3.204-3.234.495.054 1.921.183 2.255-.099-.623-.034-1.223-.395-1.651-.663C2.037 10.54.965 9.159.973 7.034l.518.246c.33.14.666.214 1.06.296.166.034.499.132.69.06-.28-.295-.693-.493-.95-.81-.843-1.05-1.633-2.664-1.133-4.587.127-.488.328-.918.542-1.316.123.219.342.37.48.542.432.534.963 1.014 1.504 1.438C5.53 4.347 7.19 5.234 9.858 5.891c.677.167 1.46.294 2.268.295-.227-.662-.155-1.732.024-2.373.45-1.61 1.426-2.771 2.86-3.394a6.093 6.093 0 0 1 1.12-.344l.617-.074c1.956-.034 2.998.679 3.993 1.586z" fill="#F5F6F7" fill-rule="evenodd"/></svg>