<svg id="Capa_1" xmlns="http://www.w3.org/2000/svg" viewBox="0 0 72 72"><style>.st0{fill:none;stroke:#fff}.st1{fill:#fff}</style><title>Slice 1</title><circle id="Oval-1_5_" class="st0" cx="36" cy="36" r="35"/><path class="st1" d="M38.8 20.6c1.1-.6 1.6-1 1.6-1H29.8c-2.1 0-8.1 2.4-8.1 8.1 0 5.7 6.2 6.9 8.4 6.8-1.3 1.5-.2 2.9.5 3.6.7.7.5.9-.3.9s-10.7.1-10.7 7.2 13.2 7.6 17.5 3.8 3.4-9.1 0-11.5c-3.3-2.4-4.6-3.5-2.5-5.4 2.1-1.9 3.8-3.4 3.8-6.9s-2.9-5.3-2.9-5.3 2.2.4 3.3-.3zm-1.6 25.3c0 3.1-2.6 4.5-7 4.5s-6.8-2.2-6.8-5.5 3.2-4.9 9.2-4.9c1.7 1.3 4.6 2.9 4.6 5.9zm-6.4-12.8c-5.3 0-7.7-12.4-1.5-12.4 4.9-.2 8.5 12.4 1.5 12.4zm17.6-9.4v-4h-2.1v4h-4.1v2.1h4.1v4h2.1v-4h4v-2.1h-4z"/></svg>