<?xml version="1.0" encoding="utf-8"?>
<!-- Generator: Adobe Illustrator 19.2.0, SVG Export Plug-In . SVG Version: 6.00 Build 0)  -->
<svg version="1.1" id="Capa_1" xmlns="http://www.w3.org/2000/svg" xmlns:xlink="http://www.w3.org/1999/xlink" x="0px" y="0px"
	 viewBox="0 0 447.6 447.6" style="enable-background:new 0 0 447.6 447.6;" xml:space="preserve">
<style type="text/css">
	.st0{fill:#00BD9C;}
</style>
<g>
	<path class="st0" d="M447.6,244.4c0-8.8-2-17.2-5.6-24.9c-0.4-2-0.8-3.9-1.3-5.9l-38.9-96.4l-0.3-0.9c-13.6-40.5-33-78-82-78H131.9
		c-50.3,0-68.1,38.4-82,77.8L9.2,212.7C3.3,222.2,0,232.9,0,244.4v30c0,4.6,0.5,9.2,1.6,13.5c-1,2.6-1.6,5.5-1.6,8.5v89.2
		c0,13.1,10.6,23.7,23.7,23.7h49.1c13.1,0,23.7-10.6,23.7-23.7V341H354v44.6c0,13.1,10.6,23.7,23.7,23.7H424
		c13.1,0,23.7-10.6,23.7-23.7v-89.2c0-3-0.6-5.8-1.6-8.5c1-4.4,1.6-8.9,1.6-13.5L447.6,244.4L447.6,244.4L447.6,244.4z M78.8,125.8
		c15.5-43.7,27.9-57,53.1-57h187.7c25,0,38.9,14.9,53.1,56.8l28.4,57.5c-9.3-3.4-19.5-5.3-30.2-5.3H76.8c-9.6,0-18.9,1.6-27.4,4.4
		L78.8,125.8z M103.1,285.8H51.3c-9.3,0-16.9-7.6-16.9-16.9c0-9.3,7.6-16.9,16.9-16.9h51.8c9.3,0,16.9,7.6,16.9,16.9
		C120,278.2,112.5,285.8,103.1,285.8z M286.3,282.4H165.7c-5.9,0-10.7-4.8-10.7-10.7c0-5.9,4.8-10.7,10.7-10.7h120.6
		c5.9,0,10.7,4.8,10.7,10.7C297,277.6,292.2,282.4,286.3,282.4z M395.1,285.8h-51.8c-9.3,0-16.9-7.6-16.9-16.9
		c0-9.3,7.6-16.9,16.9-16.9h51.8c9.3,0,16.9,7.6,16.9,16.9C412,278.2,404.4,285.8,395.1,285.8z"/>
</g>
</svg>
