<?xml version="1.0" encoding="utf-8"?>
<!-- Generator: Adobe Illustrator 19.2.0, SVG Export Plug-In . SVG Version: 6.00 Build 0)  -->
<svg version="1.1" id="Capa_1" xmlns="http://www.w3.org/2000/svg" xmlns:xlink="http://www.w3.org/1999/xlink" x="0px" y="0px"
	 viewBox="0 0 72 72" style="enable-background:new 0 0 72 72;" xml:space="preserve">
<style type="text/css">
	.st0{fill:none;stroke:#FFFFFF;}
	.st1{fill:#FFFFFF;}
</style>
<title>icons</title>
<desc>Created with Sketch.</desc>
<circle id="Oval-1-Copy" class="st0" cx="36" cy="36" r="35"/>
<path id="Shape_13_" class="st1" d="M45.9,42.3L45.9,42.3l0,1.5c0,0.3-0.3,0.6-0.6,0.6h-14c-0.3,0-0.6-0.3-0.6-0.6v-1.5
	c0-0.3,0.3-0.6,0.6-0.6h14C45.6,41.7,45.9,42,45.9,42.3L45.9,42.3z M24.9,42.1L24.9,42.1L24.9,42.1c-2,0-3.7,1.6-3.7,3.7
	c0,2,1.6,3.7,3.7,3.7c2,0,3.7-1.6,3.7-3.7C28.6,43.7,26.9,42.1,24.9,42.1L24.9,42.1z M50.8,42.1L50.8,42.1L50.8,42.1
	c-2,0-3.7,1.6-3.7,3.7c0,2,1.6,3.7,3.7,3.7s3.7-1.6,3.7-3.7C54.5,43.7,52.9,42.1,50.8,42.1L50.8,42.1z M16,36.9L16,36.9
	c0-0.3,0.1-0.8,0.3-1.1l4.8-8.2c0.2-0.3,0.6-0.5,0.9-0.5l0,0h6.4c0.3,0,0.6,0.3,0.6,0.6v12c0,0.3-0.3,0.6-0.6,0.6h-3.9
	c-4.6,0-5,4.1-5.2,4.8c-0.1,0.3-0.5,0.6-0.8,0.6h-1.9c-0.3,0-0.6-0.3-0.6-0.6V36.9L16,36.9z M19.7,33.7L19.7,33.7
	c-0.3,0.5,0,0.8,0.4,0.8h6.5c0.3,0,0.5-0.2,0.5-0.5v-4.7c0-0.3-0.2-0.5-0.5-0.5h-3.7c-0.3,0-0.4,0.2-0.7,0.5L19.7,33.7L19.7,33.7z
	 M30.7,23.2L30.7,23.2c0-0.3,0.3-0.6,0.6-0.6h24.1c0.3,0,0.6,0.3,0.6,0.6v16.5c0,0.3-0.3,0.6-0.6,0.6H31.3c-0.3,0-0.6-0.3-0.6-0.6
	V23.2L30.7,23.2z M37.8,31.4L37.8,31.4c0,3.1,2.5,5.5,5.6,5.5c3.1,0,5.6-2.5,5.6-5.5c0-3.1-2.5-5.5-5.5-5.5
	C40.3,25.9,37.8,28.4,37.8,31.4L37.8,31.4z M38.9,31.4L38.9,31.4c0-2.5,2-4.5,4.5-4.5c2.5,0,4.5,2,4.5,4.5c0,2.5-2,4.5-4.5,4.5
	C40.9,35.9,38.9,33.9,38.9,31.4L38.9,31.4z M40.9,32.5L40.9,32.5c-0.2,0.2-0.3,0.5-0.1,0.7c0.1,0.1,0.3,0.2,0.4,0.2
	c0.1,0,0.2,0,0.3-0.1l2.2-1.5c0.1-0.1,0.2-0.2,0.2-0.4l0-2.7c0-0.3-0.2-0.5-0.5-0.5h0c-0.3,0-0.5,0.2-0.5,0.5l0,2.4L40.9,32.5
	L40.9,32.5z"/>
</svg>
