<?xml version="1.0" encoding="UTF-8" standalone="no"?>
<svg width="72px" height="72px" viewBox="0 0 72 72" version="1.1" xmlns="http://www.w3.org/2000/svg" xmlns:xlink="http://www.w3.org/1999/xlink">
    <!-- Generator: Sketch 3.6.1 (26313) - http://www.bohemiancoding.com/sketch -->
    <title>icons</title>
    <desc>Created with Sketch.</desc>
    <defs></defs>
    <g id="Page-1" stroke="none" stroke-width="1" fill="none" fill-rule="evenodd">
        <circle id="Oval-1" stroke="#FFFFFF" cx="36" cy="36" r="35"></circle>
        <g id="don-uno" transform="translate(19.000000, 20.000000)" fill="#FFFFFF">
            <g id="obsocial-02-04-16">
                <g id="Donar---S2">
                    <g id="Group-10">
                        <g id="Group-12">
                            <path d="M32.7706034,3.76470589 L14.5382802,3.76470589 C14.0081994,3.76470589 13.5786843,4.18597645 13.5786843,4.70588234 C13.5786843,5.22578823 14.0081994,5.64705883 14.5382802,5.64705883 L32.7706034,5.64705883 C33.3006843,5.64705883 33.7301994,5.22578823 33.7301994,4.70588234 C33.7301994,4.18597645 33.3006843,3.76470589 32.7706034,3.76470589 L32.7706034,3.76470589 L32.7706034,3.76470589 Z" id="Shape"></path>
                            <path d="M32.7706034,15.0588235 L14.5382802,15.0588235 C14.0081994,15.0588235 13.5786843,15.4800941 13.5786843,16 C13.5786843,16.5199059 14.0081994,16.9411765 14.5382802,16.9411765 L32.7706034,16.9411765 C33.3006843,16.9411765 33.7301994,16.5199059 33.7301994,16 C33.7301994,15.4800941 33.3006843,15.0588235 32.7706034,15.0588235 L32.7706034,15.0588235 L32.7706034,15.0588235 Z" id="Shape"></path>
                            <path d="M32.7706034,26.3529412 L14.5382802,26.3529412 C14.0081994,26.3529412 13.5786843,26.7742118 13.5786843,27.2941177 C13.5786843,27.8140235 14.0081994,28.2352941 14.5382802,28.2352941 L32.7706034,28.2352941 C33.3006843,28.2352941 33.7301994,27.8140235 33.7301994,27.2941177 C33.7301994,26.7742118 33.3006843,26.3529412 32.7706034,26.3529412 L32.7706034,26.3529412 L32.7706034,26.3529412 Z" id="Shape"></path>
                            <path d="M1.10393679,9.41176472 L8.78070445,9.41176472 C9.31078526,9.41176472 9.74030042,8.99049411 9.74030042,8.47058823 L9.74030042,0.941176472 C9.74030042,0.421270589 9.31078526,0 8.78070445,0 L1.10393679,0 C0.573855977,0 0.144340827,0.421270589 0.144340827,0.941176472 L0.144340827,8.47058823 C0.144340827,8.99049411 0.573855977,9.41176472 1.10393679,9.41176472 L1.10393679,9.41176472 L1.10393679,9.41176472 Z M2.06353275,1.88235294 L7.8211085,1.88235294 L7.8211085,7.52941177 L2.06353275,7.52941177 L2.06353275,1.88235294 L2.06353275,1.88235294 L2.06353275,1.88235294 Z" id="Shape"></path>
                            <path d="M0.144340827,19.7647059 C0.144340827,20.2846118 0.573855977,20.7058823 1.10393679,20.7058823 L8.78070445,20.7058823 C9.31078526,20.7058823 9.74030042,20.2846118 9.74030042,19.7647059 L9.74030042,12.2352941 C9.74030042,11.7153882 9.31078526,11.2941177 8.78070445,11.2941177 L1.10393679,11.2941177 C0.573855977,11.2941177 0.144340827,11.7153882 0.144340827,12.2352941 L0.144340827,19.7647059 L0.144340827,19.7647059 L0.144340827,19.7647059 Z M2.06353275,13.1764706 L7.8211085,13.1764706 L7.8211085,14.3932235 L5.42211861,16.7461647 L3.84223982,15.1966118 C3.65492668,15.0128941 3.35131052,15.0128941 3.16361355,15.1966118 C2.97591659,15.3803294 2.97630042,15.6781177 3.16361355,15.8622118 L5.08280548,17.7445647 C5.17646205,17.8364235 5.29929031,17.8823529 5.42211861,17.8823529 C5.54494687,17.8823529 5.66777517,17.8364235 5.76143174,17.7445647 L7.8211085,15.7244235 L7.8211085,18.8235294 L2.06353275,18.8235294 L2.06353275,13.1764706 L2.06353275,13.1764706 L2.06353275,13.1764706 Z" id="Shape"></path>
                            <path d="M0.144340827,31.0588235 C0.144340827,31.5787294 0.573855977,32 1.10393679,32 L8.78070445,32 C9.31078526,32 9.74030042,31.5787294 9.74030042,31.0588235 L9.74030042,23.5294118 C9.74030042,23.0095059 9.31078526,22.5882353 8.78070445,22.5882353 L1.10393679,22.5882353 C0.573855977,22.5882353 0.144340827,23.0095059 0.144340827,23.5294118 L0.144340827,31.0588235 L0.144340827,31.0588235 L0.144340827,31.0588235 Z M2.06353275,24.4705882 L7.8211085,24.4705882 L7.8211085,30.1176471 L2.06353275,30.1176471 L2.06353275,24.4705882 L2.06353275,24.4705882 L2.06353275,24.4705882 Z" id="Shape"></path>
                        </g>
                    </g>
                </g>
            </g>
        </g>
    </g>
</svg>