<?xml version="1.0" encoding="UTF-8" standalone="no"?>
<svg width="72px" height="72px" viewBox="0 0 72 72" version="1.1" xmlns="http://www.w3.org/2000/svg" xmlns:xlink="http://www.w3.org/1999/xlink">
    <!-- Generator: Sketch 3.6.1 (26313) - http://www.bohemiancoding.com/sketch -->
    <title>icons</title>
    <desc>Created with Sketch.</desc>
    <defs></defs>
    <g id="Page-1" stroke="none" stroke-width="1" fill="none" fill-rule="evenodd">
        <circle id="Oval-1-Copy" stroke="#FFFFFF" cx="36" cy="36" r="35"></circle>
        <path d="M26.1006667,42.7573333 C26.1006667,42.4213333 26.376,42.1466666 26.7120001,42.1466666 L40.7366667,42.1466666 C41.0726668,42.1466666 41.3473333,42.4213333 41.3473333,42.7573333 L41.3473333,44.2093333 C41.3473333,44.5453333 41.0726668,44.82 40.7366667,44.82 L26.7113333,44.82 C26.376,44.82 26.0999999,44.5453333 26.0999999,44.2093333 L26.0999999,42.7573333 L26.1006667,42.7573333 L26.1006667,42.7573333 Z M47.0773332,42.5386666 C45.0506667,42.5386666 43.4093332,44.1833333 43.4086667,46.2066666 C43.4086667,48.2326666 45.0506667,49.876 47.0773332,49.876 C49.1033332,49.876 50.7453332,48.2326666 50.7453332,46.2066666 C50.7453332,44.1833333 49.1033332,42.5386666 47.0773332,42.5386666 L47.0773332,42.5386666 L47.0773332,42.5386666 L47.0773332,42.5386666 Z M21.172,42.5386666 C19.146,42.5386666 17.504,44.1833333 17.504,46.2066666 C17.504,48.2326666 19.146,49.876 21.172,49.876 C23.198,49.876 24.8399999,48.2326666 24.8399999,46.2066666 C24.8399999,44.1833333 23.198,42.5386666 21.172,42.5386666 L21.172,42.5386666 L21.172,42.5386666 L21.172,42.5386666 Z M56,37.3133333 L56,45.414 C56,45.7513333 55.7246667,46.026 55.3886666,46.026 L53.49,46.026 C53.1546667,46.026 52.7613334,45.8113333 52.6426665,45.462 C52.4273332,44.8253333 51.9940001,40.7053333 47.4340001,40.7053333 L43.5106665,40.7053333 C43.1746667,40.7053333 42.8986666,40.4306667 42.8986666,40.0933333 L42.8986666,28.0693333 C42.8986666,27.7326667 43.1746667,27.458 43.5106665,27.458 L49.9413334,27.458 L49.9413334,27.458 C50.2773332,27.458 50.6926667,27.6953333 50.8633333,27.9853333 L55.6886667,36.176 C55.8606666,36.4653333 56,36.9773333 56,37.3133333 L56,37.3133333 L56,37.3133333 Z M52.3293334,34.1306666 L49.7186666,29.6826667 C49.4899999,29.296 49.3546666,29.144 49.0586667,29.144 L45.3893334,29.144 C45.0939999,29.144 44.854,29.3833333 44.854,29.6793333 L44.854,34.3713333 C44.854,34.6673333 45.0933333,34.9073333 45.3893334,34.9073333 L51.936,34.9073333 C52.3539999,34.9073333 52.6053332,34.6 52.3293334,34.1306666 L52.3293334,34.1306666 L52.3293334,34.1306666 Z M41.3473333,23.6113333 L41.3473333,40.118 C41.3473333,40.4553333 41.0726668,40.7286666 40.7366667,40.7286666 L16.6113333,40.7286666 C16.2746667,40.7286666 16,40.4553333 16,40.118 L16,23.6113333 C16,23.2753333 16.2746667,23 16.6113333,23 L40.7366667,23 C41.072,23 41.3473333,23.2753333 41.3473333,23.6113333 L41.3473333,23.6113333 L41.3473333,23.6113333 Z M34.224,31.8646667 C34.224,28.7993333 31.738,26.3146667 28.6733334,26.3146667 C25.6073334,26.3146667 23.1233333,28.8 23.1233333,31.8646667 C23.1233333,34.93 25.608,37.4146666 28.6733334,37.4146666 C31.738,37.4146666 34.224,34.93 34.224,31.8646667 L34.224,31.8646667 L34.224,31.8646667 Z M33.1493334,31.8646667 C33.1493334,34.3366667 31.1453332,36.3413333 28.6739999,36.3413333 C26.2013332,36.3413333 24.1973333,34.3373333 24.1973333,31.8646667 C24.1973333,29.3926666 26.2013332,27.3886667 28.6739999,27.3886667 C31.1453332,27.3886667 33.1493334,29.3926666 33.1493334,31.8646667 L33.1493334,31.8646667 L33.1493334,31.8646667 Z M31.1180001,32.908 L29.1673332,31.5953333 L29.1733333,29.158 C29.1739999,28.882 28.9506665,28.6573333 28.6746667,28.6566667 L28.6733334,28.6566667 C28.3973333,28.6566667 28.1739999,28.8793333 28.1733334,29.1553333 L28.1666667,31.8593333 C28.1666667,32.026 28.2493333,32.182 28.3873334,32.2753333 L30.5593332,33.7366667 C30.6453333,33.794 30.742,33.822 30.8386668,33.822 C30.9986667,33.822 31.1573332,33.7446667 31.2533332,33.6013333 C31.4073332,33.3733333 31.3466667,33.062 31.1180001,32.908 L31.1180001,32.908 L31.1180001,32.908 Z" id="Shape" fill="#FFFFFF"></path>
    </g>
</svg>