<?xml version="1.0" encoding="UTF-8" standalone="no"?>
<svg width="142px" height="95px" viewBox="0 0 142 95" version="1.1" xmlns="http://www.w3.org/2000/svg" xmlns:xlink="http://www.w3.org/1999/xlink">
    <!-- Generator: Sketch 3.6.1 (26313) - http://www.bohemiancoding.com/sketch -->
    <title>Shape</title>
    <desc>Created with Sketch.</desc>
    <defs></defs>
    <g id="obsocial-02-04-16" stroke="none" stroke-width="1" fill="none" fill-rule="evenodd">
        <g id="Donar---S2" transform="translate(-906.000000, -952.000000)" fill="#FFFFFF">
            <g id="Group-11" transform="translate(837.000000, 952.000000)">
                <path d="M104.703354,69.8372774 C104.703354,68.6496006 105.676589,67.678722 106.864266,67.678722 L156.437987,67.678722 C157.625664,67.678722 158.596542,68.6496006 158.596542,69.8372774 L158.596542,74.9697376 C158.596542,76.1574143 157.625664,77.1282929 156.437987,77.1282929 L106.861909,77.1282929 C105.676589,77.1282929 104.700997,76.1574143 104.700997,74.9697376 L104.700997,69.8372774 L104.703354,69.8372774 Z M178.850672,69.0643449 C171.686908,69.0643449 165.885201,74.877834 165.882845,82.0298159 C165.882845,89.1912239 171.686908,95 178.850672,95 C186.01208,95 191.816143,89.1912239 191.816143,82.0298159 C191.816143,74.877834 186.01208,69.0643449 178.850672,69.0643449 L178.850672,69.0643449 L178.850672,69.0643449 Z M87.2817384,69.0643449 C80.1203304,69.0643449 74.3162673,74.877834 74.3162673,82.0298159 C74.3162673,89.1912239 80.1203304,95 87.2817384,95 C94.4431463,95 100.247209,89.1912239 100.247209,82.0298159 C100.247209,74.877834 94.4431463,69.0643449 87.2817384,69.0643449 L87.2817384,69.0643449 L87.2817384,69.0643449 Z M210.390088,50.5940864 L210.390088,79.2279357 C210.390088,80.4203254 209.416853,81.391204 208.229176,81.391204 L201.51786,81.391204 C200.33254,81.391204 198.942204,80.6324106 198.522746,79.3976038 C197.761596,77.1471449 196.229871,62.5839659 180.111401,62.5839659 L166.243389,62.5839659 C165.055713,62.5839659 164.080121,61.6130873 164.080121,60.4206975 L164.080121,17.9188371 C164.080121,16.7288039 165.055713,15.7579253 166.243389,15.7579253 L188.974203,15.7579253 L188.974203,15.7579253 C190.161879,15.7579253 191.62998,16.5968398 192.233244,17.6219179 L209.289602,46.5738949 C209.897579,47.5966166 210.390088,49.4064097 210.390088,50.5940864 L210.390088,50.5940864 Z M197.415191,39.3441484 L188.187131,23.6215707 C187.378851,22.2547998 186.900481,21.7175175 185.854195,21.7175175 L172.884011,21.7175175 C171.84008,21.7175175 170.99174,22.5635015 170.99174,23.6097882 L170.99174,40.1948455 C170.99174,41.2411321 171.837724,42.0894726 172.884011,42.0894726 L196.024855,42.0894726 C197.502381,42.0894726 198.390782,41.0031255 197.415191,39.3441484 L197.415191,39.3441484 Z M158.596542,2.16091184 L158.596542,60.5078881 C158.596542,61.7002778 157.625664,62.6664434 156.437987,62.6664434 L71.1609118,62.6664434 C69.9708786,62.6664434 69,61.7002778 69,60.5078881 L69,2.16091184 C69,0.973235104 69.9708786,0 71.1609118,0 L156.437987,0 C157.623307,0 158.596542,0.973235104 158.596542,2.16091184 L158.596542,2.16091184 Z M133.417324,31.3344 C133.417324,20.4992062 124.62993,11.7165253 113.797093,11.7165253 C102.959543,11.7165253 94.1792181,20.5015627 94.1792181,31.3344 C94.1792181,42.1695937 102.961899,50.9522746 113.797093,50.9522746 C124.62993,50.9522746 133.417324,42.1695937 133.417324,31.3344 L133.417324,31.3344 Z M129.618644,31.3344 C129.618644,40.0723074 122.535,47.1583073 113.799449,47.1583073 C105.059185,47.1583073 97.975542,40.0746639 97.975542,31.3344 C97.975542,22.5964925 105.059185,15.5128491 113.799449,15.5128491 C122.535,15.5128491 129.618644,22.5964925 129.618644,31.3344 L129.618644,31.3344 Z M122.438384,35.0223248 L115.54326,30.3823734 L115.564469,21.767004 C115.566825,20.7914124 114.777397,19.9972714 113.801806,19.9949149 L113.797093,19.9949149 C112.821501,19.9949149 112.032073,20.7819864 112.029717,21.757578 L112.006152,31.3155479 C112.006152,31.9046733 112.298358,32.4560947 112.786154,32.7860049 L120.463635,37.9514561 C120.767624,38.1541152 121.109317,38.2530883 121.45101,38.2530883 C122.01657,38.2530883 122.577417,37.9797341 122.916753,37.4730863 C123.461105,36.6671628 123.246664,35.5666766 122.438384,35.0223248 L122.438384,35.0223248 Z" id="Shape"></path>
            </g>
        </g>
    </g>
</svg>