<?xml version="1.0" encoding="UTF-8" standalone="no"?>
<svg width="72px" height="72px" viewBox="0 0 72 72" version="1.1" xmlns="http://www.w3.org/2000/svg" xmlns:xlink="http://www.w3.org/1999/xlink">
    <!-- Generator: Sketch 3.6.1 (26313) - http://www.bohemiancoding.com/sketch -->
    <title>icons</title>
    <desc>Created with Sketch.</desc>
    <defs></defs>
    <g id="Page-1" stroke="none" stroke-width="1" fill="none" fill-rule="evenodd">
        <circle id="Oval-1-Copy-4" stroke="#FFFFFF" cx="36" cy="36" r="35"></circle>
        <g id="Group" transform="translate(16.000000, 16.000000)" fill="#FFFFFF">
            <path d="M33.4922757,6.79677402 L31.8293096,7.74202077 C31.4248043,7.96707948 30.8405189,7.83204425 30.6157937,7.42693853 L26.9752462,0.990258467 C26.6606309,0.495129233 26.0314005,8.8817842e-16 25.267335,8.8817842e-16 L19.0199756,8.8817842e-16 C19.0199756,8.8817842e-16 18.9750305,8.8817842e-16 19.0199756,0.0450117485 C19.3345908,0.630164479 25.0426098,10.6227727 25.0426098,10.6227727 C25.1774449,10.8478314 25.1774449,11.0728902 25.1324999,11.2979489 C25.0875548,11.5230076 24.9077747,11.7030546 24.7279946,11.8380899 L23.1099734,12.7833366 C23.0200834,12.8283483 23.0650284,12.8733601 23.1099734,12.8733601 L31.2450242,15.0789358 C31.2899692,15.0789358 31.3349142,15.0789358 31.3798593,15.033924 L33.5821658,6.84178577 C33.5821658,6.79677402 33.5372208,6.75176228 33.4922757,6.79677402 L33.4922757,6.79677402 L33.4922757,6.79677402 Z" id="Shape"></path>
            <path d="M16.9327442,1 C16.708019,1 16.4383488,1.0900235 16.2136237,1.49512923 L15.8990084,1.99025847 L11.044945,10.3624437 C11.044945,10.3624437 11,10.4074555 11,10.4524672 C11,10.4974789 11,10.4974789 11.044945,10.5424907 C11.0898901,10.5424907 16.3934038,13.6483014 16.3934038,13.6933131 C16.4383488,13.7383249 16.4832939,13.7383249 16.5282389,13.7383249 C16.5731839,13.7383249 16.5731839,13.7383249 16.6181289,13.6933131 C16.6181289,13.6483014 20.5732917,6.85152732 20.5732917,6.85152732 C20.5732917,6.85152732 20.6182367,6.80651557 20.6182367,6.76150383 C20.6182367,6.71649205 20.5732917,6.67148031 20.5732917,6.67148031 L17.7866998,1.72018798 C17.6518647,1.40510574 17.4271395,1 16.9327442,1 L16.9327442,1 L16.9327442,1 Z" id="Shape"></path>
            <path d="M2.02357173,17.2505874 L3.64159287,18.1958342 C4.04609816,18.4208929 4.18093324,19.0060456 3.95620809,19.4111514 L0.270715499,25.8478314 C-0.0438997202,26.3429606 -0.133789783,27.1981839 0.270715499,27.8283483 C0.270715499,27.8283483 3.41686771,33.2297582 3.41686771,33.2747699 L3.46181274,33.2747699 C3.82137299,32.6446054 9.61928206,22.697009 9.61928206,22.697009 C9.75411717,22.4719503 9.93389729,22.336915 10.1586224,22.2919033 C10.3833476,22.2468915 10.6080727,22.2468915 10.8327979,22.3819268 L12.4508191,23.3271735 C12.5407091,23.3721852 12.5407091,23.3271735 12.5407091,23.2821617 L10.3384025,15.0900235 C10.3384025,15.0450117 10.2934576,15 10.2485125,15 L2.02357173,17.2055757 C1.9786267,17.2055757 1.9786267,17.2505874 2.02357173,17.2505874 L2.02357173,17.2505874 L2.02357173,17.2505874 Z" id="Shape"></path>
            <path d="M5.11408608,35.0315743 C5.24892116,35.2566331 5.42870131,35.43668 5.96804169,35.4816918 L6.50738207,35.4816918 L16.2155089,35.4816918 C16.3053989,35.4816918 16.3053989,35.43668 16.3053989,35.3916683 L16.3053989,29.1350352 C16.3053989,29.0450117 16.2604539,29 16.2155089,29 L8.30518332,29 C8.21529324,29 8.1703482,29 8.1254032,29.0900235 L5.2938662,33.9062806 C5.11408608,34.2213628 4.8444159,34.6264686 5.11408608,35.0315743 L5.11408608,35.0315743 L5.11408608,35.0315743 Z" id="Shape"></path>
            <path d="M27.101288,39.0927147 L27.101288,37.2022213 C27.101288,36.7070921 27.5057933,36.3019863 27.9552436,36.3019863 L35.3711738,36.3019863 C35.9554593,36.3019863 36.7195248,35.9869041 37.0790851,35.3567396 C37.0790851,35.3567396 40.2252372,29.9553298 40.2252372,29.910318 L40.2252372,29.8653063 L28.0900787,29.8653063 C27.7754635,29.8653063 27.5057933,29.730271 27.3260132,29.5502241 C27.1462331,29.3701771 27.056343,29.1451183 27.056343,28.9200596 L27.056343,27.0745779 C27.056343,26.9845544 27.011398,26.9845544 26.9664529,27.0295662 L21.0337088,32.9711169 C20.9887637,33.0161287 20.9887637,33.0611405 21.0337088,33.1061522 L27.011398,39.0927147 C27.056343,39.1377265 27.101288,39.1377265 27.101288,39.0927147 L27.101288,39.0927147 L27.101288,39.0927147 Z" id="Shape"></path>
            <path d="M40.7868076,26.9025847 C40.9216427,26.6775259 40.9665877,26.4524672 40.6969175,26.0023497 L40.4272473,25.5072205 C40.4272473,25.5072205 35.618129,17.1350353 35.618129,17.0900235 C35.618129,17.0450118 35.618129,17.0450118 35.5731839,17 L35.4832939,17 C35.4383488,17 30.1348351,20.0607989 30.0898901,20.1058107 C30.044945,20.1508224 30,20.1508224 30,20.1958342 L30,20.2858577 C30,20.3308694 33.8652727,27.03762 33.9102178,27.1276434 C33.9551628,27.2176669 34.0001078,27.2626787 34.179888,27.2626787 L39.7081268,27.2626787 C40.0676871,27.3076905 40.5171374,27.3076905 40.7868076,26.9025847 L40.7868076,26.9025847 L40.7868076,26.9025847 Z" id="Shape"></path>
        </g>
    </g>
</svg>