<?xml version="1.0" encoding="utf-8"?>
<!-- Generator: Adobe Illustrator 19.2.0, SVG Export Plug-In . SVG Version: 6.00 Build 0)  -->
<svg version="1.1" id="Capa_1" xmlns="http://www.w3.org/2000/svg" xmlns:xlink="http://www.w3.org/1999/xlink" x="0px" y="0px"
	 viewBox="0 0 97 147" style="enable-background:new 0 0 97 147;" xml:space="preserve">
<style type="text/css">
	.st0{opacity:0.15;}
	.st1{enable-background:new    ;}
	.st2{fill:#FFFFFF;}
</style>
<title>3</title>
<desc>Created with Sketch.</desc>
<g id="obsocial-02-04-16" class="st0">
	<g id="Donar---S2" transform="translate(-340.000000, -1329.000000)">
		<g id="Group-14" transform="translate(332.000000, 1176.000000)">
			<g class="st1">
				<path class="st2" d="M98.7,188.8c0,9.1-2.6,16.6-7.7,22.4c-5.1,5.8-12.4,9.7-21.7,11.6v0.8c11.5,1.4,20,5.1,25.5,10.9
					c5.5,5.9,8.3,13.5,8.3,23c0,13.6-4.7,24.1-14.2,31.4c-9.4,7.3-22.9,11-40.2,11c-7.6,0-14.5-0.6-20.8-1.7
					c-6.3-1.1-12.4-3.1-18.3-6v-15.4c6.2,3.1,12.8,5.4,19.8,7c7,1.6,13.6,2.4,19.9,2.4c24.7,0,37-9.7,37-29c0-17.3-13.6-26-40.8-26
					H31.4v-14h14.3c11.1,0,20-2.5,26.5-7.4c6.5-4.9,9.8-11.7,9.8-20.5c0-7-2.4-12.4-7.2-16.4c-4.8-4-11.3-6-19.5-6
					c-6.2,0-12.1,0.8-17.7,2.5c-5.5,1.7-11.9,4.8-18.9,9.4L10.4,168c5.9-4.6,12.6-8.3,20.3-10.9c7.6-2.6,15.7-4,24.2-4
					c13.9,0,24.6,3.2,32.3,9.5C94.8,169,98.7,177.8,98.7,188.8z"/>
			</g>
		</g>
	</g>
</g>
</svg>
