<?xml version="1.0" encoding="UTF-8" standalone="no"?>
<svg width="137px" height="95px" viewBox="0 0 137 95" version="1.1" xmlns="http://www.w3.org/2000/svg" xmlns:xlink="http://www.w3.org/1999/xlink">
    <!-- Generator: Sketch 3.6.1 (26313) - http://www.bohemiancoding.com/sketch -->
    <title>Group 13</title>
    <desc>Created with Sketch.</desc>
    <defs></defs>
    <g id="obsocial-02-04-16" stroke="none" stroke-width="1" fill="none" fill-rule="evenodd">
        <g id="Donar---S2" transform="translate(-888.000000, -1400.000000)" fill="#FFFFFF">
            <g id="Group-15" transform="translate(837.000000, 1400.000000)">
                <g id="Group-13" transform="translate(51.000000, 0.000000)">
                    <path d="M39.4269791,52.605098 C39.075737,53.2262756 39.2009861,53.5812343 39.2009861,53.5812343 L39.6611405,58.1900325 C39.4324247,64.4962128 35.4516807,66.5579939 35.4516807,66.5579939 L41.0824458,91.6788709 C34.6784034,90.0796689 28.6746137,87.9367004 23.1827117,85.3424813 L20.8410976,67.2169331 C20.8410976,67.2169331 19.5831607,66.777011 17.0809009,65.978354 C14.5840868,65.1815851 11.9674692,62.9423247 11.3003814,62.1757651 C10.6469077,61.4073173 9.10035324,59.2586846 5.3401566,57.2913074 C1.58812837,55.3220421 1.22599502,56.262305 0.234893225,55.0671516 C-0.761654185,53.8757744 1.73515995,53.1243194 1.73515995,53.1243194 C1.73515995,53.1243194 8.67287252,52.1859447 14.5350763,57.257322 C14.5350763,57.257322 14.7120587,57.2252247 15.0279044,57.1950155 L15.1095886,57.0024315 C15.0387956,57.0080957 14.9979535,57.0080957 14.9979535,57.0080957 C15.0360728,57.0043196 15.0714693,57.0024315 15.1123114,57.0005434 L15.4635535,56.1792295 C15.4635535,56.1792295 15.4771675,56.0508402 15.4962272,55.8469278 C17.3695185,55.8204947 24.1656451,56.0281833 27.032761,60.2442613 C27.2124663,60.4443976 27.3948944,60.64831 27.5718768,60.865439 C27.5718768,60.865439 27.032761,54.9576431 15.49895,55.8318232 C15.556129,55.1955409 15.6595956,53.8474533 15.5506833,53.2055068 C15.4036518,52.3520955 14.8699816,51.5307816 14.8699816,51.5307816 L8.9288164,41.8166207 C8.9288164,41.8166207 7.79612863,40.1796571 9.89813573,39.4130974 C11.99742,38.6465378 13.1437218,39.9663043 13.1437218,39.9663043 C13.1437218,39.9663043 19.4388519,48.6911124 20.1495046,49.771093 C20.8601572,50.8491855 21.8076941,49.455784 21.8076941,49.455784 L19.5395958,37.7969027 C19.5395958,37.7969027 18.8861221,35.8918321 21.8349222,35.4651265 C24.7837223,35.042197 25.042389,38.0725621 25.042389,38.0725621 C25.042389,38.0725621 27.0273154,48.1095844 27.2941505,49.2745285 C27.5637084,50.4375845 28.4840172,49.3141781 28.4840172,49.3141781 C28.4840172,49.3141781 30.703105,39.6604356 30.9182068,38.6389855 C31.141477,37.6156472 31.5989086,36.4846886 33.7771543,36.5337786 C35.9554,36.5809805 35.6558912,39.837915 35.6558912,39.837915 C35.6558912,39.837915 33.992256,49.6351514 33.9187402,50.3696137 C33.8479473,51.1059641 34.5422631,50.9114921 34.5422631,50.9114921 C34.5422631,50.9114921 39.8163405,43.3705088 40.246544,42.8342947 C40.6821932,42.2943044 41.5289862,41.1293603 43.6691126,41.7297691 C45.8065162,42.3264017 43.6827266,45.6022169 43.6827266,45.6022169 C43.6827266,45.6022169 39.7836668,51.9876965 39.4269791,52.605098 L39.4269791,52.605098 Z M135.906927,47.4884068 C134.098983,46.6293313 132.966295,47.5922511 132.40812,48.0246209 C131.849944,48.4607669 124.743418,54.7159691 124.743418,54.7159691 C124.743418,54.7159691 124.043656,54.7952684 124.326828,54.1268888 C124.61,53.4547331 129.034562,44.6053118 129.034562,44.6053118 C129.034562,44.6053118 130.265271,41.6221486 128.264007,41.26719 C126.262744,40.9122313 125.503081,41.8996961 124.991193,42.8154139 C124.498365,43.7292436 119.600035,52.3728644 119.600035,52.3728644 C119.600035,52.3728644 118.407446,53.2866941 118.510912,52.1746162 C118.603488,51.0568741 119.71167,41.461662 119.71167,41.461662 C119.71167,41.461662 120.365144,38.6144405 117.503474,38.5898955 C114.636358,38.5691266 114.696259,40.4288834 114.696259,40.4288834 L113.364807,51.562879 C113.364807,51.562879 112.071473,52.7240469 111.731122,51.6232975 C111.390772,50.5187719 108.115235,41.535297 108.115235,41.535297 C108.115235,41.535297 107.445424,40.1456717 105.269901,40.5610488 C103.094378,40.9745379 103.663445,42.6530392 103.663445,42.6530392 L106.318182,52.5031418 C106.318182,52.5031418 106.574126,53.3376722 106.459768,54.1514338 C106.375361,54.7480664 105.904315,55.9356675 105.65654,56.5341882 C116.218309,57.449906 115.017551,62.8743539 115.017551,62.8743539 C114.916807,62.6458965 114.805172,62.4287675 114.693537,62.2154147 C113.359361,58.1617114 107.755824,56.9004753 105.642926,56.5643974 C105.561241,56.7645337 105.504063,56.8948111 105.504063,56.8948111 L104.934996,57.6066164 C104.894154,57.6028403 104.864203,57.6009522 104.817915,57.5971761 C104.817915,57.5971761 104.864203,57.6009522 104.934996,57.6085045 L104.801578,57.7765435 C104.499347,57.7614388 104.322364,57.7633269 104.322364,57.7633269 C100.377017,52.2274824 93.6680199,52.1179739 93.6680199,52.1179739 C93.6680199,52.1179739 91.1249181,52.4653802 91.6967076,53.7096236 C92.2657743,54.9614193 92.8838515,54.1419934 95.7863639,56.4964266 C98.6943219,58.8527479 99.49755,61.0655752 99.8814658,61.8698964 C100.270827,62.6742176 102.037929,65.1268309 104.126322,66.2143638 C106.20927,67.3075609 107.246659,67.8966412 107.246659,67.8966412 L103.230519,89.6850606 C109.220694,87.732788 114.777944,85.2839509 119.801523,82.4254009 L120.980498,69.3504612 C120.980498,69.3504612 125.279811,68.0042616 127.346421,62.1852054 L128.272176,57.8464023 C128.272176,57.8464023 128.261285,57.498996 128.775895,56.9741103 C129.28506,56.4473366 134.779685,51.079531 134.779685,51.079531 C134.779685,51.079531 137.717594,48.3437061 135.906927,47.4884068 L135.906927,47.4884068 Z M106.440708,13.0385367 C103.151557,11.7886291 101.452526,13.553982 100.600287,14.3639674 C99.7507711,15.1720648 89.1399917,26.6515787 89.1399917,26.6515787 C89.1399917,26.6515787 87.9691846,26.8724838 88.2904758,25.6962112 C88.6063215,24.5161625 94.0192621,8.91686259 94.0192621,8.91686259 C94.0192621,8.91686259 95.3970025,3.69443901 91.8981953,3.32437573 C88.3993881,2.95808861 87.3347705,4.72344149 86.7003565,6.34341236 C86.0632196,7.96149515 79.803486,23.2662549 79.803486,23.2662549 C79.803486,23.2662549 77.9982649,24.9598608 77.8947982,23.0453498 C77.7913316,21.1308388 77.3665736,4.64980645 77.3665736,4.64980645 C77.3665736,4.64980645 77.7913316,-0.281853126 72.9066156,0.0126870321 C68.0246224,0.30722719 68.5555698,3.47353389 68.5555698,3.47353389 L68.9776049,22.6035396 C68.9776049,22.6035396 67.0661943,24.7351795 66.2166784,22.8980797 C65.3698854,21.0572037 57.6234991,6.12061916 57.6234991,6.12061916 C57.6234991,6.12061916 56.1368464,3.83793293 52.529127,4.79518845 C48.9214075,5.75244396 50.2991479,8.54868739 50.2991479,8.54868739 L57.1987412,25.0316078 C57.1987412,25.0316078 57.8331553,26.4306735 57.8331553,27.8259631 C57.8331553,29.2250289 56.87745,32.6103526 56.87745,32.6103526 L56.7821517,32.7632869 C75.5885806,32.9162213 74.8125805,42.5019929 74.8125805,42.5019929 C74.5893104,42.1338177 74.3633174,41.7901876 74.1264332,41.4465574 C70.7038646,34.2869658 59.8861519,33.0106251 56.7658149,32.78972 L56.0823903,33.8885814 C56.0170429,33.8885814 55.9571412,33.8866933 55.8917938,33.8866933 C55.8917938,33.8866933 55.9571412,33.8885814 56.0796675,33.8942456 L55.8917938,34.19445 C55.3744604,34.2057785 55.0776745,34.2322116 55.0776745,34.2322116 C47.0181654,25.2525129 35.5551473,25.8415932 35.5551473,25.8415932 C35.5551473,25.8415932 31.310291,26.7252137 32.5927332,28.7851067 C33.8670069,30.8449998 34.7137999,29.3760751 40.23293,33.0521629 C45.7493372,36.7320268 47.6607478,40.4118907 48.5102637,41.7354333 C49.3597795,43.0627521 52.9674989,47.0352681 56.7875973,48.6514628 C60.6022501,50.2714337 62.5163835,51.1550541 62.5163835,51.1550541 L60.6866572,94.7300049 C63.3168888,94.9074842 65.9852398,95 68.6862645,95 C75.4932823,95 82.1015352,94.4222482 88.4021109,93.3403795 L86.283767,52.0386746 C86.283767,52.0386746 93.2895497,49.2443193 95.4106165,39.088348 L95.9388411,31.5813502 C95.9388411,31.5813502 95.8353744,30.9922698 96.5705323,30.0350143 C97.3165815,29.081535 105.378813,19.2937389 105.378813,19.2937389 C105.378813,19.2937389 109.727136,14.2903324 106.440708,13.0385367 L106.440708,13.0385367 Z" id="Shape"></path>
                </g>
            </g>
        </g>
    </g>
</svg>