<?xml version="1.0" encoding="UTF-8" standalone="no"?>
<svg width="72px" height="72px" viewBox="0 0 72 72" version="1.1" xmlns="http://www.w3.org/2000/svg" xmlns:xlink="http://www.w3.org/1999/xlink">
    <!-- Generator: Sketch 3.6.1 (26313) - http://www.bohemiancoding.com/sketch -->
    <title>icons</title>
    <desc>Created with Sketch.</desc>
    <defs></defs>
    <g id="Page-1" stroke="none" stroke-width="1" fill="none" fill-rule="evenodd">
        <circle id="Oval-1-Copy-3" stroke="#FFFFFF" cx="36" cy="36" r="35"></circle>
        <g id="don-cuatro" transform="translate(12.000000, 13.000000)" fill="#FFFFFF">
            <g id="obsocial-02-04-16">
                <g id="Donar---S2">
                    <g id="Group-15">
                        <g id="Group-13">
                            <path d="M13.8647893,25.1290507 C13.7412725,25.4257824 13.7853172,25.5953435 13.7853172,25.5953435 L13.9471339,27.7969309 C13.8667043,30.8093447 12.4668462,31.7942417 12.4668462,31.7942417 L14.4469465,43.7942914 C12.1949175,43.0303649 10.0836404,42.0066853 8.15237235,40.7674468 L7.3289264,32.1090119 C7.3289264,32.1090119 6.88656357,31.8988645 6.00662537,31.5173522 C5.12860219,31.1367418 4.20844922,30.0670643 3.97386285,29.7008847 C3.74406398,29.3338031 3.20020665,28.3074178 1.87790564,27.3676168 C0.558477109,26.426914 0.431130233,26.8760703 0.0826019432,26.3051547 C-0.267841338,25.736043 0.610181854,25.3770787 0.610181854,25.3770787 C0.610181854,25.3770787 3.04987989,24.9288244 5.11136728,27.3513823 C5.11136728,27.3513823 5.17360446,27.3360496 5.28467394,27.3216189 L5.31339879,27.229623 C5.28850391,27.2323288 5.27414148,27.2323288 5.27414148,27.2323288 C5.28754641,27.230525 5.29999386,27.229623 5.31435628,27.2287211 L5.43787317,26.8363858 C5.43787317,26.8363858 5.44266063,26.7750552 5.44936312,26.6776478 C6.10811989,26.6650209 8.49802816,26.7642322 9.50627071,28.7782202 C9.56946541,28.8738238 9.63361761,28.9712312 9.69585478,29.074952 C9.69585478,29.074952 9.50627071,26.2528434 5.45032061,26.6704325 C5.47042803,26.3664853 5.50681283,25.7225142 5.46851301,25.4158613 C5.41680829,25.0081933 5.22913921,24.615858 5.22913921,24.615858 L3.13988445,19.975478 C3.13988445,19.975478 2.7415664,19.1935131 3.48075277,18.8273335 C4.21898164,18.4611538 4.62208716,19.0915961 4.62208716,19.0915961 C4.62208716,19.0915961 6.83581631,23.2593698 7.0857226,23.7752683 C7.33562885,24.2902648 7.66883722,23.6246476 7.66883722,23.6246476 L6.87124365,18.0552897 C6.87124365,18.0552897 6.64144478,17.1452521 7.67841218,16.9414181 C8.71537959,16.739388 8.80634165,18.18697 8.80634165,18.18697 C8.80634165,18.18697 9.50435573,22.9815784 9.59819027,23.5380632 C9.6929823,24.0936461 10.0166157,23.5570035 10.0166157,23.5570035 C10.0166157,23.5570035 10.7969744,18.945485 10.8726165,18.4575462 C10.9511311,17.9687053 11.1119904,17.4284551 11.8779866,17.451905 C12.6439828,17.474453 12.5386583,19.0302656 12.5386583,19.0302656 C12.5386583,19.0302656 11.9536287,23.71033 11.9277763,24.061177 C11.9028815,24.4129259 12.1470428,24.3200281 12.1470428,24.3200281 C12.1470428,24.3200281 14.0017112,20.7177584 14.1529954,20.4616131 C14.3061947,20.2036639 14.6039757,19.647179 15.356567,19.9339897 C16.1082008,20.2189965 15.3613545,21.7838282 15.3613545,21.7838282 C15.3613545,21.7838282 13.9902212,24.8341227 13.8647893,25.1290507 L13.8647893,25.1290507 L13.8647893,25.1290507 Z M47.7926779,22.6848466 C47.156901,22.2744729 46.7585829,22.7344523 46.5622965,22.940992 C46.3660098,23.1493356 43.8669473,26.1373975 43.8669473,26.1373975 C43.8669473,26.1373975 43.6208708,26.1752782 43.7204503,25.8559984 C43.8200298,25.5349148 45.3759599,21.3076143 45.3759599,21.3076143 C45.3759599,21.3076143 45.8087478,19.8825802 45.1049885,19.7130192 C44.4012295,19.5434582 44.1340884,20.0151625 43.9540792,20.4525939 C43.7807726,20.8891233 42.0582385,25.0181145 42.0582385,25.0181145 C42.0582385,25.0181145 41.6388558,25.4546439 41.6752403,24.9234128 C41.7077954,24.389476 42.0974958,19.805917 42.0974958,19.805917 C42.0974958,19.805917 42.3272948,18.4458212 41.3209673,18.4340962 C40.3127247,18.4241751 40.3337894,19.3125666 40.3337894,19.3125666 L39.8655744,24.6311907 C39.8655744,24.6311907 39.4107639,25.1858716 39.291077,24.6600521 C39.1713904,24.1324287 38.0195235,19.8410919 38.0195235,19.8410919 C38.0195235,19.8410919 37.7839795,19.1772786 37.0189407,19.375701 C36.2539019,19.5732216 36.4540186,20.3750287 36.4540186,20.3750287 L37.3875765,25.080347 C37.3875765,25.080347 37.4775811,25.4789957 37.4373663,25.8677234 C37.4076839,26.1527302 37.2420371,26.7200381 37.1549052,27.0059468 C40.8690295,27.4433782 40.4467741,30.0345952 40.4467741,30.0345952 C40.4113467,29.9254629 40.3720894,29.821742 40.3328321,29.719825 C39.8636593,27.7834021 37.893134,27.1809194 37.1501177,27.0203775 C37.1213926,27.1159811 37.1012855,27.1782136 37.1012855,27.1782136 L36.9011689,27.5182375 C36.8868065,27.5164337 36.876274,27.5155318 36.8599965,27.513728 C36.8599965,27.513728 36.876274,27.5155318 36.9011689,27.5191395 L36.8542515,27.5994104 C36.7479697,27.592195 36.6857323,27.5930969 36.6857323,27.5930969 C35.2983218,24.9486666 32.9390533,24.8963552 32.9390533,24.8963552 C32.9390533,24.8963552 32.0447527,25.0623085 32.2458267,25.656674 C32.4459432,26.2546472 32.6632946,25.8632138 33.6839846,26.9879084 C34.7065896,28.113505 34.9890507,29.1705555 35.1240576,29.5547736 C35.2609793,29.9389916 35.8823938,31.1105861 36.6167927,31.6300922 C37.3492768,32.1523041 37.7140823,32.4337032 37.7140823,32.4337032 L36.3017769,42.8418636 C38.4082664,41.909278 40.3625145,40.7394873 42.1290933,39.37398 L42.5436886,33.1281819 C42.5436886,33.1281819 44.0555738,32.4851127 44.7823126,29.7053943 L45.1078612,27.6327814 C45.1078612,27.6327814 45.1040313,27.4668281 45.2849977,27.2160942 C45.4640493,26.9644585 47.3962749,24.400299 47.3962749,24.400299 C47.3962749,24.400299 48.4294124,23.0934165 47.7926779,22.6848466 L47.7926779,22.6848466 L47.7926779,22.6848466 Z M37.4306637,6.22840869 C36.2740094,5.63133744 35.6765325,6.47463294 35.3768364,6.86155673 C35.0780978,7.24757865 31.3467386,12.7312541 31.3467386,12.7312541 C31.3467386,12.7312541 30.9350156,12.8367788 31.048,12.2748824 C31.1590695,11.7111822 33.0625702,4.25951667 33.0625702,4.25951667 C33.0625702,4.25951667 33.5470628,1.7648051 32.3166813,1.58802871 C31.0862998,1.41305617 30.7119192,2.25635167 30.4888228,3.03019929 C30.2647689,3.80314499 28.0634872,11.114111 28.0634872,11.114111 C28.0634872,11.114111 27.4286678,11.9231335 27.392283,11.0085863 C27.3558982,10.0940391 27.2065289,2.22117677 27.2065289,2.22117677 C27.2065289,2.22117677 27.3558982,-0.13463907 25.6381516,0.00606049762 C23.9213625,0.146760065 24.1080741,1.65928042 24.1080741,1.65928042 L24.2564859,10.797537 C24.2564859,10.797537 23.5843242,11.815805 23.2855856,10.9382365 C22.9878046,10.0588642 20.2637304,2.92377269 20.2637304,2.92377269 C20.2637304,2.92377269 19.740938,1.83335104 18.4722567,2.29062464 C17.2035754,2.74789823 17.6880681,4.08364221 17.6880681,4.08364221 L20.1143612,11.9574065 C20.1143612,11.9574065 20.3374576,12.6257294 20.3374576,13.2922485 C20.3374576,13.9605715 20.0013767,15.5777146 20.0013767,15.5777146 L19.9678644,15.6507701 C26.5812845,15.7238257 26.3083983,20.3028751 26.3083983,20.3028751 C26.2298837,20.1270006 26.1504116,19.9628512 26.0671095,19.7987017 C24.8635379,16.3786198 21.0594091,15.7689217 19.9621194,15.663397 L19.7217881,16.1883147 C19.6988082,16.1883147 19.6777433,16.1874127 19.6547634,16.1874127 C19.6547634,16.1874127 19.6777433,16.1883147 19.7208306,16.1910204 L19.6547634,16.3344257 C19.4728393,16.3398373 19.3684724,16.3524642 19.3684724,16.3524642 C16.5342863,12.0629312 12.503231,12.3443303 12.503231,12.3443303 C12.503231,12.3443303 11.0104958,12.766429 11.4614761,13.750424 C11.9095839,14.7344191 12.207365,14.0327251 14.148208,15.788764 C16.0880934,17.5466066 16.7602551,19.3044493 17.0589937,19.9366954 C17.3577322,20.5707454 18.6264135,22.4683858 19.9697794,23.2404295 C21.3112303,24.0142772 21.9843495,24.4363758 21.9843495,24.4363758 L21.3409127,45.2517946 C22.2658531,45.3365751 23.2041985,45.3807692 24.1540339,45.3807692 C26.5477721,45.3807692 28.8716132,45.1047816 31.0872573,44.5879813 L30.342326,24.8584746 C30.342326,24.8584746 32.8059614,23.5236325 33.5518503,18.6722032 L33.7376044,15.0861681 C33.7376044,15.0861681 33.7012195,14.8047689 33.9597433,14.3474953 C34.222097,13.8920256 37.0572404,9.21647066 37.0572404,9.21647066 C37.0572404,9.21647066 38.5863604,6.82638186 37.4306637,6.22840869 L37.4306637,6.22840869 L37.4306637,6.22840869 Z" id="Shape"></path>
                        </g>
                    </g>
                </g>
            </g>
        </g>
    </g>
</svg>