<?xml version="1.0" encoding="utf-8"?>
<!-- Generator: Adobe Illustrator 19.2.0, SVG Export Plug-In . SVG Version: 6.00 Build 0)  -->
<svg version="1.1" id="Capa_1" xmlns="http://www.w3.org/2000/svg" xmlns:xlink="http://www.w3.org/1999/xlink" x="0px" y="0px"
	 viewBox="0 0 98 145" style="enable-background:new 0 0 98 145;" xml:space="preserve">
<style type="text/css">
	.st0{opacity:0.15;}
	.st1{enable-background:new    ;}
	.st2{fill:#FFFFFF;}
</style>
<title>2</title>
<desc>Created with Sketch.</desc>
<g id="obsocial-02-04-16" class="st0">
	<g id="Donar---S2" transform="translate(-845.000000, -1105.000000)">
		<g id="Group-11" transform="translate(837.000000, 952.000000)">
			<g class="st1">
				<path class="st2" d="M104,298H10.2v-14l37.6-37.8c11.5-11.6,19-19.9,22.7-24.8c3.6-4.9,6.4-9.8,8.2-14.5
					c1.8-4.7,2.7-9.7,2.7-15.1c0-7.6-2.3-13.7-6.9-18.1c-4.6-4.5-11-6.7-19.2-6.7c-5.9,0-11.5,1-16.8,2.9c-5.3,2-11.2,5.5-17.7,10.6
					l-8.6-11c13.1-10.9,27.5-16.4,43-16.4c13.4,0,23.9,3.4,31.5,10.3c7.6,6.9,11.4,16.1,11.4,27.7c0,9-2.5,18-7.6,26.9
					c-5.1,8.9-14.6,20.1-28.5,33.6l-31.2,30.6v0.8H104V298z"/>
			</g>
		</g>
	</g>
</g>
</svg>
