<?xml version="1.0" encoding="UTF-8" standalone="no"?>
<svg width="100px" height="95px" viewBox="0 0 100 95" version="1.1" xmlns="http://www.w3.org/2000/svg" xmlns:xlink="http://www.w3.org/1999/xlink">
    <!-- Generator: Sketch 3.6.1 (26313) - http://www.bohemiancoding.com/sketch -->
    <title>Group</title>
    <desc>Created with Sketch.</desc>
    <defs></defs>
    <g id="obsocial-02-04-16" stroke="none" stroke-width="1" fill="none" fill-rule="evenodd">
        <g id="Donar---S2" transform="translate(-418.000000, -1624.000000)" fill="#FFFFFF">
            <g id="Group-16" transform="translate(332.000000, 1624.000000)">
                <g id="Group" transform="translate(86.000000, 0.000000)">
                    <path d="M80.0209157,17.122093 L75.9397645,19.4418605 C74.947052,19.994186 73.5131341,19.6627907 72.9616271,18.6686047 L64.0272151,2.87209302 C63.2551054,1.65697674 61.710886,0.441860465 59.8357625,0.441860465 L44.5038702,0.441860465 C44.5038702,0.441860465 44.3935688,0.441860465 44.5038702,0.552325581 C45.2759799,1.98837209 59.2842556,26.5116279 59.2842556,26.5116279 C59.6151597,27.0639535 59.6151597,27.6162791 59.5048584,28.1686047 C59.394557,28.7209302 58.9533514,29.1627907 58.5121459,29.494186 L54.5412961,31.8139535 C54.3206933,31.9244186 54.4309947,32.0348837 54.5412961,32.0348837 L74.5058465,37.4476744 C74.6161479,37.4476744 74.7264493,37.4476744 74.8367507,37.3372093 L80.2415184,17.2325581 C80.2415184,17.122093 80.1312171,17.0116279 80.0209157,17.122093 L80.0209157,17.122093 Z" id="Shape"></path>
                    <path d="M38.6578969,1.21511628 C38.10639,1.21511628 37.4445817,1.43604651 36.8930748,2.43023256 L36.1209651,3.64534884 L24.2084157,24.1918605 C24.2084157,24.1918605 24.0981143,24.3023256 24.0981143,24.4127907 C24.0981143,24.5232558 24.0981143,24.5232558 24.2084157,24.6337209 C24.3187171,24.6337209 37.3342803,32.255814 37.3342803,32.3662791 C37.4445817,32.4767442 37.5548831,32.4767442 37.6651845,32.4767442 C37.7754858,32.4767442 37.7754858,32.4767442 37.8857872,32.3662791 C37.8857872,32.255814 47.592309,15.5755814 47.592309,15.5755814 C47.592309,15.5755814 47.7026103,15.4651163 47.7026103,15.3546512 C47.7026103,15.244186 47.592309,15.1337209 47.592309,15.1337209 L40.7536232,2.98255814 C40.422719,2.20930233 39.8712121,1.21511628 38.6578969,1.21511628 L38.6578969,1.21511628 Z" id="Shape"></path>
                    <path d="M5.34687912,42.8604651 L9.31772892,45.1802326 C10.3104414,45.7325581 10.6413455,47.1686047 10.0898386,48.1627907 L1.04512516,63.9593023 C0.273015481,65.1744186 0.0524127141,67.2732558 1.04512516,68.8197674 C1.04512516,68.8197674 8.766222,82.0755814 8.766222,82.1860465 L8.87652339,82.1860465 C9.75893445,80.6395349 23.9878129,56.2267442 23.9878129,56.2267442 C24.3187171,55.6744186 24.7599226,55.3430233 25.3114295,55.2325581 C25.8629364,55.122093 26.4144433,55.122093 26.9659503,55.4534884 L30.9368001,57.7732558 C31.1574028,57.8837209 31.1574028,57.7732558 31.1574028,57.6627907 L25.752635,37.5581395 C25.752635,37.4476744 25.6423337,37.3372093 25.5320323,37.3372093 L5.34687912,42.75 C5.23657773,42.75 5.23657773,42.8604651 5.34687912,42.8604651 L5.34687912,42.8604651 Z" id="Shape"></path>
                    <path d="M12.2958663,86.7151163 C12.6267704,87.2674419 13.067976,87.7093023 14.3915926,87.8197674 L15.7152092,87.8197674 L39.540308,87.8197674 C39.7609107,87.8197674 39.7609107,87.7093023 39.7609107,87.5988372 L39.7609107,72.244186 C39.7609107,72.0232558 39.6506094,71.9127907 39.540308,71.9127907 L20.1272645,71.9127907 C19.9066617,71.9127907 19.7963603,71.9127907 19.686059,72.1337209 L12.7370718,83.9534884 C12.2958663,84.7267442 11.634058,85.7209302 12.2958663,86.7151163 L12.2958663,86.7151163 Z" id="Shape"></path>
                    <path d="M65.0199275,94.5581395 L65.0199275,89.9186047 C65.0199275,88.7034884 66.01264,87.7093023 67.1156538,87.7093023 L85.3153821,87.7093023 C86.7493001,87.7093023 88.6244236,86.9360465 89.5068347,85.3895349 C89.5068347,85.3895349 97.2279315,72.1337209 97.2279315,72.0232558 L97.2279315,71.9127907 L67.446558,71.9127907 C66.6744483,71.9127907 66.01264,71.5813953 65.5714345,71.1395349 C65.1302289,70.6976744 64.9096262,70.1453488 64.9096262,69.5930233 L64.9096262,65.0639535 C64.9096262,64.8430233 64.7993248,64.8430233 64.6890234,64.9534884 L50.1292408,79.5348837 C50.0189394,79.6453488 50.0189394,79.755814 50.1292408,79.8662791 L64.7993248,94.5581395 C64.9096262,94.6686047 65.0199275,94.6686047 65.0199275,94.5581395 L65.0199275,94.5581395 Z" id="Shape"></path>
                    <path d="M99.4339592,66.6104651 C99.7648633,66.0581395 99.8751647,65.505814 99.2133564,64.4011628 L98.5515481,63.1860465 C98.5515481,63.1860465 86.7493001,42.6395349 86.7493001,42.5290698 C86.7493001,42.4186047 86.7493001,42.4186047 86.6389987,42.3081395 L86.4183959,42.3081395 C86.3080945,42.3081395 73.2925313,49.8197674 73.1822299,49.9302326 C73.0719285,50.0406977 72.9616271,50.0406977 72.9616271,50.1511628 L72.9616271,50.372093 C72.9616271,50.4825581 82.4475461,66.9418605 82.5578475,67.1627907 C82.6681489,67.3837209 82.7784503,67.494186 83.2196558,67.494186 L96.786726,67.494186 C97.669137,67.6046512 98.7721509,67.6046512 99.4339592,66.6104651 L99.4339592,66.6104651 Z" id="Shape"></path>
                </g>
            </g>
        </g>
    </g>
</svg>