<?xml version="1.0" encoding="utf-8"?>
<!-- Generator: Adobe Illustrator 19.2.0, SVG Export Plug-In . SVG Version: 6.00 Build 0)  -->
<svg version="1.1" id="Capa_1" xmlns="http://www.w3.org/2000/svg" xmlns:xlink="http://www.w3.org/1999/xlink" x="0px" y="0px"
	 viewBox="0 0 72 72" style="enable-background:new 0 0 72 72;" xml:space="preserve">
<style type="text/css">
	.st0{fill:none;stroke:#FFFFFF;}
	.st1{fill:#FFFFFF;}
</style>
<title>icons</title>
<desc>Created with Sketch.</desc>
<circle id="Oval-1-Copy-3" class="st0" cx="36" cy="35.9" r="35"/>
<g>
	<path id="Path" class="st1" d="M51.9,27.7c-1.4-0.8-2.2,0.3-2.6,0.8c-0.4,0.5-5,7.7-5,7.7s-0.5,0.1-0.4-0.6
		c0.1-0.7,2.5-10.6,2.5-10.6s0.6-3.3-0.9-3.5c-1.5-0.2-2,0.9-2.3,1.9c-0.3,1-3,10.7-3,10.7s-0.8,1.1-0.8-0.1s-0.2-11.6-0.2-11.6
		s0.2-3.1-1.9-2.9c-2.1,0.2-1.9,2.2-1.9,2.2l0.2,12.1c0,0-0.8,1.3-1.2,0.2c-0.4-1.2-3.8-10.6-3.8-10.6s-0.6-1.4-2.2-0.8
		c-1.6,0.6-1,2.4-1,2.4l3,10.4c0,0,0.3,0.9,0.3,1.8c0,0.9-0.2,2.3-0.4,3c0,0-0.3,0.8-0.3,0.8c0,0-0.1,0-0.1,0c0,0,0,0,0.1,0
		l-0.1,0.2c-0.2,0-0.4,0-0.4,0c-3.5-5.7-8.5-5.3-8.5-5.3s-1.9,0.6-1.3,1.9c0.6,1.3,0.9,0.4,3.3,2.7c2.4,2.3,3.2,4.6,3.6,5.5
		c0.4,0.8,1.9,3.3,3.6,4.4c1.7,1,3.1,2.1,3.1,2.1h9.8c0,0,3.1-1.8,4-8.2l0.2-4.7c0,0,0-0.4,0.3-1c0.3-0.6,3.8-6.8,3.8-6.8
		S53.4,28.5,51.9,27.7L51.9,27.7L51.9,27.7z"/>
</g>
</svg>
