<?xml version="1.0" encoding="utf-8"?>
<!-- Generator: Adobe Illustrator 19.2.0, SVG Export Plug-In . SVG Version: 6.00 Build 0)  -->
<svg version="1.1" id="Capa_1" xmlns="http://www.w3.org/2000/svg" xmlns:xlink="http://www.w3.org/1999/xlink" x="0px" y="0px"
	 viewBox="0 0 72 72" style="enable-background:new 0 0 72 72;" xml:space="preserve">
<style type="text/css">
	.st0{fill:none;stroke:#FFFFFF;}
	.st1{fill:#FFFFFF;}
</style>
<title>icons</title>
<desc>Created with Sketch.</desc>
<circle id="Oval-1-Copy-4" class="st0" cx="36" cy="36" r="35"/>
<g id="Group" transform="translate(16.000000, 16.000000)">
	<path id="Shape" class="st1" d="M31.5,8.7l-1.5,0.8c-0.4,0.2-0.9,0.1-1.1-0.3l-3.2-5.7c-0.3-0.4-0.8-0.9-1.5-0.9h-5.5c0,0,0,0,0,0
		c0.3,0.5,5.3,9.3,5.3,9.3c0.1,0.2,0.1,0.4,0.1,0.6s-0.2,0.4-0.4,0.5L22.4,14c-0.1,0,0,0.1,0,0.1l7.2,1.9c0,0,0.1,0,0.1,0L31.5,8.7
		C31.6,8.7,31.6,8.7,31.5,8.7L31.5,8.7L31.5,8.7z"/>
	<path id="Shape_1_" class="st1" d="M16.9,3.6c-0.2,0-0.4,0.1-0.6,0.4L16,4.5l-4.3,7.4c0,0,0,0,0,0.1c0,0,0,0,0,0.1
		c0,0,4.7,2.7,4.7,2.8c0,0,0.1,0,0.1,0c0,0,0,0,0.1,0c0,0,3.5-6,3.5-6s0,0,0-0.1c0,0,0-0.1,0-0.1l-2.5-4.4C17.5,4,17.3,3.6,16.9,3.6
		L16.9,3.6L16.9,3.6z"/>
	<path id="Shape_2_" class="st1" d="M3.7,18l1.4,0.8c0.4,0.2,0.5,0.7,0.3,1.1l-3.3,5.7c-0.3,0.4-0.4,1.2,0,1.7c0,0,2.8,4.8,2.8,4.8
		h0c0.3-0.6,5.4-9.3,5.4-9.3c0.1-0.2,0.3-0.3,0.5-0.4c0.2,0,0.4,0,0.6,0.1l1.4,0.8c0.1,0,0.1,0,0.1,0L11.1,16c0,0,0-0.1-0.1-0.1
		L3.7,18C3.7,17.9,3.7,18,3.7,18L3.7,18L3.7,18z"/>
	<path id="Shape_3_" class="st1" d="M6.5,33.7c0.1,0.2,0.3,0.4,0.8,0.4h0.5h8.6c0.1,0,0.1,0,0.1-0.1v-5.5c0-0.1,0-0.1-0.1-0.1h-7
		c-0.1,0-0.1,0-0.2,0.1l-2.5,4.3C6.5,32.9,6.2,33.3,6.5,33.7L6.5,33.7L6.5,33.7z"/>
	<path id="Shape_4_" class="st1" d="M25.9,37.2v-1.7c0-0.4,0.4-0.8,0.8-0.8h6.5c0.5,0,1.2-0.3,1.5-0.8c0,0,2.8-4.8,2.8-4.8v0H26.8
		c-0.3,0-0.5-0.1-0.7-0.3s-0.2-0.4-0.2-0.6v-1.6c0-0.1,0-0.1-0.1,0l-5.2,5.2c0,0,0,0.1,0,0.1L25.9,37.2
		C25.8,37.3,25.9,37.3,25.9,37.2L25.9,37.2L25.9,37.2z"/>
	<path id="Shape_5_" class="st1" d="M38,26.5c0.1-0.2,0.2-0.4-0.1-0.8l-0.2-0.4c0,0-4.2-7.4-4.2-7.4c0,0,0,0,0-0.1h-0.1
		c0,0-4.7,2.7-4.8,2.7c0,0-0.1,0-0.1,0.1v0.1c0,0,3.4,6,3.5,6c0,0.1,0.1,0.1,0.2,0.1H37C37.3,26.8,37.7,26.8,38,26.5L38,26.5
		L38,26.5z"/>
</g>
</svg>
