<?xml version="1.0" encoding="UTF-8" standalone="no"?>
<svg width="72px" height="72px" viewBox="0 0 72 72" version="1.1" xmlns="http://www.w3.org/2000/svg" xmlns:xlink="http://www.w3.org/1999/xlink">
    <!-- Generator: Sketch 3.6.1 (26313) - http://www.bohemiancoding.com/sketch -->
    <title>icons</title>
    <desc>Created with Sketch.</desc>
    <defs></defs>
    <g id="Page-1" stroke="none" stroke-width="1" fill="none" fill-rule="evenodd">
        <circle id="Oval-1-Copy-2" stroke="#FFFFFF" cx="36" cy="36" r="35"></circle>
        <g id="Group" transform="translate(22.000000, 21.000000)" fill="#FFFFFF">
            <path d="M23.5625,0 L21.75,0 L21.75,11.78125 L7.25,11.78125 L7.25,0 L0,0 L0,29 L29,29 L29,5.4375 L23.5625,0 L23.5625,0 L23.5625,0 Z M25.375,27.1875 L3.625,27.1875 L3.625,14.5 L25.375,14.5 L25.375,27.1875 L25.375,27.1875 L25.375,27.1875 Z" id="Shape"></path>
            <rect id="Rectangle-path" x="5.49473684" y="16.4842105" width="18.125" height="1.8125"></rect>
            <rect id="Rectangle-path" x="5.49473684" y="20.1473684" width="18.125" height="1.8125"></rect>
            <rect id="Rectangle-path" x="5.49473684" y="23.5052632" width="18.125" height="1.8125"></rect>
            <rect id="Rectangle-path" x="16.1789474" y="1.83157895" width="3.625" height="8.15625"></rect>
        </g>
    </g>
</svg>