<?xml version="1.0" encoding="utf-8"?>
<!-- Generator: Adobe Illustrator 19.2.0, SVG Export Plug-In . SVG Version: 6.00 Build 0)  -->
<svg version="1.1" id="Capa_1" xmlns="http://www.w3.org/2000/svg" xmlns:xlink="http://www.w3.org/1999/xlink" x="0px" y="0px"
	 viewBox="0 0 93 145" style="enable-background:new 0 0 93 145;" xml:space="preserve">
<style type="text/css">
	.st0{opacity:0.15;}
	.st1{enable-background:new    ;}
	.st2{fill:#FFFFFF;}
</style>
<title>5</title>
<desc>Created with Sketch.</desc>
<g id="obsocial-02-04-16" class="st0">
	<g id="Donar---S2" transform="translate(-343.000000, -1779.000000)">
		<g id="Group-16" transform="translate(332.000000, 1624.000000)">
			<g class="st1">
				<path class="st2" d="M54.8,210.8c15,0,26.9,3.7,35.5,11.2c8.6,7.5,12.9,17.7,12.9,30.6c0,14.8-4.7,26.4-14.1,34.8
					c-9.4,8.4-22.4,12.6-38.9,12.6c-16.1,0-28.4-2.6-36.8-7.7v-15.6c4.6,2.9,10.2,5.2,17,6.9c6.8,1.7,13.4,2.5,20,2.5
					c11.5,0,20.4-2.7,26.7-8.1c6.3-5.4,9.5-13.2,9.5-23.4c0-19.9-12.2-29.9-36.6-29.9c-6.2,0-14.5,0.9-24.8,2.8l-8.4-5.4l5.4-66.8
					h71v14.9H36.1L32.5,213C39.9,211.5,47.4,210.8,54.8,210.8z"/>
			</g>
		</g>
	</g>
</g>
</svg>
