<?xml version="1.0" encoding="UTF-8" standalone="no"?>
<svg width="99px" height="95px" viewBox="0 0 99 95" version="1.1" xmlns="http://www.w3.org/2000/svg" xmlns:xlink="http://www.w3.org/1999/xlink">
    <!-- Generator: Sketch 3.6.1 (26313) - http://www.bohemiancoding.com/sketch -->
    <title>Group 12</title>
    <desc>Created with Sketch.</desc>
    <defs></defs>
    <g id="obsocial-02-04-16" stroke="none" stroke-width="1" fill="none" fill-rule="evenodd">
        <g id="Donar---S2" transform="translate(-418.000000, -728.000000)" fill="#FFFFFF">
            <g id="Group-10" transform="translate(418.000000, 728.000000)">
                <g id="Group-12">
                    <path d="M95.4202865,11.1764706 L42.3320512,11.1764706 C40.7885806,11.1764706 39.5379336,12.4271176 39.5379336,13.9705882 C39.5379336,15.5140588 40.7885806,16.7647059 42.3320512,16.7647059 L95.4202865,16.7647059 C96.9637571,16.7647059 98.2144042,15.5140588 98.2144042,13.9705882 C98.2144042,12.4271176 96.9637571,11.1764706 95.4202865,11.1764706 L95.4202865,11.1764706 Z" id="Shape"></path>
                    <path d="M95.4202865,44.7058824 L42.3320512,44.7058824 C40.7885806,44.7058824 39.5379336,45.9565294 39.5379336,47.5 C39.5379336,49.0434706 40.7885806,50.2941176 42.3320512,50.2941176 L95.4202865,50.2941176 C96.9637571,50.2941176 98.2144042,49.0434706 98.2144042,47.5 C98.2144042,45.9565294 96.9637571,44.7058824 95.4202865,44.7058824 L95.4202865,44.7058824 Z" id="Shape"></path>
                    <path d="M95.4202865,78.2352941 L42.3320512,78.2352941 C40.7885806,78.2352941 39.5379336,79.4859412 39.5379336,81.0294118 C39.5379336,82.5728824 40.7885806,83.8235294 42.3320512,83.8235294 L95.4202865,83.8235294 C96.9637571,83.8235294 98.2144042,82.5728824 98.2144042,81.0294118 C98.2144042,79.4859412 96.9637571,78.2352941 95.4202865,78.2352941 L95.4202865,78.2352941 Z" id="Shape"></path>
                    <path d="M3.21440417,27.9411765 L25.5673453,27.9411765 C27.1108159,27.9411765 28.361463,26.6905294 28.361463,25.1470588 L28.361463,2.79411765 C28.361463,1.25064706 27.1108159,0 25.5673453,0 L3.21440417,0 C1.67093358,0 0.420286525,1.25064706 0.420286525,2.79411765 L0.420286525,25.1470588 C0.420286525,26.6905294 1.67093358,27.9411765 3.21440417,27.9411765 L3.21440417,27.9411765 Z M6.00852182,5.58823529 L22.7732277,5.58823529 L22.7732277,22.3529412 L6.00852182,22.3529412 L6.00852182,5.58823529 L6.00852182,5.58823529 Z" id="Shape"></path>
                    <path d="M0.420286525,58.6764706 C0.420286525,60.2199412 1.67093358,61.4705882 3.21440417,61.4705882 L25.5673453,61.4705882 C27.1108159,61.4705882 28.361463,60.2199412 28.361463,58.6764706 L28.361463,36.3235294 C28.361463,34.7800588 27.1108159,33.5294118 25.5673453,33.5294118 L3.21440417,33.5294118 C1.67093358,33.5294118 0.420286525,34.7800588 0.420286525,36.3235294 L0.420286525,58.6764706 L0.420286525,58.6764706 Z M6.00852182,39.1176471 L22.7732277,39.1176471 L22.7732277,42.7298824 L15.7879336,49.7151765 L11.1876983,45.1149412 C10.6422865,44.5695294 9.7582277,44.5695294 9.21169829,45.1149412 C8.66516888,45.6603529 8.66628652,46.5444118 9.21169829,47.0909412 L14.7999336,52.6791765 C15.0726395,52.9518824 15.4302865,53.0882353 15.7879336,53.0882353 C16.1455806,53.0882353 16.5032277,52.9518824 16.7759336,52.6791765 L22.7732277,46.6818824 L22.7732277,55.8823529 L6.00852182,55.8823529 L6.00852182,39.1176471 L6.00852182,39.1176471 Z" id="Shape"></path>
                    <path d="M0.420286525,92.2058824 C0.420286525,93.7493529 1.67093358,95 3.21440417,95 L25.5673453,95 C27.1108159,95 28.361463,93.7493529 28.361463,92.2058824 L28.361463,69.8529412 C28.361463,68.3094706 27.1108159,67.0588235 25.5673453,67.0588235 L3.21440417,67.0588235 C1.67093358,67.0588235 0.420286525,68.3094706 0.420286525,69.8529412 L0.420286525,92.2058824 L0.420286525,92.2058824 Z M6.00852182,72.6470588 L22.7732277,72.6470588 L22.7732277,89.4117647 L6.00852182,89.4117647 L6.00852182,72.6470588 L6.00852182,72.6470588 Z" id="Shape"></path>
                </g>
            </g>
        </g>
    </g>
</svg>