<?xml version="1.0" encoding="UTF-8" standalone="no"?>
<svg width="96px" height="85px" viewBox="0 0 96 85" version="1.1" xmlns="http://www.w3.org/2000/svg" xmlns:xlink="http://www.w3.org/1999/xlink">
    <!-- Generator: Sketch 3.6.1 (26313) - http://www.bohemiancoding.com/sketch -->
    <title>Fill 251</title>
    <desc>Created with Sketch.</desc>
    <defs></defs>
    <g id="Paginas" stroke="none" stroke-width="1" fill="none" fill-rule="evenodd">
        <g id="8-Blog-articulo" transform="translate(-192.000000, -3379.000000)" fill="#00BD9C">
            <path d="M261.957912,3407.33402 C257.029434,3407.33402 253.034898,3411.33177 253.034898,3416.26421 C253.034898,3421.19665 257.029434,3425.1944 261.957912,3425.1944 C266.886389,3425.1944 270.880925,3421.19665 270.880925,3416.26421 C270.880925,3411.33177 266.886389,3407.33402 261.957912,3407.33402 M239.650378,3407.33402 C234.721901,3407.33402 230.727365,3411.33177 230.727365,3416.26421 C230.727365,3421.19665 234.721901,3425.1944 239.650378,3425.1944 C244.578856,3425.1944 248.573392,3421.19665 248.573392,3416.26421 C248.573392,3411.33177 244.578856,3407.33402 239.650378,3407.33402 M217.342845,3407.33402 C212.414367,3407.33402 208.419832,3411.33177 208.419832,3416.26421 C208.419832,3421.19665 212.414367,3425.1944 217.342845,3425.1944 C222.271323,3425.1944 226.265858,3421.19665 226.265858,3416.26421 C226.265858,3411.33177 222.271323,3407.33402 217.342845,3407.33402 M242.174104,3451.88824 C238.761051,3451.88824 235.428306,3450.90146 232.204124,3450.43857 C219.167601,3466.93115 198.607491,3463.68652 198.607491,3463.68652 C213.128208,3456.80729 212.835236,3445.41385 210.253511,3443.89572 C198.854361,3437.19361 192,3426.9864 192,3415.55426 C192,3395.36607 214.169227,3379 242.174104,3379 C270.177494,3379 287.245732,3395.36607 287.245732,3415.55426 C287.245732,3435.74394 270.177494,3451.88824 242.174104,3451.88824" id="Fill-251"></path>
        </g>
    </g>
</svg>