<?xml version="1.0" encoding="UTF-8" standalone="no"?>
<svg width="100px" height="48px" viewBox="0 0 100 48" version="1.1" xmlns="http://www.w3.org/2000/svg" xmlns:xlink="http://www.w3.org/1999/xlink" xmlns:sketch="http://www.bohemiancoding.com/sketch/ns">
    <!-- Generator: Sketch 3.5.1 (25234) - http://www.bohemiancoding.com/sketch -->
    <title>info-cuatro</title>
    <desc>Created with Sketch.</desc>
    <defs></defs>
    <g id="Page-1" stroke="none" stroke-width="1" fill="none" fill-rule="evenodd" sketch:type="MSPage">
        <g id="info-cuatro" sketch:type="MSLayerGroup" fill="#FFFFFF">
            <path d="M34.85,30.56 L34.66,28.89 L32.91,28.91 L32.85,27.61 L30.54,27.46 L29.61,27 L28.01,27.69 L26.28,27.67 L26.09,26.33 L25.18,26.16 L25.18,25.5 L25.35,24.89 L24.73,24.56 L23.99,25.17 L23.38,25.09 L22.47,24.13 L23.4,22.47 L26.12,22.47 L26.64,23.41 L27.43,23.42 L26.9,22.01 L28.58,20.54 L28.41,19.62 L29.22,18.91 L29.84,19.06 L29.83,17.81 L33.75,15.51 L31.11,12.16 L27.62,11.68 L27.62,13.27 L27.93,13.67 L27.42,15.25 L25.77,13.61 L24.25,13.28 L23.21,12.46 L24.48,10.84 L26.8,11.02 L26.48,9.94 L26.97,8.7 L27.9,8.79 L27.67,10.51 L30.58,10.98 L32.07,9.29 L27.11,5.14 L30.85,1.03 L26.4,0.89 L15.7,4.93 L15.21,6.93 L17.28,8.38 L6.11,7.31 L3.93,8.44 L4.5,12.19 L5.87,13.34 L4.08,15.22 L9.44,12.46 L11.69,12.81 L13.52,14.7 L12.94,14.73 L13.32,15.65 L14.17,15.5 L15.36,17.14 L15.19,19.51 L18.56,24.08 L19.88,24.08 L20.86,25.36 L23.91,27.13 L25.15,27.13 L25.85,28.54 L27.43,28.54 L27.43,29.81 L26.72,30.8 L28.27,34.65 L29.87,35.34 L28.7,41.58 L28.73,45.28 L30.45,47.22 L31.13,46.45 L30.32,45.51 L31.28,44.65 L31.28,43.77 L30.94,43.15 L38.03,35.62 L38.22,33.56 L39.18,32.61 L36.24,30.62 L34.85,30.56 L34.85,30.56 Z" id="Shape" sketch:type="MSShapeGroup"></path>
            <path d="M43.45,3.12 L44.75,1.95 L42.31,0 L31.96,1.21 L29.5,4.3 L30.3,5.32 L31.7,4.81 L33.24,5.89 L33.83,9.38 L35.52,12.01 L37.02,12.09 L37.81,10.22 L41.09,9.25 L43.26,6.04 L43.45,3.12 L43.45,3.12 Z" id="Shape" sketch:type="MSShapeGroup"></path>
            <path d="M44.17,9.5 L42.06,10.09 L43.27,11.79 L45.25,10.37 L44.17,9.5 L44.17,9.5 Z" id="Shape" sketch:type="MSShapeGroup"></path>
            <path d="M26.4,24.84 L28.19,25.21 L28.39,24.51 L26.67,24.05 L26.4,24.84 L26.4,24.84 Z" id="Shape" sketch:type="MSShapeGroup"></path>
            <path d="M28.22,22.89 L28.22,23.65 L29.07,24.05 L28.22,22.89 L28.22,22.89 Z" id="Shape" sketch:type="MSShapeGroup"></path>
            <path d="M32.31,26.08 L29.22,24.84 L29.07,25.53 L31.9,26.46 L32.31,26.08 L32.31,26.08 Z" id="Shape" sketch:type="MSShapeGroup"></path>
            <path d="M0.68,23.39 L1.81,22.52 L0,21.9 L0.68,23.39 L0.68,23.39 Z" id="Shape" sketch:type="MSShapeGroup"></path>
            <path d="M5.7,24.55 L3,23.39 L2.79,24.12 L5.29,25.53 L6.3,24.93 L7.9,26.04 L8.38,25.22 L6.84,23.87 L5.7,24.55 L5.7,24.55 Z" id="Shape" sketch:type="MSShapeGroup"></path>
            <path d="M11.25,36.1 L12.27,36.79 L13.08,36.33 L12.05,35.17 L11.25,36.1 L11.25,36.1 Z" id="Shape" sketch:type="MSShapeGroup"></path>
            <path d="M13.3,37.39 L14.22,38.07 L14.86,37.39 L13.97,36.71 L13.3,37.39 L13.3,37.39 Z" id="Shape" sketch:type="MSShapeGroup"></path>
            <path d="M45.84,15.85 L46.46,15.13 L45.7,14.09 L45.06,15.13 L45.84,15.85 L45.84,15.85 Z" id="Shape" sketch:type="MSShapeGroup"></path>
            <path d="M46.85,15.69 L48.51,15.69 L48.51,14.73 L47.55,14.03 L47.03,12.83 L46.31,13.73 L47.37,14.61 L46.85,15.69 L46.85,15.69 Z" id="Shape" sketch:type="MSShapeGroup"></path>
            <path d="M51.17,20.08 L51.83,20.3 L51.51,19.41 L51.17,20.08 L51.17,20.08 Z" id="Shape" sketch:type="MSShapeGroup"></path>
            <path d="M59.61,35.02 L59.33,36.42 L60.79,37.58 L61.72,34.23 L61.19,33.81 L59.61,35.02 L59.61,35.02 Z" id="Shape" sketch:type="MSShapeGroup"></path>
            <path d="M77.52,29.89 L77.47,31.28 L79.03,31.68 L79.99,29.91 L79,28.44 L77.52,29.89 L77.52,29.89 Z" id="Shape" sketch:type="MSShapeGroup"></path>
            <path d="M81.67,30.21 L80.82,29.99 L79.99,31.68 L80.83,31.8 L81.67,30.21 L81.67,30.21 Z" id="Shape" sketch:type="MSShapeGroup"></path>
            <path d="M83.08,32.22 L87.77,33.2 L87.31,31.68 L82.9,30.51 L83.08,32.22 L83.08,32.22 Z" id="Shape" sketch:type="MSShapeGroup"></path>
            <path d="M85.48,33.75 L85.34,35.03 L83.11,33.48 L78.2,36.64 L78.33,38.68 L78.98,38.91 L78.59,40.55 L82.27,39.8 L82.33,39.16 L85.49,41.46 L87.11,41.57 L89.07,37.96 L86.26,33.63 L85.48,33.75 L85.48,33.75 Z" id="Shape" sketch:type="MSShapeGroup"></path>
            <path d="M93.72,39.18 L93.31,39.83 L93.93,40.7 L93.96,41.33 L91.96,43.28 L92.31,44.6 L93.11,44.54 L94.66,42.58 L94.47,40.2 L93.72,39.18 L93.72,39.18 Z" id="Shape" sketch:type="MSShapeGroup"></path>
            <path d="M84.78,20 L82.32,21.41 L83.05,22.27 L85.53,20.86 L86.75,18.48 L85.58,17.73 L84.78,20 L84.78,20 Z" id="Shape" sketch:type="MSShapeGroup"></path>
            <path d="M85.62,22.27 L85.02,22.11 L85.8,24.29 L86.53,23.65 L85.62,22.27 L85.62,22.27 Z" id="Shape" sketch:type="MSShapeGroup"></path>
            <path d="M87.11,17.22 L87.64,17.91 L89.52,17.11 L88.77,16.51 L87.11,17.22 L87.11,17.22 Z" id="Shape" sketch:type="MSShapeGroup"></path>
            <path d="M96.38,10.52 L100,10.58 L99.15,9.61 L94.86,7.94 L91.49,8.3 L90.5,7.64 L86.5,7.31 L85.87,6.14 L84.56,7.48 L76.38,6.62 L78.75,5.11 L75.41,4.28 L70.27,6.24 L69.89,7.14 L69.14,7.14 L66.85,6.52 L65.34,7.85 L65.73,8.58 L63.08,7.01 L64.45,5.53 L66.62,4.85 L66.23,4.09 L64.1,4.94 L62.19,6.85 L63.65,8.53 L61.38,8.57 L58.15,10.73 L57.02,9.55 L58.79,9.56 L59.37,8.49 L55.12,7.58 L52.41,8.19 L49.62,11.68 L49.64,13.09 L51.1,12.8 L51.47,13.76 L52.88,13.36 L53.01,12.16 L52.53,11.85 L52.52,11.49 L54.03,9.71 L54.75,10.45 L53.61,11.36 L54.09,12.48 L55.52,11.8 L56.14,12.42 L53.56,13.48 L53.42,14.08 L51.05,14.21 L50.6,13.46 L49.99,13.85 L50.29,14.77 L49.14,15.85 L48.33,15.98 L47.25,16.88 L47.9,17.57 L47.63,18.41 L45.72,18.3 L46.66,20.84 L49.28,18.38 L49.69,18.61 L50.5,17.91 L52.03,19.07 L52.28,20.26 L53.05,19.11 L51.72,17.52 L52.15,17.16 L53.69,18.92 L53.86,20.29 L55.05,21.13 L54.8,19.4 L55.12,19.56 L56.28,21.16 L57.33,19.88 L57.36,21.34 L56.91,21.8 L54.34,21.8 L53.61,21.15 L52.72,21.97 L51.87,21.64 L50.94,21.48 L50.77,21.16 L50.91,20.67 L50.42,20.2 L48.01,20.34 L44.01,23.87 L44.18,27.41 L46.02,29 L49.27,29.04 L50.8,30.15 L50.15,30.59 L51.73,32.44 L51.73,34.02 L51.15,34.79 L53.1,39.96 L55.26,40.13 L58,36.75 L58,35.49 L59.12,34.67 L58.95,32.92 L58.48,32.47 L62.03,27.44 L60.1,27.58 L58.62,26.27 L57.19,23.28 L57.2,22.14 L58,22.13 L60.58,26.93 L62.98,26.12 L63.87,24.85 L62.85,23.87 L62.01,24.24 L61.06,22.65 L66.69,23.57 L66.69,25.18 L67.31,25.37 L68.26,28.01 L69.59,27.58 L69.59,26.16 L71.53,24.84 L71.71,23.74 L72.47,23.61 L72.51,24.96 L74.43,29.06 L73.14,29.12 L76.37,32.67 L78.61,33.06 L78.61,32.42 L76.51,31.76 L76.05,30.34 L75.2,30.16 L75.08,29.37 L76.03,29.66 L76.37,29.2 L74.91,28.31 L74.64,26.83 L74.95,26.63 L75.82,27.98 L77.38,26.98 L76.35,25.53 L80.21,23.27 L80.05,20.04 L81.03,19.53 L81.59,21.11 L82.83,20.2 L82.44,19.27 L84.68,17.82 L84.85,16.81 L85.92,16.81 L85.82,14.67 L84.32,15.02 L84.58,13.92 L86.71,12.82 L90.51,12.5 L89.56,13.9 L89.89,16 L91.64,13.76 L91.64,12.5 L94.86,12.12 L96.64,11.79 L95.75,10.9 L96.38,10.52 L96.38,10.52 Z" id="Shape" sketch:type="MSShapeGroup"></path>
        </g>
    </g>
</svg>