<?xml version="1.0" encoding="utf-8"?>
<!-- Generator: Adobe Illustrator 19.2.0, SVG Export Plug-In . SVG Version: 6.00 Build 0)  -->
<svg version="1.1" id="Capa_1" xmlns="http://www.w3.org/2000/svg" xmlns:xlink="http://www.w3.org/1999/xlink" x="0px" y="0px"
	 viewBox="0 0 95.6 95.6" style="enable-background:new 0 0 95.6 95.6;" xml:space="preserve">
<style type="text/css">
	.st0{fill:#00BD9C;}
</style>
<g>
	<g>
		<path class="st0" d="M49.6,50.3c0,0.6,0.1,1.1,0.2,1.4s0.4,0.5,0.7,0.7c0.3,0.2,0.7,0.3,1.2,0.3h1.2v-1.4c-0.5,0-1.2-0.1-1.4-0.2
			c-0.2-0.2-0.3-0.5-0.3-0.9v-3.4h1.5v-1.2h-1.5v-2h-1.6v2h-1.1v1.2h1C49.6,46.7,49.6,50.3,49.6,50.3z"/>
		<polygon class="st0" points="31,44.1 33.9,52.5 34.9,52.5 37.8,44.1 37.8,52.5 39.7,52.5 39.7,42.9 36.7,42.9 34.6,49.1 
			32.4,42.9 29.4,42.9 29.4,52.5 31,52.5 		"/>
		<path class="st0" d="M62.5,52.6c1.1,0,1.9-0.3,2.6-1c0.7-0.7,1-1.6,1-2.7c0-1.1-0.3-2-1-2.6s-1.5-1-2.5-1c-1.1,0-2,0.3-2.6,1
			c-0.7,0.7-1,1.6-1,2.6c0,1,0.3,1.8,0.9,2.6C60.5,52.2,61.4,52.6,62.5,52.6z M61.3,47.2c0.3-0.4,0.7-0.6,1.3-0.6
			c0.6,0,1,0.2,1.3,0.6c0.3,0.4,0.4,1,0.4,1.7c0,1.6-0.6,2.4-1.7,2.4c-0.5,0-1-0.2-1.3-0.6c-0.3-0.4-0.5-1-0.5-1.8
			C60.9,48.2,61,47.7,61.3,47.2z"/>
		<path class="st0" d="M44.3,52.6c0.9,0,1.6-0.2,2.2-0.6c0.6-0.4,1-0.9,1.2-1.6l-1.6-0.2c-0.3,0.8-0.9,1.1-1.7,1.1
			c-0.4,0-0.8-0.1-1.1-0.3s-0.5-0.5-0.6-0.8c-0.1-0.3-0.1-0.7-0.1-1.2h5.3l0-0.2c0-1.1-0.3-2-0.9-2.6s-1.4-1-2.5-1
			c-1.1,0-2,0.3-2.7,1c-0.7,0.7-1,1.6-1,2.6c0,1.1,0.3,2,1,2.7C42.3,52.3,43.2,52.6,44.3,52.6z M43.1,46.8c0.3-0.3,0.7-0.5,1.2-0.5
			c0.5,0,0.9,0.2,1.2,0.5c0.3,0.3,0.5,0.7,0.5,1.2h-3.5C42.6,47.6,42.8,47.1,43.1,46.8z"/>
		<path class="st0" d="M56.1,49.2c0-0.5,0.1-1,0.4-1.5c0.3-0.5,0.9-0.8,1.8-0.8v-1.7c-0.1,0-0.2,0-0.2,0c-0.4,0-0.8,0.2-1.2,0.5
			s-0.7,0.8-0.9,1.4v-1.7h-1.6v7h1.7V49.2L56.1,49.2z"/>
		<path class="st0" d="M47.8,18.5L0,47.8L47.8,77l47.8-29.2L47.8,18.5z M47.8,31.2l11.7,7.2H36.1L47.8,31.2z M24.9,50.4l-4.2-2.6
			l4.2-2.6V50.4z M47.8,64.3l-11.7-7.2h23.4L47.8,64.3z M69.7,56.2H25.9V39.3h43.8V56.2z M70.6,45.2l4.2,2.6l-4.2,2.6V45.2z"/>
	</g>
</g>
</svg>
