<?xml version="1.0" encoding="UTF-8" standalone="no"?>
<svg width="20px" height="20px" viewBox="0 0 20 20" version="1.1" xmlns="http://www.w3.org/2000/svg" xmlns:xlink="http://www.w3.org/1999/xlink">
    <!-- Generator: Sketch 3.6.1 (26313) - http://www.bohemiancoding.com/sketch -->
    <title>Fill 463</title>
    <desc>Created with Sketch.</desc>
    <defs></defs>
    <g id="obsocial-02-04-16" stroke="none" stroke-width="1" fill="none" fill-rule="evenodd">
        <g id="Blog---S2" transform="translate(-433.000000, -1037.000000)" fill="#00BD9C">
            <g id="Group-3" transform="translate(433.000000, 1036.000000)">
                <path d="M14.0625,11.9463015 L12.1875,11.9463015 L10.9375,11.9463015 L10,11.9463015 L10,11.9463015 C9.4821875,11.9463015 9.0625,11.5262763 9.0625,11.0080471 L9.0625,5.3785206 C9.0625,4.86029141 9.4821875,4.44026618 10,4.44026618 C10.5178125,4.44026618 10.9375,4.86029141 10.9375,5.3785206 L10.9375,10.0697927 L12.1875,10.0697927 L14.0625,10.0697927 C14.5803125,10.0697927 15,10.4898179 15,11.0080471 C15,11.5262763 14.5803125,11.9463015 14.0625,11.9463015 M10,2.87650883 C5.5128125,2.87650883 1.875,6.5172487 1.875,11.0080471 C1.875,15.4991582 5.5128125,19.1395853 10,19.1395853 C14.4871875,19.1395853 18.125,15.4991582 18.125,11.0080471 C18.125,6.5172487 14.4871875,2.87650883 10,2.87650883 M10,21.0160942 C4.4771875,21.0160942 0,16.5353038 0,11.0080471 C0,5.48079033 4.4771875,1 10,1 C15.5228125,1 20,5.48079033 20,11.0080471 C20,16.5353038 15.5228125,21.0160942 10,21.0160942" id="Fill-463"></path>
            </g>
        </g>
    </g>
</svg>