<?xml version="1.0" encoding="UTF-8" standalone="no"?>
<svg width="20px" height="20px" viewBox="0 0 20 20" version="1.1" xmlns="http://www.w3.org/2000/svg" xmlns:xlink="http://www.w3.org/1999/xlink">
    <!-- Generator: Sketch 3.6.1 (26313) - http://www.bohemiancoding.com/sketch -->
    <title>Shape</title>
    <desc>Created with Sketch.</desc>
    <defs></defs>
    <g id="obsocial-02-04-16" stroke="none" stroke-width="1" fill="none" fill-rule="evenodd">
        <g id="Blog---S2" transform="translate(-737.000000, -1037.000000)" fill="#2EB197">
            <g id="Group-3" transform="translate(433.000000, 1036.000000)">
                <path d="M323.601489,11.2383175 L323.601489,11.2383175 L323.601489,11.2383175 L314.220457,1.7903106 L314.220457,1.7903106 L314.153482,1.72333513 L314.135622,1.72333513 C313.765024,1.37059763 313.336381,1.18753133 312.800577,1.17413623 L312.800577,1.17413623 L308.348941,1.00893006 L308.152479,1 C307.652396,1.00893006 307.161242,1.20092642 306.781715,1.58491914 L304.584919,3.77724968 C304.183066,4.17910253 304,4.71044129 304,5.23731502 C304,5.23731502 304,5.23731502 304,5.24178006 L304.013395,5.42931139 L304.312552,9.77378717 L304.312552,9.78271723 L304.312552,9.86755283 L304.312552,9.86755283 C304.357203,10.2560106 304.513479,10.6400033 304.776916,10.9570206 L305.022492,11.1981323 L314.233853,20.5211183 L314.372268,20.6595343 C314.903607,21.1283626 315.711778,21.1060375 316.216327,20.5970239 L323.601489,13.1582812 C324.128363,12.6314074 324.137293,11.7696563 323.601489,11.2383175 L323.601489,11.2383175 Z M309.000835,8.13958559 C307.817602,8.13958559 306.85762,7.17960379 306.85762,5.9963704 C306.85762,4.81313702 307.817602,3.85315522 309.000835,3.85315522 C310.184069,3.85315522 311.144051,4.81313702 311.144051,5.9963704 C311.144051,7.17960379 310.184069,8.13958559 309.000835,8.13958559 L309.000835,8.13958559 Z" id="Shape"></path>
            </g>
        </g>
    </g>
</svg>