<?xml version="1.0" encoding="UTF-8" standalone="no"?>
<svg width="20px" height="19px" viewBox="0 0 20 19" version="1.1" xmlns="http://www.w3.org/2000/svg" xmlns:xlink="http://www.w3.org/1999/xlink">
    <!-- Generator: Sketch 3.6.1 (26313) - http://www.bohemiancoding.com/sketch -->
    <title>Shape</title>
    <desc>Created with Sketch.</desc>
    <defs></defs>
    <g id="obsocial-02-04-16" stroke="none" stroke-width="1" fill="none" fill-rule="evenodd">
        <g id="Blog---S2" transform="translate(-603.000000, -1038.000000)" fill="#2EB197">
            <g id="Group-3" transform="translate(433.000000, 1036.000000)">
                <path d="M189.688496,10.7212295 C189.083412,9.25183008 187.94013,8.50596932 186.288771,8.50596932 L184.309545,8.50596932 C184.644297,7.74980299 185.016769,6.65291617 185.016769,5.3311371 C185.016769,4.96893009 184.988439,4.59299558 184.919762,4.21021721 C184.659695,2.67385148 183.610875,1.85676689 182.119989,2.02070108 C181.529467,2.08850298 181.326937,2.64898283 180.837681,4.00764708 C180.431705,5.13373965 179.875523,6.67611365 179.068744,7.91632352 C178.475676,8.82782942 177.419096,9.54707077 176.531623,9.9899716 L176.531623,9.87752548 L170,9.87752548 L170,19.5823099 L176.533374,19.5823099 L176.533374,19.0475741 C177.561624,18.9969217 178.146097,19.026963 178.283451,19.0707318 L179.452437,19.7496263 L180.326183,20.2946279 C181.175059,20.7520918 184.888049,20.7958606 186.4802,20.5598272 C188.527229,20.2611248 189.021618,18.5831868 189.042229,18.5110876 C189.203577,17.9549448 190.612018,12.9622337 189.688496,10.7212295 L189.688496,10.7212295 Z M187.808823,18.1583903 C187.796807,18.1953153 187.49898,19.1145405 186.293944,19.2870692 C184.580792,19.5420028 181.403373,19.3874988 180.932142,19.1626066 C180.935564,19.1651929 180.157115,18.6768123 180.157115,18.6768123 L178.688552,17.8519687 C178.347791,17.7378116 177.575351,17.7249197 176.533374,17.7712749 L176.533374,11.3786772 C177.585657,10.9529656 179.215568,10.0388733 180.145099,8.61666468 C181.034283,7.25195237 181.619671,5.62892435 182.047094,4.44191351 C182.047094,4.44191351 182.423904,3.5037882 182.514863,3.28665498 C183.165467,3.29007691 183.524212,3.64798662 183.658105,4.42305312 C183.711304,4.72688843 183.731915,5.02813739 183.731915,5.31912057 C183.731915,7.24256197 182.744013,8.77375502 182.72941,8.7926552 L182.077971,9.78569051 L186.288771,9.78740147 C187.414864,9.78740147 188.096345,10.226005 188.502321,11.2096101 C189.140908,12.758828 188.213963,16.7524955 187.808823,18.1583903 L187.808823,18.1583903 Z" id="Shape"></path>
            </g>
        </g>
    </g>
</svg>