<?xml version="1.0" encoding="UTF-8" standalone="no"?>
<svg width="72px" height="72px" viewBox="0 0 72 72" version="1.1" xmlns="http://www.w3.org/2000/svg" xmlns:xlink="http://www.w3.org/1999/xlink">
    <!-- Generator: Sketch 3.6.1 (26313) - http://www.bohemiancoding.com/sketch -->
    <title>Slice 1</title>
    <desc>Created with Sketch.</desc>
    <defs></defs>
    <g id="Page-1" stroke="none" stroke-width="1" fill="none" fill-rule="evenodd">
        <g id="2" transform="translate(1.000000, 1.000000)">
            <g id="Group-4">
                <g id="Group" transform="translate(12.000000, 12.000000)" fill="#FFFFFF">
                    <path d="M9.2,34.5 C9.13783784,34.5621622 8.82702703,34.7486486 8.64054054,34.7486486 L5.96756757,34.9972973 L0.372972973,43.1405405 L1.55405405,44.3216216 L1.92702703,44.6945946 L2.73513514,45.5027027 L10.8783784,39.8459459 L11.0648649,37.2351351 C11.0648649,37.0486486 11.3135135,36.6756757 11.4378378,36.6135135 L16.7216216,31.5162162 L14.2351351,29.2783784 L9.2,34.5 L9.2,34.5 Z" id="Shape"></path>
                    <path d="M43.3891892,2.48648649 C40.7783784,-0.124324324 36.4891892,-0.124324324 33.8783784,2.48648649 L23.3108108,13.0540541 C22.4405405,13.9243243 21.8810811,15.1054054 21.8810811,16.2864865 C21.6945946,18.9594595 19.2702703,21.0108108 16.5972973,20.7621622 C13.5513514,20.3891892 11.7486486,24.0567568 13.9864865,26.2945946 L15.7891892,28.0972973 L17.9648649,30.272973 L19.7675676,32.0756757 C21.9432432,34.2513514 25.6108108,32.5108108 25.3,29.4648649 C25.0513514,26.7918919 26.9783784,24.3675676 29.7756757,24.1810811 C31.0189189,24.1189189 32.2,23.5594595 33.0081081,22.7513514 L43.5756757,12.1837838 C46.0621622,9.38648649 46.0621622,5.0972973 43.3891892,2.48648649 L43.3891892,2.48648649 L43.3891892,2.48648649 Z M26.1702703,16.9702703 C25.3,16.1 25.3,14.6702703 26.1702703,13.7378378 L35.9918919,3.91621622 C36.8621622,3.04594595 38.2918919,3.04594595 39.2243243,3.91621622 L26.1702703,16.9702703 L26.1702703,16.9702703 L26.1702703,16.9702703 Z M41.772973,9.57297297 L31.8891892,19.3945946 C31.0189189,20.2648649 29.5891892,20.2648649 28.6567568,19.3945946 L41.7108108,6.34054054 C42.6432432,7.21081081 42.6432432,8.64054054 41.772973,9.57297297 L41.772973,9.57297297 L41.772973,9.57297297 Z" id="Shape"></path>
                </g>
                <circle id="Oval-1" stroke="#FFFFFF" cx="35" cy="35" r="35"></circle>
            </g>
        </g>
    </g>
</svg>