<?xml version="1.0" encoding="utf-8"?>
<!-- Generator: Adobe Illustrator 19.2.0, SVG Export Plug-In . SVG Version: 6.00 Build 0)  -->
<svg version="1.1" id="Capa_1" xmlns="http://www.w3.org/2000/svg" xmlns:xlink="http://www.w3.org/1999/xlink" x="0px" y="0px"
	 viewBox="0 0 72 72" style="enable-background:new 0 0 72 72;" xml:space="preserve">
<style type="text/css">
	.st0{fill:none;stroke:#FFFFFF;}
	.st1{fill:#FFFFFF;}
</style>
<title>Slice 1</title>
<desc>Created with Sketch.</desc>
<circle id="Oval-1_1_" class="st0" cx="36" cy="36" r="35"/>
<path id="Shape_15_" class="st1" d="M41,51.3c1,1,2,2,2.9,2.9c0.5,0.5,1,1,1.5,1.4c0.3,0.2,0.5,0.5,0.8,0.7c0.2,0.2,0.2-0.1,0.3-0.2
	c0.1-0.1,0.2-0.2,0.3-0.3c0.1-0.1,0.2-0.2,0.2-0.3c0.1-0.1,0-0.1-0.1-0.2c-0.2-0.2-0.4-0.3-0.6-0.5c-0.4-0.3-0.8-0.6-1.2-1
	c-3.3-2.7-6.3-5.6-9-8.9c-5-6.1-8.7-13.5-7.3-21.9c0.1-0.5,0.2-1.1,0.3-1.6c0-0.1,0-0.1,0-0.2c0-0.1,0,0.1,0,0.1
	c0,0.1-0.1,0.3-0.1,0.4c-0.1,0.3-0.1,0.5-0.1,0.8c-0.2,1-0.3,2-0.3,3.1c0,2,0.3,3.9,0.8,5.8c1.1,3.9,3.1,7,5.7,10.1
	c2,2.4,3.9,4.9,6.3,6.9c1.2,1,2.3,2,3.5,2.9c0.6,0.5,1.2,0.9,1.8,1.4c0.3,0.2,0.6,0.5,0.9,0.7c0.1,0.1,0.3,0.2,0.4,0.3
	c0.1,0.1,0.1,0.3,0.2,0.2c0.1-0.1,0.5-0.5,0.5-0.6c0.2-0.3-0.2-0.4-0.3-0.5c-0.4-0.3-0.8-0.6-1.2-0.9c-0.8-0.6-1.6-1.3-2.4-1.9
	c-0.1-0.1-0.7-0.3-0.4-0.5c0.2-0.1,0.4-0.3,0.6-0.5c0.4-0.3,0.7-0.6,1-1c0.7-0.7,1.3-1.5,1.7-2.4c1-1.9,1.5-3.7,1.5-5.8
	c0-4.1-2-7.8-5.4-10c-1.7-1.1-3.6-1.5-5.3-2.4c-1.8-1-3.4-2.1-4.8-3.7c-1.4-1.5-2.3-3.1-2.8-5.1c-0.2-1-0.3-1.9-0.4-2.9
	c0-0.1,0-0.1,0-0.2c0-0.1-0.1,0.1-0.1,0.1c-0.1,0.1-0.2,0.2-0.2,0.3c-0.2,0.2-0.3,0.4-0.5,0.6c-0.3,0.4-0.6,0.8-0.9,1.2
	c-4.2,5.8-7,15.3-5.6,22.6c0.4,2,1.1,3.7,2.1,5.4c1.1,1.8,2.4,3.2,4.2,4.3C32.8,52,37.3,52.6,41,51.3L41,51.3L41,51.3z"/>
</svg>
