<?xml version="1.0" encoding="utf-8"?>
<!-- Generator: Adobe Illustrator 19.2.0, SVG Export Plug-In . SVG Version: 6.00 Build 0)  -->
<svg version="1.1" id="Capa_1" xmlns="http://www.w3.org/2000/svg" xmlns:xlink="http://www.w3.org/1999/xlink" x="0px" y="0px"
	 viewBox="0 0 116 140" style="enable-background:new 0 0 116 140;" xml:space="preserve">
<style type="text/css">
	.st0{fill:#FFFFFF;}
</style>
<title>Shape</title>
<desc>Created with Sketch.</desc>
<g id="obsocial-31-03-16">
	<g id="Nuestro-Proyecto---S2" transform="translate(-259.000000, -812.000000)">
		<path id="Shape" class="st0" d="M371.5,818.6l-6-1.4c-0.7-1.6-2.1-3-3.9-3.4l-6.7-1.6c-3.1-0.7-6.2,1.2-6.9,4.2
			c-0.7,3.1,1.2,6.2,4.2,6.9l6.7,1.6c0.5,0.1,0.9,0.2,1.4,0.2c1.4,0,2.7-0.5,3.7-1.4l3.4,0.8c-0.6,15.7-6.8,30-16.9,38.7
			c-2.7,2.3-5.2,3.9-7.5,4.8c-0.1,0-0.1,0.1-0.2,0.1c-6.6,3.3-13,0.3-13,0.3l0,0c-1.7-0.7-3.7-1.7-5.8-3.2v-16.7
			c0-5.7-4.6-10.3-10.3-10.3h-7.1c-1.2-4.4-1.9-9-2.1-13.7l3.4-0.8c1,0.9,2.3,1.4,3.7,1.4c0.4,0,0.9-0.1,1.3-0.2l6.7-1.6
			c3.1-0.7,5-3.9,4.2-6.9c-0.7-3.1-3.8-5-6.9-4.2l-6.7,1.6c-1.9,0.4-3.3,1.8-3.9,3.4l-6,1.4c-1.5,0.4-2.6,1.7-2.6,3.3
			c0,6.1,0.7,11.5,1.8,16.3h-30.4c-5.7,0-10.3,4.6-10.3,10.3v93.1c0,5.7,4.6,10.3,10.3,10.3h44.5c5.7,0,10.3-4.6,10.3-10.3v-18.6
			h-8.4v5.7c0,2.1-1.7,3.8-3.8,3.8h-40.7c-2.1,0-3.8-1.7-3.8-3.8V851c0-2.1,1.7-3.8,3.8-3.8h31.3h7.4h2c2.1,0,3.8,1.7,3.8,3.8v6v10
			v43h8.4v-36.8c2.9,1.6,5.8,2.5,8.5,2.8v30.2c0,3.8-3.1,7-7,7h-25.9c-1.5,0-4.9-0.5-4.9-4.9v-4.9c6.9-1.5,12.1-7.7,12.1-15.1
			c0-8.6-6.9-15.5-15.5-15.5c-8.5,0-15.5,6.9-15.5,15.5c0,7.4,5.2,13.6,12.1,15.1v4.9c0,4.3,1.7,6.9,3.2,8.3
			c3.2,3.1,7.5,3.3,8.3,3.3h0.1h25.9c7.5,0,13.7-6.1,13.7-13.7V876c4.9-0.5,10.3-3.2,15.5-7.7c5.8-5,19.3-19.6,19.3-46.4
			C374.1,820.4,373,819,371.5,818.6L371.5,818.6z M291.6,938.3c2.5,0,4.5,2,4.5,4.6c0,2.5-2,4.6-4.5,4.6c-2.5,0-4.5-2-4.5-4.6
			C287,940.3,289.1,938.3,291.6,938.3L291.6,938.3z M284.8,888.2c0-3.8,3-6.8,6.8-6.8c3.8,0,6.8,3.1,6.8,6.8c0,3.8-3,6.8-6.8,6.8
			C287.8,895.1,284.8,892,284.8,888.2L284.8,888.2z"/>
	</g>
</g>
</svg>
