<?xml version="1.0" encoding="utf-8"?>
<!-- Generator: Adobe Illustrator 19.2.0, SVG Export Plug-In . SVG Version: 6.00 Build 0)  -->
<svg version="1.1" id="Capa_1" xmlns="http://www.w3.org/2000/svg" xmlns:xlink="http://www.w3.org/1999/xlink" x="0px" y="0px"
	 viewBox="0 0 72 72" style="enable-background:new 0 0 72 72;" xml:space="preserve">
<style type="text/css">
	.st0{fill:none;stroke:#FFFFFF;}
	.st1{fill:#FFFFFF;}
</style>
<title>Slice 1</title>
<desc>Created with Sketch.</desc>
<circle id="Oval-1_3_" class="st0" cx="36" cy="36.3" r="35"/>
<path class="st1" d="M17.4,48.4c0.9,0.4,1.4,0.6,1.4,0.6l0.7,7.8h5.9l-1.3-8.1c0,0,1.4-1,1.5-4.1l-0.2-2.3c0,0,0-0.2,0.1-0.5
	c0.1-0.3,1.5-3.5,1.5-3.5s0.8-1.6,0-1.9c-0.8-0.3-1.1,0.3-1.2,0.5c-0.2,0.3-2.1,4-2.1,4s-0.3,0.1-0.2-0.3c0-0.4,0.6-5.2,0.6-5.2
	s0.1-1.6-0.7-1.6c-0.8,0-1,0.5-1,1c-0.1,0.5-0.9,5.3-0.9,5.3s-0.3,0.6-0.4,0c-0.1-0.6-0.8-5.5-0.8-5.5s-0.1-1.5-1.2-1.3
	c-1.1,0.2-0.8,1.2-0.8,1.2l0.8,5.8c0,0-0.3,0.7-0.6,0.2c-0.3-0.5-2.6-4.8-2.6-4.8s-0.4-0.7-1.2-0.3c-0.8,0.4-0.4,1.2-0.4,1.2
	l2.2,4.8c0,0,0.2,0.4,0.2,0.8c0,0.3,0,1.5,0,1.5L16.7,44c0,0,0,0,0,0c0,0,0,0,0,0l0,0.1c-0.1,0-0.2,0-0.2,0c-2.1-2.5-4.7-2-4.7-2
	s-0.9,0.4-0.5,1c0.4,0.6,0.5,0.1,1.9,1.1c1.4,1,1.9,2,2.2,2.4C15.5,46.9,16.5,48,17.4,48.4z"/>
<path class="st1" d="M25.8,32.1c2,1.8,2.7,3.6,3,4.3c0.3,0.7,1.6,2.6,3,3.4c1.4,0.8,1.6,17,1.6,17h9.7l-0.6-15.3
	c0,0,2.6-1.4,3.3-6.4l0.2-3.7c0,0,0-0.3,0.2-0.8c0.3-0.5,3.2-5.3,3.2-5.3s1.6-2.5,0.4-3.1c-1.2-0.6-1.8,0.3-2.1,0.7
	c-0.3,0.4-4.2,6.1-4.2,6.1s-0.4,0.1-0.3-0.5c0.1-0.6,2.1-8.3,2.1-8.3s0.5-2.6-0.8-2.8c-1.3-0.2-1.7,0.7-1.9,1.5
	c-0.2,0.8-2.5,8.4-2.5,8.4s-0.7,0.8-0.7-0.1c0-0.9-0.2-9.1-0.2-9.1s0.2-2.4-1.6-2.3c-1.8,0.1-1.6,1.7-1.6,1.7l0.2,9.5
	c0,0-0.7,1.1-1,0.1c-0.3-0.9-3.1-8.3-3.1-8.3s-0.5-1.1-1.9-0.7S29.5,20,29.5,20l2.5,8.2c0,0,0.2,0.7,0.2,1.4c0,0.7-0.7,3.1-0.7,3.1
	c-0.2,0-0.3,0-0.3,0c-2.9-4.4-7.1-4.1-7.1-4.1S22.6,29,23,30C23.5,31,23.8,30.3,25.8,32.1z"/>
<path class="st1" d="M60.6,39.3c-0.7-0.4-1.1,0.1-1.3,0.3c-0.2,0.2-2.8,3.3-2.8,3.3s-0.3,0-0.2-0.3c0.1-0.3,1.7-4.7,1.7-4.7
	s0.4-1.5-0.3-1.7c-0.7-0.2-1,0.3-1.2,0.8c-0.2,0.5-2,4.7-2,4.7s-0.4,0.5-0.4-0.1c0-0.6,0.4-5.3,0.4-5.3s0.2-1.4-0.8-1.4
	c-1,0-1,0.9-1,0.9l-0.5,5.5c0,0-0.5,0.6-0.6,0c-0.1-0.5-1.3-5-1.3-5s-0.2-0.7-1-0.5c-0.8,0.2-0.6,1-0.6,1l1,4.9c0,0,0.1,0.4,0.1,0.8
	c0,0.3-0.3,1.4-0.3,1.4l-0.2,0.4c0,0,0,0,0,0c0,0,0,0,0,0l0,0.1c-0.1,0-0.2,0-0.2,0c-1.4-2.7-3.9-2.8-3.9-2.8s-0.9,0.2-0.7,0.8
	c0.2,0.6,0.4,0.2,1.5,1.4c1.1,1.2,1.4,2.3,1.5,2.7c0.1,0.4,0.8,1.6,1.5,2.1c0.8,0.5,1.1,0.8,1.1,0.8l-1,7.4h5.2
	c0.1-0.1,0.2-0.2,0.4-0.3l0.4-6.5c0,0,1.6-0.7,2.3-3.5l0.3-2.1c0,0,0-0.2,0.2-0.4c0.2-0.3,2.2-2.9,2.2-2.9S61.3,39.7,60.6,39.3z"/>
</svg>
