<?xml version="1.0" encoding="UTF-8" standalone="no"?>
<svg width="72px" height="72px" viewBox="0 0 72 72" version="1.1" xmlns="http://www.w3.org/2000/svg" xmlns:xlink="http://www.w3.org/1999/xlink">
    <!-- Generator: Sketch 3.6.1 (26313) - http://www.bohemiancoding.com/sketch -->
    <title>Slice 1</title>
    <desc>Created with Sketch.</desc>
    <defs></defs>
    <g id="Page-1" stroke="none" stroke-width="1" fill="none" fill-rule="evenodd">
        <g id="1" transform="translate(1.000000, 1.000000)">
            <g id="Page-1">
                <g id="Group-2">
                    <circle id="Oval-1" stroke="#FFFFFF" cx="35" cy="35" r="35"></circle>
                    <path d="M41.7878808,53.8716129 C42.9487365,55.0510126 44.1291959,56.209749 45.319722,57.3589485 C45.91525,57.9332833 46.5128973,58.5054988 47.1110744,59.0761248 C47.4104279,59.3617027 47.7097814,59.6467508 48.0091349,59.9323287 C48.225835,60.1384323 48.2947128,59.8205348 48.4006786,59.6859582 C48.5034655,59.5556202 48.607312,59.4252822 48.7106287,59.2954741 C48.8012295,59.181031 48.8923601,59.0671177 48.9834907,58.9532044 C49.0862776,58.8239261 48.926799,58.7868381 48.8489141,58.7253779 C48.6157893,58.5404675 48.3826644,58.3550273 48.1511291,58.1685274 C47.680111,57.7896996 47.211742,57.4076927 46.7470818,57.0214473 C42.8194582,53.7603488 39.1715843,50.3063924 35.9200227,46.3464492 C29.952027,39.077193 25.5284833,30.1702349 27.15135,20.1516951 C27.2541369,19.5180194 27.3791765,18.8901719 27.526469,18.2655033 C27.5450131,18.1860289 27.5640869,18.1070843 27.5836906,18.0281398 C27.5990556,17.96562 27.5715045,18.0917193 27.5646167,18.1229792 C27.5301779,18.281928 27.4967986,18.4419364 27.4650089,18.601415 C27.402489,18.9171931 27.3457973,19.2335012 27.2949337,19.5508688 C27.0988969,20.7779532 26.9934609,22.0023884 26.9844538,23.2453676 C26.9669694,25.6216514 27.2922846,27.8766044 27.9566903,30.1553996 C29.3141127,34.8088892 31.6925158,38.5478937 34.743802,42.2031851 C37.1460474,45.0806873 39.4476253,48.0207094 42.2663165,50.4743482 C43.6507601,51.6797096 45.0643444,52.8479829 46.4954129,53.9971824 C47.1910786,54.5561522 47.8904531,55.1098236 48.591947,55.6613758 C48.9358061,55.9315887 49.280195,56.2007419 49.624584,56.4698951 C49.7946592,56.6028822 49.9652642,56.7358694 50.1358692,56.8683267 C50.216933,56.9319062 50.2577299,57.2148349 50.3838292,57.0521774 C50.477609,56.9313763 50.9337919,56.4328071 51.0275716,56.3125359 C51.3062618,55.9543713 50.8479596,55.8706583 50.6381472,55.7064113 C50.1554728,55.3302326 49.6738581,54.9529942 49.1927732,54.5746962 C48.2311333,53.8175703 47.273732,53.055676 46.3248079,52.2826552 C46.1785751,52.1634436 45.5411906,51.945154 45.8352458,51.7247451 C46.0710198,51.5477821 46.3014955,51.3644613 46.526143,51.1737228 C46.9685504,50.7991335 47.3849961,50.4017617 47.7797188,49.9773685 C48.5935364,49.1036802 49.2764862,48.1658826 49.857179,47.1221191 C51.091681,44.9037244 51.6686649,42.7240072 51.6787317,40.1829465 C51.6988652,35.3323604 49.2584721,30.8372898 45.2052789,28.1865544 C43.204644,26.8784062 40.9041257,26.3559947 38.8271954,25.2682554 C36.6204569,24.112698 34.7173105,22.7277245 33.0319239,20.8733224 C31.3762078,19.0517698 30.2672753,17.1533918 29.6887019,14.7326024 C29.4137205,13.5828731 29.2833826,12.4331438 29.2452349,11.2542739 C29.2431156,11.1811575 29.2409962,11.1085709 29.2394067,11.0354544 C29.2367576,10.9268395 29.1514551,11.0985041 29.1148969,11.1408904 C29.0163487,11.2548037 28.9183303,11.3692468 28.8208417,11.4847496 C28.6269242,11.7146954 28.4356559,11.9467606 28.2480964,12.1814749 C27.8735072,12.6493141 27.5121637,13.1256305 27.1624764,13.6120137 C22.1868507,20.5342318 18.7323645,31.9403941 20.4431829,40.6211152 C20.9051939,42.9645496 21.788949,45.0308834 23.0027876,47.066487 C24.3093463,49.2568008 25.9242656,50.8727798 28.0912669,52.2084791 C32.0178309,54.6292686 37.3653967,55.3991104 41.7878808,53.8716129 L41.7878808,53.8716129 L41.7878808,53.8716129 Z" id="Shape" fill="#FFFFFF"></path>
                </g>
            </g>
        </g>
    </g>
</svg>