<?xml version="1.0" encoding="utf-8"?>
<!-- Generator: Adobe Illustrator 19.2.0, SVG Export Plug-In . SVG Version: 6.00 Build 0)  -->
<svg version="1.1" id="Capa_1" xmlns="http://www.w3.org/2000/svg" xmlns:xlink="http://www.w3.org/1999/xlink" x="0px" y="0px"
	 viewBox="0 0 72 72" style="enable-background:new 0 0 72 72;" xml:space="preserve">
<style type="text/css">
	.st0{fill:#FFFFFF;}
	.st1{fill:none;stroke:#FFFFFF;}
</style>
<title>Slice 1</title>
<desc>Created with Sketch.</desc>
<g id="Group_2_" transform="translate(12.000000, 12.000000)">
	<path id="Shape_17_" class="st0" d="M11.5,34.5c-0.1,0.1-0.3,0.2-0.5,0.2l-2.4,0.2l-5.1,7.4l1.1,1.1l0.3,0.3l0.7,0.7l7.4-5.1
		l0.2-2.4c0-0.2,0.2-0.5,0.3-0.6l4.8-4.6l-2.3-2L11.5,34.5L11.5,34.5z"/>
	<path id="Shape_16_" class="st0" d="M42.6,5.3c-2.4-2.4-6.3-2.4-8.7,0l-9.6,9.6c-0.8,0.8-1.3,1.9-1.3,2.9c-0.2,2.4-2.4,4.3-4.8,4.1
		c-2.8-0.3-4.4,3-2.4,5l1.6,1.6l2,2l1.6,1.6c2,2,5.3,0.4,5-2.4c-0.2-2.4,1.5-4.6,4.1-4.8c1.1-0.1,2.2-0.6,2.9-1.3l9.6-9.6
		C45.1,11.6,45.1,7.7,42.6,5.3L42.6,5.3L42.6,5.3z M27,18.5c-0.8-0.8-0.8-2.1,0-2.9l8.9-8.9c0.8-0.8,2.1-0.8,2.9,0L27,18.5L27,18.5
		L27,18.5z M41.2,11.8l-9,8.9c-0.8,0.8-2.1,0.8-2.9,0L41.1,8.8C42,9.6,42,10.9,41.2,11.8L41.2,11.8L41.2,11.8z"/>
</g>
<circle id="Oval-1_2_" class="st1" cx="36" cy="36" r="35"/>
</svg>
