<?xml version="1.0" encoding="UTF-8" standalone="no"?>
<svg width="116px" height="140px" viewBox="0 0 116 140" version="1.1" xmlns="http://www.w3.org/2000/svg" xmlns:xlink="http://www.w3.org/1999/xlink">
    <!-- Generator: Sketch 3.6.1 (26313) - http://www.bohemiancoding.com/sketch -->
    <title>Shape</title>
    <desc>Created with Sketch.</desc>
    <defs></defs>
    <g id="obsocial-31-03-16" stroke="none" stroke-width="1" fill="none" fill-rule="evenodd">
        <g id="Nuestro-Proyecto---S2" transform="translate(-259.000000, -812.000000)" fill="#2B3E50">
            <path d="M371.542875,818.64184 L365.525672,817.197116 C364.852129,815.552149 363.437193,814.234852 361.578744,813.786375 L354.86483,812.162922 C351.788378,811.421528 348.685448,813.318039 347.942399,816.402766 C347.199351,819.489147 349.092552,822.595387 352.173969,823.340091 L358.886228,824.963544 C359.338015,825.071112 359.791456,825.124069 360.238278,825.124069 C361.628391,825.124069 362.942379,824.601122 363.96345,823.717407 L367.365916,824.534926 C366.737056,840.210103 360.517956,854.538195 350.462806,863.249569 C347.771945,865.579663 345.248228,867.103822 343.005844,868.065317 C342.949577,868.095105 342.913169,868.123238 342.853593,868.153026 C336.268761,871.416482 329.894101,868.439323 329.894101,868.439323 L329.895755,868.429394 C328.154805,867.777365 326.205337,866.7414 324.130097,865.258613 L324.130097,848.56071 C324.130097,842.848008 319.506317,838.215953 313.805199,838.215953 L306.728863,838.215953 C305.565471,833.853647 304.850556,829.259655 304.660243,824.533271 L308.059399,823.717407 C309.08378,824.599467 310.396113,825.122414 311.787881,825.122414 C312.233048,825.122414 312.684834,825.069457 313.136621,824.961889 L319.84888,823.338436 C322.928642,822.593733 324.825153,819.487492 324.082105,816.401111 C323.339057,813.313074 320.237781,811.418218 317.159674,812.161267 L310.447415,813.78472 C308.587311,814.233197 307.175685,815.550494 306.498832,817.195461 L300.479975,818.640185 C298.975674,819.000953 297.91323,820.349693 297.91323,821.901986 C297.91323,827.960561 298.611597,833.378691 299.743546,838.215953 L269.323243,838.215953 C263.622125,838.215953 259,842.848008 259,848.56071 L259,941.653589 C259,947.367945 263.622125,952 269.323243,952 L313.803544,952 C319.504662,952 324.128442,947.367945 324.128442,941.653589 L324.128442,923.077378 L315.714949,923.077378 L315.714949,928.818213 C315.714949,930.910002 314.021991,932.602961 311.936821,932.602961 L271.196585,932.602961 C269.108106,932.602961 267.416802,930.910002 267.416802,928.818213 L267.416802,850.981823 C267.416802,848.890034 269.108106,847.19542 271.196585,847.19542 L302.54363,847.19542 L309.897989,847.19542 L311.936821,847.19542 C314.021991,847.19542 315.714949,848.890034 315.714949,850.981823 L315.714949,856.982477 L315.714949,866.979705 L315.714949,909.975565 L324.128442,909.975565 L324.128442,873.157433 C327.055954,874.726274 329.952022,875.691079 332.666052,875.987305 L332.666052,906.189162 C332.666052,910.038451 329.539953,913.171169 325.700593,913.171169 L299.788228,913.171169 C298.32199,913.171169 294.912904,912.686285 294.912904,908.251163 L294.912904,903.367564 C301.843609,901.83182 307.030054,895.645818 307.030054,888.240157 C307.030054,879.676069 300.105968,872.742054 291.566703,872.742054 C283.024129,872.742054 276.100043,879.676069 276.100043,888.240157 C276.100043,895.645818 281.288143,901.83182 288.218848,903.367564 L288.218848,908.251163 C288.218848,912.547273 289.95318,915.15539 291.407833,916.583565 C294.598473,919.719594 298.927682,919.876809 299.725342,919.876809 L299.818016,919.876809 L325.700593,919.876809 C333.232026,919.876809 339.360107,913.738799 339.360107,906.189162 L339.360107,875.987305 C344.228812,875.454429 349.67673,872.793356 354.838352,868.325136 C360.633798,863.305835 374.111274,848.736129 374.111274,821.905296 C374.111274,820.353003 373.047175,819.004263 371.542875,818.64184 L371.542875,818.64184 Z M291.566703,938.269326 C294.073871,938.269326 296.107739,940.308158 296.107739,942.82029 C296.107739,945.335733 294.073871,947.371255 291.566703,947.371255 C289.056226,947.371255 287.024013,945.335733 287.024013,942.82029 C287.024013,940.308158 289.056226,938.269326 291.566703,938.269326 L291.566703,938.269326 Z M284.763425,888.243467 C284.763425,884.476923 287.810089,881.425294 291.568358,881.425294 C295.324973,881.425294 298.369982,884.476923 298.369982,888.243467 C298.369982,892.006701 295.323318,895.059985 291.568358,895.059985 C287.810089,895.059985 284.763425,892.006701 284.763425,888.243467 L284.763425,888.243467 Z" id="Shape"></path>
        </g>
    </g>
</svg>