<?xml version="1.0" encoding="UTF-8" standalone="no"?>
<svg width="72px" height="72px" viewBox="0 0 72 72" version="1.1" xmlns="http://www.w3.org/2000/svg" xmlns:xlink="http://www.w3.org/1999/xlink">
    <!-- Generator: Sketch 3.6.1 (26313) - http://www.bohemiancoding.com/sketch -->
    <title>Slice 1</title>
    <desc>Created with Sketch.</desc>
    <defs></defs>
    <g id="Page-1" stroke="none" stroke-width="1" fill="none" fill-rule="evenodd">
        <g id="3" transform="translate(1.000000, 1.000000)">
            <g id="Page-1">
                <g id="Group-3">
                    <g id="Group-5">
                        <path d="M49.577526,15.9113788 C48.2810723,15.200905 47.611381,16.2043687 47.2754622,16.6647815 C46.9406165,17.124121 42.7582655,23.6493184 42.7582655,23.6493184 C42.7582655,23.6493184 42.2967795,23.7748855 42.4234198,23.1062674 C42.5479137,22.4355029 44.6814816,13.5685324 44.6814816,13.5685324 C44.6814816,13.5685324 45.2245325,10.5999969 43.8454407,10.3896452 C42.4663488,10.1814398 42.0467185,11.1849036 41.7966575,12.1057291 C41.5455232,13.0254815 39.078183,21.7250291 39.078183,21.7250291 C39.078183,21.7250291 38.366636,22.6877104 38.3258535,21.599462 C38.285071,20.5112136 38.1176482,11.1430479 38.1176482,11.1430479 C38.1176482,11.1430479 38.285071,8.33978875 36.3597085,8.50721158 C34.4354192,8.6746344 34.6446977,10.4744298 34.6446977,10.4744298 L34.8110473,21.3483277 C34.8110473,21.3483277 34.0576446,22.5599968 33.722799,21.5157506 C33.3890265,20.4693579 30.3357064,11.9790888 30.3357064,11.9790888 C30.3357064,11.9790888 29.7497265,10.6815619 28.3277057,11.2256861 C26.9056849,11.7698103 27.4487359,13.3592539 27.4487359,13.3592539 L30.1682836,22.7284928 C30.1682836,22.7284928 30.4183446,23.5237513 30.4183446,24.3168633 C30.4183446,25.1121217 30.0416432,27.036411 30.0416432,27.036411 L30.0040804,27.123342 C37.4168334,27.2102731 37.1109648,32.6590276 37.1109648,32.6590276 C37.0229605,32.449749 36.9338829,32.2544224 36.8405125,32.0590958 C35.4914709,27.9894332 31.2275549,27.2639343 29.9976411,27.1383672 L29.728262,27.7629831 C29.7025047,27.7629831 29.6788938,27.7619099 29.6531364,27.7619099 C29.6531364,27.7619099 29.6788938,27.7629831 29.7271888,27.7662028 L29.6531364,27.9368453 C29.449224,27.9432846 29.3322427,27.9583097 29.3322427,27.9583097 C26.1555018,22.85406 21.637232,23.1889056 21.637232,23.1889056 C21.637232,23.1889056 19.9640769,23.6911741 20.4695651,24.8620607 C20.9718335,26.0329472 21.305606,25.1979795 23.4810295,27.2875452 C25.6553798,29.3792573 26.4087825,31.4709694 26.7436282,32.2232989 C27.0784738,32.9777749 28.5004946,35.2358366 30.0062269,36.1545157 C31.5098126,37.0753412 32.2642886,37.5776097 32.2642886,37.5776097 L31.5430825,62.3465291 C32.5798162,62.4474121 33.631575,62.5 34.6962125,62.5 C37.3792706,62.5 39.9839834,62.1715937 42.467422,61.5566368 L41.6324543,38.0798782 C41.6324543,38.0798782 44.3938577,36.4915078 45.2298986,30.7186399 L45.438104,26.4515043 C45.438104,26.4515043 45.3973215,26.1166586 45.6870917,25.5725345 C45.9811549,25.0305567 49.158969,19.4669674 49.158969,19.4669674 C49.158969,19.4669674 50.8729065,16.6229258 49.577526,15.9113788 L49.577526,15.9113788 L49.577526,15.9113788 Z" id="Path" fill="#FFFFFF"></path>
                        <circle id="Oval-1" stroke="#FFFFFF" cx="35" cy="35" r="35"></circle>
                    </g>
                </g>
            </g>
        </g>
    </g>
</svg>