<?xml version="1.0" encoding="UTF-8" standalone="no"?>
<svg width="124px" height="140px" viewBox="0 0 124 140" version="1.1" xmlns="http://www.w3.org/2000/svg" xmlns:xlink="http://www.w3.org/1999/xlink">
    <!-- Generator: Sketch 3.6.1 (26313) - http://www.bohemiancoding.com/sketch -->
    <title>Group</title>
    <desc>Created with Sketch.</desc>
    <defs></defs>
    <g id="obsocial-31-03-16" stroke="none" stroke-width="1" fill="none" fill-rule="evenodd">
        <g id="Nuestro-Proyecto---S2" transform="translate(-254.000000, -1064.000000)" fill="#2B3E50">
            <g id="Group" transform="translate(254.000000, 1064.000000)">
                <path d="M107.48165,92.968269 C107.20265,93.2047135 102.9572,96.6518246 102.01325,97.4669357 C99.82465,99.3616023 97.4795,101.03538 95.01655,102.483602 C96.52625,102.214491 97.9848,101.93138 99.40305,101.643602 C105.74565,100.357158 110.96295,97.7967135 115.351,93.8144912 C116.76925,92.5280468 118.44325,91.848269 120.1932,91.848269 C121.0643,91.848269 121.89975,92.0271579 122.65305,92.3476023 C123.02195,92.1687135 123.2777,91.8093801 123.21725,91.2493801 C122.6329,85.8640468 117.21565,86.5687135 113.5964,88.5738246 C111.31945,89.5476023 109.2719,91.456269 107.48165,92.968269 L107.48165,92.968269 Z" id="Shape"></path>
                <path d="M27.0878,54.7975556 C27.3203,55.8817778 27.59,56.952 27.89845,58.0082222 C28.00075,58.3597778 28.1077,58.7113333 28.2193,59.0597778 C28.44095,59.7582222 28.67965,60.4488889 28.9354,61.1333333 C29.31825,62.16 29.73675,63.1695556 30.1909,64.162 C30.49315,64.8231111 30.8109,65.4764444 31.14415,66.122 C32.8104,69.3466667 34.8564,72.3566667 37.22945,75.0882222 C37.58905,75.502 37.9595,75.908 38.3346,76.3093333 C38.5764,76.5691111 38.82285,76.8242222 39.07085,77.0777778 C39.20105,77.2115556 39.33125,77.3453333 39.463,77.4775556 C40.93085,77.014 42.5289,76.5068889 44.1564,75.9904444 C51.93585,73.5202222 59.98035,70.9675556 62.2759,70.4931111 C63.4074,70.2597778 64.5451,70.14 65.658,70.1415556 C70.54515,70.1415556 74.5147,72.4328889 75.0975,75.5906667 C75.5501,78.0406667 73.90865,80.2402222 70.7048,81.4753333 C67.8404,82.5797778 66.2284,83.3948889 64.80705,84.1135556 C63.0819,84.9862222 61.71945,85.6737778 59.18055,86.3302222 C58.7047,86.4531111 57.9731,86.604 57.0462,86.7937778 C56.70055,86.8653333 56.3177,86.9431111 55.9085,87.0286667 C62.248,87.7068889 68.04965,88.0382222 73.4638,88.0382222 C79.2081,88.0382222 84.16655,87.6602222 88.6197,87.0924444 C88.7189,87.0504444 88.8212,87.0131111 88.9204,86.9711111 C88.9545,86.9555556 88.99015,86.9431111 89.02425,86.9275556 C89.56985,86.6926667 90.1077,86.4437778 90.6409,86.1871111 C90.7246,86.1466667 90.8083,86.1093333 90.89045,86.0688889 C91.39885,85.8215556 91.9026,85.5617778 92.40015,85.2957778 C92.50245,85.2413333 92.6032,85.1868889 92.7055,85.1324444 C93.1922,84.868 93.67425,84.5926667 94.1501,84.3111111 C94.25395,84.2488889 94.3578,84.1866667 94.46165,84.1244444 C94.9375,83.8382222 95.40715,83.5426667 95.87215,83.2393333 C95.96515,83.1786667 96.05505,83.1164444 96.1465,83.0557778 C96.6208,82.74 97.092,82.418 97.5539,82.0835556 C97.6159,82.0384444 97.67635,81.9917778 97.73835,81.9466667 C98.1894,81.6184444 98.6358,81.2808889 99.07445,80.9355556 C99.12405,80.8966667 99.17675,80.8577778 99.22635,80.8173333 C99.6774,80.4595556 100.11915,80.0908889 100.55625,79.716 C100.63685,79.6475556 100.71745,79.5791111 100.7965,79.5106667 C101.21655,79.1451111 101.62885,78.7717778 102.03495,78.3906667 C102.12485,78.3066667 102.2132,78.2242222 102.30155,78.1386667 C102.6999,77.7591111 103.0936,77.3717778 103.478,76.9766667 C103.56325,76.8895556 103.64695,76.8008889 103.7322,76.7137778 C104.11815,76.3108889 104.49945,75.9033333 104.87145,75.4864444 C104.9412,75.4086667 105.0094,75.3293333 105.07915,75.25 C105.462,74.8144444 105.8402,74.3726667 106.20755,73.9215556 C106.2463,73.8733333 106.2835,73.8251111 106.32225,73.7768889 C106.6803,73.3335556 107.02905,72.884 107.37005,72.4266667 C107.4119,72.3706667 107.4553,72.3146667 107.49715,72.2586667 C107.8428,71.7904444 108.1776,71.3144444 108.5062,70.8322222 C108.5651,70.7451111 108.62555,70.6595556 108.6829,70.5724444 C108.9991,70.1011111 109.306,69.622 109.60515,69.1366667 C109.6656,69.0386667 109.72605,68.9391111 109.7865,68.8411111 C110.081,68.3542222 110.36775,67.8626667 110.6452,67.3633333 C110.69945,67.2668889 110.7506,67.1704444 110.80485,67.074 C111.08385,66.5637778 111.3551,66.0473333 111.6155,65.5246667 C111.65425,65.4468889 111.69145,65.3675556 111.7302,65.2897778 C111.9999,64.7406667 112.2603,64.1853333 112.5083,63.6222222 C112.5207,63.5942222 112.53155,63.5662222 112.54395,63.5397778 C112.78885,62.9797778 113.0229,62.412 113.2461,61.838 C113.2709,61.7773333 113.2957,61.7166667 113.31895,61.6544444 C113.53595,61.0882222 113.7421,60.5157778 113.9374,59.9371111 C113.9684,59.8453333 114.00095,59.7535556 114.0304,59.6617778 C114.21795,59.0955556 114.39465,58.5231111 114.56205,57.946 C114.5915,57.8433333 114.62095,57.7406667 114.6504,57.638 C114.81315,57.0593333 114.96505,56.4744444 115.1061,55.8848889 C115.12935,55.7884444 115.15105,55.692 115.17275,55.5955556 C115.31225,54.9904444 115.44245,54.3806667 115.5587,53.7662222 C115.5711,53.6977778 115.5835,53.6277778 115.5959,53.5593333 C115.71525,52.9106667 115.8253,52.2573333 115.91675,51.5962222 C116.02525,50.8215556 116.1136,50.05 116.1818,49.28 C116.25,48.51 116.2996,47.7431111 116.3275,46.9777778 C116.34145,46.5951111 116.3523,46.214 116.35695,45.8328889 C116.36625,45.0706667 116.3585,44.3131111 116.3306,43.5586667 C116.2748,42.0497778 116.14305,40.5548889 115.94,39.0786667 C115.73695,37.6024444 115.4626,36.1464444 115.1185,34.7137778 C115.03325,34.356 114.94335,33.9982222 114.8488,33.6435556 C114.56515,32.578 114.2443,31.5248889 113.88625,30.4888889 C113.7669,30.1435556 113.6429,29.7997778 113.5158,29.4575556 C112.3688,26.3791111 110.8932,23.4468889 109.12775,20.7075556 C108.9309,20.4026667 108.7325,20.1008889 108.5279,19.8022222 C106.90195,17.4066667 105.0497,15.1697778 102.99595,13.1242222 C102.4829,12.6124444 101.95745,12.1131111 101.41805,11.6262222 C100.87865,11.1393333 100.32995,10.6648889 99.7673,10.2044444 C99.48675,9.97422222 99.2031,9.74711111 98.91635,9.52311111 C98.34285,9.07511111 97.7585,8.64111111 97.16175,8.21955556 C96.86415,8.00955556 96.56345,7.80266667 96.25965,7.59888889 C95.65205,7.19133333 95.03515,6.79933333 94.40585,6.42133333 C92.83415,5.47711111 91.19735,4.62311111 89.5001,3.87022222 C88.8212,3.56844444 88.133,3.28377778 87.4355,3.01466667 C87.08675,2.88088889 86.73645,2.75022222 86.38305,2.62422222 C84.6176,1.99422222 82.7948,1.47 80.92395,1.05777778 C79.80175,0.810444444 78.66095,0.605111111 77.5031,0.441777778 L77.5031,0.441777778 C77.0257,0.374888889 76.54985,0.317333333 76.074,0.266 C75.9407,0.252 75.8074,0.238 75.6741,0.225555556 C75.30055,0.188222222 74.927,0.155555556 74.555,0.127555556 C74.44185,0.119777778 74.32715,0.108888889 74.214,0.101111111 C73.7428,0.0684444444 73.2716,0.0435555556 72.8035,0.0264444444 C72.7136,0.0233333333 72.6237,0.0217777778 72.5338,0.0186666667 C72.1525,0.00933333333 71.7681,0.00155555556 71.3837,0 L71.021,0 C70.42115,0.00155555556 69.82285,0.0155555556 69.2261,0.042 C69.12845,0.0466666667 69.03235,0.0513333333 68.9347,0.056 C68.32865,0.0855555556 67.72415,0.126 67.12275,0.182 C67.053,0.188222222 66.9848,0.196 66.91505,0.202222222 C66.28575,0.262888889 65.658,0.332888889 65.03335,0.418444444 C65.0256,0.42 65.01785,0.42 65.01165,0.421555556 C64.3932,0.507111111 63.77785,0.608222222 63.16715,0.720222222 C63.09895,0.732666667 63.0292,0.743555556 62.961,0.756 C62.3782,0.864888889 61.7985,0.987777778 61.2219,1.11844444 C61.12425,1.14022222 61.0266,1.162 60.9305,1.18533333 C60.3694,1.31755556 59.8114,1.46066667 59.25805,1.61466667 C59.15265,1.64422222 59.0488,1.67377778 58.9434,1.70333333 C58.3916,1.86044444 57.84445,2.02688889 57.30195,2.20422222 C57.20585,2.23533333 57.10975,2.268 57.0121,2.30066667 C56.45875,2.48577778 55.9085,2.67866667 55.36445,2.884 C55.29625,2.91044444 55.22805,2.93688889 55.15985,2.96333333 C54.6127,3.17333333 54.06865,3.39266667 53.5308,3.62288889 C53.4967,3.63688889 53.4626,3.65088889 53.43005,3.66488889 C52.88445,3.89977778 52.34505,4.14866667 51.8103,4.40533333 C51.72815,4.44422222 51.646,4.48311111 51.56385,4.522 C51.05545,4.76933333 50.5517,5.02911111 50.0526,5.29511111 C49.9503,5.34955556 49.84955,5.404 49.74725,5.45844444 C49.26055,5.72288889 48.7785,5.99822222 48.3011,6.27977778 C48.19725,6.34044444 48.09495,6.40266667 47.99265,6.46488889 C47.5168,6.75266667 47.0456,7.04666667 46.5806,7.35155556 C46.48915,7.41066667 46.39925,7.47288889 46.3078,7.532 C45.83195,7.84777778 45.3623,8.17133333 44.89885,8.50577778 C44.83685,8.55088889 44.77485,8.59755556 44.7144,8.64266667 C44.26335,8.97088889 43.8185,9.30844444 43.3783,9.65377778 C43.3287,9.69266667 43.276,9.73155556 43.2264,9.772 C42.77535,10.1297778 42.3336,10.4984444 41.8965,10.8733333 C41.8159,10.9417778 41.7353,11.0102222 41.65625,11.0786667 C41.2362,11.4442222 40.8239,11.8191111 40.4178,12.1986667 C40.32945,12.2811111 40.2411,12.3651111 40.15275,12.4475556 C39.75285,12.8271111 39.3607,13.216 38.97475,13.6111111 C38.8895,13.6982222 38.8058,13.7853333 38.7221,13.8724444 C38.3346,14.2753333 37.95485,14.6844444 37.5813,15.1013333 C37.51155,15.1791111 37.44335,15.2584444 37.37515,15.3362222 C36.9923,15.7717778 36.6141,16.2135556 36.24675,16.6646667 C36.208,16.7128889 36.1708,16.7611111 36.13205,16.8093333 C35.774,17.2526667 35.42525,17.7022222 35.08425,18.1595556 C35.0424,18.2155556 34.999,18.27 34.95715,18.3275556 C34.6115,18.7957778 34.2767,19.2717778 33.9481,19.754 C33.8892,19.8395556 33.8303,19.9251111 33.7714,20.0122222 C33.4552,20.4835556 33.1483,20.9626667 32.84915,21.448 C32.7887,21.546 32.7267,21.6455556 32.6678,21.7435556 C32.3733,22.2288889 32.08655,22.722 31.8091,23.2197778 C31.75485,23.3162222 31.70215,23.4142222 31.64945,23.5122222 C31.37045,24.0224444 31.0992,24.5388889 30.84035,25.0615556 C30.8016,25.1393333 30.7644,25.2186667 30.72565,25.2964444 C30.45595,25.8455556 30.19555,26.4008889 29.94755,26.964 C29.93515,26.992 29.9243,27.02 29.9119,27.048 C29.667,27.608 29.4345,28.1742222 29.2113,28.7466667 C29.1865,28.8088889 29.1617,28.8695556 29.13845,28.9317778 C28.92145,29.4964444 28.71685,30.0688889 28.52,30.646 C28.489,30.7377778 28.45645,30.8295556 28.42545,30.9228889 C28.2379,31.4891111 28.0612,32.0615556 27.89535,32.6386667 C27.8659,32.7413333 27.83645,32.844 27.807,32.9466667 C27.64425,33.5253333 27.49235,34.1102222 27.3513,34.6982222 C27.32805,34.7946667 27.30635,34.8926667 27.28465,34.9891111 C27.14515,35.5926667 27.01495,36.2024444 26.8987,36.8168889 C26.8863,36.8868889 26.8739,36.9568889 26.8615,37.0268889 C26.74215,37.674 26.63365,38.3273333 26.54065,38.9853333 L26.54065,38.9884444 C26.3779,40.1488889 26.26165,41.3062222 26.18725,42.4573333 C26.1144,43.6084444 26.08495,44.7533333 26.0989,45.892 C26.1268,48.1677778 26.32365,50.4108889 26.6817,52.6104444 C26.7964,53.3477778 26.9328,54.0742222 27.0878,54.7975556 L27.0878,54.7975556 Z" id="Shape"></path>
                <path d="M123.8109,80.346 C123.8078,80.318 123.80315,80.29 123.7985,80.262 C123.78765,80.192 123.7737,80.122 123.75665,80.052 C123.75045,80.024 123.74425,79.996 123.7365,79.968 C123.7117,79.8777778 123.68225,79.7875556 123.64815,79.7004444 C123.64505,79.6911111 123.6404,79.6817778 123.63575,79.6724444 C123.6032,79.5931111 123.56755,79.5168889 123.5288,79.4406667 C123.51485,79.4142222 123.5009,79.3877778 123.4854,79.3628889 C123.4513,79.3006667 123.4141,79.24 123.3738,79.1793333 C123.35985,79.1575556 123.3459,79.1357778 123.3304,79.114 C123.27615,79.0362222 123.2188,78.9615556 123.1568,78.8884444 C123.14285,78.8728889 123.12735,78.8573333 123.1134,78.8402222 C123.06225,78.7826667 123.00955,78.7266667 122.95375,78.6722222 C122.93205,78.6504444 122.9088,78.6286667 122.88555,78.6068889 C122.8282,78.554 122.7693,78.5026667 122.70885,78.4528889 C122.6918,78.4388889 122.6763,78.4248889 122.6577,78.4108889 C122.5802,78.3502222 122.4996,78.2926667 122.4159,78.2382222 C122.39265,78.2226667 122.3694,78.2086667 122.34615,78.1946667 C122.28105,78.1542222 122.2144,78.1153333 122.1462,78.078 C122.1183,78.0624444 122.0904,78.0484444 122.0625,78.0328889 C121.9788,77.9908889 121.89355,77.9504444 121.8052,77.9131111 C121.7959,77.91 121.7866,77.9053333 121.7773,77.9006667 C121.67965,77.8617778 121.58045,77.826 121.4797,77.7933333 C121.45025,77.784 121.4208,77.7762222 121.39135,77.7668889 C121.31385,77.7435556 121.23325,77.7233333 121.15265,77.7046667 C121.1232,77.6984444 121.09375,77.6906667 121.06275,77.6844444 C120.9558,77.6626667 120.8473,77.644 120.73725,77.63 C120.7233,77.6284444 120.70935,77.6268889 120.6954,77.6253333 C120.59775,77.6144444 120.49855,77.6066667 120.39935,77.602 C120.36525,77.6004444 120.33115,77.5988889 120.29705,77.5988889 C120.22885,77.5973333 120.1591,77.5988889 120.0909,77.6004444 C120.0165,77.602 119.94055,77.6051111 119.8646,77.6113333 C119.80415,77.616 119.74215,77.6222222 119.6817,77.6284444 C119.60575,77.6377778 119.5298,77.6486667 119.45385,77.6611111 C119.39185,77.672 119.32985,77.6828889 119.2663,77.6953333 C119.1888,77.7108889 119.11285,77.7311111 119.03535,77.7513333 C118.97335,77.7684444 118.9098,77.784 118.8478,77.8042222 C118.7703,77.8275556 118.69125,77.8555556 118.61375,77.8851111 C118.55175,77.9084444 118.48975,77.9302222 118.42775,77.9551111 C118.34715,77.9877778 118.2681,78.0251111 118.1875,78.0624444 C118.12705,78.0904444 118.06815,78.1168889 118.0077,78.148 C117.924,78.1915556 117.84185,78.2397778 117.75815,78.2895556 C117.70235,78.3222222 117.64655,78.3533333 117.5892,78.3891111 C117.49775,78.4482222 117.4063,78.5135556 117.31485,78.5788889 C117.26835,78.6115556 117.22185,78.6411111 117.1769,78.6768889 C117.0405,78.7811111 116.90565,78.8931111 116.7708,79.0144444 C111.74415,83.5753333 106.0758,86.0813333 99.82155,87.3506667 C99.81845,87.3506667 99.8138,87.3522222 99.8107,87.3522222 C99.35655,87.444 98.8993,87.5357778 98.4436,87.6244444 C98.2948,87.654 98.146,87.682 97.9972,87.71 C97.68255,87.7706667 97.3679,87.8313333 97.0517,87.8904444 C96.87345,87.9246667 96.6952,87.9573333 96.5154,87.99 C96.22555,88.0428889 95.9357,88.0973333 95.6443,88.1486667 C95.45675,88.1828889 95.26765,88.2155556 95.07855,88.2482222 C94.79025,88.2995556 94.49885,88.3493333 94.209,88.3975556 C94.02145,88.4286667 93.83235,88.4613333 93.6448,88.4924444 C93.341,88.5422222 93.03565,88.592 92.7303,88.6402222 C92.55515,88.6682222 92.38,88.6962222 92.2033,88.7242222 C91.84215,88.7802222 91.47945,88.8331111 91.1152,88.8875556 C90.9912,88.9062222 90.86875,88.9248889 90.74475,88.942 C90.2565,89.012 89.76515,89.0788889 89.26915,89.1442222 C89.15445,89.1597778 89.03665,89.1737778 88.9204,89.1877778 C88.82585,89.2002222 88.7313,89.2111111 88.63675,89.2235556 C88.34845,89.2593333 88.06015,89.2966667 87.76875,89.3308889 C87.58895,89.3526667 87.4076,89.3713333 87.22625,89.3931111 C86.8992,89.4304444 86.56905,89.4662222 86.23735,89.502 C86.03585,89.5237778 85.8328,89.544 85.62975,89.5642222 C85.31045,89.5953333 84.9896,89.6264444 84.66565,89.656 C84.4564,89.6746667 84.24715,89.6933333 84.03635,89.712 C83.70775,89.74 83.37605,89.7664444 83.04435,89.7928889 C82.83665,89.8084444 82.6305,89.8255556 82.42125,89.8411111 C82.0601,89.8675556 81.69585,89.8908889 81.3285,89.9142222 C81.1456,89.9251111 80.96425,89.9391111 80.77825,89.9484444 C80.2559,89.9795556 79.72735,90.006 79.1926,90.0308889 C79.1616,90.0324444 79.13215,90.034 79.10115,90.0355556 C78.73535,90.0511111 78.3649,90.0651111 77.9929,90.0775556 C77.78985,90.0853333 77.58835,90.0931111 77.3822,90.0993333 C77.20085,90.1055556 77.01485,90.1086667 76.83195,90.1133333 C76.4305,90.1242222 76.02595,90.1335556 75.61675,90.1397778 C75.392,90.1428889 75.1626,90.146 74.93475,90.1475556 C74.55965,90.1522222 74.18145,90.1553333 73.7986,90.1553333 C73.687,90.1553333 73.57695,90.1584444 73.4638,90.1584444 C73.2778,90.1584444 73.0856,90.1568889 72.89805,90.1553333 C72.6981,90.1537778 72.49815,90.1537778 72.29665,90.1522222 C71.9262,90.1491111 71.55265,90.1444444 71.176,90.1366667 C71.0055,90.1335556 70.835,90.132 70.66295,90.1288889 C70.1127,90.118 69.5578,90.104 68.99515,90.0868889 C68.95795,90.0853333 68.92075,90.0837778 68.88355,90.0822222 C68.35655,90.0651111 67.82335,90.0448889 67.2855,90.0215556 C67.09485,90.0137778 66.9011,90.0028889 66.7089,89.9951111 C66.31675,89.9764444 65.9215,89.9577778 65.52315,89.936 C65.29995,89.9235556 65.07365,89.9111111 64.84735,89.8971111 C64.46915,89.8753333 64.0894,89.852 63.70655,89.8271111 C63.47095,89.8115556 63.23535,89.796 62.99665,89.7804444 C62.6014,89.754 62.2015,89.7244444 61.80005,89.6933333 C61.57375,89.6762222 61.35055,89.6606667 61.1227,89.642 C60.64375,89.6046667 60.15705,89.5626667 59.6688,89.5206667 C59.51535,89.5066667 59.365,89.4957778 59.21155,89.4817778 C58.56675,89.4242222 57.91265,89.362 57.2508,89.2966667 C57.08495,89.2795556 56.91445,89.2624444 56.7486,89.2453333 C56.2495,89.194 55.7473,89.1426667 55.23735,89.0866667 C54.98935,89.0602222 54.73825,89.0306667 54.4887,89.0026667 C54.04695,88.9528889 53.6021,88.9015556 53.15415,88.8486667 C53.0286,88.8331111 52.90615,88.8206667 52.7806,88.8051111 C52.63645,88.788 52.48765,88.7677778 52.3435,88.7506667 C51.894,88.6962222 51.43985,88.6386667 50.9826,88.5811111 C50.71445,88.5468889 50.4463,88.5126667 50.1766,88.4768889 C49.6806,88.4115556 49.1784,88.3446667 48.6731,88.2746667 C48.43595,88.242 48.2019,88.2108889 47.9632,88.1782222 C47.22075,88.074 46.47055,87.9666667 45.70795,87.8546667 C45.7064,87.8546667 45.70485,87.8546667 45.70175,87.8531111 C46.4597,87.4424444 47.41605,87.0628889 48.4654,86.7144444 C48.47315,86.7113333 48.4809,86.7097778 48.4902,86.7066667 C48.78315,86.6102222 49.0823,86.5153333 49.38765,86.4251111 C49.8573,86.2835556 50.33935,86.1497778 50.8245,86.0206667 C51.4724,85.848 52.1265,85.6877778 52.7682,85.5368889 C52.9294,85.4995556 53.08905,85.4622222 53.24715,85.4264444 C55.62795,84.8835556 57.76695,84.4931111 58.65045,84.2644444 C59.58975,84.0217778 60.3508,83.776 61.0328,83.5131111 C61.4234,83.3622222 61.78765,83.2066667 62.1457,83.0433333 C62.32395,82.9608889 62.5022,82.8784444 62.6789,82.7928889 C63.65695,82.32 64.65515,81.7802222 66.06565,81.1237778 C67.0902,80.6462222 68.3333,80.1064444 69.9422,79.4857778 C69.9422,79.4857778 69.94375,79.4857778 69.9453,79.4842222 C70.15145,79.4048889 70.34365,79.3224444 70.5281,79.2368889 C70.58855,79.2088889 70.64435,79.1793333 70.7017,79.1513333 C70.82105,79.0937778 70.9373,79.0346667 71.04735,78.974 C71.1109,78.9382222 71.1698,78.9024444 71.23025,78.8666667 C71.3248,78.8106667 71.4178,78.7546667 71.5046,78.6955556 C71.56195,78.6566667 71.6162,78.6177778 71.672,78.5788889 C71.7526,78.5213333 71.82855,78.4622222 71.9014,78.4046667 C71.951,78.3642222 71.99905,78.3253333 72.044,78.2848889 C72.11375,78.2242222 72.1773,78.162 72.23775,78.1013333 C72.2765,78.0624444 72.3168,78.022 72.354,77.9831111 C72.416,77.9162222 72.4687,77.8477778 72.52295,77.7793333 C72.55085,77.7435556 72.5803,77.7093333 72.6051,77.6735556 C72.6702,77.5802222 72.72755,77.4868889 72.7787,77.392 C72.7849,77.3811111 72.79265,77.3702222 72.79885,77.3577778 C72.8531,77.252 72.8965,77.1462222 72.9337,77.0388889 C72.9461,77.0031111 72.9523,76.9673333 72.96315,76.9315556 C72.9833,76.86 73.00345,76.7884444 73.01585,76.7153333 C73.0236,76.6717778 73.0267,76.6297778 73.03135,76.5862222 C73.0391,76.5208889 73.04375,76.4555556 73.0453,76.3902222 C73.0453,76.3451111 73.04375,76.3 73.0422,76.2548889 C73.0391,76.1911111 73.0329,76.1288889 73.02515,76.0651111 C73.01895,76.02 73.0112,75.9748889 73.0019,75.9297778 C72.9895,75.866 72.97245,75.8037778 72.95385,75.74 C72.94145,75.6964444 72.92905,75.6513333 72.91355,75.6077778 C72.8903,75.5424444 72.86085,75.4771111 72.83295,75.4117778 C72.81435,75.3713333 72.79885,75.3324444 72.7787,75.292 C72.7384,75.2126667 72.69035,75.1333333 72.64075,75.054 C72.6268,75.0306667 72.6144,75.0057778 72.5989,74.9824444 C72.53225,74.8828889 72.45785,74.7848889 72.37725,74.6868889 C72.3478,74.6511111 72.3137,74.6168889 72.2827,74.5826667 C72.2269,74.5204444 72.1711,74.4582222 72.11065,74.3975556 C72.07035,74.3571111 72.0285,74.3197778 71.9851,74.2808889 C71.9262,74.2264444 71.8673,74.172 71.80375,74.1191111 C71.7557,74.0786667 71.7061,74.0397778 71.6565,74.0008889 C71.5914,73.9495556 71.52475,73.8997778 71.45655,73.8515556 C71.40385,73.8142222 71.3496,73.7753333 71.2938,73.7395556 C71.22095,73.6913333 71.14655,73.6446667 71.0706,73.598 C71.01325,73.5637778 70.9559,73.528 70.897,73.4937778 C70.8133,73.4471111 70.7265,73.4004444 70.6397,73.3553333 C70.58235,73.3257778 70.525,73.2946667 70.4661,73.2651111 C70.3576,73.2122222 70.24445,73.1624444 70.12975,73.1126667 C70.08635,73.094 70.04605,73.0737778 70.00265,73.0566667 C69.84455,72.9913333 69.6818,72.9291111 69.5144,72.8715556 C69.4586,72.8513333 69.3997,72.8342222 69.34235,72.8155556 C69.2261,72.7766667 69.1083,72.7393333 68.9874,72.7051111 C68.9161,72.6848889 68.8417,72.6662222 68.76885,72.6475556 C68.65725,72.618 68.54565,72.59 68.43095,72.5635556 C68.3519,72.5448889 68.2713,72.5293333 68.1907,72.5122222 C68.07755,72.4888889 67.96285,72.4671111 67.8466,72.4468889 C67.7629,72.4328889 67.6792,72.4188889 67.59395,72.4048889 C67.4746,72.3862222 67.35215,72.3706667 67.2297,72.3551111 C67.146,72.3442222 67.06075,72.3348889 66.9755,72.3255556 C66.84375,72.3115556 66.7089,72.3022222 66.5756,72.2928889 C66.49655,72.2866667 66.4175,72.2804444 66.3369,72.2757778 C66.17105,72.268 66.0021,72.2633333 65.83315,72.2617778 C65.78045,72.2617778 65.73085,72.2586667 65.67815,72.2586667 C65.54175,72.2586667 65.40225,72.2648889 65.2643,72.268 C65.16355,72.2711111 65.06435,72.2711111 64.96205,72.2757778 C64.81015,72.2835556 64.6567,72.2975556 64.50325,72.31 C64.41025,72.3177778 64.32035,72.3224444 64.22735,72.3317778 C64.05685,72.3488889 63.88325,72.3737778 63.70965,72.3971111 C63.6306,72.408 63.5531,72.4157778 63.4725,72.4282222 C63.2183,72.4671111 62.96255,72.5137778 62.70215,72.5666667 C62.64325,72.5791111 62.5797,72.5931111 62.5115,72.6086667 C62.3751,72.6397778 62.22165,72.6771111 62.0527,72.7191111 C61.71325,72.8046667 61.3087,72.9135556 60.84835,73.0426667 C60.6174,73.108 60.3725,73.1764444 60.1152,73.2511111 C59.98655,73.2884444 59.8548,73.3257778 59.71995,73.3662222 C59.45025,73.4455556 59.16815,73.528 58.87365,73.6151111 C57.55305,74.0071111 56.0046,74.4815556 54.3337,75.0011111 C53.59125,75.2313333 52.824,75.4724444 52.0428,75.7166667 C51.6522,75.8395556 51.25695,75.964 50.86015,76.0884444 C50.46335,76.2128889 50.06345,76.3404444 49.66045,76.4664444 C48.85755,76.72 48.04845,76.9766667 47.24245,77.2317778 C46.83945,77.3593333 46.438,77.4868889 46.0381,77.6144444 C44.43695,78.1231111 42.86835,78.6208889 41.4036,79.0844444 C41.0378,79.2011111 40.6782,79.3146667 40.3248,79.4251111 C39.2677,79.758 38.28035,80.0691111 37.3922,80.346 C36.8001,80.5295556 36.25295,80.6991111 35.7585,80.85 C35.51205,80.9246667 35.278,80.9962222 35.0579,81.0615556 C34.29065,81.2917778 33.70165,81.4613333 33.33895,81.5515556 C29.43605,82.53 26.25855,83.454 23.6282,84.4246667 C23.3647,84.5211111 23.1074,84.6191111 22.85475,84.7171111 C21.59305,85.2071111 20.4631,85.7111111 19.4432,86.2431111 C18.83095,86.562 18.259,86.8902222 17.7196,87.2308889 C16.82215,87.7986667 16.02235,88.4022222 15.29385,89.0508889 C15.14815,89.1815556 15.00555,89.3122222 14.86605,89.446 C14.58705,89.7135556 14.31735,89.9888889 14.0585,90.2735556 C12.76425,91.6953333 11.71025,93.338 10.71825,95.2995556 C10.51985,95.6915556 10.323,96.0975556 10.1277,96.516 C9.05355,98.8213333 8.0104,101.540444 6.758,104.807111 C6.417,105.698444 6.05895,106.630222 5.68075,107.605556 C5.177,108.906 4.6376,110.284222 4.05015,111.746444 C3.02095,114.305333 1.84605,117.122444 0.46345,120.230444 C0.4185,120.333111 0.3782,120.437333 0.3441,120.543111 C0.33325,120.577333 0.32395,120.613111 0.31465,120.648889 C0.29295,120.720444 0.2728,120.793556 0.25575,120.866667 C0.24645,120.910222 0.2387,120.953778 0.23095,120.998889 C0.21855,121.065778 0.20615,121.132667 0.19685,121.201111 C0.19065,121.249333 0.18755,121.297556 0.1829,121.345778 C0.1767,121.412667 0.1705,121.479556 0.1674,121.546444 C0.16585,121.596222 0.1643,121.647556 0.1643,121.697333 C0.1643,121.764222 0.1643,121.831111 0.16585,121.899556 C0.1674,121.952444 0.1705,122.003778 0.17515,122.056667 C0.1798,122.125111 0.186,122.193556 0.19375,122.262 C0.19995,122.314889 0.20615,122.369333 0.2139,122.423778 C0.2232,122.493778 0.2356,122.563778 0.248,122.635333 C0.2573,122.689778 0.26815,122.744222 0.279,122.800222 C0.29295,122.871778 0.31,122.944889 0.32705,123.018 C0.33945,123.072444 0.3534,123.126889 0.36735,123.182889 C0.3875,123.257556 0.4092,123.333778 0.43245,123.41 C0.44795,123.464444 0.46345,123.517333 0.48205,123.571778 C0.5084,123.651111 0.5363,123.732 0.5642,123.812889 C0.5828,123.864222 0.59985,123.915556 0.61845,123.966889 C0.65255,124.057111 0.68975,124.147333 0.72695,124.239111 C0.744,124.282667 0.76105,124.324667 0.7781,124.366667 C0.8928,124.635778 1.023,124.908 1.1656,125.184889 C1.18885,125.23 1.21365,125.275111 1.23845,125.318667 C1.28805,125.412 1.33765,125.505333 1.39035,125.600222 C1.42135,125.654667 1.45235,125.709111 1.4849,125.763556 C1.5345,125.849111 1.5841,125.934667 1.63525,126.020222 C1.66935,126.077778 1.70655,126.135333 1.7422,126.192889 C1.79335,126.275333 1.8445,126.359333 1.89875,126.441778 C1.9375,126.502444 1.97625,126.561556 2.01655,126.622222 C2.0708,126.703111 2.1235,126.785556 2.1793,126.868 C2.22115,126.928667 2.263,126.990889 2.30485,127.051556 C2.36065,127.132444 2.418,127.214889 2.4769,127.295778 C2.5203,127.358 2.56525,127.418667 2.6102,127.480889 C2.6691,127.561778 2.72955,127.644222 2.79,127.725111 C2.8365,127.787333 2.88145,127.848 2.92795,127.910222 C2.9915,127.994222 3.0566,128.076667 3.1217,128.160667 C3.1682,128.219778 3.2147,128.280444 3.26275,128.339556 C3.33095,128.425111 3.39915,128.510667 3.4689,128.596222 C3.5154,128.653778 3.5619,128.711333 3.60995,128.768889 C3.68435,128.859111 3.7603,128.949333 3.83625,129.039556 C3.8812,129.092444 3.9246,129.145333 3.96955,129.198222 C4.05635,129.299333 4.1447,129.402 4.23305,129.503111 C4.2687,129.543556 4.30435,129.585556 4.34,129.626 C4.59265,129.912222 4.85305,130.198444 5.11965,130.483111 C5.1553,130.522 5.1925,130.559333 5.2297,130.598222 C5.32735,130.700889 5.425,130.805111 5.5242,130.907778 C5.57225,130.957556 5.6203,131.007333 5.6699,131.057111 C5.75825,131.147333 5.8466,131.237556 5.93495,131.327778 C5.9892,131.383778 6.045,131.438222 6.1008,131.492667 C6.1845,131.576667 6.26975,131.660667 6.355,131.744667 C6.41235,131.800667 6.4697,131.856667 6.52705,131.912667 C6.6123,131.995111 6.69755,132.079111 6.78435,132.161556 C6.8417,132.216 6.89905,132.270444 6.9564,132.324889 C7.0432,132.407333 7.13,132.489778 7.21835,132.570667 C7.27725,132.625111 7.3346,132.679556 7.3935,132.734 C7.48185,132.814889 7.56865,132.895778 7.657,132.976667 C7.7159,133.031111 7.7748,133.084 7.8337,133.136889 C7.9236,133.217778 8.01195,133.297111 8.10185,133.378 C8.16075,133.429333 8.2181,133.482222 8.277,133.533556 C8.37,133.616 8.463,133.696889 8.556,133.777778 C8.6118,133.826 8.66605,133.874222 8.72185,133.922444 C8.8226,134.009556 8.92335,134.095111 9.02255,134.180667 C9.0706,134.221111 9.11865,134.263111 9.1667,134.303556 C9.28605,134.403111 9.40385,134.502667 9.5232,134.600667 C9.55265,134.625556 9.58365,134.650444 9.6131,134.675333 C9.9169,134.925778 10.21915,135.17 10.5214,135.409556 C10.54775,135.429778 10.5741,135.45 10.60045,135.471778 C10.7229,135.568222 10.8438,135.663111 10.96625,135.756444 C11.01275,135.792222 11.0577,135.826444 11.1042,135.862222 C11.2065,135.94 11.3088,136.017778 11.40955,136.095556 C11.46225,136.136 11.51495,136.174889 11.56765,136.213778 C11.6622,136.283778 11.75675,136.353778 11.84975,136.423778 C11.90555,136.464222 11.9598,136.504667 12.0156,136.545111 C12.1055,136.610444 12.1954,136.675778 12.2853,136.741111 C12.34265,136.781556 12.39845,136.822 12.4558,136.862444 C12.54415,136.924667 12.63095,136.986889 12.7193,137.047556 C12.7751,137.086444 12.8309,137.125333 12.88825,137.164222 C12.9735,137.223333 13.0603,137.282444 13.14555,137.341556 C13.20135,137.380444 13.25715,137.417778 13.31295,137.455111 C13.3982,137.512667 13.485,137.570222 13.5687,137.626222 C13.6214,137.662 13.6741,137.696222 13.7268,137.732 C13.8136,137.788 13.89885,137.844 13.9841,137.898444 C14.0337,137.931111 14.08485,137.963778 14.13445,137.994889 C14.2228,138.050889 14.31115,138.106889 14.3995,138.161333 C14.44445,138.189333 14.4894,138.217333 14.5328,138.245333 C14.6289,138.304444 14.725,138.362 14.81955,138.419556 C14.85365,138.439778 14.88775,138.461556 14.9203,138.480222 C15.17605,138.632667 15.4256,138.775778 15.6674,138.906444 C15.6984,138.923556 15.72785,138.939111 15.75885,138.956222 C15.8472,139.002889 15.934,139.051111 16.01925,139.094667 C16.0611,139.116444 16.1014,139.136667 16.1417,139.156889 C16.21455,139.194222 16.2874,139.231556 16.35715,139.265778 C16.4021,139.287556 16.4455,139.307778 16.4889,139.329556 C16.554,139.360667 16.6191,139.391778 16.6811,139.421333 C16.72605,139.441556 16.76945,139.461778 16.81285,139.480444 C16.8733,139.506889 16.93375,139.533333 16.9911,139.558222 C17.0345,139.576889 17.07635,139.594 17.1182,139.611111 C17.174,139.634444 17.2298,139.656222 17.2856,139.678 C17.32745,139.693556 17.36775,139.709111 17.40805,139.723111 C17.46075,139.741778 17.51345,139.760444 17.56305,139.777556 C17.6018,139.79 17.64055,139.804 17.67775,139.816444 C17.72735,139.832 17.7754,139.846 17.8219,139.86 C17.85755,139.870889 17.89475,139.880222 17.9304,139.889556 C17.9769,139.902 18.0203,139.911333 18.06525,139.922222 C18.0978,139.93 18.1319,139.937778 18.1629,139.944 C18.20785,139.953333 18.2497,139.958 18.29155,139.964222 C18.31945,139.968889 18.3489,139.973556 18.37525,139.976667 C18.4202,139.981333 18.4605,139.982889 18.50235,139.984444 C18.5287,139.996889 18.5504,140 18.57055,140 C18.5845,140 18.59845,139.998444 18.6124,139.998444 C18.66665,139.996889 18.71935,139.993778 18.7674,139.986 C18.78755,139.982889 18.8077,139.978222 18.8263,139.973556 C18.86505,139.964222 18.9007,139.953333 18.9348,139.940889 C18.9534,139.933111 18.97045,139.925333 18.9875,139.917556 C19.0185,139.900444 19.04795,139.881778 19.07275,139.86 C19.08515,139.850667 19.09755,139.841333 19.10995,139.830444 C19.14405,139.796222 19.17505,139.757333 19.19675,139.712222 L19.19675,139.712222 C19.9671,138.166 20.7235,136.678889 21.4706,135.252444 C22.21925,133.826 22.9586,132.457111 23.6964,131.148889 C24.4342,129.839111 25.172,128.588444 25.91445,127.393778 C31.35495,118.637556 37.05895,112.966 45.55915,110.008889 C45.9451,109.875111 46.33725,109.746 46.7356,109.623111 C46.75885,109.627778 46.78985,109.632444 46.8255,109.637111 C46.83635,109.638667 46.8534,109.638667 46.8658,109.640222 C46.89215,109.641778 46.92005,109.644889 46.9526,109.646444 C46.97275,109.648 46.99445,109.648 47.01615,109.649556 C47.04715,109.651111 47.0797,109.652667 47.11535,109.652667 C47.14015,109.652667 47.1665,109.654222 47.19285,109.654222 C47.23005,109.654222 47.2688,109.655778 47.3091,109.655778 L47.4238,109.655778 L47.49975,109.655778 C47.5478,109.655778 47.59895,109.654222 47.65165,109.654222 C47.6749,109.654222 47.6966,109.654222 47.71985,109.652667 C47.7958,109.651111 47.87485,109.649556 47.957,109.646444 C47.9756,109.646444 47.9973,109.644889 48.01745,109.644889 C48.08255,109.643333 48.14765,109.641778 48.2143,109.638667 C48.24685,109.637111 48.28095,109.635556 48.31505,109.635556 C48.37395,109.634 48.43285,109.630889 48.49485,109.629333 C48.52895,109.627778 48.5646,109.626222 48.5987,109.624667 C48.65915,109.621556 48.72115,109.62 48.7816,109.616889 C48.82035,109.615333 48.8591,109.613778 48.8994,109.612222 C48.96605,109.609111 49.0327,109.606 49.09935,109.602889 C49.13345,109.601333 49.1691,109.599778 49.2032,109.598222 C49.27915,109.595111 49.35665,109.590444 49.43415,109.587333 C49.46205,109.585778 49.4915,109.584222 49.5194,109.582667 C49.6186,109.578 49.7178,109.571778 49.817,109.567111 C49.8387,109.565556 49.8604,109.564 49.8821,109.564 C49.9782,109.559333 50.07585,109.553111 50.1735,109.548444 C50.2138,109.546889 50.25565,109.543778 50.2975,109.540667 C50.36725,109.536 50.437,109.532889 50.5083,109.528222 C50.5579,109.525111 50.60905,109.522 50.6602,109.518889 C50.72065,109.515778 50.77955,109.511111 50.84,109.508 C50.89115,109.504889 50.9423,109.501778 50.99345,109.498667 C51.057,109.495556 51.119,109.490889 51.18255,109.486222 C51.23525,109.483111 51.2895,109.48 51.3422,109.476889 C51.398,109.473778 51.45225,109.469111 51.50805,109.466 C51.56385,109.462889 51.61965,109.458222 51.67545,109.455111 C51.7452,109.450444 51.81495,109.445778 51.8847,109.441111 C51.9219,109.438 51.96065,109.436444 51.99785,109.433333 C52.1048,109.425556 52.21175,109.419333 52.31715,109.411556 C52.35125,109.408444 52.38535,109.406889 52.41945,109.403778 C52.49385,109.399111 52.5667,109.392889 52.63955,109.388222 C52.6783,109.385111 52.7155,109.383556 52.7527,109.380444 C52.81625,109.375778 52.87825,109.371111 52.94025,109.366444 C52.9852,109.363333 53.03015,109.360222 53.07355,109.357111 C53.1309,109.352444 53.18825,109.349333 53.24405,109.344667 C53.28435,109.341556 53.3231,109.338444 53.36185,109.335333 C53.43005,109.330667 53.4967,109.324444 53.5618,109.319778 C53.5835,109.318222 53.60675,109.316667 53.62845,109.315111 C53.70285,109.308889 53.7757,109.304222 53.84545,109.298 C53.86405,109.296444 53.8842,109.294889 53.9028,109.293333 C53.98805,109.287111 54.0702,109.279333 54.1477,109.273111 C54.16165,109.271556 54.1756,109.271556 54.18955,109.27 C54.25155,109.265333 54.31355,109.259111 54.3709,109.254444 C54.40035,109.251333 54.42825,109.249778 54.45615,109.246667 C54.4949,109.243556 54.53365,109.240444 54.5693,109.237333 C54.59875,109.234222 54.6282,109.232667 54.6561,109.229556 C54.6902,109.226444 54.72275,109.223333 54.7553,109.220222 C54.77855,109.218667 54.80025,109.215556 54.82195,109.214 C54.8576,109.210889 54.89015,109.207778 54.9227,109.204667 C54.93665,109.203111 54.95215,109.201556 54.9661,109.2 C54.9971,109.196889 55.02345,109.193778 55.04825,109.190667 C55.06065,109.189111 55.0746,109.187556 55.08545,109.186 C55.11955,109.181333 55.149,109.178222 55.17225,109.175111 C59.58045,108.560667 63.79955,107.988222 67.8404,107.395556 C70.2646,107.039333 72.62525,106.676889 74.9239,106.292667 C75.6896,106.165111 76.4491,106.034444 77.2024,105.900667 C78.56175,105.659556 79.8963,105.409111 81.2107,105.147778 C82.95135,104.802444 84.65325,104.433778 86.3195,104.038667 C87.43395,103.774222 88.53135,103.497333 89.61325,103.206444 C90.58975,102.943556 91.55385,102.668222 92.50555,102.380444 C94.32835,101.829778 96.10775,101.232444 97.83755,100.572889 C98.65285,100.263333 99.45265,99.9335556 100.2478,99.5975556 C101.091,99.2397778 101.92335,98.8648889 102.74485,98.4728889 C107.10035,96.3993333 111.15825,93.8451111 114.94335,90.608 C116.4949,89.2811111 118.0015,87.8391111 119.46625,86.2711111 C119.75765,85.96 121.6502,84.1057778 122.38335,83.4415556 C122.4996,83.3357778 122.605,83.23 122.70575,83.1242222 C122.7352,83.0931111 122.7631,83.0635556 122.78945,83.0324444 C122.8623,82.9515556 122.93205,82.8706667 122.99715,82.7897778 C123.0204,82.7617778 123.04365,82.7337778 123.06535,82.7057778 C123.14595,82.6 123.2219,82.4942222 123.28855,82.39 C123.2994,82.3728889 123.3087,82.3542222 123.31955,82.3371111 C123.3738,82.2484444 123.42495,82.1582222 123.4699,82.0695556 C123.4854,82.0368889 123.50245,82.0057778 123.5164,81.9731111 C123.5567,81.8891111 123.5908,81.8066667 123.62335,81.7242222 C123.63265,81.7008889 123.6435,81.6775556 123.65125,81.6542222 C123.68845,81.55 123.71945,81.4473333 123.74425,81.3446667 C123.75045,81.3197778 123.7551,81.2933333 123.75975,81.2684444 C123.7768,81.1891111 123.79075,81.1097778 123.80005,81.032 C123.8047,81.0008889 123.8078,80.9697778 123.8109,80.9386667 C123.81865,80.8515556 123.8233,80.766 123.8233,80.682 C123.8233,80.668 123.82485,80.6524444 123.82485,80.6384444 C123.83105,80.5373333 123.8233,80.4408889 123.8109,80.346 L123.8109,80.346 Z" id="Shape"></path>
            </g>
        </g>
    </g>
</svg>