<?xml version="1.0" encoding="utf-8"?>
<!-- Generator: Adobe Illustrator 19.2.0, SVG Export Plug-In . SVG Version: 6.00 Build 0)  -->
<svg version="1.1" id="Capa_1" xmlns="http://www.w3.org/2000/svg" xmlns:xlink="http://www.w3.org/1999/xlink" x="0px" y="0px"
	 viewBox="0 0 124 140" style="enable-background:new 0 0 124 140;" xml:space="preserve">
<style type="text/css">
	.st0{fill:#FFFFFF;}
</style>
<title>Group</title>
<desc>Created with Sketch.</desc>
<g id="obsocial-31-03-16">
	<g id="Nuestro-Proyecto---S2" transform="translate(-254.000000, -1064.000000)">
		<g id="Group" transform="translate(254.000000, 1064.000000)">
			<path id="Shape" class="st0" d="M107.5,93c-0.3,0.2-4.5,3.7-5.5,4.5c-2.2,1.9-4.5,3.6-7,5c1.5-0.3,3-0.6,4.4-0.8
				c6.3-1.3,11.6-3.8,15.9-7.8c1.4-1.3,3.1-2,4.8-2c0.9,0,1.7,0.2,2.5,0.5c0.4-0.2,0.6-0.5,0.6-1.1c-0.6-5.4-6-4.7-9.6-2.7
				C111.3,89.5,109.3,91.5,107.5,93L107.5,93z"/>
			<path id="Shape_1_" class="st0" d="M27.1,54.8c0.2,1.1,0.5,2.2,0.8,3.2c0.1,0.4,0.2,0.7,0.3,1.1c0.2,0.7,0.5,1.4,0.7,2.1
				c0.4,1,0.8,2,1.3,3c0.3,0.7,0.6,1.3,1,2c1.7,3.2,3.7,6.2,6.1,9c0.4,0.4,0.7,0.8,1.1,1.2c0.2,0.3,0.5,0.5,0.7,0.8
				c0.1,0.1,0.3,0.3,0.4,0.4c1.5-0.5,3.1-1,4.7-1.5c7.8-2.5,15.8-5,18.1-5.5c1.1-0.2,2.3-0.4,3.4-0.4c4.9,0,8.9,2.3,9.4,5.4
				c0.5,2.4-1.2,4.6-4.4,5.9c-2.9,1.1-4.5,1.9-5.9,2.6c-1.7,0.9-3.1,1.6-5.6,2.2c-0.5,0.1-1.2,0.3-2.1,0.5c-0.3,0.1-0.7,0.1-1.1,0.2
				c6.3,0.7,12.1,1,17.6,1c5.7,0,10.7-0.4,15.2-0.9c0.1,0,0.2-0.1,0.3-0.1c0,0,0.1,0,0.1,0c0.5-0.2,1.1-0.5,1.6-0.7
				c0.1,0,0.2-0.1,0.2-0.1c0.5-0.2,1-0.5,1.5-0.8c0.1-0.1,0.2-0.1,0.3-0.2c0.5-0.3,1-0.5,1.4-0.8c0.1-0.1,0.2-0.1,0.3-0.2
				c0.5-0.3,0.9-0.6,1.4-0.9c0.1-0.1,0.2-0.1,0.3-0.2c0.5-0.3,0.9-0.6,1.4-1c0.1,0,0.1-0.1,0.2-0.1c0.5-0.3,0.9-0.7,1.3-1
				c0,0,0.1-0.1,0.2-0.1c0.5-0.4,0.9-0.7,1.3-1.1c0.1-0.1,0.2-0.1,0.2-0.2c0.4-0.4,0.8-0.7,1.2-1.1c0.1-0.1,0.2-0.2,0.3-0.3
				c0.4-0.4,0.8-0.8,1.2-1.2c0.1-0.1,0.2-0.2,0.3-0.3c0.4-0.4,0.8-0.8,1.1-1.2c0.1-0.1,0.1-0.2,0.2-0.2c0.4-0.4,0.8-0.9,1.1-1.3
				c0,0,0.1-0.1,0.1-0.1c0.4-0.4,0.7-0.9,1-1.4c0-0.1,0.1-0.1,0.1-0.2c0.3-0.5,0.7-0.9,1-1.4c0.1-0.1,0.1-0.2,0.2-0.3
				c0.3-0.5,0.6-1,0.9-1.4c0.1-0.1,0.1-0.2,0.2-0.3c0.3-0.5,0.6-1,0.9-1.5c0.1-0.1,0.1-0.2,0.2-0.3c0.3-0.5,0.6-1,0.8-1.5
				c0-0.1,0.1-0.2,0.1-0.2c0.3-0.5,0.5-1.1,0.8-1.7c0,0,0-0.1,0-0.1c0.2-0.6,0.5-1.1,0.7-1.7c0-0.1,0-0.1,0.1-0.2
				c0.2-0.6,0.4-1.1,0.6-1.7c0-0.1,0.1-0.2,0.1-0.3c0.2-0.6,0.4-1.1,0.5-1.7c0-0.1,0.1-0.2,0.1-0.3c0.2-0.6,0.3-1.2,0.5-1.8
				c0-0.1,0-0.2,0.1-0.3c0.1-0.6,0.3-1.2,0.4-1.8c0-0.1,0-0.1,0-0.2c0.1-0.6,0.2-1.3,0.3-2c0.1-0.8,0.2-1.5,0.3-2.3s0.1-1.5,0.1-2.3
				c0-0.4,0-0.8,0-1.1c0-0.8,0-1.5,0-2.3c-0.1-1.5-0.2-3-0.4-4.5s-0.5-2.9-0.8-4.4c-0.1-0.4-0.2-0.7-0.3-1.1c-0.3-1.1-0.6-2.1-1-3.2
				c-0.1-0.3-0.2-0.7-0.4-1c-1.1-3.1-2.6-6-4.4-8.8c-0.2-0.3-0.4-0.6-0.6-0.9c-1.6-2.4-3.5-4.6-5.5-6.7c-0.5-0.5-1-1-1.6-1.5
				c-0.5-0.5-1.1-1-1.7-1.4c-0.3-0.2-0.6-0.5-0.9-0.7c-0.6-0.4-1.2-0.9-1.8-1.3c-0.3-0.2-0.6-0.4-0.9-0.6c-0.6-0.4-1.2-0.8-1.9-1.2
				c-1.6-0.9-3.2-1.8-4.9-2.6c-0.7-0.3-1.4-0.6-2.1-0.9c-0.3-0.1-0.7-0.3-1.1-0.4c-1.8-0.6-3.6-1.2-5.5-1.6
				c-1.1-0.2-2.3-0.5-3.4-0.6l0,0c-0.5-0.1-1-0.1-1.4-0.2c-0.1,0-0.3,0-0.4,0c-0.4,0-0.7-0.1-1.1-0.1c-0.1,0-0.2,0-0.3,0
				c-0.5,0-0.9-0.1-1.4-0.1c-0.1,0-0.2,0-0.3,0c-0.4,0-0.8,0-1.2,0H71c-0.6,0-1.2,0-1.8,0c-0.1,0-0.2,0-0.3,0
				c-0.6,0-1.2,0.1-1.8,0.1c-0.1,0-0.1,0-0.2,0c-0.6,0.1-1.3,0.1-1.9,0.2c0,0,0,0,0,0c-0.6,0.1-1.2,0.2-1.8,0.3c-0.1,0-0.1,0-0.2,0
				c-0.6,0.1-1.2,0.2-1.7,0.4c-0.1,0-0.2,0-0.3,0.1c-0.6,0.1-1.1,0.3-1.7,0.4c-0.1,0-0.2,0.1-0.3,0.1c-0.6,0.2-1.1,0.3-1.6,0.5
				c-0.1,0-0.2,0.1-0.3,0.1c-0.6,0.2-1.1,0.4-1.6,0.6c-0.1,0-0.1,0.1-0.2,0.1c-0.5,0.2-1.1,0.4-1.6,0.7c0,0-0.1,0-0.1,0
				c-0.5,0.2-1.1,0.5-1.6,0.7c-0.1,0-0.2,0.1-0.2,0.1c-0.5,0.2-1,0.5-1.5,0.8c-0.1,0.1-0.2,0.1-0.3,0.2c-0.5,0.3-1,0.5-1.4,0.8
				c-0.1,0.1-0.2,0.1-0.3,0.2C47.5,6.8,47,7,46.6,7.4c-0.1,0.1-0.2,0.1-0.3,0.2c-0.5,0.3-0.9,0.6-1.4,1c-0.1,0-0.1,0.1-0.2,0.1
				c-0.5,0.3-0.9,0.7-1.3,1c0,0-0.1,0.1-0.2,0.1c-0.5,0.4-0.9,0.7-1.3,1.1c-0.1,0.1-0.2,0.1-0.2,0.2c-0.4,0.4-0.8,0.7-1.2,1.1
				c-0.1,0.1-0.2,0.2-0.3,0.2c-0.4,0.4-0.8,0.8-1.2,1.2c-0.1,0.1-0.2,0.2-0.3,0.3c-0.4,0.4-0.8,0.8-1.1,1.2
				c-0.1,0.1-0.1,0.2-0.2,0.2c-0.4,0.4-0.8,0.9-1.1,1.3c0,0-0.1,0.1-0.1,0.1c-0.4,0.4-0.7,0.9-1,1.4c0,0.1-0.1,0.1-0.1,0.2
				c-0.3,0.5-0.7,0.9-1,1.4c-0.1,0.1-0.1,0.2-0.2,0.3c-0.3,0.5-0.6,1-0.9,1.4c-0.1,0.1-0.1,0.2-0.2,0.3c-0.3,0.5-0.6,1-0.9,1.5
				c-0.1,0.1-0.1,0.2-0.2,0.3c-0.3,0.5-0.6,1-0.8,1.5c0,0.1-0.1,0.2-0.1,0.2c-0.3,0.5-0.5,1.1-0.8,1.7c0,0,0,0.1,0,0.1
				c-0.2,0.6-0.5,1.1-0.7,1.7c0,0.1,0,0.1-0.1,0.2c-0.2,0.6-0.4,1.1-0.6,1.7c0,0.1-0.1,0.2-0.1,0.3c-0.2,0.6-0.4,1.1-0.5,1.7
				c0,0.1-0.1,0.2-0.1,0.3c-0.2,0.6-0.3,1.2-0.5,1.8c0,0.1,0,0.2-0.1,0.3c-0.1,0.6-0.3,1.2-0.4,1.8c0,0.1,0,0.1,0,0.2
				c-0.1,0.6-0.2,1.3-0.3,2v0c-0.2,1.2-0.3,2.3-0.4,3.5c-0.1,1.2-0.1,2.3-0.1,3.4c0,2.3,0.2,4.5,0.6,6.7
				C26.8,53.3,26.9,54.1,27.1,54.8L27.1,54.8z"/>
			<path id="Shape_2_" class="st0" d="M123.8,80.3C123.8,80.3,123.8,80.3,123.8,80.3c0-0.2,0-0.2-0.1-0.3c0,0,0-0.1,0-0.1
				c0-0.1-0.1-0.2-0.1-0.3c0,0,0,0,0,0c0-0.1-0.1-0.2-0.1-0.2c0,0,0-0.1,0-0.1c0-0.1-0.1-0.1-0.1-0.2c0,0,0,0,0-0.1
				c-0.1-0.1-0.1-0.2-0.2-0.2c0,0,0,0,0,0c-0.1-0.1-0.1-0.1-0.2-0.2c0,0,0,0-0.1-0.1c-0.1-0.1-0.1-0.1-0.2-0.2c0,0,0,0-0.1,0
				c-0.1-0.1-0.2-0.1-0.2-0.2c0,0,0,0-0.1,0c-0.1,0-0.1-0.1-0.2-0.1c0,0-0.1,0-0.1,0c-0.1,0-0.2-0.1-0.3-0.1c0,0,0,0,0,0
				c-0.1,0-0.2-0.1-0.3-0.1c0,0-0.1,0-0.1,0c-0.1,0-0.2,0-0.2-0.1c0,0-0.1,0-0.1,0c-0.1,0-0.2,0-0.3-0.1c0,0,0,0,0,0
				c-0.1,0-0.2,0-0.3,0c0,0-0.1,0-0.1,0c-0.1,0-0.1,0-0.2,0c-0.1,0-0.2,0-0.2,0c-0.1,0-0.1,0-0.2,0c-0.1,0-0.2,0-0.2,0
				c-0.1,0-0.1,0-0.2,0c-0.1,0-0.2,0-0.2,0.1c-0.1,0-0.1,0-0.2,0.1c-0.1,0-0.2,0.1-0.2,0.1c-0.1,0-0.1,0-0.2,0.1
				c-0.1,0-0.2,0.1-0.2,0.1c-0.1,0-0.1,0.1-0.2,0.1c-0.1,0-0.2,0.1-0.2,0.1c-0.1,0-0.1,0.1-0.2,0.1c-0.1,0.1-0.2,0.1-0.3,0.2
				c0,0-0.1,0.1-0.1,0.1c-0.1,0.1-0.3,0.2-0.4,0.3c-5,4.6-10.7,7.1-16.9,8.3c0,0,0,0,0,0c-0.5,0.1-0.9,0.2-1.4,0.3
				c-0.1,0-0.3,0.1-0.4,0.1c-0.3,0.1-0.6,0.1-0.9,0.2c-0.2,0-0.4,0.1-0.5,0.1c-0.3,0.1-0.6,0.1-0.9,0.2c-0.2,0-0.4,0.1-0.6,0.1
				c-0.3,0.1-0.6,0.1-0.9,0.1c-0.2,0-0.4,0.1-0.6,0.1c-0.3,0-0.6,0.1-0.9,0.1c-0.2,0-0.4,0.1-0.5,0.1c-0.4,0.1-0.7,0.1-1.1,0.2
				c-0.1,0-0.2,0-0.4,0.1c-0.5,0.1-1,0.1-1.5,0.2c-0.1,0-0.2,0-0.3,0c-0.1,0-0.2,0-0.3,0c-0.3,0-0.6,0.1-0.9,0.1
				c-0.2,0-0.4,0-0.5,0.1c-0.3,0-0.7,0.1-1,0.1c-0.2,0-0.4,0-0.6,0.1c-0.3,0-0.6,0.1-1,0.1c-0.2,0-0.4,0-0.6,0.1
				c-0.3,0-0.7,0.1-1,0.1c-0.2,0-0.4,0-0.6,0c-0.4,0-0.7,0-1.1,0.1c-0.2,0-0.4,0-0.6,0c-0.5,0-1.1,0.1-1.6,0.1c0,0-0.1,0-0.1,0
				c-0.4,0-0.7,0-1.1,0c-0.2,0-0.4,0-0.6,0c-0.2,0-0.4,0-0.6,0c-0.4,0-0.8,0-1.2,0c-0.2,0-0.5,0-0.7,0c-0.4,0-0.8,0-1.1,0
				c-0.1,0-0.2,0-0.3,0c-0.2,0-0.4,0-0.6,0c-0.2,0-0.4,0-0.6,0c-0.4,0-0.7,0-1.1,0c-0.2,0-0.3,0-0.5,0c-0.6,0-1.1,0-1.7,0
				c0,0-0.1,0-0.1,0c-0.5,0-1.1,0-1.6-0.1c-0.2,0-0.4,0-0.6,0c-0.4,0-0.8,0-1.2-0.1c-0.2,0-0.4,0-0.7,0c-0.4,0-0.8,0-1.1-0.1
				c-0.2,0-0.5,0-0.7,0c-0.4,0-0.8-0.1-1.2-0.1c-0.2,0-0.4,0-0.7-0.1c-0.5,0-1-0.1-1.5-0.1c-0.2,0-0.3,0-0.5,0
				c-0.6-0.1-1.3-0.1-2-0.2c-0.2,0-0.3,0-0.5-0.1c-0.5-0.1-1-0.1-1.5-0.2c-0.2,0-0.5-0.1-0.7-0.1c-0.4,0-0.9-0.1-1.3-0.2
				c-0.1,0-0.2,0-0.4,0c-0.1,0-0.3,0-0.4-0.1c-0.4-0.1-0.9-0.1-1.4-0.2c-0.3,0-0.5-0.1-0.8-0.1c-0.5-0.1-1-0.1-1.5-0.2
				c-0.2,0-0.5-0.1-0.7-0.1c-0.7-0.1-1.5-0.2-2.3-0.3c0,0,0,0,0,0c0.8-0.4,1.7-0.8,2.8-1.1c0,0,0,0,0,0c0.3-0.1,0.6-0.2,0.9-0.3
				c0.5-0.1,1-0.3,1.4-0.4c0.6-0.2,1.3-0.3,1.9-0.5c0.2,0,0.3-0.1,0.5-0.1c2.4-0.5,4.5-0.9,5.4-1.2c0.9-0.2,1.7-0.5,2.4-0.8
				c0.4-0.2,0.8-0.3,1.1-0.5c0.2-0.1,0.4-0.2,0.5-0.3c1-0.5,2-1,3.4-1.7c1-0.5,2.3-1,3.9-1.6c0,0,0,0,0,0c0.2-0.1,0.4-0.2,0.6-0.2
				c0.1,0,0.1-0.1,0.2-0.1c0.1-0.1,0.2-0.1,0.3-0.2c0.1,0,0.1-0.1,0.2-0.1c0.1-0.1,0.2-0.1,0.3-0.2c0.1,0,0.1-0.1,0.2-0.1
				c0.1-0.1,0.2-0.1,0.2-0.2c0,0,0.1-0.1,0.1-0.1c0.1-0.1,0.1-0.1,0.2-0.2c0,0,0.1-0.1,0.1-0.1c0.1-0.1,0.1-0.1,0.2-0.2
				c0,0,0.1-0.1,0.1-0.1c0.1-0.1,0.1-0.2,0.2-0.3c0,0,0,0,0,0c0.1-0.1,0.1-0.2,0.1-0.3c0,0,0-0.1,0-0.1c0-0.1,0-0.1,0.1-0.2
				c0,0,0-0.1,0-0.1c0-0.1,0-0.1,0-0.2c0,0,0-0.1,0-0.1c0-0.1,0-0.1,0-0.2c0,0,0-0.1,0-0.1c0-0.1,0-0.1,0-0.2c0,0,0-0.1,0-0.1
				c0-0.1-0.1-0.1-0.1-0.2c0,0,0-0.1-0.1-0.1c0-0.1-0.1-0.2-0.1-0.2c0,0,0,0,0-0.1c-0.1-0.1-0.1-0.2-0.2-0.3c0,0-0.1-0.1-0.1-0.1
				c-0.1-0.1-0.1-0.1-0.2-0.2c0,0-0.1-0.1-0.1-0.1c-0.1-0.1-0.1-0.1-0.2-0.2c0,0-0.1-0.1-0.1-0.1c-0.1-0.1-0.1-0.1-0.2-0.1
				c-0.1,0-0.1-0.1-0.2-0.1c-0.1,0-0.1-0.1-0.2-0.1c-0.1,0-0.1-0.1-0.2-0.1c-0.1,0-0.2-0.1-0.3-0.1c-0.1,0-0.1-0.1-0.2-0.1
				c-0.1-0.1-0.2-0.1-0.3-0.2c0,0-0.1,0-0.1-0.1c-0.2-0.1-0.3-0.1-0.5-0.2c-0.1,0-0.1,0-0.2-0.1c-0.1,0-0.2-0.1-0.4-0.1
				c-0.1,0-0.1,0-0.2-0.1c-0.1,0-0.2-0.1-0.3-0.1c-0.1,0-0.2,0-0.2-0.1c-0.1,0-0.2,0-0.3-0.1c-0.1,0-0.2,0-0.3,0c-0.1,0-0.2,0-0.4,0
				c-0.1,0-0.2,0-0.3,0c-0.1,0-0.3,0-0.4,0c-0.1,0-0.2,0-0.2,0c-0.2,0-0.3,0-0.5,0c-0.1,0-0.1,0-0.2,0c-0.1,0-0.3,0-0.4,0
				c-0.1,0-0.2,0-0.3,0c-0.2,0-0.3,0-0.5,0c-0.1,0-0.2,0-0.3,0c-0.2,0-0.3,0-0.5,0.1c-0.1,0-0.2,0-0.2,0c-0.3,0-0.5,0.1-0.8,0.1
				c-0.1,0-0.1,0-0.2,0c-0.1,0-0.3,0.1-0.5,0.1c-0.3,0.1-0.7,0.2-1.2,0.3c-0.2,0.1-0.5,0.1-0.7,0.2c-0.1,0-0.3,0.1-0.4,0.1
				c-0.3,0.1-0.6,0.2-0.8,0.2C57.6,74,56,74.5,54.3,75c-0.7,0.2-1.5,0.5-2.3,0.7c-0.4,0.1-0.8,0.2-1.2,0.4c-0.4,0.1-0.8,0.3-1.2,0.4
				c-0.8,0.3-1.6,0.5-2.4,0.8c-0.4,0.1-0.8,0.3-1.2,0.4c-1.6,0.5-3.2,1-4.6,1.5c-0.4,0.1-0.7,0.2-1.1,0.3c-1.1,0.3-2,0.6-2.9,0.9
				c-0.6,0.2-1.1,0.4-1.6,0.5c-0.2,0.1-0.5,0.1-0.7,0.2c-0.8,0.2-1.4,0.4-1.7,0.5c-3.9,1-7.1,1.9-9.7,2.9c-0.3,0.1-0.5,0.2-0.8,0.3
				c-1.3,0.5-2.4,1-3.4,1.5c-0.6,0.3-1.2,0.6-1.7,1c-0.9,0.6-1.7,1.2-2.4,1.8c-0.1,0.1-0.3,0.3-0.4,0.4c-0.3,0.3-0.5,0.5-0.8,0.8
				c-1.3,1.4-2.3,3.1-3.3,5c-0.2,0.4-0.4,0.8-0.6,1.2c-1.1,2.3-2.1,5-3.4,8.3c-0.3,0.9-0.7,1.8-1.1,2.8c-0.5,1.3-1,2.7-1.6,4.1
				c-1,2.6-2.2,5.4-3.6,8.5c0,0.1-0.1,0.2-0.1,0.3c0,0,0,0.1,0,0.1c0,0.1,0,0.1-0.1,0.2c0,0,0,0.1,0,0.1c0,0.1,0,0.1,0,0.2
				c0,0,0,0.1,0,0.1c0,0.1,0,0.1,0,0.2c0,0,0,0.1,0,0.2c0,0.1,0,0.1,0,0.2c0,0.1,0,0.1,0,0.2c0,0.1,0,0.1,0,0.2c0,0.1,0,0.1,0,0.2
				c0,0.1,0,0.1,0,0.2c0,0.1,0,0.1,0,0.2c0,0.1,0,0.1,0,0.2c0,0.1,0,0.1,0,0.2c0,0.1,0,0.2,0.1,0.2c0,0.1,0,0.1,0,0.2
				c0,0.1,0.1,0.2,0.1,0.2c0,0.1,0,0.1,0.1,0.2c0,0.1,0.1,0.2,0.1,0.3c0,0,0,0.1,0.1,0.1c0.1,0.3,0.2,0.5,0.4,0.8c0,0,0,0.1,0.1,0.1
				c0,0.1,0.1,0.2,0.2,0.3c0,0.1,0.1,0.1,0.1,0.2c0,0.1,0.1,0.2,0.2,0.3c0,0.1,0.1,0.1,0.1,0.2c0.1,0.1,0.1,0.2,0.2,0.2
				c0,0.1,0.1,0.1,0.1,0.2c0.1,0.1,0.1,0.2,0.2,0.2c0,0.1,0.1,0.1,0.1,0.2c0.1,0.1,0.1,0.2,0.2,0.2c0,0.1,0.1,0.1,0.1,0.2
				c0.1,0.1,0.1,0.2,0.2,0.2c0,0.1,0.1,0.1,0.1,0.2c0.1,0.1,0.1,0.2,0.2,0.3c0,0.1,0.1,0.1,0.1,0.2c0.1,0.1,0.1,0.2,0.2,0.3
				c0,0.1,0.1,0.1,0.1,0.2c0.1,0.1,0.2,0.2,0.2,0.3c0,0.1,0.1,0.1,0.1,0.2c0.1,0.1,0.2,0.2,0.3,0.3c0,0,0.1,0.1,0.1,0.1
				c0.3,0.3,0.5,0.6,0.8,0.9c0,0,0.1,0.1,0.1,0.1c0.1,0.1,0.2,0.2,0.3,0.3c0,0,0.1,0.1,0.1,0.1c0.1,0.1,0.2,0.2,0.3,0.3
				c0.1,0.1,0.1,0.1,0.2,0.2c0.1,0.1,0.2,0.2,0.3,0.3c0.1,0.1,0.1,0.1,0.2,0.2c0.1,0.1,0.2,0.2,0.3,0.2c0.1,0.1,0.1,0.1,0.2,0.2
				c0.1,0.1,0.2,0.2,0.3,0.2c0.1,0.1,0.1,0.1,0.2,0.2c0.1,0.1,0.2,0.2,0.3,0.2c0.1,0.1,0.1,0.1,0.2,0.2c0.1,0.1,0.2,0.2,0.3,0.2
				c0.1,0.1,0.1,0.1,0.2,0.2c0.1,0.1,0.2,0.2,0.3,0.2c0.1,0,0.1,0.1,0.2,0.1c0.1,0.1,0.2,0.2,0.3,0.3c0,0,0.1,0.1,0.1,0.1
				c0.1,0.1,0.2,0.2,0.4,0.3c0,0,0.1,0,0.1,0.1c0.3,0.3,0.6,0.5,0.9,0.7c0,0,0.1,0,0.1,0.1c0.1,0.1,0.2,0.2,0.4,0.3
				c0,0,0.1,0.1,0.1,0.1c0.1,0.1,0.2,0.2,0.3,0.2c0.1,0,0.1,0.1,0.2,0.1c0.1,0.1,0.2,0.1,0.3,0.2c0.1,0,0.1,0.1,0.2,0.1
				c0.1,0.1,0.2,0.1,0.3,0.2c0.1,0,0.1,0.1,0.2,0.1c0.1,0.1,0.2,0.1,0.3,0.2c0.1,0,0.1,0.1,0.2,0.1c0.1,0.1,0.2,0.1,0.3,0.2
				c0.1,0,0.1,0.1,0.2,0.1c0.1,0.1,0.2,0.1,0.3,0.2c0.1,0,0.1,0.1,0.2,0.1c0.1,0.1,0.2,0.1,0.3,0.2c0,0,0.1,0.1,0.2,0.1
				c0.1,0.1,0.2,0.1,0.3,0.2c0,0,0.1,0.1,0.1,0.1c0.1,0.1,0.2,0.1,0.3,0.2c0,0,0.1,0,0.1,0.1c0.3,0.2,0.5,0.3,0.7,0.4
				c0,0,0.1,0,0.1,0c0.1,0,0.2,0.1,0.3,0.1c0,0,0.1,0,0.1,0.1c0.1,0,0.1,0.1,0.2,0.1c0,0,0.1,0,0.1,0.1c0.1,0,0.1,0.1,0.2,0.1
				c0,0,0.1,0,0.1,0.1c0.1,0,0.1,0.1,0.2,0.1c0,0,0.1,0,0.1,0.1c0.1,0,0.1,0,0.2,0.1c0,0,0.1,0,0.1,0c0.1,0,0.1,0,0.2,0.1
				c0,0,0.1,0,0.1,0c0,0,0.1,0,0.1,0c0,0,0.1,0,0.1,0c0,0,0.1,0,0.1,0c0,0,0.1,0,0.1,0c0,0,0.1,0,0.1,0c0,0,0.1,0,0.1,0
				c0,0,0.1,0,0.1,0c0,0,0,0,0.1,0c0,0,0,0,0,0c0.1,0,0.1,0,0.2,0c0,0,0,0,0.1,0c0,0,0.1,0,0.1,0c0,0,0,0,0.1,0c0,0,0.1,0,0.1-0.1
				c0,0,0,0,0,0c0,0,0.1-0.1,0.1-0.1l0,0c0.8-1.5,1.5-3,2.3-4.5c0.7-1.4,1.5-2.8,2.2-4.1c0.7-1.3,1.5-2.6,2.2-3.8
				c5.4-8.8,11.1-14.4,19.6-17.4c0.4-0.1,0.8-0.3,1.2-0.4c0,0,0.1,0,0.1,0c0,0,0,0,0,0c0,0,0.1,0,0.1,0c0,0,0,0,0.1,0
				c0,0,0.1,0,0.1,0c0,0,0.1,0,0.1,0c0,0,0.1,0,0.1,0h0.1h0.1c0,0,0.1,0,0.2,0c0,0,0,0,0.1,0c0.1,0,0.2,0,0.2,0c0,0,0,0,0.1,0
				c0.1,0,0.1,0,0.2,0c0,0,0.1,0,0.1,0c0.1,0,0.1,0,0.2,0c0,0,0.1,0,0.1,0c0.1,0,0.1,0,0.2,0c0,0,0.1,0,0.1,0c0.1,0,0.1,0,0.2,0
				c0,0,0.1,0,0.1,0c0.1,0,0.2,0,0.2,0c0,0,0.1,0,0.1,0c0.1,0,0.2,0,0.3,0c0,0,0,0,0.1,0c0.1,0,0.2,0,0.3,0c0,0,0.1,0,0.1,0
				c0.1,0,0.1,0,0.2,0c0,0,0.1,0,0.2,0c0.1,0,0.1,0,0.2,0c0.1,0,0.1,0,0.2,0c0.1,0,0.1,0,0.2,0c0.1,0,0.1,0,0.2,0c0.1,0,0.1,0,0.2,0
				c0.1,0,0.1,0,0.2,0c0.1,0,0.1,0,0.2,0c0,0,0.1,0,0.1,0c0.1,0,0.2,0,0.3,0c0,0,0.1,0,0.1,0c0.1,0,0.1,0,0.2,0c0,0,0.1,0,0.1,0
				c0.1,0,0.1,0,0.2,0c0,0,0.1,0,0.1,0c0.1,0,0.1,0,0.2,0c0,0,0.1,0,0.1,0c0.1,0,0.1,0,0.2,0c0,0,0,0,0.1,0c0.1,0,0.1,0,0.2,0
				c0,0,0,0,0.1,0c0.1,0,0.2,0,0.2,0c0,0,0,0,0,0c0.1,0,0.1,0,0.2,0c0,0,0.1,0,0.1,0c0,0,0.1,0,0.1,0c0,0,0.1,0,0.1,0
				c0,0,0.1,0,0.1,0c0,0,0,0,0.1,0c0,0,0.1,0,0.1,0c0,0,0,0,0,0c0,0,0.1,0,0.1,0c0,0,0,0,0,0c0,0,0.1,0,0.1,0
				c4.4-0.6,8.6-1.2,12.7-1.8c2.4-0.4,4.8-0.7,7.1-1.1c0.8-0.1,1.5-0.3,2.3-0.4c1.4-0.2,2.7-0.5,4-0.8c1.7-0.3,3.4-0.7,5.1-1.1
				c1.1-0.3,2.2-0.5,3.3-0.8c1-0.3,1.9-0.5,2.9-0.8c1.8-0.6,3.6-1.1,5.3-1.8c0.8-0.3,1.6-0.6,2.4-1c0.8-0.4,1.7-0.7,2.5-1.1
				c4.4-2.1,8.4-4.6,12.2-7.9c1.6-1.3,3.1-2.8,4.5-4.3c0.3-0.3,2.2-2.2,2.9-2.8c0.1-0.1,0.2-0.2,0.3-0.3c0,0,0.1-0.1,0.1-0.1
				c0.1-0.1,0.1-0.2,0.2-0.2c0,0,0-0.1,0.1-0.1c0.1-0.1,0.2-0.2,0.2-0.3c0,0,0,0,0-0.1c0.1-0.1,0.1-0.2,0.2-0.3c0,0,0-0.1,0-0.1
				c0-0.1,0.1-0.2,0.1-0.2c0,0,0,0,0-0.1c0-0.1,0.1-0.2,0.1-0.3c0,0,0-0.1,0-0.1c0-0.1,0-0.2,0-0.2c0,0,0-0.1,0-0.1
				c0-0.1,0-0.2,0-0.3c0,0,0,0,0,0C123.8,80.5,123.8,80.4,123.8,80.3L123.8,80.3z"/>
		</g>
	</g>
</g>
</svg>
