<?xml version="1.0" encoding="utf-8"?>
<!-- Generator: Adobe Illustrator 19.2.0, SVG Export Plug-In . SVG Version: 6.00 Build 0)  -->
<svg version="1.1" id="Capa_1" xmlns="http://www.w3.org/2000/svg" xmlns:xlink="http://www.w3.org/1999/xlink" x="0px" y="0px"
	 viewBox="0 0 72 72" style="enable-background:new 0 0 72 72;" xml:space="preserve">
<style type="text/css">
	.st0{fill:none;stroke:#FFFFFF;}
	.st1{fill:#FFFFFF;}
</style>
<title>Slice 1</title>
<desc>Created with Sketch.</desc>
<circle id="Oval-1_5_" class="st0" cx="36" cy="36" r="35"/>
<g>
	<g>
		<path class="st1" d="M38.8,20.6c1.1-0.6,1.6-1,1.6-1H29.8c-2.1,0-8.1,2.4-8.1,8.1c0,5.7,6.2,6.9,8.4,6.8c-1.3,1.5-0.2,2.9,0.5,3.6
			c0.7,0.7,0.5,0.9-0.3,0.9s-10.7,0.1-10.7,7.2s13.2,7.6,17.5,3.8s3.4-9.1,0-11.5c-3.3-2.4-4.6-3.5-2.5-5.4c2.1-1.9,3.8-3.4,3.8-6.9
			s-2.9-5.3-2.9-5.3S37.7,21.3,38.8,20.6z M37.2,45.9c0,3.1-2.6,4.5-7,4.5c-4.4,0-6.8-2.2-6.8-5.5c0-3.3,3.2-4.9,9.2-4.9
			C34.3,41.3,37.2,42.9,37.2,45.9z M30.8,33.1c-5.3,0-7.7-12.4-1.5-12.4C34.2,20.5,37.8,33.1,30.8,33.1z M48.4,23.7v-4h-2.1v4h-4.1
			v2.1h4.1v4h2.1v-4h4v-2.1H48.4L48.4,23.7z"/>
	</g>
</g>
</svg>
