<?xml version="1.0" encoding="utf-8"?>
<!-- Generator: Adobe Illustrator 19.2.0, SVG Export Plug-In . SVG Version: 6.00 Build 0)  -->
<svg version="1.1" id="Capa_1" xmlns:sketch="http://www.bohemiancoding.com/sketch/ns"
	 xmlns="http://www.w3.org/2000/svg" xmlns:xlink="http://www.w3.org/1999/xlink" x="0px" y="0px" viewBox="0 0 25 20"
	 style="enable-background:new 0 0 25 20;" xml:space="preserve">
<style type="text/css">
	.st0{fill:#FFFFFF;}
</style>
<title>Fill 14</title>
<desc>Created with Sketch.</desc>
<g id="HTML" sketch:type="MSPage">
	<g id="_x31_-Home" transform="translate(-1268.000000, -4178.000000)" sketch:type="MSArtboardGroup">
		<g id="Group" transform="translate(2.000000, 4147.000000)" sketch:type="MSLayerGroup">
			<path id="Fill-14" sketch:type="MSShapeGroup" class="st0" d="M1286.7,32.6c0.8-0.1,1.9-0.5,2.6-0.9c0.2-0.1,0.4-0.2,0.6-0.3
				c-0.4,1-0.9,1.8-1.6,2.4c-0.2,0.1-0.3,0.3-0.6,0.4c1.1,0,2-0.5,2.9-0.8c-0.5,0.7-1.1,1.5-1.7,2c-0.3,0.2-0.5,0.4-0.8,0.6
				c0,1.2,0,2.3-0.2,3.2c-1.3,5.7-4.6,9.5-9.9,11.2c-1.9,0.6-5,0.8-7.1,0.3c-1.1-0.3-2.1-0.6-3-1c-0.5-0.2-1-0.5-1.4-0.7
				c-0.1-0.1-0.3-0.2-0.4-0.3c0.5,0,1.1,0.2,1.6,0.1c0.5-0.1,1-0.1,1.4-0.2c1.1-0.3,2.2-0.6,3-1.1c0.4-0.2,1.1-0.5,1.4-0.9
				c-0.6,0-1.1-0.1-1.5-0.3c-1.6-0.6-2.6-1.6-3.2-3.2c0.5,0.1,1.9,0.2,2.3-0.1c-0.6,0-1.2-0.4-1.7-0.7c-1.3-0.8-2.4-2.2-2.4-4.3
				c0.2,0.1,0.3,0.2,0.5,0.2c0.3,0.1,0.7,0.2,1.1,0.3c0.2,0,0.5,0.1,0.7,0.1c-0.3-0.3-0.7-0.5-0.9-0.8c-0.8-1-1.6-2.7-1.1-4.6
				c0.1-0.5,0.3-0.9,0.5-1.3c0.1,0.2,0.3,0.4,0.5,0.5c0.4,0.5,1,1,1.5,1.4c1.8,1.4,3.5,2.3,6.2,3c0.7,0.2,1.5,0.3,2.3,0.3
				c-0.2-0.7-0.2-1.7,0-2.4c0.4-1.6,1.4-2.8,2.9-3.4c0.3-0.1,0.7-0.3,1.1-0.3c0.2,0,0.4,0,0.6-0.1
				C1284.7,31,1285.7,31.7,1286.7,32.6z"/>
		</g>
	</g>
</g>
</svg>
