<?xml version="1.0" encoding="utf-8"?>
<!-- Generator: Adobe Illustrator 19.2.0, SVG Export Plug-In . SVG Version: 6.00 Build 0)  -->
<svg version="1.1" id="Capa_1" xmlns="http://www.w3.org/2000/svg" xmlns:xlink="http://www.w3.org/1999/xlink" x="0px" y="0px"
	 viewBox="0 0 72 72" style="enable-background:new 0 0 72 72;" xml:space="preserve">
<style type="text/css">
	.st0{fill:none;stroke:#FFFFFF;}
	.st1{fill:#FFFFFF;}
</style>
<title>Slice 1</title>
<desc>Created with Sketch.</desc>
<circle id="Oval-1_5_" class="st0" cx="36" cy="36" r="35"/>
<circle id="Oval-1_4_" class="st0" cx="36" cy="36" r="35"/>
<path class="st1" d="M54.9,23.4c-0.6,0.4-2.5,1.1-4.3,1.3c1.1-0.7,2.8-2.8,3.2-4.6C52.7,20.9,50.2,22,49,22l0,0
	c-1.4-1.6-3.4-2.6-5.6-2.6c-4.3,0-7.8,3.8-7.8,8.4c0,0.6,0.1,1.3,0.2,1.9l0,0C30,29.5,23.1,26.4,19.3,21c-2.4,4.4-0.3,9.3,2.4,11.1
	c-0.9,0.1-2.6-0.1-3.4-0.9c-0.1,2.9,1.3,6.8,6,8.2c-0.9,0.5-2.5,0.4-3.2,0.3c0.3,2.5,3.5,5.7,7,5.7c-1.3,1.6-5.5,4.4-10.8,3.5
	c3.6,2.3,7.8,3.7,12.2,3.7c12.6,0,22.4-11,21.8-24.5l0,0V28v-0.1C52.3,26.9,53.8,25.4,54.9,23.4z"/>
</svg>
