<svg width="72" height="72" viewBox="0 0 72 72" xmlns="http://www.w3.org/2000/svg"><title>icons</title><g fill="none" fill-rule="evenodd"><circle stroke="#FFF" cx="36" cy="36" r="35"/><g fill="#FFF"><path d="M49.492 22.797l-1.663.945c-.404.225-.988.09-1.213-.315l-3.64-6.437c-.315-.495-.945-.99-1.709-.99H35.02s-.045 0 0 .045c.315.585 6.023 10.578 6.023 10.578.134.225.134.45.09.675-.045.225-.225.405-.405.54l-1.618.945c-.09.045-.045.09 0 .09l8.135 2.206c.045 0 .09 0 .135-.045l2.202-8.192c0-.045-.045-.09-.09-.045zM32.933 17c-.225 0-.495.09-.72.495l-.314.495-4.854 8.372s-.045.045-.045.09 0 .045.045.09c.045 0 5.348 3.106 5.348 3.151.045.045.09.045.135.045.045 0 .045 0 .09-.045 0-.045 3.955-6.841 3.955-6.841s.045-.045.045-.09c0-.046-.045-.09-.045-.09l-2.786-4.952c-.135-.315-.36-.72-.854-.72zM18.024 33.25l1.618.946c.404.225.539.81.314 1.215l-3.685 6.437c-.315.495-.405 1.35 0 1.98 0 0 3.146 5.402 3.146 5.447h.045c.36-.63 6.157-10.578 6.157-10.578.135-.225.315-.36.54-.405.224-.045.45-.045.674.09l1.618.945c.09.045.09 0 .09-.045l-2.203-8.192a.097.097 0 0 0-.09-.09l-8.224 2.206c-.045 0-.045.045 0 .045zM21.114 51.032c.135.225.315.405.854.45H32.216c.09 0 .09-.045.09-.09v-6.257c0-.09-.046-.135-.09-.135h-7.91c-.09 0-.136 0-.18.09l-2.832 4.816c-.18.315-.45.72-.18 1.126zM43.101 55.093v-1.89c0-.496.405-.901.854-.901h7.416c.584 0 1.349-.315 1.708-.945 0 0 3.146-5.402 3.146-5.447v-.045H44.09c-.315 0-.584-.135-.764-.315a.89.89 0 0 1-.27-.63v-1.845c0-.09-.045-.09-.09-.045l-5.932 5.941c-.045.045-.045.09 0 .135l5.977 5.987c.045.045.09.045.09 0zM56.787 42.903c.135-.225.18-.45-.09-.9l-.27-.496s-4.809-8.372-4.809-8.417c0-.045 0-.045-.045-.09h-.09c-.045 0-5.348 3.06-5.393 3.106-.045.045-.09.045-.09.09v.09c0 .045 3.865 6.752 3.91 6.842.045.09.09.135.27.135h5.528c.36.045.81.045 1.079-.36z"/></g></g></svg>