<svg width="72" height="72" viewBox="0 0 72 72" xmlns="http://www.w3.org/2000/svg"><title>icons</title><g fill="none" fill-rule="evenodd"><circle stroke="#FFF" cx="36" cy="36" r="35"/><g fill="#FFF"><path d="M51.77 23.765H33.539a.95.95 0 0 0-.96.94c0 .52.43.942.96.942h18.233a.95.95 0 0 0 .96-.941.95.95 0 0 0-.96-.941zM51.77 35.059H33.539a.95.95 0 0 0-.96.941c0 .52.43.941.96.941h18.233a.95.95 0 0 0 .96-.941.95.95 0 0 0-.96-.941zM51.77 46.353H33.539a.95.95 0 0 0-.96.941c0 .52.43.941.96.941h18.233a.95.95 0 0 0 .96-.94.95.95 0 0 0-.96-.942zM20.104 29.412h7.677a.95.95 0 0 0 .96-.941v-7.53a.95.95 0 0 0-.96-.941h-7.677a.95.95 0 0 0-.96.941v7.53c0 .52.43.94.96.94zm.96-7.53h5.757v5.647h-5.757v-5.647zM19.144 39.765c0 .52.43.94.96.94h7.677a.95.95 0 0 0 .96-.94v-7.53a.95.95 0 0 0-.96-.94h-7.677a.95.95 0 0 0-.96.94v7.53zm1.92-6.589h5.757v1.217l-2.399 2.353-1.58-1.55a.487.487 0 0 0-.678 0 .464.464 0 0 0 0 .666l1.919 1.883a.483.483 0 0 0 .678 0l2.06-2.02v3.099h-5.757v-5.648zM19.144 51.059c0 .52.43.941.96.941h7.677a.95.95 0 0 0 .96-.941v-7.53a.95.95 0 0 0-.96-.94h-7.677a.95.95 0 0 0-.96.94v7.53zm1.92-6.588h5.757v5.647h-5.757V44.47z"/></g></g></svg>