<svg width="72" height="72" viewBox="0 0 72 72" xmlns="http://www.w3.org/2000/svg"><title>icons</title><g fill="none" fill-rule="evenodd"><circle stroke="#FFF" cx="36" cy="36" r="35"/><path d="M25.865 38.13c-.124.296-.08.465-.08.465l.162 2.202c-.08 3.012-1.48 3.997-1.48 3.997l1.98 12a28.765 28.765 0 0 1-6.295-3.027l-.823-8.658s-.442-.21-1.322-.592c-.878-.38-1.799-1.45-2.033-1.816-.23-.367-.774-1.394-2.096-2.333-1.32-.941-1.447-.492-1.795-1.063-.35-.569.527-.928.527-.928s2.44-.448 4.501 1.974c0 0 .063-.015.174-.03l.028-.091-.039.002a.552.552 0 0 1 .04-.003l.124-.393.011-.158c.66-.013 3.049.086 4.057 2.1.063.096.128.193.19.297 0 0-.19-2.822-4.246-2.405.02-.304.057-.947.019-1.254-.052-.408-.24-.8-.24-.8l-2.09-4.64s-.397-.782.342-1.149a.861.861 0 0 1 1.141.265s2.214 4.167 2.464 4.683c.25.515.583-.15.583-.15l-.798-5.57s-.23-.91.807-1.114c1.037-.202 1.128 1.246 1.128 1.246s.698 4.795.792 5.351c.095.556.419.019.419.019s.78-4.612.856-5.1c.078-.488.239-1.029 1.005-1.005.766.022.66 1.578.66 1.578s-.584 4.68-.61 5.031c-.025.352.219.259.219.259s1.855-3.602 2.006-3.858c.153-.258.451-.815 1.204-.528.751.285.004 1.85.004 1.85s-1.37 3.05-1.496 3.345zm33.928-2.445c-.636-.41-1.034.05-1.23.256-.197.208-2.696 3.196-2.696 3.196s-.246.038-.147-.281c.1-.321 1.656-4.548 1.656-4.548s.433-1.425-.271-1.595c-.704-.17-.97.302-1.15.74-.174.436-1.897 4.565-1.897 4.565s-.42.437-.383-.095c.033-.534.422-5.117.422-5.117s.23-1.36-.776-1.372c-1.008-.01-.987.879-.987.879l-.468 5.318s-.455.555-.575.03c-.12-.529-1.271-4.82-1.271-4.82s-.236-.664-1.001-.465c-.765.197-.565.999-.565.999l.934 4.705s.09.399.05.788c-.03.285-.196.852-.283 1.138 3.714.437 3.292 3.029 3.292 3.029a6.167 6.167 0 0 0-.114-.315c-.47-1.937-2.44-2.54-3.183-2.7l-.049.158-.2.34-.041-.004.041.005-.047.08c-.106-.007-.168-.006-.168-.006-1.388-2.644-3.747-2.697-3.747-2.697s-.894.166-.693.76c.2.599.417.207 1.438 1.332 1.023 1.126 1.305 2.183 1.44 2.567.137.384.758 1.556 1.493 2.075.732.522 1.097.804 1.097.804l-1.412 10.408a28.181 28.181 0 0 0 5.827-3.468l.415-6.246s1.512-.643 2.238-3.423l.326-2.072s-.004-.166.177-.417c.179-.252 2.111-2.816 2.111-2.816s1.033-1.307.397-1.715zM49.43 19.228c-1.157-.597-1.754.247-2.054.634-.299.386-4.03 5.87-4.03 5.87s-.412.105-.299-.457c.111-.564 2.015-8.015 2.015-8.015s.484-2.495-.746-2.672c-1.23-.175-1.605.668-1.828 1.442-.224.773-2.426 8.084-2.426 8.084s-.634.81-.67-.105c-.037-.915-.186-8.788-.186-8.788s.149-2.356-1.569-2.215c-1.717.14-1.53 1.653-1.53 1.653l.148 9.139s-.672 1.018-.97.14c-.298-.88-3.022-8.014-3.022-8.014s-.523-1.09-1.792-.633c-1.268.457-.784 1.793-.784 1.793l2.426 7.873s.223.669.223 1.335c0 .669-.336 2.286-.336 2.286l-.033.073c6.613.073 6.34 4.652 6.34 4.652-.078-.176-.158-.34-.24-.504-1.204-3.42-5.009-4.03-6.106-4.136l-.24.525h-.067s.023 0 .066.003l-.066.143c-.182.006-.287.018-.287.018-2.834-4.29-6.865-4.008-6.865-4.008s-1.493.422-1.042 1.406c.449.984.746.283 2.687 2.039 1.94 1.758 2.612 3.515 2.911 4.148.299.634 1.567 2.531 2.91 3.303a71.324 71.324 0 0 1 2.015 1.196l-.643 20.816c.925.085 1.863.129 2.813.129 2.394 0 4.718-.276 6.933-.793l-.745-19.73s2.464-1.334 3.21-6.186l.186-3.586s-.037-.281.222-.739c.262-.455 3.097-5.13 3.097-5.13s1.53-2.39.374-2.989z" fill="#FFF"/></g></svg>