<svg width="72" height="72" viewBox="0 0 72 72" xmlns="http://www.w3.org/2000/svg"><title>icons</title><g fill="none" fill-rule="evenodd"><circle stroke="#FFF" cx="36" cy="36" r="35"/><path d="M26.1 42.757c0-.336.276-.61.612-.61h14.025c.336 0 .61.274.61.61v1.452c0 .336-.274.611-.61.611H26.71a.613.613 0 0 1-.611-.61v-1.453zm20.977-.218a3.669 3.669 0 1 0 0 7.337 3.669 3.669 0 0 0 0-7.337zm-25.905 0a3.67 3.67 0 0 0 0 7.337 3.669 3.669 0 0 0 0-7.337zM56 37.313v8.101a.613.613 0 0 1-.611.612H53.49c-.335 0-.729-.215-.847-.564-.216-.637-.649-4.757-5.209-4.757h-3.923a.614.614 0 0 1-.612-.612V28.07c0-.336.276-.611.612-.611h6.43c.336 0 .752.237.922.527l4.826 8.191c.172.29.311.801.311 1.137zm-3.67-3.182l-2.611-4.448c-.229-.387-.364-.539-.66-.539h-3.67a.535.535 0 0 0-.535.535v4.692c0 .296.24.536.535.536h6.547c.418 0 .67-.307.393-.776zM41.346 23.61v16.507c0 .337-.274.61-.61.61H16.61a.612.612 0 0 1-.611-.61V23.611c0-.336.275-.611.611-.611h24.126c.335 0 .61.275.61.611zm-7.123 8.254a5.55 5.55 0 1 0-11.102.001 5.55 5.55 0 0 0 11.102-.001zm-1.075 0a4.476 4.476 0 1 1-8.953 0 4.476 4.476 0 0 1 8.953 0zm-2.031 1.043l-1.95-1.313.005-2.437a.5.5 0 0 0-.498-.501h-.002a.5.5 0 0 0-.5.498l-.006 2.704c0 .167.082.323.22.416l2.172 1.462a.501.501 0 0 0 .694-.136.5.5 0 0 0-.135-.693z" fill="#FFF"/></g></svg>