<svg id="Capa_1" xmlns="http://www.w3.org/2000/svg" viewBox="0 0 93 145"><style>.st0{opacity:.15}.st1{enable-background:new}.st2{fill:#fff}</style><title>5</title><g id="obsocial-02-04-16" class="st0"><g id="Donar---S2"><path class="st1 st2" d="M54.8 210.8c15 0 26.9 3.7 35.5 11.2 8.6 7.5 12.9 17.7 12.9 30.6 0 14.8-4.7 26.4-14.1 34.8-9.4 8.4-22.4 12.6-38.9 12.6-16.1 0-28.4-2.6-36.8-7.7v-15.6c4.6 2.9 10.2 5.2 17 6.9 6.8 1.7 13.4 2.5 20 2.5 11.5 0 20.4-2.7 26.7-8.1 6.3-5.4 9.5-13.2 9.5-23.4 0-19.9-12.2-29.9-36.6-29.9-6.2 0-14.5.9-24.8 2.8l-8.4-5.4 5.4-66.8h71v14.9H36.1L32.5 213c7.4-1.5 14.9-2.2 22.3-2.2z" transform="translate(-11 -155)" id="Group-16"/></g></g></svg>