<?xml version="1.0" encoding="UTF-8" standalone="no"?>
<svg width="78px" height="93px" viewBox="0 0 78 93" version="1.1" xmlns="http://www.w3.org/2000/svg" xmlns:xlink="http://www.w3.org/1999/xlink">
    <!-- Generator: Sketch 3.6.1 (26313) - http://www.bohemiancoding.com/sketch -->
    <title>Group</title>
    <desc>Created with Sketch.</desc>
    <defs></defs>
    <g id="Page-1" stroke="none" stroke-width="1" fill="none" fill-rule="evenodd">
        <g id="ico-post" fill="#FFFFFF">
            <g id="Paginas">
                <g id="7-Blog-listado">
                    <g id="text-documents">
                        <g id="Group">
                            <path d="M70.6196518,0 L19.4078043,0 C15.7622346,0 12.7954938,2.96769822 12.7954938,6.61231045 L12.7954938,10.8352198 L6.77603364,10.8352198 C3.13046397,10.8352198 0.163914678,13.802918 0.163914678,17.4475302 L0.163914678,86.1026953 C0.163914678,89.7473075 3.13046397,92.7150057 6.77603364,92.7150057 L57.9896046,92.7150057 C61.6353657,92.7150057 64.601915,89.7473075 64.601915,86.1026953 L64.601915,81.8797859 L70.6196518,81.8797859 C74.2657959,81.8797859 77.2319623,78.9120877 77.2319623,75.267667 L77.2319623,6.61231045 C77.2319623,2.96769822 74.2657959,0 70.6196518,0 L70.6196518,0 L70.6196518,0 Z M59.3124114,86.1026953 C59.3124114,86.8311198 58.7178377,87.4253105 57.9896046,87.4253105 L6.77603364,87.4253105 C6.04799205,87.4253105 5.45341836,86.8309283 5.45341836,86.1026953 L5.45341836,17.4475302 C5.45341836,16.7185312 6.04799205,16.124915 6.77603364,16.124915 L12.7954938,16.124915 L12.7954938,75.2674755 C12.7954938,78.9118962 15.7622346,81.8795944 19.4078043,81.8795944 L59.3124114,81.8795944 L59.3124114,86.1026953 L59.3124114,86.1026953 L59.3124114,86.1026953 L59.3124114,86.1026953 Z M71.9424586,75.267667 C71.9424586,75.9959 71.3492253,76.5902822 70.6196518,76.5902822 L19.4078043,76.5902822 C18.6780393,76.5902822 18.0853805,75.9959 18.0853805,75.267667 L18.0853805,6.61231045 C18.0853805,5.8835029 18.6782308,5.28969517 19.4078043,5.28969517 L70.6194603,5.28969517 C71.3492253,5.28969517 71.9422671,5.88369439 71.9422671,6.61231045 L71.9422671,75.267667 L71.9424586,75.267667 L71.9424586,75.267667 Z" id="Shape"></path>
                            <path d="M64.409277,16.4270848 L25.6183706,16.4270848 C24.1576916,16.4270848 22.9733315,17.6124024 22.9733315,19.0717409 C22.9733315,20.5339517 24.1578831,21.7167799 25.6183706,21.7167799 L64.408894,21.7167799 C65.8697644,21.7167799 67.0537416,20.5337602 67.0537416,19.0717409 C67.0541246,17.6125939 65.8697644,16.4270848 64.409277,16.4270848 L64.409277,16.4270848 L64.409277,16.4270848 Z" id="Shape"></path>
                            <path d="M64.409277,29.0161533 L25.6183706,29.0161533 C24.1576916,29.0161533 22.9733315,30.2010879 22.9733315,31.6608094 C22.9733315,33.1226373 24.1578831,34.3058485 25.6183706,34.3058485 L64.408894,34.3058485 C65.8697644,34.3058485 67.0537416,33.1224458 67.0537416,31.6608094 C67.0541246,30.2012794 65.8697644,29.0161533 64.409277,29.0161533 L64.409277,29.0161533 L64.409277,29.0161533 Z" id="Shape"></path>
                            <path d="M64.409277,41.6048389 L25.6183706,41.6048389 C24.1576916,41.6048389 22.9733315,42.790348 22.9733315,44.2500695 C22.9733315,45.7117058 24.1578831,46.8947256 25.6183706,46.8947256 L64.408894,46.8947256 C65.8697644,46.8947256 67.0537416,45.7117058 67.0537416,44.2500695 C67.0541246,42.790348 65.8697644,41.6048389 64.409277,41.6048389 L64.409277,41.6048389 L64.409277,41.6048389 Z" id="Shape"></path>
                            <path d="M64.409277,54.1940989 L25.6183706,54.1940989 C24.1576916,54.1940989 22.9733315,55.379608 22.9733315,56.838755 C22.9733315,58.3013489 24.1578831,59.4837941 25.6183706,59.4837941 L64.408894,59.4837941 C65.8697644,59.4837941 67.0537416,58.3009659 67.0537416,56.838755 C67.0541246,55.379608 65.8697644,54.1940989 64.409277,54.1940989 L64.409277,54.1940989 L64.409277,54.1940989 Z" id="Shape"></path>
                        </g>
                    </g>
                </g>
            </g>
        </g>
    </g>
</svg>