<svg width="96" height="85" viewBox="0 0 96 85" xmlns="http://www.w3.org/2000/svg"><title>Fill 251</title><path d="M69.958 28.334c-4.929 0-8.923 3.998-8.923 8.93 0 4.933 3.994 8.93 8.923 8.93 4.928 0 8.923-3.997 8.923-8.93 0-4.932-3.995-8.93-8.923-8.93m-22.308 0c-4.928 0-8.923 3.998-8.923 8.93 0 4.933 3.995 8.93 8.923 8.93 4.929 0 8.923-3.997 8.923-8.93 0-4.932-3.994-8.93-8.923-8.93m-22.307 0c-4.929 0-8.923 3.998-8.923 8.93 0 4.933 3.994 8.93 8.923 8.93 4.928 0 8.923-3.997 8.923-8.93 0-4.932-3.995-8.93-8.923-8.93m24.831 44.554c-3.413 0-6.746-.987-9.97-1.45C27.168 87.932 6.607 84.688 6.607 84.688c14.521-6.88 14.228-18.273 11.647-19.791C6.854 58.194 0 47.986 0 36.554 0 16.366 22.17 0 50.174 0c28.003 0 45.072 16.366 45.072 36.554 0 20.19-17.069 36.334-45.072 36.334" fill="#00BD9C" fill-rule="evenodd"/></svg>