<svg id="Capa_1" data-name="Capa 1" xmlns="http://www.w3.org/2000/svg" viewBox="0 0 26.03 26"><title>noun_50350</title><path d="M9.06,13.23a0.5,0.5,0,0,0,.7.1l1.62-1.44a1.12,1.12,0,0,0,.18,0,1.2,1.2,0,0,0,1.2-1.2,1.18,1.18,0,0,0-.44-0.91L12.06,6.13a0.46,0.46,0,0,0-.5-0.4,0.4,0.4,0,0,0-.5.4L10.88,9.76a1.18,1.18,0,0,0-.53,1,1.1,1.1,0,0,0,0,.13L9,12.53A0.5,0.5,0,0,0,9.06,13.23Z" transform="translate(-3.56 -2.73)"/><path d="M29.16,25.73L20.86,12c-1-1.7-2.7-1.7-3.7,0L9,25.73c-1,1.7-.2,3,1.8,3h16.5C29.36,28.73,30.16,27.33,29.16,25.73ZM18,15.83a1.61,1.61,0,0,1,1.1-.5,1.43,1.43,0,0,1,1.1.5,1.5,1.5,0,0,1,.4,1.1c0,0.4-.6,3.3-0.8,5.4h-1.5c-0.2-2.1-.8-5-0.8-5.4A1.61,1.61,0,0,1,18,15.83Zm2.2,10a1.71,1.71,0,0,1-2.2,0,1.43,1.43,0,0,1-.5-1.1,1.61,1.61,0,0,1,.5-1.1,1.71,1.71,0,0,1,2.2,0,1.61,1.61,0,0,1,.5,1.1A1.43,1.43,0,0,1,20.16,25.83Z" transform="translate(-3.56 -2.73)"/><path d="M12.06,18.73l1.4-2.3a6.8,6.8,0,0,1-1.9.3,6,6,0,1,1,6-6.5,2.69,2.69,0,0,1,1.5-.5h0.4a8,8,0,1,0-7.9,9h0.5Z" transform="translate(-3.56 -2.73)"/></svg>