<svg width="27" height="26" viewBox="0 0 27 26" xmlns="http://www.w3.org/2000/svg"><title>info-uno</title><g fill="#2B3E50" fill-rule="evenodd"><path d="M6.5 10.5a.5.5 0 0 0 .7.1l1.62-1.44c.06.005.12.005.18 0a1.2 1.2 0 0 0 1.2-1.2 1.18 1.18 0 0 0-.44-.91L9.5 3.4A.46.46 0 0 0 9 3a.4.4 0 0 0-.5.4l-.18 3.63a1.18 1.18 0 0 0-.53 1 1.1 1.1 0 0 0 0 .13L6.44 9.8a.5.5 0 0 0 .06.7zM26.6 23L18.3 9.27c-1-1.7-2.7-1.7-3.7 0L6.44 23c-1 1.7-.2 3 1.8 3h16.5c2.06 0 2.86-1.4 1.86-3zm-11.16-9.9a1.61 1.61 0 0 1 1.1-.5 1.43 1.43 0 0 1 1.1.5 1.5 1.5 0 0 1 .4 1.1c0 .4-.6 3.3-.8 5.4h-1.5c-.2-2.1-.8-5-.8-5.4a1.61 1.61 0 0 1 .5-1.1zm2.2 10a1.71 1.71 0 0 1-2.2 0 1.43 1.43 0 0 1-.5-1.1 1.61 1.61 0 0 1 .5-1.1 1.71 1.71 0 0 1 2.2 0c.303.288.482.682.5 1.1a1.43 1.43 0 0 1-.54 1.1h.04z"/><path d="M9.5 16l1.4-2.3A6.8 6.8 0 0 1 9 14a6 6 0 1 1 6-6.5 2.69 2.69 0 0 1 1.5-.5h.4A8 8 0 1 0 9 16h.5z"/></g></svg>