<svg width="99" height="66" viewBox="0 0 99 66" xmlns="http://www.w3.org/2000/svg"><title>info-seis</title><path d="M93.98 25.23l-10.58 5c-.782-.409-12.147 1.458-17.38 3.68a42.67 42.67 0 0 0-6.68 3.65l-7.46-22.73a1.77 1.77 0 0 0-1.16-1L34 11.39V.03h-4.7v10.46L12.78 7.95a1.65 1.65 0 0 0-1.34 1.08L.05 43.61a1.5 1.5 0 0 0 0 .69c.044.217.13.424.25.61.092.126.204.238.33.33 0 .06 5 5.63 12.18 5.63s12.1-5.58 12.12-5.64a1.65 1.65 0 0 0 .43-.46 1.86 1.86 0 0 0 .22-.65c.02-.205 0-.413-.06-.61L15.04 11.35l14.25 2v47.69h-9.27v4.7h23v-4.7h-9.04V14.26l14.54 2.23-10.77 32.9a1.5 1.5 0 0 0 0 .69c.043.217.128.425.25.61.092.127.203.238.33.33 0 .06 5 5.63 12.18 5.63s12.13-5.58 12.14-5.6a1.65 1.65 0 0 0 .43-.46 1.9 1.9 0 0 0 .22-.65 1.53 1.53 0 0 0-.09-.65l-2.26-6.89a33.42 33.42 0 0 1 5.31-1.73c1.815-.428-2.87 5-1.78 8.52a3.38 3.38 0 0 0 1.78 2.12 17.73 17.73 0 0 1 2.08-5.56 11.42 11.42 0 0 1 2.58-3.12.77.77 0 0 1 1.13.28 1 1 0 0 1-.25 1.32 10.61 10.61 0 0 0-2.13 2.64 16.6 16.6 0 0 0-2 5.83c.31.649.76 1.22 1.32 1.67a1.63 1.63 0 0 0 1 .35 14.74 14.74 0 0 1 1.3-4.15 8.5 8.5 0 0 1 2-2.75.76.76 0 0 1 1.23.21 1 1 0 0 1-.2 1.28 7.73 7.73 0 0 0-1.52 2.19 12.44 12.44 0 0 0-1.05 3.28 3.06 3.06 0 0 0 1.41 1.39c2.26.69 3.47-1.64 3.47-1.64l1.52-3a8.05 8.05 0 0 0 3.79-.47c4.23-1.84 8.11-8.46 8.84-9.77l7.86-3.71-4.66-12.35zm-72 17.35H3.62l9.17-28.73 9.19 28.73zm19.35 5.75l9.19-28.73 6.28 19.69a57.68 57.68 0 0 0-5.7 4.78c-1.795 1.714-1.32 1.51-.65 2.45.87 1.24 1.85.41 2.48.08.63-.33 2.22-1.4 5.28-2.92l1.48 4.63H41.33v.02z" fill="#FFF" fill-rule="evenodd"/></svg>