<?xml version="1.0" encoding="UTF-8" standalone="no"?>
<svg width="60px" height="90px" viewBox="0 0 60 90" version="1.1" xmlns="http://www.w3.org/2000/svg" xmlns:xlink="http://www.w3.org/1999/xlink" xmlns:sketch="http://www.bohemiancoding.com/sketch/ns">
    <!-- Generator: Sketch 3.5.1 (25234) - http://www.bohemiancoding.com/sketch -->
    <title>info-dos</title>
    <desc>Created with Sketch.</desc>
    <defs></defs>
    <g id="Page-1" stroke="none" stroke-width="1" fill="none" fill-rule="evenodd" sketch:type="MSPage">
        <g id="info-dos" sketch:type="MSLayerGroup" transform="translate(-1.000000, 0.000000)" fill="#FFFFFF">
            <path d="M59.3,18.9 C55.3,7.4 43.8,0 31.2,0 C30,0 28.9,0.1 27.7,0.2 C20.0749746,0.864698268 12.9753639,4.36098898 7.8,10 C-0.8,19.4 -0.8,33.3 5.3,43.2 C7.2,46.4 9.5,49.3 11.7,52.3 C14.4181647,56.0215864 15.9199967,60.4921563 16,65.1 C16,67.1 17.9,68.8 20.3,68.8 C21.6,68.8 38.3,68.9 41,68.9 L41.3,68.9 C44.1,68.9 45.9,67.2 45.9,64.7 C45.9,64.1 46,63.5 46,62.9 C46.5234472,58.6228399 48.2192514,54.5736749 50.9,51.2 C52.6,48.9 54.4,46.7 55.9,44.2 C61.1,36.2 62.4,27.7 59.3,18.9 L59.3,18.9 L59.3,18.9 Z M50.2,40.5 C49.1777691,42.1758702 48.0417686,43.7796356 46.8,45.3 L45.4,47.2 C41.7,52.3 39.7,57 39.2,62 L22.8,62 C22.1766919,57.0665155 20.2813544,52.3798628 17.3,48.4 C16.5900729,47.3257532 15.8222735,46.290893 15,45.3 C13.598731,43.4713074 12.29685,41.5685583 11.1,39.6 C7.1,33 5.9,22.4 12.8,14.7 C16.8309819,10.2420894 22.4097429,7.48847016 28.4,7 C29.2952486,6.87995639 30.196835,6.81317222 31.1,6.8 C40.9,6.8 49.8,12.7 52.8,21 C55.2,27.8 54.4,34.2 50.2,40.5 L50.2,40.5 L50.2,40.5 Z M42.4,73.5 L19.7,73.5 C18.5165091,73.2811803 17.3168088,73.7908296 16.6526691,74.7945483 C15.9885295,75.7982671 15.9885295,77.1017329 16.6526691,78.1054517 C17.3168088,79.1091704 18.5165091,79.6188197 19.7,79.4 L42.4,79.4 C43.5834909,79.6188197 44.7831912,79.1091704 45.4473309,78.1054517 C46.1114705,77.1017329 46.1114705,75.7982671 45.4473309,74.7945483 C44.7831912,73.7908296 43.5834909,73.2811803 42.4,73.5 L42.4,73.5 L42.4,73.5 Z M32.2,89.9 C36.0831276,89.5096119 39.5784032,87.3756542 41.7,84.1 L20.4,84.1 C22.6,87.4 27.5,90.5 32.2,89.9 L32.2,89.9 Z" id="Shape" sketch:type="MSShapeGroup"></path>
        </g>
    </g>
</svg>