<svg id="Capa_1" data-name="Capa 1" xmlns="http://www.w3.org/2000/svg" viewBox="0 0 63.48 80.63"><title>noun_10758_cc</title><path d="M23.56,59.39l-0.29,1.22A1.19,1.19,0,0,0,24.15,62l3.21,0.76a1.19,1.19,0,0,0,1.42-.88l0.29-1.23A8.67,8.67,0,1,0,23.56,59.39Zm4.63-14.73a7.4,7.4,0,1,1-7.4,7.4A7.4,7.4,0,0,1,28.18,44.66Z" transform="translate(-19.52 -12)"/><path d="M76.7,38.7a36.86,36.86,0,0,1-1.35,3.87c-5,10.83-14.74,11.08-14.74,11.08s-9.76-.24-14.74-11.07a36.68,36.68,0,0,1-1.33-3.83,5.25,5.25,0,0,1-2.21,1.13,6.8,6.8,0,0,1-2,.25c2.58,7.23,7,15.68,18.05,17.87a18.33,18.33,0,0,0,.91,2.72l2.52,9.86c2.44,9.54-8.06,17.9-17.9,17.9s-20-8.28-17.9-17.9l1.44-6.7A9.85,9.85,0,0,1,23.47,63l-1.63,7.61c-2.54,11.84,9.91,22,22,22s25-10.28,22-22l-1.82-7.15c-0.2-1.37-.56-3.17-1.12-5.47h0c11-2.21,15.37-10.58,17.95-17.78A7.33,7.33,0,0,1,79,40,5.09,5.09,0,0,1,76.7,38.7Z" transform="translate(-19.52 -12)"/><path d="M79.62,30.59c-0.14.6-1.46,5.73-1.82,7a0.52,0.52,0,0,1-.14.21,3.48,3.48,0,0,0,1.66.84,4.74,4.74,0,0,0,1.45.13,0.46,0.46,0,0,1,0-.31A57,57,0,0,0,83,27.74c0-6.4-5.38-9.65-6.58-10.29a1.5,1.5,0,0,1-.06,1l-0.42,1a1.5,1.5,0,0,1-.93.86C80.09,23.7,80.47,27,79.62,30.59Z" transform="translate(-19.52 -12)"/><path d="M40.49,38.69A4.84,4.84,0,0,0,42,38.56a3.87,3.87,0,0,0,1.56-.74,0.58,0.58,0,0,1-.17-0.24c-0.37-1.26-1.68-6.4-1.82-7C40.76,27,41.14,23.7,46.2,20.33a1.5,1.5,0,0,1-.84-0.83l-0.42-1a1.5,1.5,0,0,1,0-1.06c-0.91.47-6.69,3.73-6.69,10.35a56.9,56.9,0,0,0,2.26,10.72A0.4,0.4,0,0,1,40.49,38.69Z" transform="translate(-19.52 -12)"/><circle cx="8.67" cy="40.06" r="4.86"/><path d="M46.61,18.78a1.74,1.74,0,0,0,2.26,1L50.77,19a3.66,3.66,0,1,0-1.93-4.36l-1.75.71a1.74,1.74,0,0,0-1,2.26Zm6.68-5.83c0.44-.18,1.38.4,1.79,1.42s0.15,2.08-.3,2.27-1.14-.5-1.55-1.52S52.84,13.13,53.29,12.95Z" transform="translate(-19.52 -12)"/><path d="M67.29,19.05A3.63,3.63,0,0,0,70.23,19l1.89,0.77a1.74,1.74,0,0,0,2.26-1l0.49-1.2a1.74,1.74,0,0,0-1-2.26l-1.75-.71A3.66,3.66,0,1,0,67.29,19.05Zm-1.37-4.68c0.41-1,1.35-1.6,1.79-1.42s0.47,1.15.06,2.17-1.11,1.69-1.55,1.51S65.51,15.38,65.92,14.37Z" transform="translate(-19.52 -12)"/></svg>