<svg id="Capa_1" data-name="Capa 1" xmlns="http://www.w3.org/2000/svg" viewBox="0 0 59.96 89.97"><title>noun_89675</title><path d="M78.3,23.9C74.3,12.4,62.8,5,50.2,5c-1.2,0-2.3.1-3.5,0.2A30.62,30.62,0,0,0,26.8,15c-8.6,9.4-8.6,23.3-2.5,33.2,1.9,3.2,4.2,6.1,6.4,9.1A22.36,22.36,0,0,1,35,70.1c0,2,1.9,3.7,4.3,3.7,1.3,0,18,.1,20.7.1h0.3c2.8,0,4.6-1.7,4.6-4.2,0-.6.1-1.2,0.1-1.8a23.37,23.37,0,0,1,4.9-11.7c1.7-2.3,3.5-4.5,5-7,5.2-8,6.5-16.5,3.4-25.3h0ZM69.2,45.5a42.92,42.92,0,0,1-3.4,4.8l-1.4,1.9C60.7,57.3,58.7,62,58.2,67H41.8a28.68,28.68,0,0,0-5.5-13.6A35.53,35.53,0,0,0,34,50.3a64.24,64.24,0,0,1-3.9-5.7c-4-6.6-5.2-17.2,1.7-24.9A23.62,23.62,0,0,1,47.4,12a22.82,22.82,0,0,1,2.7-.2c9.8,0,18.7,5.9,21.7,14.2,2.4,6.8,1.6,13.2-2.6,19.5h0Zm-7.8,33H38.7a3,3,0,1,0,0,5.9H61.4a3,3,0,1,0,0-5.9h0ZM51.2,94.9a12.85,12.85,0,0,0,9.5-5.8H39.4C41.6,92.4,46.5,95.5,51.2,94.9Z" transform="translate(-20 -5)"/></svg>