<svg width="65" height="81" viewBox="0 0 65 81" xmlns="http://www.w3.org/2000/svg"><title>info-cinco</title><g transform="translate(0 -1)" fill="#2B3E50" fill-rule="evenodd"><path d="M5.04 48.39l-.29 1.22A1.19 1.19 0 0 0 5.63 51l3.21.76a1.19 1.19 0 0 0 1.42-.88l.29-1.23a8.67 8.67 0 1 0-5.51-1.26zm4.63-14.73a7.4 7.4 0 1 1-.01 0h.01z"/><path d="M58.18 27.7a36.86 36.86 0 0 1-1.35 3.87c-5 10.83-14.74 11.08-14.74 11.08s-9.76-.24-14.74-11.07a36.68 36.68 0 0 1-1.33-3.83 5.25 5.25 0 0 1-2.21 1.13 6.8 6.8 0 0 1-2 .25c2.58 7.23 7 15.68 18.05 17.87.232.929.536 1.838.91 2.72l2.52 9.86c2.44 9.54-8.06 17.9-17.9 17.9-9.84 0-20-8.28-17.9-17.9l1.44-6.7A9.85 9.85 0 0 1 4.95 52l-1.63 7.61c-2.54 11.84 9.91 22 22 22s25-10.28 22-22l-1.82-7.15c-.2-1.37-.56-3.17-1.12-5.47 11-2.21 15.37-10.58 17.95-17.78a7.33 7.33 0 0 1-1.85-.21 5.09 5.09 0 0 1-2.3-1.3zM61.1 19.59c-.14.6-1.46 5.73-1.82 7a.52.52 0 0 1-.14.21 3.48 3.48 0 0 0 1.66.84 4.74 4.74 0 0 0 1.45.13.46.46 0 0 1 0-.31 57 57 0 0 0 2.23-10.72c0-6.4-5.38-9.65-6.58-10.29a1.5 1.5 0 0 1-.06 1l-.42 1a1.5 1.5 0 0 1-.93.86c5.08 3.39 5.46 6.69 4.61 10.28zM21.97 27.69a4.84 4.84 0 0 0 1.51-.13 3.87 3.87 0 0 0 1.56-.74.58.58 0 0 1-.17-.24c-.37-1.26-1.68-6.4-1.82-7-.81-3.58-.43-6.88 4.63-10.25a1.5 1.5 0 0 1-.84-.83l-.42-1a1.5 1.5 0 0 1 0-1.06c-.91.47-6.69 3.73-6.69 10.35a56.9 56.9 0 0 0 2.26 10.72.4.4 0 0 1-.02.18z"/><circle cx="9.67" cy="41.06" r="4.86"/><path d="M28.09 7.78a1.74 1.74 0 0 0 2.26 1l1.9-.78a3.66 3.66 0 1 0-1.93-4.36l-1.75.71a1.74 1.74 0 0 0-1 2.26l.52 1.17zm6.68-5.83c.44-.18 1.38.4 1.79 1.42.41 1.02.15 2.08-.3 2.27-.45.19-1.14-.5-1.55-1.52-.41-1.02-.39-1.99.06-2.17zM48.77 8.05A3.63 3.63 0 0 0 51.71 8l1.89.77a1.74 1.74 0 0 0 2.26-1l.49-1.2a1.74 1.74 0 0 0-1-2.26L53.6 3.6a3.66 3.66 0 1 0-4.83 4.45zM47.4 3.37c.41-1 1.35-1.6 1.79-1.42.44.18.47 1.15.06 2.17s-1.11 1.69-1.55 1.51c-.44-.18-.71-1.25-.3-2.26z"/></g></svg>