<svg width="64" height="90" viewBox="0 0 64 90" xmlns="http://www.w3.org/2000/svg"><title>info-tres</title><path d="M63.3 55.3a10 10 0 0 0-6.6-5.3c-5.2-1.1-10.8 2.8-12.6 4.1a.1.1 0 0 0-.1.1l-2.5 2.1v-7.9L54 14a5.85 5.85 0 0 0-.2-4.5 6.46 6.46 0 0 0-3.4-3.1 5.92 5.92 0 0 0-7.6 3.4L31.6 34.2V6a6 6 0 1 0-12 0v27.6a6.74 6.74 0 0 0-3.4-1 6.34 6.34 0 0 0-6.2 4.9 6.41 6.41 0 0 0-10 5.3v16.6c0 13 2.2 18.6 3.8 22.7a16.33 16.33 0 0 1 1.6 6.4 1.5 1.5 0 0 0 3 0A18 18 0 0 0 6.6 81a47.47 47.47 0 0 1-3.5-17.2 6.41 6.41 0 0 0 9.5-4 6.41 6.41 0 0 0 10-5.3V6a3 3 0 0 1 6 0v35.1a1.59 1.59 0 0 0 1.2 1.5 1.61 1.61 0 0 0 1.7-.8l14.1-30.6v-.1a3 3 0 0 1 3.8-1.7 2.86 2.86 0 0 1 1.8 3.7L38.5 47.5a.9.9 0 0 0-.1.5v10.7l-7.6 6.4a1.492 1.492 0 1 0 1.9 2.3l13.1-11c1.6-1.1 6.3-4.4 10.2-3.6a6.18 6.18 0 0 1 3.9 2.8l-10.2 7.2a.53.53 0 0 1-.3.2l-7 7.9a2.19 2.19 0 0 0-.3.5c-.2.4-3.7 10.7-3.7 17a1.5 1.5 0 0 0 3 0c0-5.3 2.9-14.1 3.5-15.8l6.6-7.6 11.3-7.9a1.21 1.21 0 0 0 .5-1.8zM9.8 58.2a3.41 3.41 0 0 1-6.8.3V42.8a3.4 3.4 0 0 1 6.8 0v15.4zm9.9-3.8a3.4 3.4 0 0 1-6.8 0V39a3.4 3.4 0 0 1 6.8 0v15.4z" fill="#2B3E50" fill-rule="evenodd"/></svg>