<svg width="100" height="48" viewBox="0 0 100 48" xmlns="http://www.w3.org/2000/svg"><title>info-cuatro</title><g fill="#FFF" fill-rule="evenodd"><path d="M34.85 30.56l-.19-1.67-1.75.02-.06-1.3-2.31-.15-.93-.46-1.6.69-1.73-.02-.19-1.34-.91-.17v-.66l.17-.61-.62-.33-.74.61-.61-.08-.91-.96.93-1.66h2.72l.52.94.79.01-.53-1.41 1.68-1.47-.17-.92.81-.71.62.15-.01-1.25 3.92-2.3-2.64-3.35-3.49-.48v1.59l.31.4-.51 1.58-1.65-1.64-1.52-.33-1.04-.82 1.27-1.62 2.32.18-.32-1.08.49-1.24.93.09-.23 1.72 2.91.47 1.49-1.69-4.96-4.15 3.74-4.11L26.4.89 15.7 4.93l-.49 2 2.07 1.45L6.11 7.31 3.93 8.44l.57 3.75 1.37 1.15-1.79 1.88 5.36-2.76 2.25.35 1.83 1.89-.58.03.38.92.85-.15 1.19 1.64-.17 2.37 3.37 4.57h1.32l.98 1.28 3.05 1.77h1.24l.7 1.41h1.58v1.27l-.71.99 1.55 3.85 1.6.69-1.17 6.24.03 3.7 1.72 1.94.68-.77-.81-.94.96-.86v-.88l-.34-.62 7.09-7.53.19-2.06.96-.95-2.94-1.99-1.39-.06z"/><path d="M43.45 3.12l1.3-1.17L42.31 0 31.96 1.21 29.5 4.3l.8 1.02 1.4-.51 1.54 1.08.59 3.49 1.69 2.63 1.5.08.79-1.87 3.28-.97 2.17-3.21.19-2.92zM44.17 9.5l-2.11.59 1.21 1.7 1.98-1.42-1.08-.87zM26.4 24.84l1.79.37.2-.7-1.72-.46-.27.79zM28.22 22.89v.76l.85.4-.85-1.16zM32.31 26.08l-3.09-1.24-.15.69 2.83.93.41-.38zM.68 23.39l1.13-.87L0 21.9l.68 1.49zM5.7 24.55L3 23.39l-.21.73 2.5 1.41 1.01-.6 1.6 1.11.48-.82-1.54-1.35-1.14.68zM11.25 36.1l1.02.69.81-.46-1.03-1.16-.8.93zM13.3 37.39l.92.68.64-.68-.89-.68-.67.68zM45.84 15.85l.62-.72-.76-1.04-.64 1.04.78.72zM46.85 15.69h1.66v-.96l-.96-.7-.52-1.2-.72.9 1.06.88-.52 1.08zM51.17 20.08l.66.22-.32-.89-.34.67zM59.61 35.02l-.28 1.4 1.46 1.16.93-3.35-.53-.42-1.58 1.21zM77.52 29.89l-.05 1.39 1.56.4.96-1.77-.99-1.47-1.48 1.45zM81.67 30.21l-.85-.22-.83 1.69.84.12.84-1.59zM83.08 32.22l4.69.98-.46-1.52-4.41-1.17.18 1.71zM85.48 33.75l-.14 1.28-2.23-1.55-4.91 3.16.13 2.04.65.23-.39 1.64 3.68-.75.06-.64 3.16 2.3 1.62.11 1.96-3.61-2.81-4.33-.78.12zM93.72 39.18l-.41.65.62.87.03.63-2 1.95.35 1.32.8-.06 1.55-1.96-.19-2.38-.75-1.02zM84.78 20l-2.46 1.41.73.86 2.48-1.41 1.22-2.38-1.17-.75-.8 2.27zM85.62 22.27l-.6-.16.78 2.18.73-.64-.91-1.38zM87.11 17.22l.53.69 1.88-.8-.75-.6-1.66.71z"/><path d="M96.38 10.52l3.62.06-.85-.97-4.29-1.67-3.37.36-.99-.66-4-.33-.63-1.17-1.31 1.34-8.18-.86 2.37-1.51-3.34-.83-5.14 1.96-.38.9h-.75l-2.29-.62-1.51 1.33.39.73-2.65-1.57 1.37-1.48 2.17-.68-.39-.76-2.13.85-1.91 1.91 1.46 1.68-2.27.04-3.23 2.16-1.13-1.18 1.77.01.58-1.07-4.25-.91-2.71.61-2.79 3.49.02 1.41 1.46-.29.37.96 1.41-.4.13-1.2-.48-.31-.01-.36 1.51-1.78.72.74-1.14.91.48 1.12 1.43-.68.62.62-2.58 1.06-.14.6-2.37.13-.45-.75-.61.39.3.92-1.15 1.08-.81.13-1.08.9.65.69-.27.84-1.91-.11.94 2.54 2.62-2.46.41.23.81-.7 1.53 1.16.25 1.19.77-1.15-1.33-1.59.43-.36 1.54 1.76.17 1.37 1.19.84-.25-1.73.32.16 1.16 1.6 1.05-1.28.03 1.46-.45.46h-2.57l-.73-.65-.89.82-.85-.33-.93-.16-.17-.32.14-.49-.49-.47-2.41.14-4 3.53.17 3.54L46.02 29l3.25.04 1.53 1.11-.65.44 1.58 1.85v1.58l-.58.77 1.95 5.17 2.16.17L58 36.75v-1.26l1.12-.82-.17-1.75-.47-.45 3.55-5.03-1.93.14-1.48-1.31-1.43-2.99.01-1.14.8-.01 2.58 4.8 2.4-.81.89-1.27-1.02-.98-.84.37-.95-1.59 5.63.92v1.61l.62.19.95 2.64 1.33-.43v-1.42l1.94-1.32.18-1.1.76-.13.04 1.35 1.92 4.1-1.29.06 3.23 3.55 2.24.39v-.64l-2.1-.66-.46-1.42-.85-.18-.12-.79.95.29.34-.46-1.46-.89-.27-1.48.31-.2.87 1.35 1.56-1-1.03-1.45 3.86-2.26-.16-3.23.98-.51.56 1.58 1.24-.91-.39-.93 2.24-1.45.17-1.01h1.07l-.1-2.14-1.5.35.26-1.1 2.13-1.1 3.8-.32-.95 1.4.33 2.1 1.75-2.24V12.5l3.22-.38 1.78-.33-.89-.89.63-.38z"/></g></svg>