<svg id="Capa_1" data-name="Capa 1" xmlns="http://www.w3.org/2000/svg" viewBox="0 0 63.5 90"><title>noun_62768_cc</title><path d="M81.6,60.3A10,10,0,0,0,75,55c-5.2-1.1-10.8,2.8-12.6,4.1a0.1,0.1,0,0,0-.1.1l-2.5,2.1V53.4L72.3,19a5.85,5.85,0,0,0-.2-4.5,6.46,6.46,0,0,0-3.4-3.1,5.92,5.92,0,0,0-7.6,3.4L49.9,39.2V11a6,6,0,0,0-12,0V38.6a6.74,6.74,0,0,0-3.4-1,6.34,6.34,0,0,0-6.2,4.9,6.41,6.41,0,0,0-10,5.3V64.4c0,13,2.2,18.6,3.8,22.7a16.33,16.33,0,0,1,1.6,6.4,1.5,1.5,0,0,0,3,0A18,18,0,0,0,24.9,86a47.47,47.47,0,0,1-3.5-17.2,6.41,6.41,0,0,0,9.5-4,6.41,6.41,0,0,0,10-5.3V11a3,3,0,0,1,3-3,3,3,0,0,1,3,3V46.1a1.59,1.59,0,0,0,1.2,1.5,1.61,1.61,0,0,0,1.7-.8L63.9,16.2V16.1a3,3,0,0,1,3.8-1.7,2.86,2.86,0,0,1,1.8,3.7L56.8,52.5a0.9,0.9,0,0,0-.1.5V63.7l-7.6,6.4A1.49,1.49,0,1,0,51,72.4l13.1-11c1.6-1.1,6.3-4.4,10.2-3.6a6.18,6.18,0,0,1,3.9,2.8L68,67.8a0.53,0.53,0,0,1-.3.2l-7,7.9a2.19,2.19,0,0,0-.3.5c-0.2.4-3.7,10.7-3.7,17a1.5,1.5,0,0,0,3,0c0-5.3,2.9-14.1,3.5-15.8L69.8,70l11.3-7.9A1.21,1.21,0,0,0,81.6,60.3ZM28.1,63.2a3.41,3.41,0,0,1-6.8.3V47.8a3.4,3.4,0,1,1,6.8,0V63.2ZM38,59.4a3.4,3.4,0,1,1-6.8,0V44A3.4,3.4,0,1,1,38,44V59.4Z" transform="translate(-18.3 -5)"/></svg>