<svg width="20" height="19" viewBox="0 0 20 19" xmlns="http://www.w3.org/2000/svg"><title>Shape</title><path d="M19.688 8.721c-.605-1.47-1.748-2.215-3.4-2.215H14.31c.334-.756.707-1.853.707-3.175 0-.362-.029-.738-.097-1.12-.26-1.537-1.31-2.354-2.8-2.19-.59.068-.793.628-1.282 1.987-.406 1.126-.962 2.668-1.77 3.908-.592.912-1.649 1.631-2.536 2.074v-.112H0v9.704h6.533v-.534c1.029-.051 1.613-.021 1.75.023l1.17.679.873.545c.85.457 4.562.5 6.154.265 2.047-.299 2.542-1.977 2.562-2.049.162-.556 1.57-5.549.646-7.79zm-1.88 7.437c-.011.037-.309.957-1.514 1.13-1.713.254-4.89.1-5.362-.125l-.775-.486-1.468-.825c-.341-.114-1.114-.127-2.156-.08V9.378c1.053-.426 2.683-1.34 3.612-2.762.89-1.365 1.475-2.988 1.902-4.175 0 0 .377-.938.468-1.155.65.003 1.01.361 1.143 1.136.053.304.074.605.074.896 0 1.924-.988 3.455-1.003 3.474l-.651.993 4.21.001c1.127 0 1.808.439 2.214 1.423.639 1.549-.288 5.542-.693 6.948z" fill="#2EB197" fill-rule="evenodd"/></svg>