<svg id="Capa_1" xmlns="http://www.w3.org/2000/svg" viewBox="0 0 72 72"><style>.st0{fill:none;stroke:#fff}.st1{fill:#fff}</style><title>Slice 1</title><circle id="Oval-1_1_" class="st0" cx="36" cy="36" r="35"/><path id="Shape_15_" class="st1" d="M41 51.3l2.9 2.9c.5.5 1 1 1.5 1.4.3.2.5.5.8.7.2.2.2-.1.3-.2l.3-.3c.1-.1.2-.2.2-.3.1-.1 0-.1-.1-.2-.2-.2-.4-.3-.6-.5-.4-.3-.8-.6-1.2-1-3.3-2.7-6.3-5.6-9-8.9-5-6.1-8.7-13.5-7.3-21.9.1-.5.2-1.1.3-1.6v-.2.1c0 .1-.1.3-.1.4-.1.3-.1.5-.1.8-.2 1-.3 2-.3 3.1 0 2 .3 3.9.8 5.8 1.1 3.9 3.1 7 5.7 10.1 2 2.4 3.9 4.9 6.3 6.9 1.2 1 2.3 2 3.5 2.9.6.5 1.2.9 1.8 1.4.3.2.6.5.9.7.1.1.3.2.4.3.1.1.1.3.2.2.1-.1.5-.5.5-.6.2-.3-.2-.4-.3-.5l-1.2-.9c-.8-.6-1.6-1.3-2.4-1.9-.1-.1-.7-.3-.4-.5.2-.1.4-.3.6-.5.4-.3.7-.6 1-1 .7-.7 1.3-1.5 1.7-2.4 1-1.9 1.5-3.7 1.5-5.8 0-4.1-2-7.8-5.4-10-1.7-1.1-3.6-1.5-5.3-2.4-1.8-1-3.4-2.1-4.8-3.7-1.4-1.5-2.3-3.1-2.8-5.1-.2-1-.3-1.9-.4-2.9v-.2c0-.1-.1.1-.1.1-.1.1-.2.2-.2.3-.2.2-.3.4-.5.6l-.9 1.2c-4.2 5.8-7 15.3-5.6 22.6.4 2 1.1 3.7 2.1 5.4 1.1 1.8 2.4 3.2 4.2 4.3 3.3 2 7.8 2.6 11.5 1.3z"/></svg>