<svg id="Capa_1" xmlns="http://www.w3.org/2000/svg" viewBox="0 0 98.6 99"><style>.st0{fill:none}.st1{fill:#fff}.st2{fill:none;stroke:#fff;stroke-miterlimit:10}</style><title>Group</title><g id="Presenta-Final"><g id="Nuestro-Proyecto---S2"><g id="Group"><path id="Shape_6_" class="st1" d="M15 25.9c.1 0 .1 0 0 0 .1 0 .1 0 0 0 .1 0 .1 0 .1-.1l.1-.1.1-.1.4-.4.1-.1.1-.1h.1l-.1.1-.1.1-.1.1-.2.2-.1.1h-.1l.2-.2.1-.1-.1.1-.1.1-.4.4z"/><path id="Shape_7_" class="st1" d="M95.8 66.5c0-.1 0-.1.1-.3.1-.1.1-.1.1-.2v-.1-.1-.1-.1-.1c0-.1 0-.1.1-.2v-.1c0-.1 0-.1.1-.2 0-.1 0-.1.1-.2 0 .1 0 .1-.1.2v-.1c0-.1 0-.1.1-.3v-.1c0-.1 0-.1.1-.2v-.1-.2c0-.1 0-.1.1-.3 0-.2 0-.2.1-.5 0 .2 0 .2-.1.4V63.9l-.1.1v0l-.1.1c0 .1 0 .1-.1.2v-.1-.1 0c0-.1 0-.1.1-.2v-.1c0 .1 0 .1-.1.2v0c.1-.3.1-.3.1-.6l.1-.1v-.1c0-.2 0-.2.1-.4v-.1-.1-.1-.2-.3h-.1v-.1-.2-.1-.1-.3-.2-.1-.1-.3-.1c-.1 0-.1 0-.1.1v-.1-.1.2c0 .1 0 .1-.1.1l.1-.1v.2l-.1.1v.1c0 .1 0 .1-.1.1 0-.1 0-.1-.1-.1v-.1V61.1l-.1.1v-.1.1h-.1v.1c-.1 0-.1 0-.1.1v-.1l-.1.1v-.1l-.1.1v-.1-.2c-.1.2-.1.2-.1.4l-.2.2c0 .1 0 .1-.1.3v.2c0 .1 0 .1-.1.2v.1l-.1.1c-.1.1-.1.1-.1.3l-.1.1-.1.1h-.1V63c-.1.1-.1.1-.1.2h.1v.1l-.2.4c0 .1 0 .1-.1.3-.2.3-.2.3-.3.5 0 .1 0 .1-.1.2-.2.2-.2.2-.3.4v.2c-.1.1-.1.1-.1.2-.1 0-.1 0-.2.1l-.2.4-.1-.1c-.1.2-.1.2-.2.3 0 .1 0 .1-.1.3v.1c0 .1 0 .1-.1.3v.8c-.2.3-.2.3-.3.7 0 .2 0 .2-.1.5 0 .1 0 .1-.1.2h-.1c0 .1 0 .1-.1.2-.1.2-.1.2-.2.3v.1l-.4.4-.2.4c-.1.1-.1.1-.2.1-.1-.1-.1-.1-.2-.3v-.4-.2-.3-.2-.4c0-.1 0-.1-.1-.1 0-.1 0-.1-.1-.3v-.3-.1-.2-.3-.1c-.1-.2-.1-.2-.1-.4v-.2c-.1-.3-.1-.3-.1-.5s0-.2.1-.4c-.1-.3-.1-.3-.1-.7h.1c0-.2 0-.2-.1-.3 0-.1 0-.1.1-.1 0-.2 0-.2-.1-.5v-.1l.1-.1V64c0-.2 0-.2.1-.4 0-.1 0-.1-.1-.3v-.1c.1-.1.1-.1.1-.2s0-.1-.1-.1v-.1-.1-.2h.1l.1-.1h-.2v-.1c0 .1 0 .1-.1.3 0 .1 0 .1-.1.2v.2l-.2.4h-.1l-.3.3h-.1c-.2-.2-.2-.2-.4-.3 0-.2 0-.2-.1-.4s-.1-.2-.2-.3v-.1l.1.1.1-.1h.1l.3-.3c.1-.1.1-.1.2-.3l-.1-.1v.2c-.1 0-.1 0-.1.1h-.2c-.1.1-.1.1-.2.1l-.4-.2v-.2l.2-.2c-.2.1-.2.1-.3.2v-.1h-.2c-.2-.1-.2-.1-.2-.2v-.4c-.1-.1-.1-.1-.2-.1h-.1v-.2c-.1-.1-.1-.1-.1-.2-.1.1-.1.1-.2.1h-.3c-.1 0-.1 0-.1.1h-.2l-.1.1h-.2v-.1l-.1.1h-.2c0 .1 0 .1-.1.1L86 61l-.1.1h-.2l-.1.1h-.2c0 .1 0 .1-.1.1 0-.1 0-.1-.1-.1-.1.1-.1.1-.2.1h-.1c-.1 0-.1 0-.2-.1v-.1h-.1v.1c-.1 0-.1 0-.1-.1h-.1V61H84c-.1.1-.1.1-.2.1l-.1-.1h-.2H83.2h-.4l-.2-1h-.3c-.2 0-.2 0-.3.1-.1 0-.1 0-.2.1-.2.2-.2.2-.5.4l-.2-.2h-.4c-.3-.1-.3-.1-.5-.2L80 60c0-.1 0-.1.1-.2h-.3l-.1-.1h-.4l-.2-.4v-.2L79 59v-.3l-.1.1v-.3c-.1-.2-.1-.2-.2-.3V58c-.1-.1-.1-.1-.2-.1-.2.1-.2.1-.3.1v-.1c-.1 0-.1 0-.2.1 0-.1 0-.1-.1-.2V58.1h-.1c-.1-.1-.1-.1-.1-.2-.1 0-.1 0-.3-.1-.1 0-.1 0-.2-.1l-.2-.2h-.1v-.1l-.1.1-.1-.1v-.1h-.4c.3.1.3.1.5.3.3.1.3.1.5.1.1.1.1.1.1.2s0 .1-.1.1l.2.2c0 .1 0 .1-.1.2h-.2l-.1.1.2.2v.1l.2.2c.1.4.1.4.2.7h.4c0 .1 0 .1-.1.1.1.2.1.2.3.4.1 0 .1 0 .2.1.1.2.1.2.1.3v.2l-.1.1c.2.3.2.3.4.5v.1c.1.4.1.4.1.5 0-.1 0-.1.1-.2v-.1-.1c.1 0 .1 0 .1-.1v-.1-.1-.1l.2-.2.2.2v.2c-.1 0-.1 0-.1.1.1.2.1.2.1.3 0 .2 0 .2-.1.3h-.1c0 .1 0 .1.1.1v.2h.2c0 .1 0 .1.1.2h.2c.1-.1.1-.1.3-.2h.6c.1-.1.1-.1.2-.1s.1 0 .1-.1v-.1h.1c.1-.1.1-.1.2-.1v-.2c.2-.2.2-.2.3-.4 0-.1 0-.1.1-.2l.4-.4v-.2l.1-.1v-.1h.1V60.7h-.1c0 .1 0 .1.1.1 0 .1 0 .1-.1.2 0 .1 0 .1.1.1v.6c.1.2.1.2.3.5.1.1.1.1.3.2h.1l.1-.1v.1h.1c.1 0 .1 0 .1.1.1 0 .1 0 .2-.1l.1.1c.1.2.1.2.1.3.1.2.1.2.2.3.1 0 .1 0 .1.1v.1c0 .1 0 .1-.1.2-.1.2-.1.2-.1.3-.2.2-.2.2-.3.4-.1.3-.1.3-.2.5h-.1v-.1l-.2.2v.1c-.1.2-.1.2-.3.4 0 .1 0 .1.1.1v.2c.1.1.1.1.1.2l-.6.2c-.1.1-.1.1-.2.3v.2c-.1.1-.1.1-.1.2h-.4l-.2.2v.2c-.1.1-.1.1-.2.3l-.1-.1h-.2c-.1.1-.1.1-.2.1h-.1l-.2.2c-.2 0-.2 0-.5.1-.1.2-.1.2-.3.4v.3c-.1.1-.1.1-.2.1-.2.2-.2.2-.4.3-.2 0-.2 0-.3.1 0 .1 0 .1-.1.1-.4.2-.4.2-.9.4l-.4.4h-.1c-.1 0-.1 0-.1.1-.1 0-.1 0-.2-.1-.2.2-.2.2-.3.4h-.2c-.2.1-.2.1-.5.2h-.4c-.1.2-.1.2-.2.3l-.2.2h-.2c-.2.1-.2.1-.3.2-.1 0-.1 0-.2-.1l-.1.1-.1-.1v-.2l-.2-.2c0-.1 0-.1.1-.3-.1-.1-.1-.1-.1-.2v-.5c-.1-.1-.1-.1-.2-.3 0-.3 0-.3.1-.6l-.2-.6c0-.1 0-.1-.1-.1v-.3h-.1c-.2-.2-.2-.2-.4-.5V67h-.5c-.1-.3-.1-.3-.2-.5 0-.1 0-.1-.1-.1l-.4-.4h-.2c-.2-.3-.2-.3-.5-.7v-.2c-.1-.2-.1-.2-.1-.3.1-.2.1-.2.1-.3v-.3c0-.2 0-.2-.1-.2v-.2l-.2-.6c-.2-.1-.2-.1-.3-.1l-.1-.1h-.3v-.2c-.1-.1-.1-.1-.1-.2s0-.1.1-.1c-.1-.2-.1-.2-.1-.3 0-.1 0-.1-.1-.3-.1 0-.1 0-.2-.1v-.2c-.1 0-.1 0-.1-.1v-.2l-.2-.4-.2-.2c-.1-.2-.1-.2-.3-.4-.1-.1-.1-.1-.2-.3h-.3v-.1c0-.1 0-.1.1-.2v-.6c0-.1 0-.1.1-.2-.1 0-.1 0-.1.1V59.3c-.1.2-.1.2-.2.5 0 .1 0 .1.1.2-.1.1-.1.1-.2.3h-.1l-.4-.4c0-.1 0-.1-.1-.1-.1-.1-.1-.1-.2-.1l-.1-.1v-.2c-.1-.1-.1-.1-.3-.2 0-.1 0-.1-.1-.2l-.2-.2h-.1v.3c.1.1.1.1.1.2v.2c.1.2.1.2.2.3v.1c.2.2.2.2.4.3 0 .1 0 .1.1.2v.2l.2.2v.1c0 .1 0 .1.1.1v.2c.1.1.1.1.1.2v.1c.2.3.2.3.4.7v.1l.2.2c.1.2.1.2.3.4v.1c.1 0 .1 0 .1.1v.1l.2.2h-.2v.4c0 .1 0 .1.1.2v.2c.1 0 .1 0 .1.1h.2c0 .1 0 .1.1.2h.2v.1h.1v.1l.2.2v.3c.1.2.1.2.2.3l-.1.1c.1.2.1.2.1.5v.3c0 .1 0 .1.1.2-.1.1-.1.1-.1.2h.1v.2c.1.1.1.1.1.2h.1c.1.1.1.1.3.2v.1h.1l.2.2c.1.3.1.3.3.7.1.2.1.2.1.5 0 .2 0 .2.1.5h.2c0 .1 0 .1-.1.2l.1.1.1-.1c0-.1 0-.1-.1-.2v-.1c.1.1.1.1.2.1 0 .1 0 .1-.1.1.1 0 .1 0 .1.1l.1.1v-.1h.2v-.1c.1.1.1.1.2.3h.2c.2.2.2.2.3.5.2.1.2.1.4.1 0 .1 0 .1.1.3.1 0 .1 0 .1.1.1.1.1.1.1.2h.1v-.1c.1.1.1.1.2.3.1.1.1.1.1.2v.2c-.1.1-.1.1-.2.1 0 .1 0 .1.1.1v.2c.3.3.3.3.5.6h.1c.1 0 .1 0 .2-.1.2-.1.2-.1.3-.2.2-.1.2-.1.3-.3l.1.1c.1 0 .1 0 .2-.1.1 0 .1 0 .2.1l.6-.4h.3l.2-.2c.1 0 .1 0 .2-.1.1 0 .1 0 .2.1.1 0 .1 0 .1-.1h.2l.1-.1c.2 0 .2 0 .4-.1.1 0 .1 0 .2-.1l.2-.2c.2 0 .2 0 .3.1v.1c-.1.1-.1.1-.1.2v.4c0 .2 0 .2-.1.4l-.1.1v.3l-.1.1v.1c-.3.4-.3.4-.5.8l-.2.2v.1c-.3.4-.3.4-.5.7 0 .1 0 .1-.1.2s-.1.1-.2.3v.2c-.2.3-.2.3-.5.6v.1c-.4.4-.4.4-.7.8-.5.4-.5.4-1 .9-.3.2-.3.2-.6.3L73.2 79H73c-.4.4-.4.4-.7.8-.1.1-.1.1-.1.2l-.2.2-.1.1v.1c-.2.1-.2.1-.4.3h-.1c-.1.1-.1.1-.3.2v.1c-.1.1-.1.1-.3.2v.1c-.2.3-.2.3-.4.5-.1 0-.1 0-.1.1-.2.4-.2.4-.4.7v.2c.2.2.2.2.4.3l-.2.2c0 .1 0 .1-.1.3.1 0 .1 0 .1.1-.1.2-.1.2-.2.3.1.2.1.2.1.5v.1c0 .1 0 .1.1.2l-.1.1.4.2c.1 0 .1 0 .1.1s0 .1-.1.2l-.2.2v.4c0 .1 0 .1-.1.1 0 .2 0 .2-.1.5l-.1.1V87c-.1 0-.1 0-.1.1h.1c.1 0 .1 0 .1.1v.1l-.1.1v.1c-.1 0-.1 0-.2.1l-.1.1h.1c-.1.1-.1.1-.3.2l-.2.2h-.1v.1c-.1 0-.1 0-.2.1s-.1.1-.2.1h-.1v.1c-.2.1-.2.1-.5.2l-.6.2-.2.2h-.1V89v.1h-.1v.1c-.2.1-.2.1-.3.2l-.1.1h-.2l-.4.2v.1c-.1 0-.1 0-.2.1l-.1.1h-.2c0 .1 0 .1.1.1-.1.1-.1.1-.1.2l.1.1V90.7c0 .1 0 .1-.1.3h.1v-.1-.1.1c0 .1 0 .1-.1.2v.1l-.1.1c-.1.1-.1.1-.1.2l-.1.1.1-.1h.1l-.2.2c-.2.1-.2.1-.3.2 0 .1 0 .1-.2.2-.2 0-.2 0-.4.1s-.2.1-.5.2l-.1.1c-.1.1-.1.1-.2.1v.1h.2v.1l-.1.1v.1l-.1.1-.1.1v.1l-.2.2h-.1c0 .1 0 .1-.1.1l-.1.1c-.3.1-.3.1-.5.2l-.2.2-.1.1h-.1c-.1.1-.1.1-.3.2-.2.1-.2.1-.3.2l-.1.1c-.2.1-.2.1-.3.2-.3.2-.3.2-.7.4h-.1l-.6.2c-.1 0-.1 0-.2.1-.1 0-.1 0-.2.1-.1 0-.1 0-.2.1h-.4c-.1 0-.1 0-.1.1h.1H58.4l-.1.1h.1-.7-.7l-.1.1h-.1l-.1.1h-.1-.5c-.2.1-.2.1-.3.1h-.4-.1-.1l-.1-.1H55v0l.1-.1H55c-.1-.1-.1-.1-.3-.2l.1-.1c.1 0 .1 0 .1-.1v-.1c0-.1 0-.1-.1-.1l-.1-.1c-.2-.1-.2-.1-.3-.3-.1-.3-.1-.3-.2-.5-.1-.1-.1-.1-.2-.1v-.1h-.1c-.1-.1-.1-.1-.2-.1-.1-.1-.1-.1-.3-.2v-.2h-.1v-.1h.1l-.1-.1c-.3-.1-.3-.1-.3-.2v-.3l-.2-.2v-.6h.2l-.1-.1v-.1c-.1-.2-.1-.2-.3-.3v-.1c-.1-.2-.1-.2-.3-.3-.1-.2-.1-.2-.3-.5-.1-.2-.1-.2-.3-.4-.2-.1-.2-.1-.4-.3 0-.3 0-.3.1-.5v-.1-.1l.1.1v-.4l.2-.2v-.2l.1-.1c.1-.2.1-.2.1-.4v-.1h.1v-.2c0-.1 0-.1.2-.2l-.1-.1.4-.2c.1-.2.1-.2.3-.3v-.5c-.1 0-.1 0-.1-.1v-.1c-.2-.3-.2-.3-.3-.6 0-.1 0-.1-.1-.2l-.1-.1.1-.1c.1-.2.1-.2.2-.3l-.2-.2v-.5c-.2-.1-.2-.1-.3-.3 0-.1 0-.1-.1-.2.1-.1.1-.1.2-.1h-.2c0-.1 0-.1-.1-.1 0-.2 0-.2-.1-.4l-.2-.4c-.2-.2-.2-.2-.5-.4v-.1c-.1 0-.1 0-.3-.1v-.1c-.2-.1-.2-.1-.3-.2-.1-.1-.1-.1-.2-.1h.3c-.2-.1-.2-.1-.4-.1-.1-.2-.1-.2-.2-.3-.1-.1-.1-.1-.1-.2.1.1.1.1.2.1h.2v-.1h-.1v-.1h-.2c-.1-.1-.1-.1-.2-.3-.1-.1-.1-.1-.1-.3.1.1.1.1.2.1s.1 0 .2-.1v-.6c.1.1.1.1.2.1s.1 0 .2-.1h-.2c0-.1 0-.1-.1-.1h.1v-.2c-.1 0-.1 0-.2-.1.1-.2.1-.2.3-.5v-.1l.1-.1V79l-.1-.1c.1-.2.1-.2.1-.4-.1-.1-.1-.1-.2-.3v-.1l.1-.1c0-.1 0-.1-.1-.2-.1.1-.1.1-.3.1-.1-.1-.1-.1-.2-.1-.1-.1-.1-.1-.1-.3h-.2c-.1-.1-.1-.1-.2-.1v.1c-.1 0-.1 0-.2.1h-.1c-.2 0-.2 0-.4.1h-.1c-.1 0-.1 0-.1.1-.4 0-.4 0-.8.1l-.4-.2c-.1-.3-.1-.3-.3-.7-.2-.2-.2-.2-.4-.3-.3-.1-.3-.1-.5-.2-.7 0-.7 0-1.5.1l-.4.2c-.3.1-.3.1-.7.1-.2.2-.2.2-.5.3-.2 0-.2 0-.5.1s-.3.1-.5.2l-.3-.1c-.2 0-.2 0-.4-.1-.1 0-.1 0-.1-.1s0-.1-.1-.2h-.1l-.1.1c-.2-.1-.2-.1-.3-.1-.2.1-.2.1-.3.1H39c-.3.1-.3.1-.6.3h-.2c-.1.1-.1.1-.2.1-.3-.1-.3-.1-.7-.2-.3-.2-.3-.2-.6-.3h-.1l-.2-.2c-.4-.2-.4-.2-.8-.5l-.2-.2c-.1-.1-.1-.1-.2-.1h.1c-.2 0-.2 0-.4-.1l-.4-.2h-.2l.1-.1-.4-.4c0-.1 0-.1-.1-.2-.1-.2-.1-.2-.3-.4 0-.1 0-.1.1-.1v-.1l.1-.1-.4-.4h-.2c-.1-.1-.1-.1-.1-.2H33l-.1-.1h-.1c-.1-.1-.1-.1-.2-.3 0-.1 0-.1.1-.1l-.2-.2h-.1l-.1-.1h-.2v-.1h.1c.1 0 .1 0 .1-.1h-.2c.1-.1.1-.1.2-.1h-.1l-.1-.1c.2 0 .2 0 .4-.1-.1 0-.1 0-.1-.1h-.3c-.2-.1-.2-.1-.3-.1-.1 0-.1 0-.2-.1 0-.1 0-.1.1-.1-.2-.1-.2-.1-.3-.2v-.2c.1 0 .1 0 .1.1.1-.1.1-.1.2-.1-.1-.1-.1-.1-.2-.1h-.2v-.3c0-.1 0-.1-.1-.1 0-.1 0-.1.1-.1s.1 0 .1.1V71c0-.1 0-.1.1-.1-.1 0-.1 0-.2-.1 0-.1 0-.1.1-.1-.1 0-.1 0-.1-.1l-.5-.5c.3-.3.3-.3.6-.7v-.5c.2-.5.2-.5.3-1.1l-.2-.8c-.1-.2-.1-.2-.2-.3h.2v-.3-.3c-.1-.1-.1-.1-.1-.2l-.1.1c0-.1 0-.1-.1-.2l-.1.1v-.2c0-.2 0-.2.1-.4 0-.1 0-.1-.1-.1 0-.1 0-.1.1-.1v-.3h.1l.1-.1c0-.2 0-.2.1-.3h.1l.1-.1-.1-.1c.1-.2.1-.2.3-.4v-.1c.1-.2.1-.2.1-.4.2-.2.2-.2.5-.3.1-.1.1-.1.1-.2v-.1c.2-.3.2-.3.3-.6v-.2l.3-.3.4-.2c.1 0 .1 0 .2-.1V61c.2-.3.2-.3.5-.6.4-.1.4-.1.7-.1l.4-.4c.2-.1.2-.1.4-.1l.2-.4c.2-.2.2-.2.4-.5v-.2c-.1-.1-.1-.1-.1-.2s0-.1.1-.3c0-.1 0-.1-.1-.3v-.3c.3-.3.3-.3.5-.6 0-.1 0-.1-.1-.3 0-.1 0-.1-.1-.2l.4-.4h.1l.2-.2h.1c.1-.1.1-.1.3-.2.1-.1.1-.1.3-.1.1 0 .1 0 .1-.1.1 0 .1 0 .2-.1.2-.2.2-.2.4-.5 0-.2 0-.2.1-.3.1-.2.1-.2.2-.3v-.5h.2c.1 0 .1 0 .2-.1v.2l.4.4h.3c.1-.1.1-.1.3-.1.1 0 .1 0 .2.1h.4l.2-.2c.1.1.1.1.2.3h.7l.4-.2c0-.1 0-.1.1-.2.2-.1.2-.1.5-.2h.2l.1.1h.1c.1-.2.1-.2.1-.3.2-.1.2-.1.4-.1.2-.1.2-.1.5-.3.1 0 .1 0 .3.1.2-.1.2-.1.4-.1.1 0 .1 0 .2.1l.2-.2c.1 0 .1 0 .2.1l.1-.1h.9c.1.1.1.1.1.2h.2c.1-.1.1-.1.3-.1h.1l.1-.1h.1c0-.1 0-.1.1-.2h.2c.1.1.1.1.1.2h.3c.1-.1.1-.1.1-.2.2.1.2.1.3.2.3 0 .3 0 .7-.1v.1c.1-.2.1-.2.2-.3.2 0 .2 0 .4-.1.1 0 .1 0 .1.1v-.1h.3v.2l.2.4c.2-.2.2-.2.5-.4v.2l-.2.2v.2c-.1.1-.1.1-.2.1v.2c.2.2.2.2.4.3v.7l-.2.2v.1c-.2.2-.2.2-.4.3v.2l.4.4h.1v.1h.1V56l.1-.1c0 .1 0 .1.1.2.2.1.2.1.5.2l.2.2c.7 0 .7 0 1.5.1l.2.2h.6c.1.1.1.1.2.3v.2c.1.3.1.3.3.5.2.1.2.1.3.1.2 0 .2 0 .5-.1.5.2.5.2 1.1.5l.3.3c.2.1.2.1.4.1h.2c.2-.2.2-.2.5-.4.1-.2.1-.2.1-.4l-.2-.4v-.4l.4-.6c.2-.1.2-.1.3-.1.2 0 .2 0 .4-.1 0-.1 0-.1.1-.1h.4l.1.1h.3l.4.2v.2c.3 0 .3 0 .5.1h.7c.1 0 .1 0 .2.1 0 .2 0 .2.1.3h.4c.1 0 .1 0 .3.1H63.6c0 .1 0 .1.1.1h.2c.1 0 .1 0 .1-.1v.1c.1 0 .1 0 .2.1.2 0 .2 0 .3-.1.2.1.2.1.4.3.3-.1.3-.1.5-.2 0-.1 0-.1.1-.2h.2c.1-.1.1-.1.2-.1h.1c.1 0 .1 0 .3-.1V57c.2 0 .2 0 .5.1l.1.1h-.2v.1c.1 0 .1 0 .2.1l.2.2v-.1c0-.1 0-.1-.1-.1v-.1c.1 0 .1 0 .1.1.1.1.1.1.2.1.2-.1.2-.1.3-.2.2 0 .2 0 .5.1.1 0 .1 0 .2-.1.3-.4.3-.4.5-.8v-.7c.1 0 .1 0 .2.1v-.4c0-.1 0-.1.1-.1l.2-.4v-.5c.1 0 .1 0 .2-.1 0-.2 0-.2-.1-.4l.1-.1v-.1l-.2-.4v-.2h.1c0-.1 0-.1.1-.1l-.2-.2c.1-.1.1-.1.2-.3v-.2h-.1l-.2.2h-.1c-.3-.1-.3-.1-.5-.2l-.4.4v.2h-.1-.1c-.1 0-.1 0-.1.1-.4.1-.4.1-.8.1-.1-.1-.1-.1-.2-.1-.1-.1-.1-.1-.2-.3-.7.2-.7.2-1 .1h-.6c0 .1 0 .1.1.2 0 .2 0 .2-.1.3h-.2l-.1.1h-.1c-.1 0-.1 0-.3.1-.2-.1-.2-.1-.4-.1v-.3c-.1 0-.1 0-.1.1-.1-.1-.1-.1-.3-.1h-.1c0 .1 0 .1-.1.1l-.1.1h-.1.2c-.2.1-.2.1-.3.1-.1 0-.1 0-.1-.1.1 0 .1 0 .1-.1h.3l.2-.2h-.4c-.1 0-.1 0-.2.1-.1 0-.1 0-.1-.1l.1-.1h.1v-.1H63c0-.1 0-.1-.1-.1h-.1c0-.1 0-.1-.1-.2h-.1v-.1l.1-.1v-.2c-.1-.1-.1-.1-.2-.1h-.1l-.1-.1c-.1 0-.1 0-.1.1-.2-.4-.2-.4-.2-.5l.1-.1v-.1-.3h.1v.1l.1.1h.1v-.1l.1-.1-.1-.1c.1-.1.1-.1.3-.2v-.1c-.1 0-.1 0-.1.1h-.1v-.1c-.1-.1-.1-.1-.1-.2l.2-.2-.1-.1c-.3 0-.3 0-.5.1v-.1c0-.1 0-.1.1-.2 0-.2 0-.2-.1-.3l.4-.4h.2l.1.1h.2l.1-.1h.2v.1c.1 0 .1 0 .1-.1h.3v.1h.4v-.1l-.1-.1h-.1V49c.1-.1.1-.1.3-.1h.4c-.1 0-.1 0-.2-.1h-.2c-.1-.1-.1-.1-.2-.3l.1-.1H64.6c.1 0 .1 0 .2.1.1-.1.1-.1.2-.1.2.1.2.1.4.1h.3l.1-.1v-.2c.2-.2.2-.2.4-.3h.4c.2-.1.2-.1.5-.2h.4c.3 0 .3 0 .5.1.1-.1.1-.1.2-.1h.1v.1l.3.3h.1l.2-.2c.1 0 .1 0 .1.1l.2.4h.1l.1-.1c.3.2.3.2.7.3h.1l.4.2c.2-.1.2-.1.3-.2.2 0 .2 0 .3-.1.3.1.3.1.6.1.1 0 .1 0 .2-.1v-.1h.1c.2-.1.2-.1.3-.3 0-.2 0-.2.1-.3-.1-.3-.1-.3-.1-.7l-.2-.4H72c-.1-.1-.1-.1-.1-.2-.2 0-.2 0-.4-.1 0-.1 0-.1-.1-.1s-.1 0-.2-.1l-.3-.3h-.2c0-.1 0-.1-.1-.2-.3-.2-.3-.2-.6-.5h-.2l-.2-.2h-.3l-.1-.1v-.2l-.2-.2h-.2c.1 0 .1 0 .2-.1v-.2h.1l.2.2.1-.1h.1c.1-.1.1-.1.1-.2-.1-.1-.1-.1-.1-.2.1-.1.1-.1.1-.2v-.1h.1c0 .1 0 .1.1.1 0-.1 0-.1.1-.2.1 0 .1 0 .2-.1-.1 0-.1 0-.2-.1-.1 0-.1 0-.1-.1h-.1c-.1-.1-.1-.1-.2-.3h.4c.1 0 .1 0 .2-.1-.1 0-.1 0-.2-.1v-.1c.3-.2.3-.2.5-.3v-.2h-.2c-.1.1-.1.1-.2.1h-.2c-.1 0-.1 0-.2.1v-.1c-.1 0-.1 0-.2.1h-.2l-.2.2h-.1l-.2.2h-.1c-.1.1-.1.1-.2.1h-.2c-.1.1-.1.1-.2.1l-.2-.2c.1.1.1.1.1.3-.1.1-.1.1-.1.2l-.1.1.2-.2-.1-.1v.1c0 .1 0 .1-.1.1-.2.1-.2.1-.4.3l-.2-.2v.2c-.1 0-.1 0-.1-.1h-.1c0 .1 0 .1.1.1h.3c.1.2.1.2.3.4.1 0 .1 0 .1-.1v.2c.1.1.1.1.3.2l.1-.1-.4-.4c-.1-.1-.1-.1-.2-.3v-.1h.1c.1.2.1.2.1.3l.4.4.2-.2c.1.1.1.1.2.1 0-.1 0-.1.1-.2h.4c0 .1 0 .1-.1.2v.2c-.1 0-.1 0-.1.1h-.5l-.3.3c-.1 0-.1 0-.2-.1-.3.2-.3.2-.7.5-.2-.1-.2-.1-.3-.2l.1-.1v-.3l-.2-.2c-.3 0-.3 0-.6-.1.1-.2.1-.2.3-.3.2-.1.2-.1.4-.1-.1-.1-.1-.1-.2-.1v-.2l-.1.1c-.5.6-.5.6-.6.5-.2 0-.2 0-.3.1-.2-.1-.2-.1-.3-.1.1 0 .1 0 .1-.1-.1-.1-.1-.1-.2-.1s-.1 0-.2-.1h.2l.1-.1-.1-.1-.2.2c0-.1 0-.1-.1-.2l-.1.1h-.1c-.1.1-.1.1-.2.1v.1l-.2.2h-.1v.1l-.4.4c-.1-.1-.1-.1-.1-.2v.3c0 .1 0 .1.1.2 0 .1 0 .1-.1.1l.1.1c-.1.1-.1.1-.1.3-.1 0-.1 0-.3-.1-.1-.1-.1-.1-.1-.2l-.1.1v.2c-.1.1-.1.1-.1.2l.1.1v.9c-.1.1-.1.1-.1.2h-.2l-.2.2v.3l-.2.2v.1c.1 0 .1 0 .1.1.1.2.1.2.3.4v.3l.2.2c.1 0 .1 0 .2.1l.4.2c-.1.1-.1.1-.1.2h-.1H63.2l-.1.1H62.8c-.1.1-.1.1-.2.3-.2.1-.2.1-.3.1-.2.1-.2.1-.4.3v-.3c.1-.1.1-.1.2-.1v-.1h-.4c-.1-.1-.1-.1-.1-.2h-.5c-.1 0-.1 0-.2-.1 0 .1 0 .1-.1.2h-.2c-.1-.1-.1-.1-.2-.1s-.1 0-.2.1v.1l-.1.1H60c-.1 0-.1 0-.1.1.1.1.1.1.1.2.2.1.2.1.3.1v.1l-.1-.1H60l-.1.1c.1.1.1.1.2.1v.1H60v-.1l-.1-.1h-.2v.1l.2.2c-.1 0-.1 0-.2-.1s-.1-.1-.1-.2l-.2-.2h.1v-.2c-.1.1-.1.1-.2.1 0 .2 0 .2-.1.4.2.2.2.2.4.5.1.1.1.1.2.3 0 .1 0 .1-.1.2v-.1c-.1 0-.1 0-.1-.1-.1 0-.1 0-.2.1.1.1.1.1.2.1-.1.1-.1.1-.2.1v.1c.1 0 .1 0 .2.1v.1h.1c.2.1.2.1.5.3.1.1.1.1.1.2v.4h-.2l-.2-.2c-.2 0-.2 0-.3.1l.1.1v.1c.1 0 .1 0 .2.1s.1.1.2.3c-.1 0-.1 0-.2-.1h-.2c0-.1 0-.1-.1-.1s-.1 0-.2-.1c.2.3.2.3.3.5v.1c.1.1.1.1.1.2-.1 0-.1 0-.1-.1l-.2-.2c-.1.1-.1.1-.2.1 0 .2 0 .2-.1.3l-.1-.1V53c-.1-.1-.1-.1-.1-.2h-.1v.2l-.1-.1c-.1-.1-.1-.1-.2-.3 0-.1 0-.1.1-.1v-.1c-.2-.1-.2-.1-.3-.2l-.2-.2c.1-.1.1-.1.2-.3.1 0 .1 0 .1.1.1-.1.1-.1.2-.1.2.1.2.1.3.1.1 0 .1 0 .2.1l.1.1.1-.1h-.1v-.1l-.1.1c0-.1 0-.1-.1-.1-.2-.1-.2-.1-.3-.1H58.5l-.1-.1c-.1.1-.1.1-.1.2h-.1v-.2c-.1-.2-.1-.2-.3-.3v-.1l-.2-.2c-.1-.1-.1-.1-.2-.1v-.3c-.1 0-.1 0-.1-.1-.1-.2-.1-.2-.2-.3H57c-.1 0-.1 0-.1-.1s0-.1.1-.2c0-.1 0-.1-.1-.1v-.2l.1-.1c0-.2 0-.2-.1-.3V48.9h.1v-.1c-.1-.1-.1-.1-.3-.2-.2-.2-.2-.2-.3-.5h-.2c-.1-.2-.1-.2-.2-.3h-.5c-.1-.1-.1-.1-.2-.1H55l-.1-.1h.4c-.3-.2-.3-.2-.5-.4h-.3c0-.1 0-.1-.1-.1-.2-.1-.2-.1-.3-.3-.1-.1-.1-.1-.3-.1v-.1h.3l-.5-.5c0-.1 0-.1-.1-.3-.2-.2-.2-.2-.5-.3 0 .1 0 .1-.1.2-.1.2-.1.2-.2.3-.1-.1-.1-.1-.2-.1-.1-.2-.1-.2-.2-.5.1-.1.1-.1.1-.2-.1 0-.1 0-.1-.1-.1 0-.1 0-.2-.1l-.1.1h-.2l-.4.4.1.1v.2c-.1 0-.1 0-.1.1v.1c.1.2.1.2.2.5.3.2.3.2.5.3.3.3.3.3.6.7 0 .2 0 .2.1.3.3.4.3.4.6.7.1.1.1.1.3.1h.7v.1l-.2.2.1.1h.3c.3.1.3.1.6.3.2.2.2.2.5.4.2.1.2.1.3.1 0 .1 0 .1.1.2-.1 0-.1 0-.1.2-.1-.1-.1-.1-.2-.3 0-.1 0-.1-.1-.2h-.3l-.1-.1c-.2-.1-.2-.1-.3-.1-.2.3-.2.3-.3.6v.2c.2.2.2.2.4.3v.4c-.1.1-.1.1-.3.2v.3l-.2.2c-.1.2-.1.2-.2.3h-.3c-.1-.1-.1-.1-.1-.2l.2-.2v-.3c.1-.1.1-.1.2-.1v-.1l-.2-.6v-.3L54 50H53.7c-.1-.1-.1-.1-.1-.2h-.1c-.1 0-.1 0-.1-.1s0-.1.1-.2c-.1-.1-.1-.1-.1-.2h-.3l-.1-.1h-.1c-.1-.2-.1-.2-.3-.4h-.5l-.2-.2h-.2l-.6-.6H51c-.1-.2-.1-.2-.2-.3h-.2v-.1l-.4-.4c-.1 0-.1 0-.1-.1v-.2c0-.1 0-.1-.1-.1l-.4-.7h-.2c-.4-.2-.4-.2-.7-.3-.1.1-.1.1-.3.2-.1.2-.1.2-.3.4-.2 0-.2 0-.4.1-.3.2-.3.2-.6.5v.1c-.1.1-.1.1-.2.1h-.4l-.6-.4c-.1.1-.1.1-.2.1-.3-.1-.3-.1-.5-.2-.2.2-.2.2-.5.4-.1.2-.1.2-.1.4.1.2.1.2.1.3-.1.1-.1.1-.1.2v.5l-.4.2-.2.2h-.3c-.2.1-.2.1-.5.3v.2c-.1.1-.1.1-.2.1-.3.5-.3.5-.7 1v.2c.2.3.2.3.4.5-.1.1-.1.1-.2.1h-.2v.2c-.2.3-.2.3-.3.6l.1.1c-.4.2-.4.2-.7.3-.1.2-.1.2-.3.4.1.1.1.1-.1 0l-.2.2c-.1-.1-.1-.1-.2-.1h-.4c-.1 0-.1 0-.3-.1H39.6l-.2.2h-.3c-.1.1-.1.1-.1.2-.1.1-.1.1-.2.1s-.1 0-.2-.1c-.2-.2-.2-.2-.4-.5v-.2c-.1-.1-.1-.1-.2-.3h-.5l-.2.2c-.3-.1-.3-.1-.5-.2-.1 0-.1 0-.2.1h-.1c.1-.2.1-.2.1-.3v-.4-.2-.2c.1 0 .1 0 .1-.1-.1 0-.1 0-.1-.1-.1.1-.1.1-.2.1h-.1V51c.1-.1.1-.1.3-.1l-.1-.1c-.1.1-.1.1-.2.1s-.1 0-.2-.1c.1-.2.1-.2.1-.5l.2-.2v-.2l.2-.2v-.3c.1-.1.1-.1.1-.3 0-.1 0-.1-.1-.2 0-.1 0-.1.1-.2 0-.1 0-.1-.1-.1v-.4c-.1-.2-.1-.2-.1-.4l.2-.2h-.1c0-.1 0-.1.1-.1v-.1-.1c-.1 0-.1 0-.2.1v-.1-.2h-.1c0-.1 0-.1-.1-.2.2-.1.2-.1.3-.3.1 0 .1 0 .2.1.1-.1.1-.1.3-.1v-.1l.2-.2h.1l.1-.1c.1 0 .1 0 .2.1l.2.2c.1 0 .1 0 .2-.1.1 0 .1 0 .2.1h.2c.1 0 .1 0 .1-.1.1 0 .1 0 .2-.1l.2.2c.3.1.3.1.7.1.3-.1.3-.1.6-.1.2.1.2.1.5.2.1-.1.1-.1.2-.1.2.1.2.1.5.2.2-.1.2-.1.3-.2l.2-.4v-.6l.1-.1-.1-.1v-.2c0-.3 0-.3.1-.6h.1l.1.1.2.4c.1 0 .1 0 .2.1l-.1-.1-.2-.4c-.1-.1-.1-.1-.2-.1H42v-.2c-.1-.1-.1-.1-.1-.2h.1l.1.1h.1v-.2-.2c-.1 0-.1 0-.3-.1-.1-.1-.1-.1-.3-.2-.1 0-.1 0-.2-.1.1-.1.1-.1.1-.3-.1 0-.1 0-.2-.1l.1-.1h.2c-.1 0-.1 0-.1-.1-.2 0-.2 0-.3.1v-.3H41v-.1c-.1 0-.1 0-.3.1l-.1-.1c-.3-.1-.3-.1-.5-.2-.1.1-.1.1-.2.1-.1-.1-.1-.1-.2-.3.1-.1.1-.1.2-.1-.1 0-.1 0-.2-.1v-.1h.2c-.1 0-.1 0-.1-.1-.1 0-.1 0-.3-.1 0-.1 0-.1.1-.1.2-.1.2-.1.5-.2.1 0 .1 0 .1.1l.6-.2c.1.2.1.2.3.3.1-.1.1-.1.2-.1h.2l.1.1c.2 0 .2 0 .5-.1l-.1-.1V41c-.1-.1-.1-.1-.2-.3v-.2c.2 0 .2 0 .4-.1 0 .1 0 .1.1.3h.2l.1.1h.5c.1 0 .1 0 .2-.1-.1-.1-.1-.1-.2-.1v-.1c.2-.1.2-.1.3-.2.3 0 .3 0 .5-.1l.2-.4c0-.3 0-.3.1-.5l.1-.1c.2 0 .2 0 .4-.1.1-.1.1-.1.2-.3.1 0 .1 0 .1-.1 0 .3 0 .3.1.4h.2l-.1-.1-.2-.2c.1 0 .1 0 .2.1s.1.1.3.1l-.2-.2c0-.1 0-.1.1-.1h-.2v-.1c.1 0 .1 0 .2-.1v-.1c0-.1 0-.1.1-.1.1-.1.1-.1.1-.2v-.3c0-.1 0-.1.1-.3.1-.1.1-.1.2-.1l.1.1c.1-.1.1-.1.2-.1.2-.1.2-.1.4-.3.1 0 .1 0 .2.1 0-.1 0-.1.1-.1s.1 0 .2-.1l.4.2c.1.1.1.1.1.3 0-.2 0-.2-.1-.3h-.2c-.1-.1-.1-.1-.1-.2l.4-.2h.3c0 .1 0 .1-.1.2.2-.1.2-.1.2 0 .1 0 .1 0 .2-.1-.1-.1-.1-.1-.1-.3.1 0 .1 0 .1.1v.2c0 .1 0 .1.1.2 0-.1 0-.1.1-.2v-.2c0-.1 0-.1.1-.1s.1 0 .1.1c.1 0 .1 0 .2-.1-.1-.1-.1-.1-.2-.1v-.1c0-.1 0-.1-.1-.2V36c-.1.1-.1.1-.2.1V36c.1 0 .1 0 .3-.1l-.2-.2c-.1-.1-.1-.1-.1-.2v-.2-.2c0-.1 0-.1-.1-.1s-.1 0-.1-.1l-.1.1h-.1v-.2l.2-.2v-.2c0-.1 0-.1-.1-.2l.1-.1c-.1-.1-.1-.1-.1-.2v-.2c.1 0 .1 0 .2.1s.1.1.2.1l.1-.1v-.1c.1-.1.1-.1.1-.2 0 .1 0 .1.1.1v.2h.3l-.2-.2v-.1c-.1-.1-.1-.1-.1-.2h.1c.1 0 .1 0 .1.1.1-.1.1-.1.3-.1l-.1-.1h-.5c-.1.1-.1.1-.3.1 0 .1 0 .1-.1.1 0 .1 0 .1.1.2l-.2-.2H48v-.1c.1-.1.1-.1.2-.3h.2l.1-.1h.2c.1-.2.1-.2.3-.4h.3c.2-.1.2-.1.3-.3-.1.2-.1.2-.2.3.1.1.1.1.1.3-.1.2-.1.2-.2.3 0 .1 0 .1.1.1-.1.1-.1.1-.1.2h.2v.1l.1.1h.4v.3h-.2v-.1h-.2v.4l-.1.1c-.1 0-.1 0-.1-.1l-.1.1.1.1-.4.2.1.1v.1l-.1.1v.1l.2.2h-.1l.4.2c-.1.1-.1.1-.2.3h.3c-.1.1-.1.1-.1.2h.1l.2-.2c.1.1.1.1.3.2l.2-.2v-.1l.1.1-.1.1v.2c-.1.1-.1.1-.3.1h.5c0-.1 0-.1.1-.2h.4v-.1h.1l.1.1.1-.1c0-.1 0-.1-.1-.2h.3c.1 0-.2.2-.2.2H51.6c.1-.1.1-.1.1-.2.1 0 .1 0 .1-.1l-.1-.1v-.1c.1.1.1.1.3.1.1.1.1.1.1.2h-.2l-.1.1c0 .1 0 .1.1.1.2 0 .2 0 .4.1.1 0 .1 0 .2.1-.1.1-.1.1-.2.1.1.1.1.1.1.2h.5c.1-.2.1-.2.1-.4 0 .1 0 .1.3 0 .1 0 .1 0 .3-.1 0-.1 0-.1.1-.2s.1-.1.3-.1l.2-.2h.4c.1 0 .1 0 .2-.1h.2l.1.1h.2c.1.1.1.1.2.1h-.2c0 .1 0 .1-.1.1 0 .1 0 .1.1.2.1 0 .1 0 .3.1h.2c.1-.1.1-.1.3-.2l-.2.2c-.1 0-.1 0-.1.1v.1h.1c.2-.1.2-.1.3-.3.1-.1.1-.1.2-.1h.1l.1-.1h-.2v.1h-.2v-.1l.2-.2h.3c.1 0 .1 0 .1-.1.1.1.1.1.2.1 0-.1 0-.1.1-.1 0-.1 0-.1.1-.3v-.2c-.1 0-.1 0-.1.1v.1c-.1.1-.1.1-.1.2.1-.2.1-.2.1-.3v-.1-.2-.2l-.2-.4.1-.1c0-.1 0-.1.1-.3l.2-.2V33l.1-.1v-.2l.6-.2.1-.1c0 .1 0 .1.1.2l.4.4.2.2h.2c.1-.2.1-.2.3-.4-.1-.3-.1-.3-.1-.5 0-.3 0-.3.1-.7l-.3.3c-.1-.2-.1-.2-.3-.4v-.2c.1 0 .1 0 .2-.1h-.1c-.1 0-.1 0-.1.1V31v-.2l.2-.2.1.1c.1-.1.1-.1.1-.2h.2v-.1c.1 0 .1 0 .1.1h.2c.1 0 .1 0 .1.1v-.1h.1v-.1.1h.2c.1 0 .1 0 .1.1h.3l.1.1c.3 0 .3 0 .6.1l.1-.1v-.2l-.1-.1.1-.1.1.1.1.1v-.1l.1-.1h.2l.1-.1c.1-.1.1-.1.3-.1.1.1.1.1.2.1h.2v-.1h-.2V30c-.1-.1-.1-.1-.1-.2h-.4v-.1h-.2c-.6-.4-.6-.4-.6-.5 0-.1 0-.1-.1-.1.1.1.1.1.2.1v-.1-.1-.1l-.1.1h-.1-.2l.1.1c-.1.1-.1.1-.1.2-.1 0-.1 0-.1-.1v-.1h-.1v.2h-.2c-.1 0-.1 0-.1-.1H60c0 .1 0 .1-.1.1-.1-.1-.1-.1-.1-.2v.1h-.1c-.1 0-.1 0-.1-.1h-.1c0-.1 0-.1-.1-.1v.1l.1.1c-.1 0-.1 0-.2-.1v.2h-.1v-.1-.1-.3.2c0 .1 0 .1-.1.2-.1 0-.1 0-.3-.1-.2.1-.2.1-.3.3h-.2l-.2.2H58l-.1.1v-.1c-.1.1-.1.1-.2.3l-.1-.1c0-.1 0-.1.1-.1-.1-.2-.1-.2-.3-.3l.1-.1v-.1l-.2.2v-.1h-.1c-.1-.1-.1-.1-.2-.1s-.1 0-.2-.1c0-.1 0-.1-.1-.1-.2.1-.2.1-.4.1 0-.1 0-.1-.1-.1 0-.1 0-.1.1-.1v-.1h-.2c0-.2 0-.2.1-.4v-.1c.1 0 .1 0 .1-.1l-.1-.2-.2-.3v-.2c0-.1 0-.1-.1-.2h-.1V27c0-.1 0-.1-.1-.2v-.1c.1 0 .1 0 .1-.1s0-.1.1-.1l-.1-.1.2-.2c.1 0 .1 0 .2.1.1-.1.1-.1.2-.1 0-.1 0-.1.1-.2 0-.1 0-.1-.1-.1l.1-.1c0-.1 0-.1.1-.1.1.1.1.1.2.1v-.2-.2c.1 0 .1 0 .3-.1v-.2h.1V25c.1-.1.1-.1.2-.3h.1l-.1-.1c.1-.1.1-.1.1-.2l.2-.2h.2c.1.1.1.1.3.2v-.1c-.1-.1-.1-.1-.3-.2V24v-.2-.1l.1-.1-.2-.2h-.2c-.1 0-.1 0-.2-.1l-.1-.1h-.2l-.1-.1v.1h-.2l-.1-.1v.1h-.2c-.1 0-.1 0-.1-.1 0 .1 0 .1-.1.1h-.1L56 23v.1c-.1-.1-.1-.1-.1-.2l-.1.1v.2l-.1.1h-.2l-.1-.1c0 .1 0 .1.1.2.1 0 .1 0 .2.1-.1 0-.1 0-.2.1h-.2c0 .1 0 .1.1.1l-.1.1-.1-.1v.1c.1 0 .1 0 .2.1-.1.2-.1.2-.1.3l.1.1h-.1c.1.1.1.1.2.1h-.1l.1.1h.1c-.2.1-.2.1-.3.2v.2c-.1.1-.1.1-.1.2h-.1c0 .1 0 .1-.1.1l-.1-.1v.2c-.1.2-.1.2-.3.3v-.2l-.2.2c0 .1 0 .1-.1.2h-.1v.1H54l-.1.1c.1 0 .1 0 .1.1l-.2.2h-.1l.1.1c-.1.1-.1.1-.2.3h-.2c.1.1.1.1.1.2v.5c0 .1 0 .1.1.1v.2c-.1-.1-.1-.1-.2-.1 0 .1 0 .1.1.2 0 .1 0 .1-.1.2.1 0 .1 0 .1.1v.1c.1 0 .1 0 .1.1s0 .1-.1.1v.2c.1.1.1.1.3.1-.1.1-.1.1-.2.1l-.2.2h-.1v.1h.1c0-.1 0-.1.1-.1s.1 0 .2-.1.1-.1.2-.3l.1.1c.1 0 .1 0 .1-.1.1.2.1.2.2.3.1 0 .1 0 .2.1v.1h.2c.1.2.1.2.1.3v.2l-.4.4c.1.2.1.2.1.3-.1 0-.1 0-.1.1h-.1c0 .1 0 .1-.1.2l-.1-.1v-.1H54v.1l-.1.1v.1c-.3-.1-.3-.1-.6-.1.2.1.2.1.3.2h.1c.1 0 .1 0 .2.1v.1h-.2l-.1.1c.2.1.2.1.3.1-.1 0-.1 0-.3.1.1.1.1.1.1.2v.1c0 .1 0 .1.1.2-.1 0-.1 0-.1.1-.2.1-.2.1-.3.1l.1.1v.1c0 .1 0 .1.1.1l-.1.1c.1 0 .1 0 .2.1-.1.1-.1.1-.1.2v.1c.1 0 .1 0 .1.1s0 .1-.1.2v.4l-.1.1-.2.6c-.1-.1-.1-.1-.3-.2H52.4l-.1.1h-.2c0 .1 0 .1-.1.2 0 .1 0 .1.1.2 0 .1 0 .1-.1.2-.1 0-.1 0-.3-.1-.1.1-.1.1-.3.1-.1 0-.1 0-.2-.1 0-.1 0-.1.1-.1 0-.2 0-.2-.1-.4h-.1c-.1-.1-.1-.1-.1-.3h.2c0-.2 0-.2.1-.4-.1 0-.1 0-.2.1-.1-.1-.1-.1-.1-.2-.1 0-.1 0-.2-.1v-.3c-.1-.3-.1-.3-.3-.5-.1-.1-.1-.1-.2-.1l.1-.1v-.3l.1-.1-.2-.2v-.1l-.1.1H50c-.1-.3-.1-.3-.1-.6.1-.1.1-.1.3-.2-.2 0-.2 0-.3-.1-.1 0-.1 0-.2-.1v-.5c0-.1 0-.1.1-.2 0-.1 0-.1-.1-.1l-.1.1c0 .1 0 .1.1.2h-.2v.2h.1c0 .1 0 .1.1.2-.1.1-.1.1-.2.3-.1-.1-.1-.1-.2-.1v.3h-.2v-.1c0-.1 0-.1-.1-.1v-.1c-.1-.1-.1-.1-.3-.2l.2.2v.2l.1.1v.1h-.1c-.1 0-.1 0-.1.1v.1c-.1 0-.1 0-.1.1l.1.1c-.1.1-.1.1-.2.1-.1-.1-.1-.1-.2-.1l.1.1c-.2.1-.2.1-.3.3H48v-.2c0 .1 0 .1-.1.2-.1 0-.1 0-.1-.1v.2c-.2.1-.2.1-.3.1 0-.1 0-.1-.1-.1 0-.1 0-.1-.1-.2h-.2v.1c0 .1 0 .1-.1.1l-.1-.1v-.1c-.1 0-.1 0-.3-.1l-.2-.2h-.1l-.2-.4c0-.1 0-.1.1-.2h.2c.2.1.2.1.3.2 0-.1 0-.1-.1-.1.1-.1.1-.1.2-.1h-.1c-.1 0-.1 0-.2.1 0-.1 0-.1-.1-.2.1 0 .1 0 .1-.1v-.1h-.1c0-.1 0-.1.1-.1l-.1-.1v-.1l-.1.1v.1h-.1l-.1.1-.2-.2c0-.1 0-.1.1-.1s.1 0 .1-.1v.1c0-.1 0-.1.1-.1s.1 0 .2.1l.1-.1h.1v-.1h-.2V30l.1-.1.1-.1-.1-.1.2-.2c.1.1.1.1.1.2v-.2l.1-.1h.1v-.1c-.1 0-.1 0-.2.1h-.4v.2c-.1.1-.1.1-.1.2v-.2-.1l-.1-.1.1-.2.1-.1h-.1c-.1.1-.1.1-.2.3H46v-.1c.1 0 .1 0 .2-.1v-.1c.1-.1.1-.1.1-.2h-.4v-.1-.1h.1c.1 0 .1 0 .3-.1h.4l.1.1h.1c.1-.1.1-.1.1-.2h.1v.1l-.1.1h.3v-.2h.2l.1-.1-.1-.1v-.2h-.1v.2l-.1.1h-.1l.1-.1v-.1c-.1 0-.1 0-.2.1H47l-.1-.1-.2.2h-.4c-.1 0-.1 0-.1.1h-.3c0-.1 0-.1-.1-.1.1-.1.1-.1.2-.1h-.2c.1 0 .1 0 .2-.1.1 0 .1 0 .2-.1 0-.1 0-.1.1-.1-.2.1-.2.1-.4.1h-.1l.1-.1c-.1 0-.1 0-.2-.1.1 0 .1 0 .2-.1h.3c.1 0 .1 0 .1.1.1 0 .1 0 .1-.1h.2c.1-.1.1-.1.2-.1h-.4c-.1 0-.1 0-.1-.1h-.4v-.1-.1c.1 0 .1 0 .1.1h.1l.1-.1v-.1h.1c0 .1 0 .1.1.2h.2v-.1c-.1 0-.1 0-.1-.1s0-.1.1-.1h.2v-.1h.2c.1.1.1.1.1.2.1 0 .1 0 .1-.1v-.1l.1-.1c-.1 0-.1 0-.2-.1-.1 0-.1 0-.2-.1s-.1-.1-.2-.1c.1 0 .1 0 .3-.1l.1.1v-.1c.2.1.2.1.3.2l.4-.2h-.2c-.1 0-.1 0-.2.1.1 0 .1 0 .1-.1h-.3v-.2h.3l.1.1h.3c.1.1.1.1.1.2.2 0 .2 0 .3.1-.1 0-.1 0-.1-.1l-.2-.2v-.2l.1.1c.1 0 .1 0 .1.1l.1.1h.1l.1-.1h-.2c0-.1 0-.1-.1-.1h.2l.1-.1c-.1 0-.1 0-.2-.1H48.6c.1 0 .1 0 .2-.1l-.2-.2h.1c.1-.1.1-.1.2-.1.1.1.1.1.1.3l.1.1c0 .1 0 .1-.1.1h.1v-.1c-.1-.2-.1-.2 0-.2.1.1.1.1.3.2 0-.1 0-.1.1-.2-.1 0-.1 0-.1-.1.1-.1.1-.1.1-.2.1 0 .1 0 .1.1l.2-.2c-.1 0-.1 0-.3-.1.1-.1.1-.1.2-.1l.1-.1c.1-.1.1-.1.3-.2-.1 0-.1 0-.3.1 0 .1 0 .1-.1.2h-.2c-.1.1-.1.1-.2.3 0 .1 0 .1-.1.1h.1c-.2.2-.2.2-.5.3-.1-.1-.1-.1-.1-.2s0-.1.1-.1c-.1 0-.1 0-.2.1l.2-.2v-.2l.1-.1c0-.1 0-.1.1-.2h.2l-.1-.1c0-.1 0-.1.1-.2.1 0 .1 0 .2-.1v.2c.1-.1.1-.1.3-.2-.1 0-.1 0-.2-.1l.1-.1c.1 0 .1 0 .2-.1v-.1c.1 0 .1 0 .2-.1v-.1h.1c.2-.1.2-.1.3-.2 0-.1 0-.1.1-.1 0 0-.3.1-.2.1l-.1-.1.1-.1v-.1c.1 0 .1 0 .2.1v-.1c-.1 0-.1 0-.2-.1l.1-.1c.1 0 .1 0 .2.1 0-.1 0-.1-.1-.3.1 0 .1 0 .1-.1h.2l-.1-.1-.1-.1h-.2v-.1h.3v.1h.2v-.2h-.1l-.1-.1c-.1 0-.1 0-.2-.1.1-.1.1-.1.3-.1-.1 0-.1 0-.1-.1h.1v-.1h.1l-.1-.1h.2l-.2-.2c.1-.1.1-.1.3-.1h.1c.1 0 .1 0 .1-.1.1-.1.1-.1.3-.1.2.1.2.1.3.1-.1-.1-.1-.1-.1-.2-.1 0-.1 0-.1.1l-.1-.1c-.1 0-.1 0-.1.1 0-.1 0-.1-.1-.2h.2c0-.1 0-.1-.1-.1l.1-.1c.1.1.1.1.1.2h.2l-.1-.1v-.2c.1 0 .1 0 .1-.1-.1 0-.1 0-.1-.1l-.2.2c0-.1 0-.1.1-.2 0-.1 0-.1-.1-.1l.1-.1c.1 0 .1 0 .1.1l.1-.1.1.1.1-.1c0-.1 0-.1-.1-.1h-.3l-.1-.1c.1 0 .1 0 .2-.1v.1l.2-.2c0 .1 0 .1.1.2v.2c.1 0 .1 0 .1.1 0-.2 0-.2-.1-.3v-.1c0-.1 0-.1-.1-.1.1 0 .1 0 .1.1h.1c-.1 0-.1 0-.1-.1h.2l.1.1h.1c.1.1.1.1.1.2v-.1c0-.1 0-.1.1-.1v-.2l-.1-.1-.1.1h-.2c-.1 0-.1 0-.2.1-.1 0-.1 0-.1-.1l.1-.1h.2v-.1l.1-.1h.1v-.1c.1 0 .1 0 .1-.1h-.1c.1-.1.1-.1.2-.1-.1 0-.1 0-.2-.1.1-.1.1-.1.2-.1h.2v-.1c0-.1 0-.1-.1-.1 0-.1 0-.1.1-.2l.1.1v.1l.1.1v-.1-.1h.2c-.1 0-.1 0-.3-.1V19c.1 0 .1 0 .2-.1h.1v.2c.1 0 .1 0 .2.1v-.1c-.1 0-.1 0-.2-.1v-.1-.1c-.1 0-.1 0-.1-.1v-.1c.1 0 .1 0 .2-.1v.5c0-.1 0-.1.1-.1v-.2c.1-.1.1-.1.2-.3h.1v.2c.1 0 .1 0 .1.1s0 .1-.1.2c0 .1 0 .1-.1.1v.1l.2-.2.1-.1h.2l-.1-.1c-.1 0-.1 0-.1-.1l.1-.1.1-.1v.1h.1l.2-.2.2.2c.1 0 .1 0 .1.1v-.1c-.1 0-.1 0-.1-.1v-.1-.1h-.1c-.2-.1-.2-.1-.3-.1V18h.1l.1-.1.1.1c0-.1 0-.1.1-.1.1.1.1.1.3.2h.4c.1 0 .1 0 .1.1h.1v.1c.1 0 .1 0 .1.1h.1v-.1c-.1 0-.1 0-.1-.1v-.1-.1l.1-.1-.1-.1.2-.2c.1 0 .1 0 .1.1h.1v-.1c0-.1 0-.1.1-.1s.1 0 .1.1v-.1l-.2-.2v-.1c.1.1.1.1.2.1v-.2h.2c0 .1 0 .1.1.2v-.2l.1.1h.2c-.1.1-.1.1-.1.2l-.2.2V17.9c-.1.1-.1.1-.1.2h.1v.1l.2-.2v-.2l-.1-.1c.1-.1.1-.1.2-.3.1-.2.1-.2.2-.3h.1v.2c0 .1 0 .1-.1.1.1 0 .1 0 .2.1-.1.1-.1.1-.1.2l-.1.1h.1c.1 0 .1 0 .1-.1h.1l.1-.1-.1-.1h.1l-.1-.1v-.1-.1h.1v-.1h-.1V17l.1-.1.1.1v-.1c0-.1 0-.1-.1-.2l.1-.1c.1 0 .1 0 .1.1.1 0 .1 0 .1-.1v.2h.2l-.2.2c-.1 0-.1 0-.2-.1.1 0 .1 0 .1.1l.1.1h-.1v.1l.1-.1h.1v.1l-.2.2h.4c0 .1 0 .1.1.2l.1-.1c0-.1 0-.1-.1-.1 0-.1 0-.1-.1-.2h.1V17h.2l.1.1h-.1v.1h.2v.1l.2-.2c.1 0 .1 0 .3.1l-.2.2c.2 0 .2 0 .3-.1.1 0 .1 0 .2.1h.1c.1 0 .1 0 .1.1.1 0 .1 0 .1.1-.2.1-.2.1-.3.1l-.2.2h-.1v.1H59s-.4-.1-.5-.1l-.3-.1c.2.1.2.1.3.1.1 0 .1 0 .1.1h.2c0 .1 0 .1.1.1h.1v.2c.1 0 .1 0 .1-.1.1 0 .1 0 .1.1v-.2h.1v.2h.1v-.2c.1 0 .1 0 .2.1 0 .1 0 .1.1.1v-.1h.1v.1c0 .1 0 .1.1.2 0 0 .1-.2 0-.2h.1l.1-.1-.1-.1h.1V18c-.1 0-.1 0-.1-.1l.1-.1c.1.1.1.1.2.1 0 .1 0 .1.1.1h.2l.1.1h-.4l-.1-.1h-.1c0 .1 0 .1-.1.1 0 .1 0 .1.1.2l.1-.1h.1l.1.1h.4c.1 0 .1 0 .1-.1h.1c-.1 0-.1 0-.1.1.1 0 .1 0 .2.1l-.1.1v0c.1 0 .1 0 .2-.1v-.2h.2l.1-.1-.1-.1c.1 0 .1 0 .2.1 0 .1 0 .1.1.1.2 0 .2 0 .4.1v-.1h.2c.1.1.1.1.1.2v-.1c.4.2.4.2.7.3.6.4.6.4 1.2.9v-.2c.2.1.2.1.3.2.1.1.1.1.3.2 0-.1 0-.1-.1-.1v-.2l.1.1c0 .1 0 .1.1.2l.3.3.1.1h.2c.1.2.1.2.3.5h.2c0 .2 0 .2.1.4-.1.2-.1.2-.3.4l.1.1-.4.4h-.2c-.1 0-.1 0-.2.1h-.1c-.1 0-.1 0-.1.1-.4-.1-.4-.1-.9-.1-.2-.1-.2-.1-.3-.3l-.2.2c-.2-.1-.2-.1-.3-.1-.1 0-.1 0-.1.1-.1-.1-.1-.1-.1-.2-.1-.1-.1-.1-.3-.1h-.4v-.2h-.2l-.2-.2-.1.1c-.2-.1-.2-.1-.3-.2 0-.1 0-.1-.1-.2h-.4c.1 0 .1 0 .2.1v.1c.1.1.1.1.3.2.1 0 .1 0 .3.1l-.4.2h.4l.1-.1.2.2c-.1.1-.1.1-.3.2h.3l.1.1c.1 0 .1 0 .2-.1l.6.4v.5c-.1 0-.1 0-.1-.1l-.2.2h.2c.3.4.3.4.5.7 0 .1 0 .1-.1.2.2.1.2.1.4.3.1-.1.1-.1.2-.1.1.1.1.1.3.2v.2h.2l.1.1h.3l.2.2c.1-.1.1-.1.1-.2h.2c0-.2 0-.2-.1-.3-.1-.1-.1-.1-.2-.3-.1.1-.1.1-.3.1l-.3-.3c-.2-.1-.2-.1-.3-.2 0-.1 0-.1-.1-.2h.2c0-.2 0-.2-.1-.3.1 0 .1 0 .1-.1l.6.4c.2.1.2.1.3.1-.1 0-.1 0-.1.1.1 0 .1 0 .2.1.1 0 .1 0 .1-.1l.6.4c0-.1 0-.1.1-.1.1.1.1.1.3.1l-.2-.2.2-.2c-.3-.3-.3-.3-.5-.6v-.2c.1-.1.1-.1.3-.2.1-.2.1-.2.1-.3.1 0 .1 0 .3-.1.2-.3.2-.3.4-.5.1.1.1.1.3.2.2.1.2.1.4.1v.1c0 .1 0 .1.1.2v-.1l.1-.1c.1 0 .1 0 .2.1s.1.1.1.2c.1.1.1.1.1.2 0-.1 0-.1-.1-.1 0-.2 0-.2-.1-.3v-.4l.1-.1-.1-.1v-.1-.1l-.2-.2h-.2-.1c0-.3 0-.3-.1-.5v-.1-.1h.1c0-.1 0-.1-.1-.1-.1-.2-.1-.2-.1-.4-.3-.2-.3-.2-.5-.3 0-.1 0-.1-.1-.1h.1c.3.1.3.1.5.2h.6c.2.1.2.1.4.1v.1c.1.1.1.1.1.2h.2c.1.1.1.1.2.3v.2h-.1c-.1 0-.1 0-.1.1h-.2c-.1.1-.1.1-.1.2h-.1v.3c.1 0 .1 0 .2.1l.6.6c.2 0 .2 0 .3-.1 0 .1 0 .1.1.1.2-.1.2-.1.4-.1.1-.1.1-.1.1-.2v-.2-.2-.1c.2 0 .2 0 .4-.1.2.1.2.1.3.1l-.2-.2c-.1-.1-.1-.1-.1-.2.1 0 .1 0 .2.1.2-.2.2-.2.4-.3.1-.2.1-.2.2-.3.1 0 .1 0 .2.1.2-.1.2-.1.3-.2l.1.1c.1 0 .1 0 .1.1l-.1.1c0 .1 0 .1.1.1.1-.1.1-.1.2-.1l-.3-.3c.2-.1.2-.1.3-.2 0 .1 0 .1-.1.1l.2.2c.1 0 .1 0 .1-.1-.1-.1-.1-.1-.1-.2.1-.1.1-.1.3-.1h.3v.1h-.3l-.1.1c.1 0 .1 0 .1.1h.2c0 .1 0 .1.1.1l-.1.1c0 .1 0 .1.1.2h-.2c0 .1 0 .1-.1.1.1 0 .1 0 .2.1l.1-.1c.1 0 .1 0 .2.1l.2-.2.2.2c0-.1 0-.1-.1-.3v-.1h.2c.1-.1.1-.1.2-.1.1.1.1.1.2.1l.1-.1c.1 0 .1 0 .1.1h.3c.1-.1.1-.1.1-.2h.1c0-.1 0-.1.1-.1h.1c0-.1 0-.1.1-.1h.2l-.1.1h.1l.1.1c0 .1 0 .1-.1.2.1.1.1.1.1.2.1 0 .1 0 .3.1l.1-.1c-.1-.1-.1-.1-.2-.3l.1-.1c.1 0 .1 0 .1.1.1 0 .1 0 .2-.1v-.2c.1 0 .1 0 .1.1.1 0 .1 0 .1.1l-.2-.2c-.1 0-.1 0-.1-.1-.1-.2-.1-.2-.2-.3l-.1.1c-.1-.1-.1-.1-.2-.3l-.2-.2h.1c0-.1 0-.1-.1-.2v-.1c.1 0 .1 0 .1.1l.4.2h.4c.3.1.3.1.5.2l.6.4v.1c0 .1 0 .1.1.2v-.1c.1 0 .1 0 .2-.1l.1.1h.1v.1l.4.2c.2.1.2.1.5.2.1.1.1.1.2.3.2.1.2.1.3.1.1.1.1.1.2.3h.1v-.2l.1-.1-.1-.1v-.4l.1-.1h-.1l-.1-.1-.1.1c-.2-.2-.2-.2-.4-.5h-.1c-.1-.2-.1-.2-.1-.3l-.1.1-.4-.2c0 .1 0 .1-.1.1-.1-.3-.1-.3-.3-.6h.1c-.1-.1-.1-.1-.2-.3v-.2h.1l-.1-.1c-.1 0-.1 0-.2-.1s-.1-.1-.2-.3h-.1l-.2-.2v-.2l-.1-.1c.1-.2.1-.2.1-.3l.1-.1c-.1-.1-.1-.1-.1-.2s0-.1.1-.2l-.2-.2v-.1c-.1-.2-.1-.2-.1-.4l-.1-.1c-.1-.2-.1-.2-.1-.3v-.1c.1.1.1.1.2.1h-.1.7c.2.1.2.1.3.2.2.1.2.1.3.1l.1.1h-.1c.2.3.2.3.3.6v.3l.2.4h-.1v.1c.1.1.1.1.2.1 0 .1 0 .1.1.1.1.1.1.1.2.1.1.1.1.1.1.3l.2.2c.1.2.1.2.2.3 0 .1 0 .1.1.2s.1.1.1.2v.1c.1.1.1.1.2.3v.2l.2.2.1.1c.1.1.1.1.1.2.1.2.1.2.3.4.1 0 .1 0 .2.1.2.2.2.2.4.3v.1l-.1-.1v.3c.1.1.1.1.1.3l.1.1c0 .1 0 .1.1.2h-.1v.5l-.1.1c.1 0 .1 0 .2.1-.1 0-.1 0-.1.1s0 .1.1.2l-.1.1-.1-.1c.1.1.1.1.1.2v.1c-.1 0-.1 0-.1.1-.1 0-.1 0-.2-.1l-.1-.1h.1v-.1h-.1c-.1-.1-.1-.1-.3-.2v.1c-.2 0-.2 0-.5-.1-.1 0-.1 0-.2.1.1 0 .1 0 .2.1.1 0 .1 0 .1-.1.1.1.1.1.1.2l.2.2.4.2h.4l.2.2.1-.1c.8 0 .8 0 .8-.2 0-.1 0-.1.1-.1.1-.1.1-.1.1-.2v-.3c0-.1 0-.1-.1-.1v-.2c0-.2 0-.2.1-.4l-.2-.4c-.2-.2-.2-.2-.4-.3-.1-.2-.1-.2-.1-.4.1-.1.1-.1.1-.2h.2l.1-.1h.2c.1.1.1.1.2.1 0 .1 0 .1.1.2l.2.2.2.2-.1.1.1.1c.1.2.1.2.2.3v.1l.1.1h.1l.2.2h.1v-.1h.2l.1-.1h-.1l-.1-.1-.1.1h-.1l-.1-.1h-.1l-.1-.1v-.1c-.1-.2-.1-.2-.2-.3.1 0 .1 0 .1-.1l-.1-.2h-.1c-.1-.2-.1-.2-.3-.4-.2-.1-.2-.1-.3-.2l-.1-.1H82l-.2-.2H81.5v.1l-.1.1c-.1 0-.1 0-.2-.1H81c0 .1 0 .1-.1 0 0-.1 0-.1-.1-.3-.1-.2-.1-.2-.3-.4 0-.1 0-.1-.1-.2l-.2-.2v-.4c-.1-.1-.1-.1-.1-.3-.1 0-.1 0-.3-.2 0-.1 0-.1-.1-.1-.2-.2-.2-.2-.5-.4v-.2-.2l-.2-.2c.1 0 .1 0 .1-.1.1-.1.1-.1.1-.3-.2-.3-.2-.3-.5-.7.1 0 .1 0 .2.1 0 .1 0 .1.1.2l.1.1v.1l.2.2c0 .1 0 .1.1.2l.1.1v.1l.3.3v.1l.1.1v.1l.4.2c.1 0 .1 0 .2.1l.2.2v-.1h.3l.2.2c.1 0 .1 0 .3.1h.2c-.1-.1-.1-.1-.3-.1-.1-.1-.1-.1-.2-.3h-.1l-.1-.1h-.3c-.1-.1-.1-.1-.2-.1h-.1l-.3-.3v-.1c-.1-.1-.1-.1-.2-.3l.1-.1c.1 0 .1 0 .1.1l.3.3h.2c-.1-.1-.1-.1-.1-.2-.1-.1-.1-.1-.3-.2l-.1.1-.1-.1h.1v-.1c0-.1 0-.1.1-.1.2.1.2.1.5.2.1.1.1.1.3.2.1 0 .1 0 .3.1l.1.1.3.3c.2.1.2.1.4.1h.2c.1 0 .1 0 .2.1v.1c.1.1.1.1.1.2h-.2l.2.4c.1.2.1.2.3.3l-.1.1.1.1c.1.1.1.1.1.2 0-.1 0-.1.1-.1-.1-.1-.1-.1-.1-.2v-.1h.1v-.2l.1.1c.1.2.1.2.2.3V19.2l.1.1c.2 0 .2 0 .3.1l.2.2v.1l.3.2.2.2h.1c0-.1 0-.1-.1-.1s-.1 0-.1-.1c-.1-.1-.1-.1-.2-.1l-.3-.3c-.1 0-.1 0-.2-.1l-.2-.2.1.1.1-.1v-.1l-.2-.2c-.1-.2-.1-.2-.2-.3l-.3-.3c-.1-.1-.1-.1-.1-.3 0-.1 0-.1-.1-.3l-.3-.3c-.2-.1-.2-.1-.3-.1l-.1-.1-.2-.2v-.1l-.1-.1v-.1h-.1c-.2-.1-.2-.1-.4-.1-.1-.1-.1-.1-.2-.1l-.1-.1-.1-.1c-.1-.1-.1-.1-.1-.3l-.3-.3-.2-.2v-.1l-.1-.1c0-.1 0-.1-.1-.2.1 0 .1 0 .2.1l.1-.1h.6c.1 0 .1 0 .2-.1.1.1.1.1.2.1h.1V15h.4v.1l.1.1-.1.1v.1l.3.3c.1 0 .1 0 .1.1l-.1-.1-.2-.2-.1-.1h.2v-.1c0-.1 0-.1-.1-.1h-.1c-.1-.1-.1-.1-.2-.1V15c-.1 0-.1 0-.2-.1l-.2-.2h-.2l-.1-.1-.1-.1h.1l.1.1c.1 0 .1 0 .1-.1-.1 0-.1 0-.1-.1l-.1-.1-.1-.1-.1-.1h-.1l-.1-.1v-.1c0-.1 0-.1-.1-.1h.1c.1.1.1.1.1.2l.1.1.1.1v-.1-.1l-.1-.1h.1c-.1 0-.1 0-.2-.1l-.1-.1v-.1c.1.1.1.1.3.1l-.1-.1v-.1l.1-.1.1.1-.1-.1h.2c.1 0 .1 0 .2.1l-.1-.1c.1.1.1.1.3.1v-.1h.2l-.1-.1h-.1l-.1-.1c-.1-.1-.1-.1-.1-.2l-.1-.1.1.1-.1-.1c.1 0 .1 0 .2.1h.1l.1.1h.2l.1.1c0 .1 0 .1.1.2l.1.1v-.1-.1l.2.2v-.1-.1l.1.1h.1l-.1-.1.1.1-.1-.1c.1.1.1.1.2.1.1.1.1.1.2.1.1.1.1.1.1.2v.1h.1v-.1l-.2-.2-.1-.1h-.1-.1l-.2-.2c.1 0 .1 0 .1.1h.1l.1.1.1.1h.1l.1.1c.1.1.1.1.2.1-.1-.1-.1-.1-.2-.1l-.1-.1h-.1l-.1-.1-.1-.1h.1l-.1-.1c-.5-.3-.5-.3-.5-.4l-.1-.1-.2-.2.1.1-.2-.2-.2-.2h.1l-.1-.1-.1-.1-.1-.1.1.1.2.2.1.1.1.1h.1l.1.1.1.1c.1.1.1.1.1.2H82l.1.1.1.1.1.1h.1l.1.1.1.1.2.2.1.1.1.1.2.2.1.1.1.1h.1l-.1-.1c-.9-.9-1.9-1.7-2.9-2.5l.1.1.1.1h-.1l.1.1h-.1l-.1-.1-.1-.1c-.1 0-.1 0-.1-.1l.1.1h-.1v.1l-.1-.1-.1-.1-.1-.1-.2-.2-.1-.1-.1-.1-.2-.2-.1-.1.1.1c-.1-.1-.1-.1-.2-.1l-.2-.2-.1-.1-.1-.1-.1-.1c.1.1.1.1.2.1l.1.1c-.1-.1-.1-.1-.2-.1l.1.1.1.1.1.1.2.2.1.1-.1-.1c-.1-.1-.1-.1-.2-.1l.2.2.1.1.1.1C71.3 4.1 60.9.3 49.7.3c-8.9 0-17.3 2.4-24.5 6.6l-.1.1c.1-.1.1-.1.2-.1h.1c.1 0 .1 0 .1-.1l-.1.1c-.1.1-.1.1-.2.1H25l-.1.1c-.1.1-.1.1-.2.1-.1.1-.1.1-.3.2.1-.1.1-.1.3-.1.1-.1.1-.1.3-.1h.1l.1-.1h.1l.1-.1c.1 0 .1 0 .2-.1h.1l-.1.1.1-.1h.1c-.1 0-.1 0-.1.1l-.1.1h.1c.1 0 .1 0 .1-.1h.1l-.1.1c-.1 0-.1 0-.1.1v.1c-.2.1-.2.1-.3.2l-.1.1h.1l.1-.1c.1-.1.1-.1.2-.1v.1c-.1-.5-.1-.5-.3-.3l-.1.1c-.1 0-.1 0-.2.1H25l-.1.1c-.2.1-.2.1-.3.2-.1.1-.1.1-.2.1-.2.1-.2.1-.3.2H24h-.1c-.1 0-.1 0-.2.1s-.1.1-.2.1h-.1l-.1.1-.1.1h-.1.1c-.1 0-.1 0-.2.1h.1c.1 0 .1 0 .2-.1h.1c-.3.2-.3.2-.7.4l-.4.2-.1.1c-.1 0-.1 0-.2.1l.3-.3c.4-.2.4-.2.9-.4l.1-.1c.1 0 .1 0 .2-.1s.1-.1.3-.2l-.2.2c-.2.1-.2.1-.3.2l-.1.1-.1.1c-.1 0-.1 0-.1.1-.1.1-.1.1-.2.1s-.1 0-.2.1c-.1 0-.1 0-.1.1l-.1.1c-.1 0-.1 0-.2.1h-.3c-.1 0-.1 0-.1.1-.2.1-.2.1-.3.2l-.1.1c-.1.1-.1.1-.2.1s-.1 0-.2.1l-.1.1.1-.1-.1.1-.1.1h.1c-.1.1-.1.1-.2.1h-.1l-.1.1-.1.1.1-.1c-.1.1-.1.1-.2.1l-.1.1c.1 0 .1 0 .1-.1.1 0 .1 0 .2-.1l-.1.1c-.1 0-.1 0-.1.1l-.1.1.1-.1-.2.2c-.1.1-.1.1-.3.2h-.1l.1-.1c-.1 0-.1 0-.1.1l.1-.1c-.2.1-.2.1-.3.2l.1-.1h.1l-.1.1-.1.1h-.1l-.1.1-.1.1-.1.1-.1.1.1-.1v.1l-.1.1c-.1 0-.1 0-.2.1l.1-.1-.1.1-.1.1h.1l.1-.1h.1l.1-.1c.1 0 .1 0 .2-.1l-.1.1-.1.1-.1.1h-.1-.2c-.1 0-.1 0-.2.1h-.1l-.1.1c.1 0 .1 0 .2-.1.1 0 .1 0 .1-.1l-.1.1h-.1c-.1.1-.1.1-.2.1l-.1.1c-.1 0-.1 0-.1.1h.1l.1-.1.1-.1.1-.1-.1.1h.2l-.1.1-.1.1c-.3.1-.3.1-.3.2l-.1.1h-.1l-.1.1.1-.1h.1l-.1.1-.1.1-.1.1h-.1l-.1.1-.1.1h.1l.1-.1-.2.2-.1.1-.1.1v-.1c-.1 0-.1 0-.2.1l-.1.1-.1.1-.1.1-.1.1-.1.1-.1.1-.1.1-.1.1.1-.1H16l-.1.1h-.1c-.1.1-.1.1-.2.1l.1-.1.1-.1-.1.1-.1.1-.1.1-.1.1-.1.1-.1.1.1-.1.1-.1-.1.1.2-.2c.1-.1.1-.1.2-.1v.1l-.2.2-.1.1.1-.1-.2.2.2-.2.1-.1-.1.1-.3.3-.1.1-.1.1.1-.1.1-.1-.1.1-.1.1-.1.1-.2.2-.1.1.1-.1v-.1l-.1.1h-.1l.1-.1.1-.1-.1.1.1-.1.1-.1-.1.1-.1.1-.1.1-.1.1-.1.1-.1.1v-.1l.1-.1.1-.1.1-.1-.1.1-.1.1-.1.1-.1.1.1-.1.1-.1.1-.1-.2.2-.1.1.1-.1-.1.1v.1l-.1.1-.2.2-.1.1c-.3.3-.5.5-.7.8v.1h-.2l.1-.1.1-.1.1-.1.1-.1.1-.1h.1l.1-.1.1-.1.1-.1.1-.1h.1l-.1.1c.1-.1.1-.1.2-.1v.1l-.1.1-.1.1.1-.1-.1.1-.1.1-.1.1h-.1l-.1.1h-.1l-.1.1v.1l.1-.1.1-.1-.1.1v.1h-.1v-.1l-.1.1v.1l-.1.1-.1.1h-.1l-.1.1.3.1-.1.1-.1.1.1-.1-.1.1h-.1l.1-.1c.1-.1.1-.1.1-.2l.1-.1-.1.1-.1.1-.1.1-.1.1-.1.1.1-.1-.1.1-.1.1-.1.1.1-.1.1-.1-.1.1-.1.1-.1.1-.1.1.1-.1-.1.1-.1.1.1-.1-.1.1-.1.1.1-.1-.1.1-.1.1-.1.1.1-.1.2-.2c-1.4 1.7-2.7 3.4-3.8 5.2l-.1.1c-.1.2-.3.4-.4.6l-.1.1.1-.1.1-.1-.1.1.1-.1-.1.1c0-.1 0-.1 0 0v.2c0 .1 0 .1-.1.2l-.1.1-.1.1-.1.1-.1.1-.1.1.1-.1c0-.1 0-.1.1-.2l.1-.1.1-.1c.1-.1.1-.1.1-.2l.2-.2c0-.1 0-.1.1-.2v.4c0 .1 0 .1-.1.2 0 .1 0 .1-.1.2s-.1.1-.1.2l-.1.1-.1.1-.1.1-.2.4c0 .1 0 .1-.1.3l-.1.1c0-.1 0-.1.1-.1l.1-.1v0c.1-.1.1-.1.1-.2.1-.1.1-.1.2-.3.1-.2.1-.2.3-.4l.2-.4.1-.1v-.1 0h.1l.1-.1h.1v-.1h.1V24v-.1l.1-.1.1-.1v-.1-.1l.1-.1.1-.1v.1l.1-.1v.1H9l.1-.1c.1 0 .1 0 .1-.1l-.1.1-.1.1h-.1v.1l-.1.1.1-.1H9c-.1.1-.1.1-.1.2l-.1.1-.1.1-.1.1.1-.1-.1.1v.1l-.2.2-.1.1v-.1.1l-.1.1h.1l-.1.1v.1c-.1.1-.1.1-.1.2v.4l-.1.1v-.1.1h-.1l-.1.1c0 .1 0 .1-.1.2l-.1.1c-.1.2-.1.2-.2.3l-.1.1c-.1.1-.1.1-.1.2l-.1.1.1-.1.1-.1v-.1-.3l-.1.1c0-.1 0-.1.1-.2l-.1.1-.1.1v.1l.1-.1v.2l-.1.1v.1c0 .1 0 .1-.1.2v-.1-.1l-.1.1v.1l-.1.1-.1.1c0-.1 0-.1.1-.1l.1-.1v-.1c-.1.1-.1.1-.1.2v-.1l-.1.1v.1l-.1.1v.1c0 .1 0 .1-.1.2s-.1.1-.2.3c-.1.1-.1.1-.1.2l-.1.1-.1.1-.1.1c-.1 0-.1 0-.1.1V28v-.1-.1-.2c.2-.2.2-.2.1-.2v-.1l-.1.1v.1h.1c-.1.2-.1.2-.1.5l.1-.1.1-.1v.2c0 .1 0 .1-.1.1 0 .1 0 .1-.1.2v.1c-.1.3-.1.3-.3.5l-.1.1v-.1.1h-.1c0-.1 0-.1.1-.2l-.1.1v.1l-.1.1V29v-.1c0 .1 0 .1-.1.2v.1c-.1.3-.1.3-.2.5v-.1c-.1.1-.1.1-.1.2s0 .1-.1.1v-.1-.1-.1-.1c0 .1 0 .1-.1.1v.6l.1-.1c0-.1 0-.1.1-.2l-.1.1v.1c-.1.1-.1.1-.1.3 0 .1 0 .1-.1.2v-.1-.1-.1c0-.1 0-.1.1-.2 0 .1 0 .1-.1.2v.1l-.1.1V30.8c0 .1 0 .1-.1.1v.1c0 .1 0 .1-.1.1V31v.1l-.1.1v.4l-.1.1v.1c0 .1 0 .1-.1.1V32.2c-.2.6-.4 1.3-.6 1.9l.1-.1v.2c-.1.2-.1.2-.1.4 0 .1 0 .1-.1.2 0 .1 0 .1-.1.2-.1.2-.1.2-.2.5 0-.1 0-.1.1-.2v.1c.1-.1.1-.1.1-.2v-.1.2h.1V35.9c0 .1 0 .1-.1.2 0-.1 0-.1.1-.1 0 .1 0 .1.1.2v.4c0 .1 0 .1-.1.2.1-.1.1-.1.1-.2v0h.1v0c0 .1 0 .1.1.1v0h.1c0 .1 0 .1-.1.3v.2c0 .1 0 .1-.1.2v.4c0 .1 0 .1-.1.3v.2l-.1.1c0 .1 0 .1-.1.2v.5c0 .1 0 .1-.1.2.1 0 .1 0 .1-.1l.1.1v.6c0 .1 0 .1-.1.2l.1-.1c0-.1 0-.1.1-.2v0l.1-.1c0-.1 0-.1.1-.1v.5h.1l-.1-.1v-.2-.1-.2-.1-.2.1c0-.1 0-.1.1-.3l.1-.1h-.1v-.2-.1-.1c-.2.5-.2.5-.1.4v-.1-.1c0-.1 0-.1.1-.3v-.2c0-.1 0-.1.1-.3h.1c0-.1 0-.1-.1-.1h.1v-.1-.1-.1-.3-.1c.1 0 .1 0 .2-.1v-.1h.1c0-.1 0-.1.1-.1.1-.1.1-.1.2-.3l.2-.2v-.1l.1-.1c.1-.1.1-.1.1-.3v.1h.1l-.1-.1v-.1.1c0-.1 0-.1.1-.2 0-.1 0-.1.1-.3 0-.2 0-.2.1-.4v-.1c-.1-.4-.1-.4 0-.7 0-.2 0-.2-.1-.3 0-.1 0-.1.1-.1l-.1.1v-.1c0-.1 0-.1.1-.3.1-.2.1-.2.2-.3l.1-.1v-.1-.1c0-.1 0-.1.1-.2v0h.1v-.1c0-.1 0-.1.1-.1h-.1v-.1c.1-.1.1-.1.1-.2V32v-.1h.1v-.1h-.1v-.1c0-.1 0-.1.1-.2l.1-.1h-.2c.1-.1.1-.1.1-.2.2-.1.2-.1.3-.2 0-.1 0-.1.1-.1l.1-.1v-.1-.1-.2c0-.1 0-.1.1-.1 0-.1 0-.1.1-.2l.1-.1c0-.1 0-.1.1-.1 0-.1 0-.1.1-.1h.1c.1.1.1.1.1.2h.1l-.1.1c.1-.1.1-.1.2-.1v-.1l.1.1c0-.1 0-.1.1-.2h.1l.1-.1.1-.1c0 .1 0 .1.1.1v.2h.1v.2l-.1.1v.1l.1-.1V30.5c-.1 0-.1 0-.1.1h.1l.1-.1v.3h-.1l-.1.1V31.2l.1-.1c0 .1 0 .1.1.1v.1l.1-.1v0c0 .1 0 .1-.1.2v.1c.1-.1.1-.1.1-.2v-.1l.1-.1v.2c-.2-.4-.2-.4-.2-.3l-.1.1v.1l-.1.1v.1c0 .1 0 .1-.1.3v-.1.2h-.1c-.1 0-.1 0-.2-.1l-.2.2h.3c.1.1.1.1.3.1v.2c0 .1 0 .1-.1.2v.1l-.1.1c.1-.1.1-.1.2-.1v.2h.1c0 .1 0 .1-.1.2v-.1c-.1.1-.1.1-.1.2v-.1-.1c0 .1 0 .1-.1.2-.5 0-.5 0-.5.1h.2l-.1.1v.1c.1-.3.1-.3.2-.4h.1c0 .1 0 .1.1.1v.2c-.1.1-.1.1-.1.2s0 .1-.1.2l-.2.2c.1 0 .1 0 .1-.1l.1-.1c.1-.3.1-.3.2-.5l.1-.1c0 .1 0 .1-.1.2v.1c-.1.1-.1.1-.1.2.1-.2.1-.2.1-.3 0 .2 0 .2-.1.4 0 .1 0 .1-.1.2v0c.1-.1.1-.1.1-.2v-.1-.1l.1-.1c.1-.1.1-.1.1-.2v.1l.1-.1h.1v-.2l.2-.2V33c-.1.1-.1.1-.1.2.1-.1.1-.1.1-.2v-.2-.1 0l.1-.1v-.1-.1l.1-.1v-.1c0 .1 0 .1.1.1v-.2 0c-.1 0-.1 0-.1-.1.1-.1.1-.1.1-.2v-.1c.1-.2.1-.2.2-.3v-.1c0-.1 0-.1.1-.1V31c0 .1 0 .1.1.1v.1l-.1.1v.1c-.1 0-.1 0-.1.1h.1l-.1.1h.1c-.1.1-.1.1-.1.2s0 .1.1.1v.2c-.1 0-.1 0-.1.1v.1c0-.1 0-.1.1-.1V32.5h-.2v.1l.1-.1c.1 0 .1 0 .2-.1-.1.1-.1.1-.1.2l.1-.1v.2c.4.3.4.3.4.4 0-.1 0-.1-.1-.1v.1c0 .1 0 .1-.1.2 0-.1 0-.1.1-.2h.1c.1-.1.1-.1.2-.1v.1c-.1.1-.1.1-.2.3h-.1l-.2.2.2-.2c.1 0 .1 0 .2-.1v.1l-.1.1c0 .1 0 .1.1.1v-.1c.1 0 .1 0 .2.1-.1 0-.1 0-.1.1s0 .1.1.2l-.1.1-.1.1c0-.1 0-.1-.1-.1 0 .1 0 .1.1.1h.1c.1 0 .1 0 .1.1s0 .1-.1.2h.2c-.1.1-.1.1-.2.3h-.1v.1l-.1.1c0-.1 0-.1-.1-.1H9l-.1.1H9V35.2l-.1.1h-.1.2v-.1c.1 0 .1 0 .1-.1v.4l.1-.1v.1c0 .1 0 .1-.1.3l.2-.4v.4c0 .2 0 .2-.1.4 0 .1 0 .1-.1.2.1-.1.1-.1.1-.2l.1-.1c-.1.1-.1.1-.1.2v.1c.1-.1.1-.1.2-.3l.2-.2v.2l-.1.1c.1 0 .1 0 .1-.1v.1c-.2.2-.2.2-.3.5l.3-.3.1-.1V36.6h.2c.1 0 .1 0 .1-.1h.1v.1c.1.1.1.1.2.1v.1h-.1v.1c-.1 0-.1 0-.2.1h-.1l-.2.2c-.1 0-.1 0-.3.1-.1.1-.1.1-.2.1h.1v-.1h.1l-.1.1c-.1.1-.1.1-.1.2v-.1h-.1c-.1 0-.1 0-.1.1s0 .1-.1.2c0-.1 0-.1-.1-.1 0 .1 0 .1.1.2l-.1.1v.1c.1 0 .1 0 .2-.1 0-.1 0-.1.1-.2h.2c0-.1 0-.1.1-.1l.1-.1c.1-.1.1-.1.1-.2l.2-.2h.2-.1.3c0 .1 0 .1.1.3 0 .1 0 .1-.1.2-.1 0-.1 0-.1.1-.1-.3-.1-.3-.1-.2.1 0 .1 0 .2-.1v0c.1-.1.1-.1.1-.2h.1v.1h.2v0h-.1v.2l.1.1-.1.1h-.1v.1h.1v.1h-.1v.1l-.1.1h-.1l.1.1h.1c0 .1 0 .1.1.1v.1h-.1c-.1 0-.1 0-.1-.1v.1h.1l.1.1c0 .1 0 .1-.1.2h-.1v.1l-.1.1h-.1c-.2.2-.2.2-.3.4l-.1-.1h-.2l-.1.1c0-.1 0-.1-.1-.1 0 .1 0 .1-.1.1s-.1 0-.1.1c-.1.1-.1.1-.1.2h-.1c0 .2 0 .2-.1.3l-.1-.1c-.1.1-.1.1-.2.3-.1 0-.1 0-.1.1v.1c-.1 0-.1 0-.1.1h-.1l-.1.1H8c0 .1 0 .1-.1.2h-.1v-.1c-.1 0-.1 0-.2.1 0-.1 0-.1-.1-.1s-.1 0-.1.1c0-.1 0-.1-.1-.2l-.2.2c0-.1 0-.1-.1-.1l-.1.1h-.1c0-.1 0-.1-.1-.1v.1h-.1c0-.1 0-.1-.1-.1-.1.1-.1.1-.2.1-.1-.1-.1-.1-.1-.2 0 .1 0 .1-.1.2v.1H6c0 .1 0 .1-.1.2 0 .2 0 .2-.1.4-.1 0-.1 0-.1.1h-.1l-.1.2v-.1c-.1.1-.1.1-.1.2h-.1l-.2.4c-.1.1-.1.1-.1.2s0 .1-.1.2v.1c0 .1 0 .1-.1.2h-.1v.2c-.1.2-.1.2-.2.3 0 .1 0 .1-.1.2l-.1.1c.1 0 .1 0 .1-.1.1-.2.1-.2.3-.3.1-.2.1-.2.2-.3L5 43l.2-.4c.2-.2.2-.2.4-.5 0-.1 0-.1.3-.2.2-.1.2-.1.3-.1h.2c.1.1.1.1.1.2s0 .1.1.1v.4h-.1c-.1.2-.1.2-.3.3h-.1c-.1-.1-.1-.1-.1-.2-.1 0-.1 0-.1.1h-.1c-.1 0-.1 0-.1.1H6v.3l.2-.2h.2c-.1.3-.1.3-.2.5-.1 0-.1 0-.1.1h.1V44.1c0 .1 0 .1.1.1.1.1.1.1.2.1v.1l-.1.1c0 .1 0 .1.1.1h.4l.2-.2v.2h.1l.1.1-.1.1c.1.1.1.1.2.1h-.2l-.3.3-.4.2-.2.2h-.1-.1c-.1 0-.1 0-.1.1v.2c0-.1 0-.1-.1.1h-.1v.1h-.1v.1h-.1v-.1-.1h-.1v-.2-.1c0-.2 0-.2.1-.3h.1v-.1l.2-.2H6c.1-.1.1-.1.1-.2 0 .1 0 .1.1 0 0 .1 0 .1.1.1s.1 0 .2-.1h-.2l-.1-.1-.1.1H6l.1-.1c.1-.1.1-.1.1-.2l-.1.1v-.1.1l-.2.3h-.1l-.1.1h-.1l-.1.1-.1-.1V45v.1h-.1-.1l-.1.1v-.1H5l-.1-.1.1.1.1.1v.1l-.1.1h-.1l-.1.1c.2.1.2.1.1.2v-.1h-.1c0 .1 0 .1-.1.1h-.1v-.2c-.1.2-.1.2-.1.4l-.1.1v-.1.1h-.1v.2c-.1.1-.1.1-.1.2s0 .1-.1.3v.2l.1.1-.3.3c0 .1 0 .1.1.2v.2h.1l.1-.1v-.1h.1v.2l-.1.1-.1.1v-.1.1L4 48v-.2-.1V48h-.1-.1-.1-.1c0 .1 0 .1-.1.1h-.1l-.2.2v1c0 .1 0 .1-.1.2v-.1c0-.1 0-.1-.1-.2 0-.1 0-.1.1-.3 0 .1 0 .1-.1.3v.3c0 .1 0 .1.1.3v.3c-.1.3-.1.3-.1.6 0 .1 0 .1-.1.2v-.1c0-.2 0-.2.1-.5v-.1c0-.1 0-.1-.1-.2v-.1-.2-.1-.1l.1-.1v-.2c0 .2 0 .2-.1.2v.8c0-.1 0-.1-.1-.2h-.6v-.2.2h.1c0 .1 0 .1.1.2v.1c0 .1 0 .1.1.3v-.1.1c.1 0 .1 0 .1.1V51.4h-.1V51.7l.1-.1.1-.1v.1c0 .1 0 .1-.1.2v-.1.1l-.1-.1v.2c0 .1 0 .1-.1.1l-.1-.1v.1l.1-.1v.2h-.1c-.2.9-.2.9-.3 1.1 0 .1 0 .1-.1.3h-.1c0 .1 0 .1-.1.3V54.1c0 .1 0 .1-.1.1v1.1c0 .3 0 .3.1.6 0 .2 0 .2.1.5V56.7c0 .2 0 .2.1.5V57.8c0-.1 0-.1-.1-.2v-.1-.1.1c0-.1 0-.1-.1-.2v-.2-.1-.2-.3-.1-.1-.1-.1-.1-.2-.1-.1V55.8c.3 2.9.9 5.8 1.7 8.6v.1c0 .1 0 .1.1.2v.2c0 .1 0 .1.1.2v.2l.9 2.7.1.1V68v-.1l.1.1.1.1c.1.1.1.1.2.3.1.2.1.2.2.3v.2l.1.1v-.1-.1c-.9-.8-.9-.8-1-.9v-.3l.1.1c0-.1 0-.1-.1-.2v-.1c0-.1 0-.1-.1-.3V67v-.1-.1c0 .1 0 .1.1.2v-.1-.1c.1.1.1.1.2.1l.1-.1h.1v-.2l.1.1v-.1h.1v-.1c0 .3 0 .3.1.5v.2h-.1v.1c0 .1 0 .1.1.2 0 .1 0 .1.1.2v.4c.1.1.1.1.1.2s0 .1.1.2h.1v-.2c-.1-.2-.1-.2-.2-.5 0-.1 0-.1-.1-.2v-.1H5.4l-.1-.1h-.1c0-.1 0-.1-.1-.2 0-.1 0-.1.1-.2l.1.1c0 .1 0 .1.1.2s.1.1.1.2h.1c.1.1.1.1.2.1.1.1.1.1.1.3v.1c.1.1.1.1.1.3h.3l.2.2v.1l.2.2c.1.1.1.1.2.1v-.1c.1 0 .1 0 .1-.1l.1.1c.1 0 .1 0 .1-.1l.1.1h.1l.1.1h.1c-.1 0-.1 0-.1.1l-.1-.1h-.1c.2.1.2.1.2.2s0 .1.1.2v-.1h.1l.1.1h.1c.1.3.1.3.3.5v.2l-.1.1v.1H8l.1.1c.1 0 .1 0 .1.1 0-.1 0-.1.1-.1l.4.4v.1l.4.4c.1.1.1.1.1.2V71.7l.1-.1h.1c.1.2.1.2.3.4l.1.1c0 .1 0 .1.1.2H10.2l.2.2.1-.1c.1 0 .1 0 .1.1h.1l.4.2c0 .1 0 .1.1.1v.1h.2l.2.2c.1 0 .1 0 .2.1l.2.2.1.1c0 .1 0 .1.1.2l.1.1v-.1l.1.1c.1.1.1.1.1.3 0-.1 0-.1-.1-.2l.1.1c0 .1 0 .1.1.2.1.2.1.2.1.4.1.2.1.2.2.3.2.2.2.2.3.4 0 .1 0 .1.1.2v.1c0-.1 0-.1-.1-.2v.1l.1.1.2.2v.1h-.1l.1.1h-.1v.1c-.1.1-.1.1-.1.2v.1h-.1c-.1 0-.1 0-.2.1v.2c-.1 0-.1 0-.1.1s0 .1.1.2v-.2l.1-.1V76.9c0-.1 0-.1.1-.2h.1v0l.1.1c0-.1 0-.1-.1-.2 0-.1 0-.1.1-.2.1.1.1.1.3.1.1 0 .1 0 .2.1h.2l.1.1h.2l.1.1-.1.1v.1c0 .1 0 .1-.1.1-.1-.1-.1-.1-.2-.1l.1.1v.1c-.1 0-.1 0-.1.1l-.1-.1c0 .1 0 .1-.1.1l-.1-.1c-.2 0-.2 0-.3-.1l.1.1h.1l.1.1h.2v.4c-.1 0-.1 0-.1.1l.2.4c-.1-.2-.1-.2-.1-.4l.1-.1v-.3c.1 0 .1 0 .1-.1h.1c0-.1 0-.1.1-.1v-.1h.2v.1h.1l.1.1v-.1c.1.1.1.1.3.2h.1v.1h.1l.1-.1.1.1h.1v0c.1.1.1.1.1.3 0-.1 0-.1.1-.1l.1.1h.1v.1h.1v.1l.1.1-.1.1h.1l.1.1c-.1 0-.1 0-.1.1v.2l.1-.1c0-.1 0-.1-.1-.1h.1l.1.1v-.1h.1v-.1l.1.1-.1-.1h.1c.2.2.2.2.4.3h.1c.1.1.1.1.2.1v-.1l.1.1v-.1l.1.1v-.1c.5.4.5.4.6.5h.1c.1 0 .1 0 .2.1h.2l.1.1h.1c.2.1.2.1.3.3.1 0 .1 0 .2.1l.7.7c.2.1.2.1.3.2l.1.1c.1 0 .1 0 .2.1l.1.1v.1l.1-.1h.1l.1.1h.1l.1.1h.1l.2.2c0 .1 0 .1.1.2l.2.4c0 .1 0 .1.1.2h.1c0 .1 0 .1.1.2-.1.1-.1.1-.1.2l.1.1c-.1.2-.1.2-.1.4-.2.3-.2.3-.4.5h-.1v.1c-.1 0-.1 0-.3.1v.3h-.1v.3c-.1.1-.1.1-.1.2h-.2v-.1h.1l-.2-.2v.1l-.1-.1c0 .1 0 .1.1.2h-.1v.1h.1v.1l.1.1h-.1l.1.1h.1v.1c.2.3.2.3.3.7 0 .1 0 .1.1.3 0 .1 0 .1.1.1v.1c.1.1.1.1.2.3-.1 0-.1 0-.1.1v.1c-.1 0-.1 0-.1.1l.2.4-.1.1c0 .1 0 .1-.1.2v.1h-.1v.1h-.1v.1l.2.2v.1H21.1l.1.1h-.1c-.1-.1-.1-.1-.2-.1-.1-.1-.1-.1-.3-.1h.1l-.1-.1-.1.1h-.1l-.1-.1.1.1h-.2l.1.1-.1-.1h-.1v.1l-.1-.4h-.2l-.1-.1c-.1 0-.1 0-.3.1h-.1l-.1-.1v.1l.1.1h-.1l.1.1.1.1-.1-.1.2.2.1.1.1.1v.1l.1.1.1.1.1.1-.1-.1.1.1.1.1H20v.1h-.1l.1.1v.1c8.3 6.3 18.5 10.1 29.7 10.1 21.3 0 39.4-13.5 46.2-32.5 0-.2 0-.2-.1-.1zM66.7 54.2h.2V54h.1c.1 0 .1 0 .2.1.3-.1.3-.1.7-.3h.1c-.2.2-.2.2-.5.4 0 .1 0 .1.1.3h-.3l-.2.2c-.1 0-.1 0-.2.1v.1c-.1-.1-.1-.1-.2-.1-.2 0-.2 0-.4-.1 0-.2 0-.2-.1-.3.3-.1.3-.1.5-.2zm-6.6-2.7H60c0-.1 0-.1-.1-.1h-.1l-.2-.2c-.1 0-.1 0-.2-.1l.1-.1h.2l.1.1h.2l.1.1h.2l.2.2v.3l.1.1h.2v.2h-.1-.1c-.1 0-.1 0-.1-.1v-.2h-.1c-.2-.1-.2-.1-.3-.2zm0 2.5c0 .1 0 .1 0 0 .1.1.1.1 0 0 .1.1.1.1.2.1l.1-.1v.2c.1 0 .1 0 .2.1.1 0 .1 0 .1-.1H61.5v.2c.2 0 .2 0 .3-.1 0-.1 0-.1.1-.1v.2l-.1.1h-.6c-.1.1-.1.1-.2.1h-.2v-.1c-.1-.1-.1-.1-.2-.1H60c.1-.2.1-.2.1-.4zM52 51.8l.1.1c.1-.1.1-.1.2-.1h.1l.1.1c.4 0 .4 0 .8-.1l.2-.2c.1 0 .1 0 .2.1l.2-.2h.1l.1.1v.3l-.2.2c0 .1 0 .1-.1.3l.2.2v.1l-.1.1v.2c-.2-.1-.2-.1-.5-.2l-.2-.2h-.3l-.4-.2-.4-.2H52c-.1-.1-.1-.1-.1-.2v-.2c0 .1 0 .1.1 0zm-2.9-4.5c.1 0 .1 0 .2.1 0-.1 0-.1-.1-.2 0-.1 0-.1.1-.1 0 .1 0 .1.1.2v.3c.1.1.1.1.1.3-.1.3-.1.3-.1.7-.1.1-.1.1-.1.2-.2-.1-.2-.1-.3-.2h.1v-.1c-.1 0-.1 0-.1-.1h.1l-.1-.1v-.1l-.1-.1.1-.1c0-.1 0-.1-.1-.2 0-.3 0-.3.2-.5zm-.6 1.7c.1.1.1.1.2.1.2-.2.2-.2.4-.3.2.1.2.1.3.1l.2.4-.2.2c.1.1.1.1.2.3 0 .5 0 .5-.1 1l-.1.1c-.1-.1-.1-.1-.3-.2 0 .2 0 .2-.1.4h-.3c-.1-.3-.1-.3-.3-.6l.2-.4-.2-.2c0-.1 0-.1.1-.1v-.2c-.1-.1-.1-.1-.2-.3.2-.1.2-.1.2-.3zm6.3-16.6v-.1c.1-.1.1-.1.2-.1h.1l.2-.2c.1 0 .1 0 .1.1-.1 0-.1 0-.2.1v.1h-.1v.2c.1 0 .1 0 .1.1-.1.1-.1.1-.1.2v.1l-.2.1-.3-.3v-.1-.1c.1 0 .1 0 .2-.1zm-4.6 2c0-.1 0-.1.1-.2.1.1.1.1.1.2.1 0 .1 0 .1.1v-.1h.1v-.1c-.1-.1-.1-.1-.2-.1l.1-.1c.1 0 .1 0 .2-.1.1.1.1.1.2.1 0 .1 0 .1.1.2l.1.1-.1.1h-.1c0 .1 0 .1-.1.1l.2.2-.1.1c-.1 0-.1 0-.2.1v.2h-.2-.1c0-.1 0-.1.1-.1-.2 0-.2 0-.3-.1 0-.1 0-.1-.1-.1v-.2c-.1-.1-.1-.1-.1-.2.1 0 .1 0 .2-.1zm-.4 1.1c0-.1 0-.1-.1-.1 0-.1 0-.1.1-.1v-.1h-.1l-.1.1c-.2 0-.2 0-.3-.1l-.2-.2v-.2h.1c.1-.1.1-.1.2-.1.1.1.1.1.2.1s.1 0 .1-.1c.1.2.1.2.2.5 0 .1 0 .1-.1.3zM46 30.7v.1c-.1 0-.1 0 0-.1-.1 0-.1 0 0 0zm0-.5c0-.1 0-.1 0 0l-.1-.2h.1v.2c0-.1 0-.1 0 0zm0-.9h.1v.1H46c-.1 0-.1 0-.2-.1.1.1.1.1.2 0zm4.7-6.7c0 .1 0 .1 0 0 0 .1 0 .1 0 0h-.2.2zM74.3 20h-.2c.1 0 .1 0 .1-.1h.2l-.1.1zm.2-.8c-.1 0-.1 0 0 0s.1 0 .2.1c.1 0 .1 0 .1.1v.1c-.2-.1-.2-.1-.3-.3zm1.9-10.4c-.1 0-.1 0 0 0l-.2-.1h.1l.1.1c-.1-.1-.1-.1 0 0-.1-.1-.1-.1-.3-.2-.1-.1-.1-.1-.2-.1l-.1-.1c-.1 0-.1 0-.2-.1.1 0 .1 0 .1.1h.1l.1.1c.1-.1.1-.1.2-.1s.1 0 .1.1l.2.2v.1zm.2-.2h0c.2 0 .2 0 .2.1.1.1.1.1.2.1.1.1.1.1.3.2v0l-.1-.1-.1-.1c-.1-.1-.1-.1-.2-.1l-.1-.1c.1 0 .1 0 .2.1.2.1.2.1.4.3l.1.1.5.3.1.1c.2.1.2.1.3.2l-.1-.1-.1-.1.1.1c.1.1.1.1.2.1l.1.1.1.1.2.2v.1l-.1-.1-.1-.1c-.1-.1-.1-.1-.2-.1l-.1-.1c-.2-.1-.2-.1-.3-.2-.1.1-.1.1-.2 0h-.1c-.1-.1-.1-.1-.2-.1s-.1 0-.2-.1l-.1-.1c-.1-.1-.1-.1-.2-.1H77l-.1-.1v.1c-.1-.2-.1-.2-.2-.3h.1l-.2-.2h.1c-.1 0-.1 0-.1-.1h-.2.2c-.1 0-.1 0 0 0zm-1.8-1.3c.1.1.1.1.3.2.2.1.2.1.3.2.2.1.2.1.3.2.1.1.1.1.3.2l.1.1c.1.1.1.1.3.2.1.1.1.1.2.1H76.3c-.1 0-.1 0-.2-.1s-.1-.1-.2-.1h-.1c-.1-.1-.1-.1-.2-.1l-.1-.1h-.1l-.1-.1-.3-.3c-.1-.1-.1-.1-.2-.3h.2c-.2 0-.2 0-.2-.1-.1 0-.1 0 0 0-.1 0-.1 0 0 0zm-1 10.9c.1.1.1.1.2.1v-.1h-.1-.1l.1-.1V18h.1c.3.2.3.2.5.5h.1c.2.2.2.2.4.3 0 .1 0 .1.1.1v.2c-.1 0-.1 0-.2-.1l-.1.1-.1-.1v-.1l-.1-.1h-.1l-.1-.1v.1c-.1 0-.1 0-.1-.1-.1 0-.1 0-.2-.1-.2-.2-.2-.2-.3-.4zm-.2 1.6c0 .1 0 .1 0 0h-.1.1zm-3.2-.2v-.2-.1c0 .1 0 .1-.1.1 0 .1 0 .1.1.2-.2.1-.2.1-.3.2h-.2c0 .1 0 .1-.1.1h-.1v-.1c-.1-.1-.1-.1-.2-.1-.1-.2-.1-.2-.1-.4s0-.2.1-.3h.2c.3.2.3.2.7.3 0 .1 0 .1.1.2l-.1.1zm.5-2.4l-.2-.2v-.1h-.2l-.1-.1c.1 0 .1 0 .1-.1.1 0 .1 0 .2.1l.1.1.1.1c.1.1.1.1 0 .2.1 0 .1 0 0 0zm.4 3h-.2.1c.1-.1.1-.1.1 0zm1.4.2l.1-.1v.1h-.1zm.2 0v-.2c.1 0 .1 0 .1.1s0 .1-.1.1zm0-.7h0c.1.1.1.1 0 0zM73 18l-.1-.1c-.1-.1-.1-.1-.2-.1h-.1c.1.1.1.1.1.2-.1 0-.1 0-.2-.1l-.2-.2v.1h-.1v-.1l-.2-.2h-.1c.1.1.1.1.2.1v.2c-.1 0-.1 0-.2-.1 0-.1 0-.1-.1-.2 0-.1 0-.1-.1-.2v.2c-.1 0-.1 0-.1-.1-.2 0-.2 0-.4-.1l-.1-.1h.1v-.1l-.1-.1c0-.1 0-.1.1-.1h.1l-.1-.1h-.1c-.1 0-.1 0-.2-.1l-.2-.2v-.2h-.1v.2c-.1 0-.1 0-.1-.1v-.1l-.1-.1v-.1.2c0 .1 0 .1-.1.1h-.2c-.1-.1-.1-.1-.3-.2v-.1l-.2-.2v-.2c-.1-.1-.1-.1-.1-.2s0-.1.1-.2c.1.1.1.1.2.1h.1c.1 0 .1 0 .1.1h.1c-.1.3-.1.3-.1.2v-.1h.2l-.1-.1c-.1 0-.1 0-.1-.1.1 0 .1 0 .1-.1l-.1-.1c-.1.1-.1.1-.2.1v-.1c.1 0 .1 0 .1-.1-.1.1-.1.1-.2.1 0-.1 0-.1-.1-.2 0-.1 0-.1.1-.2h.3v-.1h-.1l-.1-.1v-.2h.2v-.1h.2c.1-.1.1-.1.3-.1.1 0 .1 0 .1.1.3.1.3.1.6.1-.1 0-.1 0-.1.1h.1c0 .1 0 .1.1.3-.1 0-.1 0-.1.1-.2.1-.2.1-.3.1l-.1.1h.2c.1 0 .1 0 .1.1l-.1.1c.1 0 .1 0 .1.1v.2l.2.2c0 .1 0 .1.1.3l.2.2v.2c.2.3.2.3.5.6h.1l.3.3h.1l.2.2h.1c.1 0 .1 0 .2.1-.1.1-.1.1-.1.2h-.1c.1.1.1.1.2.1H73c.1 0 .1 0 0 0zm.1 1.8c0-.1 0-.1 0 0 .1-.1.1-.1 0 0 .2 0 .2 0 .2.1-.1-.1-.1-.1-.2-.1zM70 11.4c.1 0 .1 0 .1-.1h.1c-.1.1-.1.1-.2.1 0 .1 0 .1 0 0zm-.4.9c.2 0 .2 0 .2-.1v-.1c.1 0 .1 0 .1-.1.1 0 .1 0 .2.1l.1-.1v-.1c-.2.1-.2.1-.2 0v-.1-.1h.2c.1 0 .1 0 .1-.1h-.1l-.1-.1v-.1h.1v-.1h.1v-.1h.1c-.1 0-.1 0-.2-.1h.1V11h.1v.1l.1.1c.1-.1.1-.1.2-.1l-.2-.2h.5c.1.1.1.1.1.2h.1v-.2l.1.1h.1c0-.1 0-.1.1-.1h.2c.1 0 .1 0 .2-.1v-.1h.1v-.1h.1v-.1l-.1-.1v-.1h.2v-.1h.2c.1 0 .1 0 .1.1.1 0 .1 0 .1-.1h.1v.1c.1 0 .1 0 .2.1l.1.1h.1v.1l.1.1h.1c0 .2 0 .2.1.4h-.1l-.2.2h-.2c-.1 0-.1 0-.1.1h-.1l-.2.2c-.1.1-.1.1-.3.1-.1.1-.1.1-.1.2h-.2v.1h-.1v.1c-.1.1-.1.1-.2.1l-.1-.1h-.1v.1c.1 0 .1 0 .2.1-.1 0-.1 0-.2.1 0 .1 0 .1.1.1h-.1l-.1-.1h-.1l.1.1h-.1c-.1-.1-.1-.1-.2-.1h-.1v.1h.1v.1c-.1-.1-.1-.1-.2-.1h-.1l.3.3v.1c0 .1 0 .1-.1.1l.1.1v.1c-.1-.1-.1-.1-.2-.1.2.4.2.4.2.3v.1l.2.2c.1.1.1.1.1.2v.1h-.1l-.1-.1c-.1 0-.1 0-.2-.1l.1.1h.1l.1.1.2.2c-.1 0-.1 0-.1.1v.2h-.1v.1c-.1 0-.1 0-.3-.1l-.2-.2v.1c0 .1 0 .1.1.1h-.2c-.1-.1-.1-.1-.2-.1-.2 0-.2 0-.3.1-.1 0-.1 0-.2-.1v-.1l-.1-.1v-.1h.2l.1-.1c.1 0 .1 0 .1.1h.1l-.1-.1h-.4v.1l-.2-.2h.1l-.1-.1c0-.1 0-.1.1-.1h.1v-.1l-.1-.1c0-.1 0-.1.1-.1h.1c.1 0 .1 0 .3.1.1.1.1.1.2.1v-.1l-.4-.2h-.1l-.1-.1h.1-.1l-.1-.1H70c.1 0 .1 0 .1-.1H70h-.1c-.1-.1-.1-.1-.2-.1v-.1h.4v-.1H70h-.1l-.1-.1c-.1 0-.1 0-.1.1h-.1v-.1-.2h-.1l-.2-.2V12l.3.3zm-5.2-6.2c-.1 0-.1 0-.2-.1 0-.1 0-.1-.1-.1.2.1.2.1.3.2zm-.1-.3l-.1-.1h-.1l-.1-.1h.1c.1 0 .1 0 .2.1.1 0 .1 0 0 .1.2-.1.2-.1.3 0h-.3zm-.2.1V6l.1.1h-.1L64 6c.1 0 .1 0 .1-.1zm.2.6c-.1 0-.1 0-.1-.1h-.1.1l-.1-.1h.1c.1.1.1.1.2.1h.1v.1c-.1-.1-.1-.1-.2 0zm.2-.4l.1.1h-.1v-.1zm.1.3l-.1-.1v-.1c.1.1.1.1.1.2zm0-.3h-.1l-.1-.1h.1c.1 0 .1 0 .1.1.1 0 .1 0 0 0zm.1-.2c.1-.1.1-.1.2-.1s.1 0 .2.1l.1.1h-.1c-.1 0-.1 0-.2-.1h-.2zm.1.2c0 .1 0 .1 0 0 0 .1 0 .1 0 0zm.1.3h-.1.2c0-.1 0-.1-.1 0zm.1-.2c0-.1 0-.1.1 0H65zm.6.4h-.2c-.1 0-.1 0-.2-.1v-.1l-.1-.1v-.1H65.4c.1.1.1.1.2.1v.1l.1.1-.1.1zm1 .4c-.1-.1-.1-.1 0 0-.1-.1-.1-.1-.2-.1l-.1-.1c.2.1.2.1.3.2 0-.1 0-.1 0 0zm.1-.1l-.3-.2c.1 0 .1 0 .1-.1h.2c.1.1.1.1.1.2s0 .1-.1.1zm-.3-1.5h.2v-.1h.2l.1.1c0 .1 0 .1.1.1h.1c.1.1.1.1.2.1v.1H67c0 .1 0 .1.1.2L67 6l-.1-.1-.1-.1c-.1 0-.1 0-.2-.1l-.1-.1v-.1-.1c-.1.1-.1.1-.1 0zm0 .4c0-.1 0-.1 0 0 0-.1 0-.1 0 0 .2.1.2.1.3.2H66.4v.1l.1.1h.1c.1.1.1.1.3.2H66.6 66.3h-.1c-.2-.1-.2-.1-.3-.2.1-.2.1-.2.1-.3l-.1-.1c.1 0 .1 0 .2.1h.2c0-.1 0-.1.1-.1zm-.2-.2c0 .1 0 .1 0 0v.1c-.1 0-.1 0-.2-.1-.2-.1-.2-.1-.3-.2h.5v.2zm-.4-.7H66.1L66 5l-.1-.1c-.1.1-.1.1-.1 0h-.1.1zm-.1 1.2c.2.1.2.1.3.2h0v.1c-.1 0-.1 0-.1.1l.1.1h-.1l-.1-.1c-.1-.1-.1-.1-.2-.1v-.1l-.2-.2c.1.1.1.1.3 0-.1.1-.1.1 0 0zm-.2-.1c-.1 0-.1 0 0 0h-.2.2c-.1-.1-.1-.1 0 0zm-.1-.8zm-.1.4c.1.1.1.1.2.1v.1c-.1-.1-.1-.1-.2-.1s-.1 0 0-.1c-.1 0-.1 0 0 0zm-.1-.2c0 .1 0 .1 0 0 0 .1 0 .1 0 0H65v-.1l.1.1h.1zm-.1.3H65c-.2-.1-.2-.1-.5-.3h-.2.2c.1 0 .1 0 .3.1.1.1.1.1.2.1s.1 0 .1.1c0-.1 0-.1 0 0zm-.2-.7v.1l-.1-.1v-.1c0 .1 0 .1.1.1zm-.1.3c-.1.1-.1.1-.2.1v-.1h.1v-.1l.1.1zm-.2-.4c0 .1 0 .1 0 0l-.2.1-.1-.1h-.1-.1v-.1h.2l.1.1h.2zm-.2-.1zm-.2-.2h.1-.1-.1c.1.1.1.1.1 0-.1 0-.1 0 0 0zm-.1.6h.3l-.1-.1c-.1 0-.1 0-.2.1.1-.1.1-.1.1-.2h.1c.1 0 .1 0 .2.1h.1v.1l-.1.1h-.1c-.2 0-.2 0-.3-.1 0 .1 0 .1 0 0zm-.2.1c.2 0 .2 0 .4.1h.1c.3.1.3.1.5.2h.2c0 .1 0 .1.1.1h-.1c-.1.1-.1.1-.3 0h-.2l-.1-.1h-.1c-.1-.1-.1-.1-.2-.1h-.1c-.1 0-.1 0-.2-.2 0 .1 0 .1 0 0 0 .1 0 .1 0 0zm-.5 1.2c.1 0 .1 0 0 0 .1-.1.1-.1.1-.2l.2.2.1.1h-.2l-.2-.1c.1.1.1.1 0 0 0 .1 0 .1 0 0zm-.1-.2v.1c-.1 0-.1 0-.1-.1-.1 0-.1 0-.1-.1v-.1h.1c0 .2 0 .2.1.2zm-.8-1.2h.1v.1h-.1v-.1c-.1.1-.1.1 0 0zm0 .3c.1 0 .1 0 .1.1h.1v-.1h.1v.1c-.1 0-.1 0-.1.1v.1c.2 0 .2 0 .3-.1.1 0 .1 0 .2.1v.1h.1c-.1 0-.1 0-.2.1-.1 0-.1 0-.2-.1h-.1v.1h.1l.2.2h-.4c.1.1.1.1.2.1v.1h-.1l.1.1c-.1 0-.1 0-.1.1h-.1c0-.1 0-.1-.1-.1s-.1 0-.1-.1v.1h-.2v-.1c-.3-.1-.3-.1-.4-.2L62 6h.2-.2v-.1h-.2v-.1-.1h.1c.1.1.1.1.2.1h.2c.1 0 .1 0 .1-.1h.1v-.1h.1c-.1 0-.1 0-.2-.1 0-.1 0-.1.1-.1zm-1.5.2l.2-.1c.1 0 .1 0 .2-.1h.3c.3.1.3.1.5.2h.1l.1.1c-.1 0-.1 0-.1.1h-.1c-.2-.1-.2-.1-.3-.2h-.1H61.5c-.1.1-.1.1-.2.1v.1h.2v.1l.1.1v.1h-.1c0-.1 0-.1-.1-.1h-.1v.1h-.1c-.1 0-.1 0-.2-.1h-.1-.1c0-.1 0-.1-.1-.2.2-.2.2-.2.3-.2zm-4.4 11.3c.1 0 .1 0 0 0H56.9v-.1c.1 0 .1 0 .1.1h.1c0 .1 0 .1-.1.1h.1l.1-.1c0 .1 0 .1-.1.1h-.2c-.1 0-.1 0-.1-.1h-.2zm-.2-.1c0 .1 0 .1 0 0 0 .1 0 .1 0 0zm-1.2.9c.1-.1.1-.1.2-.1l.1.1v.1c-.2 0-.2 0-.3-.1zm.5 0v.1l-.2-.2v-.1h.1l.1-.1.1.1v.1l-.1.1zm.4-.7v.1c-.1 0-.1 0-.2-.1h.2zm-.2.3c.1.1.1.1.2.1v.1H56h-.1v-.2h-.1.1zm-.9.1h.2v-.1l.1.1v-.1l.1.1c.1-.1.1-.1.2-.1h.1c0 .1 0 .1-.1.1l-.1.1c-.1.1-.1.1-.2.1H55v-.2c-.1 0-.1 0 0 0zm-7.1 8.9c-.1-.1-.1-.1 0 0-.1-.1-.1-.1 0 0 0-.1 0-.1 0 0 0-.1 0-.1 0 0zm.3-.4h-.1v.1H48c0-.1 0-.1.1-.1h.1v-.1h.1l.1.1h-.2zm.1-.2zm.2-.2zm.1-17.1c-.1-.2-.1-.2-.2-.3-.1 0-.1 0-.2-.1v-.2c0-.1 0-.1-.1-.1v-.1h.1c.1 0 .1 0 .2.1V8c.1 0 .1 0 .2.1v.1l.2.2v.1c-.1-.1-.1-.1-.2-.1zm.8 16zm.2 0c-.1 0-.1 0 0 0l-.1-.1.1-.1h.2l-.2.2zm.2-.3c-.1 0-.1 0 0 0h-.1c.2-.1.2-.1.3-.2l-.2.2zm0-.8c.1 0 .1 0 0 0h.2v.1l-.1.1c0-.1 0-.1-.1-.2zm.3.7c-.1 0-.1 0-.2.1.1-.1.1-.1.2-.1 0-.1 0-.1 0 0zm0-.4c0-.1 0 .1 0 0zm.1-.7c-.1 0-.1 0 0 0 0-.1 0-.1.1-.2v-.1c0 .1 0 .1.1.1l-.2.2zm-.1-1.9c.1 0 .1 0 0 0 .1 0 .1 0 0 0 .1 0 .1 0 0 0 .1 0 .1 0 0 0zm.1-.2c0-.1 0-.1.1-.3v-.1V20.7l-.1.1zm.2 2.2l-.1.1c0-.1 0-.1.1-.1zm0-.3s-.1-.1 0 0c0-.1 0-.1 0 0 0-.1 0-.1 0 0 0-.1 0-.1 0 0zm.1-.3c0-.1 0-.1 0 0zm0-1.9c0-.1 0-.1.1-.1l.1.1h-.2zm.1 1.7c0-.1 0-.1 0 0 0-.1 0-.1 0 0 .1 0 .1 0 0 0 .1 0 .1 0 0 0zm.1-.2h-.1.1zm.1-.3c.1-.1.1-.1.1 0h-.1zm.1-1.3c-.1.1-.1.1-.2.1h-.1v-.2h.1c.1 0 .1 0 .2.1-.1-.1-.1-.1 0-.1v.1c0-.1 0-.1 0 0zm.2 1.3c0-.1 0-.1 0 0 0-.1 0-.1 0 0 0-.1 0-.1 0 0zm.2-1.5v.1c-.1 0-.1 0-.1-.1-.1 0-.1 0-.1.1H51c.1-.1.1-.1.1-.2.1 0 .1 0 .2.1v-.1c.1 0 .1 0 0 .1.1 0 .1 0 0 0zm-.1-.2c0-.1 0-.1 0 0l.1-.1v.1h-.1zm.2-.1c-.1-.1-.1-.1 0 0-.1-.1-.1-.1 0 0 0-.1 0-.1.1-.2h-.1l-.2.2c0-.1 0-.1-.1-.1h.2c.1 0 .1 0 .1-.1v-.2l.1.1v.3c-.1-.1-.1-.1-.1 0zm.9-.2c0 .1 0 .1-.1.1h-.1v.1l-.2.2h-.1v.1h-.1v-.1-.1h-.1c0 .1 0 .1-.1.1h-.1V20c0-.1 0-.1.1-.1h-.1l.1-.1v-.2h.2v.4c.1 0 .1 0 .1-.1v-.1h.3l-.1-.1v-.1h.2c.1 0 .1 0 .1.1v0zm-.6-.6c.1 0 .1 0 .2-.1h.1v.1c-.1.1-.1.1-.2.1v.1c-.1.1-.1.1-.2.1v-.2c.1-.1.1-.1.2-.1h-.1zm1.4-10.9h-.2c-.1 0-.1 0-.2.1h-.2l.1-.1h-.1V8h-.2l.1-.1h.1v-.1h.2v.1c.1-.1.1-.1.2-.1.2.1.2.1.3.2l-.1.1v.1zm-.6 11.4v-.1.1zm.1-.1c-.1-.1-.1-.1 0-.1v.1zm.3-.5c0 .1 0 .1 0 0v.1h-.1l-.1.1h-.1v.1l-.1.1v-.1h-.1v-.1c.1 0 .1 0 .1-.1h-.2l.1-.1v-.1h.2v-.1h-.2c0-.1 0-.1.1-.1s.1 0 .1.1h.1c-.1-.1-.1-.1-.1-.2l.1.1h.1v.1h.1v.2zm.6-.4c-.1 0-.1 0 0 0l-.1.1H53.1c-.1-.1-.1-.1-.2-.1h.2v-.1h.1v-.1c.1 0 .1 0 .1-.1.1.2.1.2.2.3zm-.3-.5c.1 0 .1 0 .2-.1v.1l-.1.1h-.1c.1-.1.1-.1 0-.1zm.4.3l-.1.1-.2-.2h.1v-.1h.1v.1h.1c-.1 0-.1 0-.1.1.1-.1.1-.1.1 0zm-.1-.5c0-.1 0-.1.1-.1 0 .1 0 .1-.1.1zm.4.2c-.1-.1-.2-.3-.2-.4h.2v.1l.1.1h.1c-.1.2-.1.2-.2.2zm.1-8.8c-.1 0-.1 0-.3.1v.1c-.1 0-.1 0-.2.1v-.1-.1l-.1-.1c0-.1 0-.1.1-.2V9h-.2c0 .1 0 .1-.1.2h-.1c-.1 0-.1 0-.1.1h-.3c0-.1 0-.1.1-.2h.1V9l.1-.2v-.1h-.1c-.1-.1-.1-.1-.2-.1.1-.1.1-.1.2-.1h.4c.2-.1.2-.1.3-.2l.2.2h-.1c0 .1 0 .1.1.2l.2.2c0-.2 0-.2.1-.3l.4.2h-.3c0 .1 0 .1-.1.1 0 .2 0 .2-.1.4zm.4 9l-.1-.1h-.1v-.1l.1-.1c.1 0 .1 0 .1.1v.2c.1-.1.1-.1 0 0zM50.9 6.1c.1 0 .1 0 0 0h.3c.1.1.1.1.2.1v-.1l-.1-.1v-.1c0 .1 0 .1.1.1h.1v-.1l-.1-.1v-.1c.1 0 .1 0 .1-.1l.1.1-.1.1c.1 0 .1 0 .1.1h.1l.2.2h.1v.1l.3-.3.1.1-.1.1v.1h.1l.2.2c0-.1 0-.1.1-.1-.1 0-.1 0-.1-.1v-.1V6l-.1-.1v-.1l.1.1-.1-.1v-.1c.1.1.1.1.2.1 0 .1 0 .1.1.2h-.1v0c.1 0 .1 0 .2.1V6h.1v-.1c0 .1 0 .1.1.1 0-.1 0-.1.1-.1 0 .1 0 .1.1.1h.1l.1.1h.2l.1.1h.3c.1 0 .1 0 .2.1h.2V6.6c-.1 0-.1 0-.2.1s-.1.1-.1.2c-.1 0-.1 0-.1.1l-.1.1v.1h-.2c.2-.2.2-.2.1-.2s-.1 0-.3.1v.1c0 .1 0 .1-.1.1h-.3l-.1-.1V7c-.3 0-.3 0-.6.1h-.3V7l-.1-.1H52l-.4-.2H51.9c.1 0 .1 0 .1.1h.1c.1 0 .1 0 .2.1v-.1h-.2-.1.5c.1 0 .1 0 .2-.1v-.1H52.1c-.1 0-.1 0-.2.1h-.1-.1H51.4c-.1-.1-.1-.1-.3-.2 0-.1 0-.1.1-.2h-.1v-.1h-.2v-.1zm1.4 1.2c0 .1 0 .1 0 0-.1.1-.1.1-.2.1s-.1 0-.1-.1H52.3zm-4.1-.6l.1-.1h.1v.1l.1.1h.1v-.1l-.1-.1v-.1h.1v.1h.1c.1-.1.1-.1.3-.1h.3v.1c-.1 0-.1 0-.1.1h-.1c-.1 0-.1 0-.2.1-.1 0-.1 0-.1.1h.1c.1 0 .1 0 .1-.1h.2c-.1 0-.1 0-.2.1h.1c.1 0 .1 0 .1.1v.1c.1 0 .1 0 .2.1 0-.1 0-.1-.1-.2v-.1l.1-.1c0-.1 0-.1.1-.1.2.1.2.1.3.2v.2c.2-.1.2-.1.2.1 0 .1 0 .1-.1.1h.1l.1-.1h.1l.2.2.1-.1-.2-.4v-.4l-.1-.1v-.1l.1-.1c0-.1 0-.1-.1-.1l.1-.1c.1 0 .1 0 .2.1 0 .1 0 .1.1.2l.1-.1h.1c.1.1.1.1.3.2v.4h.1v-.3-.1h.1l.2.2c0 .1 0 .1.1.3H51.9l.2.2v.1c.2.1.2.1.5.2h.2v.2h-.1l-.1-.1h-.2c-.1 0-.1 0-.2.1H52h.1c-.2.4-.2.4-.3.5 0 .1 0 .1.1.1 0 .1 0 .1-.1.3l.1.1-.1.1-.1-.1v.1c0 .1 0 .1.1.2 0 .2 0 .2-.1.3h-.2v.1l.1.1c-.1 0-.1 0-.1.1v.5l-.1.1c0 .1 0 .1.1.3 0 .1 0 .1-.1.1l-.1.1-.1-.1c0 .1 0 .1-.1.1v-.2c-.1-.1-.1-.1-.3-.2v-.1c.1 0 .1 0 .2-.1h-.2c-.1.1-.1.1-.2.1l-.1-.1v-.2c-.1-.1-.1-.1-.2-.1h-.1v-.1c-.1 0-.1 0-.2-.1v-.1c-.1-.1-.1-.1-.2-.1v-.1h-.1c.1 0 .1 0 .2-.1.1.1.1.1.2.1h.1c.1 0 .1 0 .2.1H50.7h-.4L50 9h.2c.1 0 .1 0 .3-.1h.3v-.1h0c-.1 0-.1 0-.2.1h-.4c-.1.1-.1.1-.3.1h-.2c-.1 0-.1 0-.2.1h-.1v-.4h.2l.1.1c0-.1 0-.1.1-.1h.2c0-.3 0-.3.1-.3h.1v-.1l.1-.1h.3L51 8h-.1c-.1 0-.1 0-.2.1h-.1V8l.1-.1c0-.1 0-.1-.1-.1h-.1v.1c0 .1 0 .1-.1.1-.1.1-.1.1-.3.1H50v-.2l.1-.1c0-.1 0-.1-.1-.1v-.1c0 .1 0 .1-.1.1l.1.1c0 .1 0 .1-.1.1l-.1-.1h-.1v.3l.1.1v.1h-.1v.2c-.1 0-.1 0-.1.1h-.4v-.2c-.1-.1-.1-.1-.2-.1h-.1c0-.1 0-.1-.1-.2h.2V8h-.2v-.1c-.2-.1-.2-.1-.3-.1l.1-.1h-.1c-.1-.1-.1-.1-.1-.2.1 0 .1 0 .2.1l.1.1h.1c0-.1 0-.1.1-.1h-.2c-.1-.1-.1-.1-.2-.1l.2-.2h-.1-.1v.2c-.1 0-.1 0-.2.1v-.1c-.1 0-.1 0-.1-.1-.2-.3-.2-.3-.2-.4.1-.1.1-.1.2-.1l.1-.1-.1-.1zm-.3 19h.1v-.1l.1.1h.1l-.1.1c-.1-.1-.1-.1-.2-.1l-.1.1c0-.1 0-.1.1-.1zm-.2.5c0 .1 0 .1-.1.1l.1-.1zm-.1-.3c0 .1 0 .1 0 0v.1c-.1-.1-.1-.1-.2-.1h.2zm-.2.4l.1.1h-.1c-.1-.1-.1-.1 0-.1zm-.6.2h.1v.1l-.1.1v-.2c0 .1 0 .1 0 0zm-.3.2c.1 0 .1 0 0 0 .1.1.1.1 0 0 0 .1 0 .1-.1.1.1 0 .1 0 .1-.1zm-.1.3h.1-.1c-.1 0-.1 0 0 0zm0 .3c-.1 0-.1 0 0 0-.1 0-.1 0 0 0-.1-.1-.1-.1 0 0zm-.3-.1c.1 0 .1 0 .1.1l-.1-.1c0 .1 0 .1 0 0zm-.5 1.7c0-.1 0-.1 0 0 0-.1 0-.1.1-.1l-.1.1zm.1-.3c0-.1 0-.1 0 0 0-.1 0-.1 0 0 0-.1 0-.1 0 0 0-.1 0-.1 0 0zm0-.3zm0-.2c0 .1 0 .1 0 0 0 .1 0 .1 0 0zm.1-.8h.1v.1h-.2c.1.1.1-.1.1-.1zm-.1.4c.1 0 .1 0 .1.1v.1c-.1-.1-.1-.1-.1-.2zm0 .2v.1c-.1 0-.1 0 0-.1-.1 0-.1 0 0 0zm-.2.7c.1 0 .1 0 0 0 .1 0 .1 0 0 0 0 .1 0 .1 0 0zm-37.6-5c0 .1 0 .1 0 0zm-1.3 3.5c0 .1 0 .1-.1.2 0 .1 0 .1-.1.2.1-.1.1-.1.1-.3v.1l-.1.1v.1h.1c0 .1 0 .1-.1.2V28c0 .1 0 .1-.1.2v.1l-.2.2c.1 0 .1 0 .1-.1l.1-.1v.1c0-.1 0-.1.1-.1v.1l-.1.1v.1l-.2.2c0 .1 0 .1-.1.2 0-.1 0-.1-.1-.1s-.1 0-.1.1v-.1l.1-.1v-.1l-.1.1v-.1c0-.1 0-.1.1-.2v-.1c0 .1 0 .1-.1.2v-.1c0 .1 0 .1-.1.2.3.2.3.2.2.3l-.1.1c0 .1 0 .1-.1.2l-.1.1c-.1.1-.1.1-.1.2-.1 0-.1 0-.1.1 0-.1 0-.1.1-.2s.1-.1.1-.3l-.1.1v0c.1-.2.1-.2.1-.3-.1 0-.1 0 0-.1l.2-.4c.1-.1.1-.1.1-.2l.1-.1v-.1-.1c.1-.1.1-.1.1-.3l.1-.1c.1-.2.1-.2.2-.3.1-.1.1-.1.2-.3v.1c-.1.1-.1.1 0 0zm.4 17c-.1 0-.1 0 0 0V44.4h-.1l-.1-.1v-.1h-.1-.1v-.1l-.1-.1v-.1h-.1v-.2l.2-.2v.2l-.1.1V44h.1l.1.1c.1-.1.1-.1.3 0-.1-.1-.1-.1 0-.1h.2c-.2 0-.2 0-.2.1zM3.4 62.2h-.1v-.1.1h-.1l-.1-.1H3s-.1 0-.1-.1v-.2-.1l-.1-.1-.1-.1v0l-.1-.5-.1-.1c0-.1 0-.1-.1-.2v-.1.1c0-.1 0-.1-.1-.1l-.1-.1v-.1-.1c-.3-.3-.3-.3-.3-.4V60.2l-.1-.1V60v-.1-.1h.1l.1.1v.1h.1l.1.1.1.1c0 .1 0 .1.1.2h.1c.1.2.1.2.1.3.1.1.1.1.1.2v-.1 0c0 .1 0 .1.1.1 0 .1 0 .1.1.2l.1.1v.1h.1c.1.1.1.1.1.2v.1h.1c.1.5.1.5.1.6zM5 63.8c-.1 0-.1 0 0 0-.1 0-.1 0 0 0-.1-.1-.1-.1-.2 0h-.1c-.1 0-.1 0-.1-.1v.2h-.1v-.1l-.1-.1v.2l-.1-.1V64.1h-.1V64v-.1c0-.1 0-.1-.1-.1-.2-.1-.2-.1-.3-.2v.1c-.1-.1-.1-.1-.1-.2l-.1-.1v-.1h.1v.1h.1v.1l.1.1H4l.1.1v-.1c-.1-.1-.1-.1-.1-.2v-.2-.1-.1l-.2-.2h.1v-.1.1l.1.1c0 .1 0 .1.1.1v-.1h.1l.1.1v-.1h.1l.2.2V63l.1.1c0 .1 0 .1.1.2l.1.1.1.1c-.1 0-.1 0-.1-.1l.1.1h.1l.1.1v-.1l.2.2c-.4 0-.4 0-.4.1zm2.9-19.4l-.1.1h-.1c-.1.1-.1.1-.1.2l-.1-.1c.1-.2.1-.2.1-.3h-.1l-.1-.1c0 .1 0 .1-.1.2l.1.1v.2c-.1-.1-.1-.1-.1-.2v-.3l.2-.2.2-.4.1-.1.1-.1c0 .1 0 .1-.1.2h.1v.1c-.1.1-.1.1-.1.2l.1.1v0H8c-.1.2-.1.2-.1.4zm4.4-26c0-.1 0-.1 0 0 .1-.1.1-.1.1-.2l.1-.1v.1h.1l.1-.1h.1l.1-.1v.1c-.1.1-.1.1-.1.2l-.1.1-.1.1v.1l-.1.1.1-.1v.1l-.1.1h-.2l-.1.1v-.1l-.1.1-.1.1-.1.1h-.1V19v-.1l.1-.1.1-.1v-.1c.1-.1.1-.1.1-.2l.1-.1c0 .2 0 .2.1.1zm.3 1.4l-.1.1.1-.1c-.1 0-.1 0 0 0zm-3.9 3c0 .1 0 .1 0 0 0 .2 0 .2-.1.2l.1-.2c-.1.1-.1.1-.2.1v-.1c.2.1.2.1.2 0 .1 0 .1 0 0 0 .1 0 .1 0 0 0zm.3.1c0-.1 0-.1 0 0 0-.1 0-.1 0 0zm.1 0c0-.1 0-.1 0 0 0-.1 0-.1 0 0 0-.1 0-.1 0 0zm0-.1c.1 0 .1 0 0 0 .1-.1.1-.1 0 0 .1 0 .1 0 0 0 .1 0 .1 0 0 0zm.4-.1c.1-.1.1-.1 0 0 .1-.1.1-.1.1-.2h.1v.1l-.2.1c.1 0 .1 0 0 0v.1c.1-.1.1-.1 0-.1.1-.1.1-.1 0 0zm.1.4c0-.1 0-.1.1-.2v-.1l.1-.1v.1c-.2.3-.2.3-.4.5h-.1v-.1l.1-.1.1-.1c0 .1 0 .1.1.1zm-.3.5c0 .1 0 .1-.1.1h-.1c.1 0 .1 0 .2-.1zm-.2-.5l.1-.1c0 .1 0 .1-.1.1zM10.8 43l.1-.1c.1-.1.1-.1.1-.2v.3l-.2.4v.2c-.1.1-.1.1-.1.2-.1 0-.1 0-.1-.1 0 .1 0 .1-.1.2 0-.1 0-.1-.1-.2 0-.1 0-.1.1-.2l.1-.1h-.1c0 .1 0 .1-.1.1h-.1c0 .1 0 .1-.1.2h-.1v-.1c.1-.2.1-.2.1-.3v-.1c0-.2 0-.2.1-.4l-.1-.1c-.1.2-.1.2-.1.5l-.1.1-.1-.1-.2.2v.1l-.2.2-.1-.1-.1.1-.1-.1.1-.1h.1l.1-.1h.1v-.2h.1c0-.1 0-.1.1-.2-.1 0-.1 0-.2.1l-.1-.1v.1c.3-.1.3-.1.2-.1l-.1-.1c.1-.1.1-.1.1-.2h-.1v-.1l-.1.1v.2l-.1-.1v.1c-.1 0-.1 0-.1-.1v.1h-.1v-.1l-.1.1H9v-.1.1h-.2v-.1.1c0-.1 0-.1-.1-.1v-.1c-.1.1-.1.1-.1.2h-.1c-.1 0-.1 0-.1.1-.1 0-.1 0-.1-.1v-.2l.3-.3.2-.4c-.1.1-.1.1-.3.1 0-.1 0-.1.1-.2v.1h.1l.2-.4c.1 0 .1 0 .1.1 0-.1 0-.1.1-.2l-.1-.1c0-.1 0-.1.1-.2 0 .1 0 .1.1.1v-.2l.2-.4h.1v-.1l.1-.1v-.1l.1-.1.1-.1c0-.1 0-.1.1-.1V40h.1v-.2l.2-.2v-.1h.1c0-.1 0-.1.1-.1v.1h.1v.1c0 .1 0 .1-.1.1s-.1 0-.1-.1c-.1 0-.1 0-.1.1l.1.1h.1v.2h-.3l-.1-.1-.1.1c0 .1 0 .1.1.1l-.3.3-.2.4c0 .2 0 .2-.1.3l.4-.6v.1l-.1.1c.1-.1.1-.1.2-.1.1.1.1.1.1.2s0 .1-.1.2c0 .1 0 .1-.1.2.1 0 .1 0 .1-.1 0 .1 0 .1-.1.2l-.1.1h.1v.1l.1-.1h.1c0 .1 0 .1-.1.2h.1v-.1h.1v.1h.1l.1.1c0-.1 0-.1.1-.2 0-.1 0-.1.1-.1 0 .1 0 .1-.1.2v.2c.1-.1.1-.1.1-.2l.1-.1c.1.1.1.1.1.2V42c-.1.1-.1.1-.3.2v.2h.1l-.1.1.1.1v.1c.1-.1.1-.1.1-.3h.1v-.2l.1.1.1-.1v.2l-.1.1-.1-.1v.1l-.1.1h-.1l.1.1-.1.1h-.1V43.1l.1.1v-.1c.1-.1.1-.1.2-.3.1-.1.1-.1.2-.1v.1l-.2.2c.1-.2.1-.2.1 0zm1.4-17.4c0-.1 0-.1 0 0zm.7-1h-.1.1c-.1-.1-.1-.1-.2-.1l-.1.1h.1l-.1.1h.1l-.1.1h.1l-.1.1c-.1 0-.1 0-.2.1v-.1h-.1l.1.1v.1h-.1-.1v.1h.2v.1l-.1.1h-.1c0-.1 0-.1-.1-.1 0 .1 0 .1.1.2 0 .1 0 .1-.1.2l-.1.1v-.1h-.1v.1c0 .1 0 .1-.1.2l-.1.1V26l-.1.1v-.3c-.1.1-.1.1-.1.3l-.1.1h0v.1l-.1.1v.2h-.1v.1c-.1.1-.1.1-.1.2v-.1H11c0-.1 0-.1.1-.1l-.1.1v-.1c0-.1 0-.1.1-.2-.1.1-.1.1-.1.2v-.1l.1-.1.1-.1h-.1c.1-.4.1-.4 0-.4l.1-.1c0-.1 0-.1.1-.2l-.1.1-.1.1.2-.2h-.1l-.1.1c.1-.1.1-.1.1-.2h.1l.2-.2v-.1c.1-.1.1-.1.1-.2-.1.1-.1.1-.2.1 0 .1 0 .1-.1.2s-.1.1-.2.1c-.1.1-.1.1-.1.2h-.1l.3-.3c.1-.1.1-.1.1-.2-.1.1-.1.1-.1.2l-.2.2v-.1l-.1.1v-.1l.1-.1h-.1c0-.1 0-.1.1-.2h-.1v.1l.1-.3v.2h-.1v.1h-.1v-.1.4h-.1v-.1.1h-.1c0-.1 0-.1.1-.2h-.1v-.1l-.1.1c-.1 0-.1 0-.2.1h.2c0 .1 0 .1-.1.2l-.1.1h.1l-.1.1h.1c-.1.2-.1.2-.2.3h.1c0-.1 0-.1.1-.1s.1 0 .2-.1l-.1.1h.1v.1h-.1.1c0 .1 0 .1-.1.1v.4c.1-.1.1-.1.1-.3 0 .1 0 .1.1.1l-.1.1h.1v0l.1.1c-.1.1-.1.1-.1.2h.1l.1-.1c-.1.1-.1.1-.1.2h-.1c.1 0 .1 0 .1.1v.1h.1l-.1.1h-.1v.1c0 .1 0 .1.1.1-.1.2-.1.2-.1.4 0-.1 0-.1-.1-.2 0-.1 0-.1.1-.1v-.2h-.1v.1c0 .1 0 .1-.1.2v.2c0 .1 0 .1-.1.3v.2-.1h-.1v.4h-.1v-.2l.1-.1v-.1l-.1.1v-.2l-.1.1v-.2.2H10c0-.1 0-.1.1-.2v-.2V28H10v-.3c-.5.3-.5.3-.5.4 0-.1 0-.1-.1-.1v-.1l-.1.1h-.1v.1c0 .1 0 .1.1.1v.3l.1-.1.1.1v.1h.1v.1h.1c0 .1 0 .1-.1.3l.1-.1v.1c0 .1 0 .1-.1.1v.2l.1-.1v.2h.1v.2h-.1v.2l-.1.1c-.1-.1-.1-.1-.3-.1-.1-.1-.1-.1-.1-.2-.1 0-.1 0-.2.1 0-.1 0-.1-.1-.1h-.1c0-.1 0-.1-.1-.3v-.1l-.1.1c-.1-.1-.1-.1-.3-.2V29h-.1v-.3h-.1c.1-.1.1-.1.2-.1.1-.2.1-.2.2-.3-.1 0-.1 0-.1.1v-.1-.1c0 .1 0 .1-.1.2v.1h-.1v-.1l.1-.1v-.2c0-.1 0-.1.1-.2v-.1c.1-.1.1-.1.1-.2-.1.1-.1.1-.1.2.1-.1.1-.1.1-.2-.1 0-.1 0-.1.1l-.1.1-.1.1v-.1l.1-.1v-.1c-.1.1-.1.1-.1.2v-.1c0-.1 0-.1.1-.2h-.1v-.1c0 .1 0 .1-.1.2v.1c0 .1 0 .1-.1.2h-.1v-.1h-.1c0-.1 0-.1-.1-.1 0 .1 0 .1-.1.2-.1 0-.1 0-.2.1l-.1.1h-.1V28v-.1l-.1.1v-.2-.1c.1-.1.1-.1.1-.2v-.1l.2-.2h.1v-.1-.1l.1-.1v-.1.1h.1c0 .1 0 .1.1.1l.1-.1v.1H8c.1-.1.1-.1.1-.2l.1-.1v.1l.2-.2h.1c0 .1 0 .1-.1.2 0-.1 0-.1.1-.1l.1-.1c0-.1 0-.1.1-.2v-.3l.1-.1c.2-.3.2-.3.4-.5.1-.1.1-.1.1-.2H9.6c0 .1 0 .1-.1.2l-.2.2v.1l-.1.1v.1l.1-.1c.1-.1.1-.1.1-.2l.2-.2v-.1.1l.1-.1h.1l-.1.1.1-.1.1-.1.1-.1c0-.1 0-.1.1-.1H10V25h.1c0-.1 0-.1.1-.2v-.1-.1h-.1v.1c-.1.3-.1.3-.2.5H9.6h-.1v-.1c.1-.1.1-.1.2-.3h.1l.2-.2v-.1c.1-.1.1-.1.1-.3.1 0 .1 0 .1.1v.1c0-.1 0-.1.1-.2 0-.1 0-.1.1-.2v-.1h-.1v-.1c0 .1 0 .1-.1.2h-.1c0-.1 0-.1.1-.2v-.1l.1-.1v-.1l.1-.1-.1.1-.1.1c0-.1 0-.1.1-.2h-.1l.2-.2-.1.1c.1-.1.1-.1.1-.2V23l-.1.1c0 .1 0 .1-.1.1l-.1.1v-.1c0-.1 0-.1.1-.2l-.1.1.1-.1h-.1l.2-.2-.1.1c0 .1 0 .1-.1.1v-.1c-.1.1-.1.1-.1.2l-.2.2c0-.1 0-.1.1-.1v-.1c.1 0 .1 0 .1-.1l.1-.1c.1-.1.1-.1.1-.2v-.1l.1-.1-.1.1c0-.1 0-.1.1-.2h.1l-.1.1h-.1l.1-.1.2-.2-.1.1v-.1l-.1.1v-.1c.1-.2.1-.2.3-.4.1-.1.1-.1.1-.3l-.1.1c-.1.1-.1.1-.1.2v-.1-.1c.1-.1.1-.1.1-.2v-.1l-.1.1c0 .1 0 .1-.1.1l-.1.1v-.1l-.1.1v-.1c0 .1 0 .1-.1.2h.1v.2c0 .1 0 .1-.1.2l-.1.2c-.1.1-.1.1-.2.1v-.1-.1c-.1 0-.1 0-.2.1v.1l-.1.1v-.1-.1l-.2.2v-.1l-.1.1v-.1-.1c.1-.1.1-.1.1-.2V22l-.1.1c-.2.5-.2.5-.2.6h-.1l-.1.1v-.1l.1-.1.1-.1.1-.1c-.1 0-.1 0-.1.1l-.1.1-.1.1.1-.1v-.1l-.1.1-.1.1v-.1-.1h-.1c.1-.1.1-.1.1-.3v-.1l.1-.1.1-.1.1-.1v.1c.1.1.1.1.2.1l.1-.1v-.1l.1-.1-.1.1h-.1c.2-.2.2-.2.4-.5 0-.1 0-.1.1-.1l.1-.1c-.2-.1-.2-.1-.1-.1l.1-.1c.2-.2.2-.2.3-.5l.1-.1v-.1c.1-.1.1-.1.1-.2l.1-.1c.1-.1.1-.1.1-.2l.1-.1c.2-.3.2-.3.4-.5.1-.1.1-.1.3-.2l.1-.1h.1c-.1.1-.1.1-.2.3-.1.1-.1.1-.1.2-.2.3-.2.3-.5.6-.2.2-.2.2-.3.4v.2l-.1.1-.2.4-.1-.2c0 .1 0 .1-.1.2 0 .1 0 .1-.1.1v.1c-.1.1-.1.1-.1.2v-.1l-.1.1-.1.1c-.1.1-.1.1-.1.2l-.1.1.1-.1.2-.2-.1.1c-.1.1-.1.1-.1.2l.1-.1c0-.1 0-.1.1-.2s.1-.1.1-.2 0-.1.1-.2l.1-.1c0-.1 0-.1.1-.2s.1-.1.1-.2v-.1 0l.1-.1c.1-.1.1-.1.1-.2v.1l-.1.1v.1l.1-.1v-.1l.1-.1c.1-.1.1-.1.1-.2l.1-.1-.2.2V20l.1-.1.2-.4.1-.1v.1h0l.1-.1.1-.1v-.1l.1-.1c-.1.1-.1.1-.1.2l.1-.1.1-.1v.2c.1-.1.1-.1.1-.2V19l.3-.3.1-.1h.1l.1-.1c-.1.1-.1.1-.2.3l-.2.2v.1c-.1.2-.1.2-.3.4h.1l-.1.1-.1.1c-.1.1-.1.1-.2.3l-.1.1c.1-.1.1-.1.2-.3-.1.1-.1.1-.1.2l-.2.2v.1l-.1.1-.1.1.2-.2.1-.1.1-.1c0 .1 0 .1-.1.2l.1-.1c0-.1 0-.1.1-.1V20c0 .1 0 .1-.1.1.1-.2.1-.2.2-.3 0 .1 0 .1-.1.2l-.2.2-.1.1h.1v-.1l.1-.1v.1c-.1.1-.1.1-.1.2v.1c0-.1 0-.1.1-.2 0 .1 0 .1-.1.2.1-.1.1-.1.1-.2v-.2c0-.1 0-.1.1-.1 0-.1 0-.1.1-.2v.1l.1-.1v.1h.1c0-.1 0-.1-.1-.2.1-.1.1-.1.1-.2h.1l.2-.2c.1 0 .1 0 .2-.1v.1h.1v.1l.1-.1h.1v.1c0 .1 0 .1-.1.2l-.1.1-.1.1c-.2.2-.2.2-.3.4l.1-.1.2-.2h.1l-.1.1-.1.1c.3-.2.3-.2.2-.1l-.1.1v.1l.1-.1c.1-.2.1-.2.3-.3l.1-.1.1-.1h.1c0 .1 0 .1-.1.2h-.1c-.1.1-.1.1-.1.2h-.1c-.1 0-.1 0-.2.1l.1-.1v.1l-.1.1.1-.1.2-.2v.1l-.1.1-.2.2h.1l-.1.1-.2.2.1-.1c.1-.1.1-.1.1-.2l.2-.2v.1l.1-.1c.1-.1.1-.1.2-.1l-.2.2-.3.3h.1c-.1.1-.1.1-.1.2l.1-.1.1-.1.2-.2c0 .1 0 .1-.1.1l-.2.2c-.1.1-.1.1-.1.2.1-.1.1-.1.1-.2l.1-.1v.1l-.2.2v.1l.1-.1.2-.2v-.1l.1-.1.1-.1v-.1l.1-.1.1-.1v.1h.1c0 .1 0 .1-.1.1v.1l-.2.2h-.1l-.1.1v.1l-.1.1-.1.1.1-.1v.1l-.1.1-.1.1.1-.1h.1l.1-.1h.1v.1c.1-.1.1-.1.1-.3l.1-.1v.2l-.2.2-.1.1-.1.1c-.1.1-.1.1-.2.1v.1l-.2.2.3-.3c-.1.1-.1.1-.2.3-.1.1-.1.1-.1.2.2-.2.2-.2.3-.4 0-.1 0-.1.1-.2l.1-.1.3-.3v.1l-.2.2-.1.1v.1l.1-.1.2-.2.1-.1h.1v.1c.1 0 .1 0 .1.1v.1l-.1.1v-.1l-.2.2c-.1.1-.1.1-.3.2-.1.1-.1.1-.3.2v.1l.1-.3h.2l.2-.2c.1-.1.1-.1.2-.1v.1l-.1.1-.1.1c-.1.1-.1.1-.1.2h-.1l-.2.2.2-.2h.1l.2-.2h.1l.1-.1h.1l.1-.1c.1-.1.1-.1.1-.2l.1-.1v.4c-.1.1-.1.1-.1.2h-.1-.1l-.1.1-.1.1-.2.2c-.1 0-.1 0-.1.1h.1c.1-.1.1-.1.2-.1l.1.1.1-.1h.2V22.4l-.1.1v-.1l-.1.1v-.1l-.1.1c0-.1 0-.1-.1-.1s-.1 0-.1.1l-.1-.1v.1h.1c-.1.1-.1.1-.3.2v.1l.1-.1h.1l.1-.1.1.1-.1.1h-.1v.1h.1v.1h-.1-.2l-.1.1h.2v.1h-.1l-.1.1h.1v.1h.1v0l.1-.1v.1l.1-.1h.2c0 .1 0 .1-.1.1h-.1c-.1.1-.1.1-.2.1 0 .1 0 .1-.1.1l.1-.1h.1l-.2.2c.1-.1.1-.1.1-.2h.1l-.2.2v.1l.1-.1h.1v.1c-.4-.4-.4-.4-.4-.3v.1l.1-.1.1-.1-.1.1c-.1.1-.1.1-.2.3v.1l.1-.1c0-.1 0-.1.1-.2s.1-.1.2-.3h.1l-.2.2c0 .1 0 .1-.1.2l.1-.1v-.1c.1-.2.1-.2.3-.4 0 .1 0 .1-.1.2l-.1.1c-.1.1-.1.1-.1.2l.1-.1v.1l.1-.1.1-.1v.2l-.1.1h.1v.1h-.2v.1h.2c-.1.1-.1.1-.2.1l-.1.1v.1l.1-.1c.1-.1.1-.1.3-.1l.1-.1h.1c-.1.2-.1.2-.2.3l.1-.1c.1-.1.1-.1.1-.2l.1-.1c0 .1 0 .1-.1.2h-.1c0 .1 0 .1-.1.2l-.1.1v.2c0-.1 0-.1.1-.2l.2-.2v.1c-.1.1-.1.1-.1.2v.1l.1-.1.1-.1v0l.2-.2-.1.1c.1 0 .1 0 .1-.1v.1l-.1.1h.1v.1l-.2.2zM10 22.5l-.1.1-.1.1c.1-.1.1-.1.1-.2h.1c.1-.1.1-.1 0 0zm.1.2c0 .1 0 .1-.1.1 0 .1 0 .1-.1.2h-.1v-.1c.1-.1.1-.1.1-.2h.2zm-.1.8c.1-.1.1-.1.1-.2v.1l-.1.1c.1.1.1.1 0 .2v-.2zm.1 0c.1 0 .1 0 0 0 .1 0 .1 0 0 0 0 .1 0 .1 0 0 0 .1 0 .1 0 0zm1.7-4.1v.1c-.1 0-.1 0 0-.1-.1 0-.1 0 0 0zm-.2.1c0 .1 0 .1-.1.1l.1-.1zm.8.5l-.1.1.1-.1zm.1.4l-.1.1h-.1l-.1.1v-.1l.1-.1h.2c-.1 0-.1 0 0 0-.1.1-.1.1 0 0zm.4 3.5c-.1.1-.1.1-.1.2V24l.1-.1c-.1 0-.1 0 0 0zm-.3-2.2c.1 0 .1 0 0 0 .1 0 .1 0 0 0 .1 0 .1 0 0 0 .1 0 .1 0 0 0zm0-.1l-.1.1h-.1c.1 0 .1 0 .2-.1zm0 1.9v.1l-.1.1v-.1c.1 0 .1 0 .1-.1zm-.4-.4c0 .1 0 .1 0 0zm1.2 53.5c0-.1 0-.1 0 0zm-.1-.2v.1h-.1c.1 0 .1 0 .1-.1s0-.1.1-.1l.1.1h-.2zm.2-.1l-.1-.1.1.1zm0-.1c0-.1 0-.1 0 0 0-.1 0-.1 0 0 0-.1 0-.1 0 0zm.1-.2c0 .1 0 .1 0 0-.1 0-.1 0 0 0zm0 .4l-.1-.1c.1 0 .1 0 .2-.1l.1.1c-.1.1-.1.1-.2.1zm.4.2c-.1 0-.1 0-.1-.1l-.1-.1h.1c.1 0 .1 0 .1.2 0-.1 0-.1 0 0zm.4-60.9c0-.1 0-.1 0 0 0-.1 0-.1 0 0zm.4-.3l-.2.2-.1.1.3-.3c.1 0 .1 0 0 0 .1 0 .1 0 0 0zm20.4-2.6c-.1.1-.1.1-.1.2v-.1c-.2 0-.2 0-.3.1-.1-.1-.1-.1-.2-.1l.1-.1v-.2h.2c.1 0 .1 0 .1-.1.1 0 .1 0 .2.1l-.1.1H35l-.1.1h.1v.1l.1.1.1-.1h.1c-.1-.2-.1-.2-.1-.1zm-.6.4l-.1.1.1-.1zm.3-1.9v-.2-.1.1c.1.1.1.1 0 .2.1 0 .1 0 .2.1-.1.1-.1.1-.1.2s0 .1-.1.2v-.1c0-.1 0-.1.1-.2-.1-.1-.1-.1-.1-.2zm.7-2.2V9v.1zm0 .2l-.1.1v-.1h.1zm.2.4l.1-.1v.1h-.1v.1c-.1 0-.1 0-.1.1l-.1-.1c.1 0 .1 0 .2-.1zm3 26.5l-.2.2h-.1c.1.1.1.1.1.2v.9c-.1.1-.1.1-.1.2v.2l-.1.1v.3h-.1c-.1 0-.1 0-.1-.1h-.1v-.1c0 .1 0 .1-.1.1h-.3c0 .1 0 .1-.1.1s-.1 0-.2.1-.1.1-.2.1h-.1v.1c-.1.1-.1.1-.3.1l-.4.2-.1-.1h-.2l-.1-.1h.1l.1-.1h-.4c.1-.1.1-.1.3-.2-.1.1-.1.1-.3.1v-.1c-.1 0-.1 0-.1-.1.1-.1.1-.1.3-.1v-.1c-.1 0-.1 0-.2.1h-.2l.1-.1h.2c.1-.1.1-.1.1-.2h.1l.1-.1h.3l.1-.1-.1-.1c-.1.1-.1.1-.3.1h-.1c-.1 0-.1 0-.2.1.1 0 .1 0 .1-.1l.2-.2c0-.1 0-.1.1-.2.1 0 .1 0 .2-.1H36.2l-.1-.1h-.2V37h-.1c0-.1 0-.1-.1-.2h.1v-.1c.1-.1.1-.1.2-.1l.1-.1H36l-.2-.2c0-.1 0-.1.1-.1-.1-.1-.1-.1-.2-.1l.1-.1.1.1.1-.1h.3l.1.1c.1 0 .1 0 .1-.1h.2l-.1-.1c.1-.1.1-.1.2-.1 0-.1 0-.1.1-.1v-.1h-.4c0-.1 0-.1-.1-.1.1 0 .1 0 .2-.1s.1-.1.2-.1v-.1l.1-.1h.4v.1l.1-.1V35l.1-.1.1.1c-.1 0-.1 0-.1.1v.1l.2-.2c.2 0 .2 0 .4-.1h.2v.1c.1.1.1.1.2.3v.1l.1.1v.2l-.1-.1c.5.3.5.3.5.4 0 .1 0 .1-.1.1h-.1v.1zM36.4 8l.1-.1V8c-.1.1-.1.1-.1.2l-.1.1c-.1 0-.1 0-.1-.1l.2-.2zm2.5 25h.2c-.1.1-.1.1-.1.2-.1 0-.1 0-.1.1-.1-.2-.1-.2 0-.3h-.3c0-.1 0-.1.1-.2h-.2v-.1l.1-.1c0 .1 0 .1.1.1l.1-.1c0-.1 0-.1-.1-.1.1.1.1.1.1.2s0 .1.1.3c-.1 0-.1 0 0 0zm-.1-1.2c-.1.1-.1.1-.1.2h-.1l.1.1-.1.1h-.1l-.1.1h-.1c0-.1 0-.1.1-.1 0-.1 0-.1-.1-.2l.1-.1h.1v-.2h.1l.2-.2v.3zm1.4-.3h.1c.1 0 .1 0 .3-.1h.2c0 .1 0 .1-.1.2v.1c-.1.1-.1.1-.3.2-.2.1-.2.1-.4.3 0 .1 0 .1.1.1-.1.1-.1.1-.2.1l.1.1v.1l.1-.1h.2c.1-.1.1-.1.2-.1l.1.1h.7l.1-.1c.1 0 .1 0 .2.1v.2c-.1.2-.1.2-.2.3 0 .1 0 .1.1.1-.1.1-.1.1-.2.3l-.4.4h-.1.2c0 .1 0 .1.1.2v.1H41c-.1.1-.1.1-.2.1h-.2-.1l-.1.1h.5c.1-.1.1-.1.3-.1l.1.1c.1 0 .1 0 .2.1l.4.6v.2l.1.1v.1c.1 0 .1 0 .3.1.2.1.2.1.3.2v.3c.1.1.1.1.1.2v.2c.1 0 .1 0 .1.1v.2c-.1-.1-.1-.1-.2-.1v.1l.2.2c.1.2.1.2.1.3l-.2.2c.1.1.1.1.2.1l.1-.1h.7c.1.2.1.2.3.4-.1.3-.1.3-.2.5-.1 0-.1 0-.2.1 0 .1 0 .1-.1.2l-.2.2v.1l.1.1h.4c-.1.1-.1.1-.1.3v.1h-.3c-.1.1-.1.1-.2.1H43c-.1.1-.1.1-.2.1-.1-.1-.1-.1-.2-.1s-.1 0-.3.1H42c-.1 0-.1 0-.3-.1 0 .1 0 .1-.1.1s-.1 0-.3.1h-.2c0 .1 0 .1-.1.1h-.1l-.1.1c-.1-.1-.1-.1-.2-.1-.2.1-.2.1-.5.1v.3c-.1 0-.1 0-.1.1 0-.3 0-.3-.1-.3h-.4l-.2.2v.2h-.1l-.1-.1H39l-.1.1h-.1v-.2h.3c.1-.2.1-.2.2-.3.1 0 .1 0 .2-.1v-.1l.2-.2v-.1c.1 0 .1 0 .2-.1l.1.1h.2v.1h.2l.2-.2c.1 0 .1 0 .2-.1h-.3c-.1.1-.1.1-.2.1h-.2c-.1-.1-.1-.1-.2-.3h-.3v-.2c-.1 0-.1 0-.2-.1l-.2.2h-.3c0-.1 0-.1.1-.2-.1 0-.1 0-.1-.1.1 0 .1 0 .1-.1h.2l.4-.4v-.4c-.1-.1-.1-.1-.1-.2l-.2.2h-.1l.4-.6.1.1h.6V37c.1-.1.1-.1.1-.2-.1 0-.1 0-.1-.1.1-.1.1-.1.1-.2v-.1h-.1l-.1.1-.2-.2v-.2c-.1-.1-.1-.1-.1-.2l.2-.2c.1 0 .1 0 .2-.1v-.1c-.2 0-.2 0-.3.1-.1.1-.1.1-.2.1H39.5v.1c-.1-.1-.1-.1-.3-.2v.2c-.1-.1-.1-.1-.1-.2l.2-.2v-.1c0-.1 0-.1.1-.1 0-.1 0-.1-.1-.2v-.2c0-.1 0-.1.1-.1h.1H39.2V35c-.1-.1-.1-.1-.2-.3.1-.1.1-.1.2-.1-.1 0-.1 0-.2.1v.1c0 .1 0 .1.1.2H39c0-.1 0-.1-.1-.1v-.2c.1-.2.1-.2.1-.4h.2l-.1-.1v-.1c.1-.1.1-.1.2-.1v-.1l.1-.1-.1.1v.1c-.1.1-.1.1-.3.2h-.1c0-.1 0-.1-.1-.2h-.1c.1 0 .1 0 .1-.1h.2v-.1h-.1l.2-.2c.1 0 .1 0 .1-.1h.1v-.2c-.1 0-.1 0-.2-.1v-.1h.2c0-.1 0-.1-.1-.1h.1c0-.1 0-.1-.1-.2.1 0 .1 0 .2-.1l.1.1h.2c0-.1 0-.1-.1-.1 0-.1 0-.1.1-.1v-.1h.1v-.1-.1c.1-.1.1-.1.1-.2.2.1.2.1.3.1-.2-.7-.2-.7 0-.7zM37.8 4.9l.1-.1-.1.1c.1 0 .1 0 0 0 .1.1 0 .2 0 .2V5v-.1zm-.3.3c0 .1 0 .1-.1.1h-.1v-.1h.2zm-.1-.1c-.1 0-.1 0-.2.1v-.1h-.1c.2-.1.2-.1.3-.1h.1c-.1 0-.1 0-.1.1zm-.1.2s-.1.1 0 0c-.1 0-.1 0 0 0-.1 0-.1 0 0 0zm-4.9-1c0 .1 0 .1 0 0 .1.1.1.1 0 0 0 .1 0 .1 0 0 0 .1 0 .1 0 0 0 .1 0 .1 0 0zm-.1.2c.1 0 .1 0 .1-.1 0 .1 0 .1-.1.1zm-.3 0c0 .1 0 .1 0 0 .1.1.1.1 0 0v.1c-.1 0-.1 0-.1-.1h.1zm-.4.2c.1 0 .1 0 0 0 0 .1 0 .1 0 0 0 .1 0 .1 0 0zm-1.6.6h.1v-.1h.2v.1l-.1.1-.2-.1c0 .1 0 .1 0 0 0 .1 0 .1 0 0zm-.1.1zm-.5.1c.1 0 .1 0 0 0h.2-.1c0 .1 0 .1-.1 0 .1.1.1.1 0 0 0 .1 0 .1 0 0zm-.6.5c0-.1 0-.1 0 0 .1-.1.1-.1 0 0h0c0 .1 0 .1-.1.1l.1-.1zm0 .4c0-.1 0-.1 0 0s0 .1-.1.1h-.1c0-.1 0-.1.2-.1-.1 0-.1 0 0 0zm0 .1c0 .1 0 .1-.1.1h-.1-.1v-.1l.1-.1c.1.1.1.1.2.1zm-1.2 0c0-.1 0-.1 0 0-.1 0-.1 0 0 0zm-.1-.1c0 .1 0 .1-.1.1-.1.1-.1.1-.2.1 0 .1 0 .1-.1.1h.1l-.1.1v-.1-.1l.1-.1c0-.1 0-.1.1-.1h.2zM24 8.2c-.1.1-.1.1 0 0-.1.1-.1.1 0 0-.1.1-.1.1 0 0-.1.1-.1.1 0 0zm-1.9 1.1c.1-.1.1-.1 0 0h0c.1 0 .1 0 0 0zm-3.6 2.6c0 .1 0 .1 0 0 0 .1 0 .1 0 0 0 .1 0 .1 0 0-.1.1-.1.1 0 0-.1.1 0 0 0 0zm-.7 1.2h.1l.1-.1c-.1.1-.1.1-.2.1 0 .1 0 .1 0 0-.1.1-.1.1 0 0-.1.1-.1.1 0 0zm-.4.2c.1 0 .1 0 0 0 .1 0 .1 0 0 0h.2-.2c.1.1.1.1 0 0 0 .1 0 .1-.1.1l.1-.1zm-.6 7.4v-.1l.1-.1h.1v-.1-.1-.1l.1-.1V20l.1-.1h.1v.1h.2l.1.1v.3h.2v.2l-.2.2c-.1.2-.1.2-.2.2-.1.1-.1.1-.2.1h-.1V21h-.2v-.1h.2v-.1H17h-.1l.1-.1h.1c-.2.1-.2.1-.3 0 .1 0 .1 0 0 0zm.4-.9c.1 0 .1 0 .1-.1 0 .2 0 .2-.1.1 0 .1 0 .1 0 0 0 .1 0 .1 0 0zm-.1 1.9c0 .1 0 .1 0 0H17h.1c0-.1 0-.1.1-.1v.1h-.1zm.1.1l-.1.1c0-.1 0-.1.1-.1-.1 0-.1 0 0 0zm0 0c.1-.1.1-.1 0 0 .1-.1.1-.1.2-.1l-.2.1c.1 0 .1 0 0 0zm-.2 0l-.1.1.1-.1c-.1.1-.1.1 0 0zm-.2-8.5c0 .1 0 .1 0 0 0 .1 0 .1 0 0-.1.1-.1.1 0 0-.1.1-.1.1 0 0zm-.1 8.8h.2-.2zm-.5.7c.1 0 .1 0 0 0 .1 0 .1 0 0 0 .1.1.1.1 0 0l-.1.1c.1 0 .1 0 .1-.1zm-.3 1.1l.1-.1c0 .1 0 .1-.1.1zm0 0c0 .1 0 .1 0 0l-.1.1c.1 0 .1 0 .1-.1zm-.1-.2c.1 0 .1 0 0 0 .1 0 .1 0 0 0 .1 0 .1 0 0 0zm0 .1h.1c-.1.1-.1.1-.1 0 0 .1 0 .1-.1.1l.1-.1c-.1.1-.1.1 0 0zm-.3 1.3c.1 0 .1 0 0 0 .1 0 .1 0 0 0v0c0 .1 0 0 0 0zm0-.3l.1-.1v.1h-.1c.1 0 .1 0 0 0zm0 2.9c0-.1 0-.1.1-.1l-.1.1c.1 0 .1 0 0 0zm.2 1.8c-.1 0-.1 0 0 0-.1 0-.1 0 0 0 0-.1 0-.1 0 0zm0 0c.1 0 .1 0 0 0 .1 0 .1 0 0 0zm.2.7c0-.1 0-.1 0 0l-.1-.1.1-.1h.1c0 .1 0 .1-.1.2.1-.1 0 0 0 0zm.6-.2c-.1 0-.1 0 0 0-.1 0-.1 0 0 0-.1-.1-.1-.1 0-.1h.1c-.1 0-.1 0-.1.1zm.2-.1c-.1 0-.1 0 0 0v-.1h.1l-.1.1zm.3.7l-.1.1v-.1c0-.1 0-.1.1 0v-.1.1zm.4.1c0-.1.1 0 0 0h.1l-.1.1v-.1zm.2.3c-.1-.1-.1-.1 0 0h-.2c0-.1 0-.1.1-.1h.1v.1c0-.1 0-.1 0 0zm.1-.3l-.1-.1h.1v.1c.1 0 .1 0 0 0zm.7-.9c-.1-.1-.1-.1 0 0 0-.1 0-.1 0 0 0-.1 0-.1 0 0zm.9-2h-.1c0-.1 0-.1-.1-.1l.1-.1c0 .1 0 .1.1.2.1 0 .1 0 0 0zm.6-.8c-.1-.1-.1-.1-.2-.1v-.1h.1c0 .1 0 .1.1.2zm.8-1.3c0 .1 0 .1 0 0h-.1v-.3c0-.1 0-.1-.1-.1v-.1h.1v.1l.1.1v.3zm1.7-1.3c-.1 0-.1 0 0 0h-.3v-.2c.1-.1.1-.1.2-.1.1.1.1.1.1.2v.1zm.3 0h-.1c0-.1 0-.1.1-.1h.1c-.1 0-.1 0-.1.1zm6.1-3.8c-.1 0-.1 0-.1-.1-.1.1-.1.1-.2.1 0 .1 0 .1-.1.1s-.1 0-.1-.1l-.1.1H28c0 .1 0 .1-.1.1s-.1 0-.1-.1v.1h-.1l-.1.1h-.1v.1h-.1-.1v.1c-.1 0-.1 0-.1.1l-.1-.1-.1-.1c-.1.1-.1.1-.2.1v.1h-.2v.1c-.1 0-.1 0-.2.1l-.1-.1v.1h-.1c0-.1 0-.1-.1-.1v-.1l-.1-.1v-.2h-.1v-.1l-.1.1v.2h.1v.2h-.1.1v.1c-.1.2-.1.2-.2.3l-.1-.1c-.1 0-.1 0-.1.1s0 .1-.1.1h-.2v.1c-.1.1-.1.1-.2.1v.1l-.1-.1v.1l.1.1-.1.1h-.1v.1c0 .1 0 .1-.1.1-.2.1-.2.1-.3.2v.2c-.1.1-.1.1-.1.2-.1 0-.1 0-.1.1v-.1-.1l-.1.1v.1c0 .1 0 .1-.1.1-.1.1-.1.1-.2.1l-.1-.1v-.1l-.1.1h-.1v-.1h-.1c.1 0 .1 0 .1.1V23.6h-.1l-.2.2h-.1v-.1l-.1-.1-.1.1v.1c-.1 0-.1 0-.2.1h-.2c0-.1 0-.1.1-.2v-.1c0 .1 0 .1-.1.1v.2l-.1.1-.2-.2v-.2l.2-.2h-.2c0-.1 0-.1-.1-.1H22l-.1.1h.1c-.1.1-.1.1-.1.2l-.1.1c0 .1 0 .1-.1.2v-.1-.1l-.1.1v.2l.1.1c.3.3.3.3.3.4h-.1l-.1-.1c0 .1 0 .1-.1.1h-.1-.1v-.1c0 .1 0 .1-.1.1h-.1l-.1-.1v-.1l-.1.1-.1.1v.1l.1.1v.1l.1.1-.1-.1v.1l.1.1h-.1c-.1 0-.1 0-.1.1l-.1.1h-.1V25c0 .1 0 .1-.1.1h-.1c0-.1 0-.1-.1-.1v.2h-.1v.1c.1 0 .1 0 .1.1v.4l-.1.1h-.1c0 .1 0 .1-.1.1H20l-.1.1c.1 0 .1 0 .1.1h.2v.1l.1-.1v.2h-.1v.2c0 .1 0 .1-.1.1s-.1 0-.2-.1l-.1-.1-.1.1h.1c.1 0 .1 0 .1.1h.1v.1l-.1.1h-.1v.1c-.1 0-.1 0-.1-.1l-.1-.1-.1.1v.1c.1.1.1.1.2.1v.1h-.1c-.1-.1-.1-.1-.2-.1v.1c.1 0 .1 0 .2.1v.1h-.2c0-.1 0-.1-.1-.2h-.1v.1h.1v.2h.3v.1l-.2.2-.1.1h-.2v-.1H19v.2l-.1.1h-.2-.1c0 .1 0 .1.1.1s.1 0 .3.1c0 .1 0 .1.1.2v.1H19l-.2-.2h-.1v.1h.1l.1.1V28.9c0 .1 0 .1-.1.1 0 .1 0 .1-.1.2h-.1l-.1-.1h-.1v.1h.2v.1h-.2-.1.1v.1c0 .1 0 .1-.1.1l-.1-.1h-.1v.1h.1v.1l-.1.1h-.2-.1v.1h.1c.1 0 .1 0 .2-.1 0 .1 0 .1.1.1-.1 0-.1 0-.1.1H17.8v.1c.1 0 .1 0 .2.1h-.1.1l-.1.1h-.2.1c.1 0 .1 0 .2-.1 0 .1 0 .1-.1.2h-.2c-.1-.1-.1-.1-.2-.1h-.2l.1.1c.1 0 .1 0 .2.1 0 .1 0 .1-.1.1v.1h.1v.1h-.1c0 .1 0 .1-.1.1s-.1 0-.1-.1c-.1 0-.1 0-.2-.1H17v-.1-.1l-.1.1v.2h-.1l-.1.1v-.1c.1-.1.1-.1.1-.2v-.1l-.1.1c-.1.1-.1.1-.1.2h-.1v-.1l.1-.1v-.1l.1-.1c-.1.1-.1.1-.2.1v.1h-.1c0-.1 0-.1.1-.1 0-.1 0-.1.1-.1v-.1c-.1.1-.1.1-.1.2s0 .1-.1.1v-.1-.1h-.1l-.1.1h-.1c0-.1 0-.1.1-.1.1-.1.1-.1.2-.1v-.1h.1V30l-.1.1.6-.2h-.1-.1l.1-.1.1-.1.2-.2.1-.1v-.1l-.1.1-.2.2c-.1 0-.1 0-.2.1v-.1c.1-.1.1-.1.2-.1 0-.1 0-.1.1-.1v-.1-.1l-.1.2v.1c0 .1 0 .1-.1.1h-.1v-.1l-.1.1c-.1 0-.1 0-.2.1v.1h-.1-.1l-.1.1h-.1l-.1.1v.1c0 .1 0 .1-.1.1h-.1v-.1c0-.1 0-.1.1-.1h.1l.1-.1c0-.1 0-.1-.1-.1v-.1-.1c-.1 0-.1 0-.1-.1-.1 0-.1 0-.1.1h-.1v-.1l.1-.1h-.1v-.1c.1 0 .1 0 .1-.1h-.1c-.1 0-.1 0-.2.1l-.1.1h-.1l.1-.1.1-.1.1-.1.1-.1h-.1l-.1.1-.1.1c0-.1 0-.1.1-.2h.1l.1-.1c0-.1 0-.1.1-.1h-.1c0 .1 0 .1-.1.1h-.1v-.1l.1-.1h-.1v-.2c-.1 0-.1 0-.1.1v-.1l.1-.1v-.1h-.1l-.1.1h-.1c.1-.1.1-.1.1-.2l.1-.1.1-.1h-.1l.1-.1h-.1v-.1l-.1.1-.1.1v-.1l.1-.1.1-.1h-.1c-.1 0-.1 0-.1.1h-.1v-.1l.1-.1h.1l.1-.1h-.2l-.1.1H15l.1-.1c.1 0 .1 0 .1-.1h.1-.1.1c.1 0 .1 0 .2-.1v-.1l.3-.2-.1-.1h-.1c0 .1 0 .1-.1.1h-.1v-.1l.1-.1c.1 0 .1 0 .1-.1-.1 0-.1 0-.1.1l-.1-.1v-.1c.1-.1.1-.1.3-.1.1-.1.1-.1.3-.1v-.1h-.1l-.1.1h-.2l.1-.1h.1l.1-.1h.2l-.1-.1h-.1.2v.1h.1v-.1h-.1v-.2l.1-.1v-.1l-.1.1v-.1-.2-.1-.1c.1 0 .1 0 .2-.1l.1-.1h.1v.1l.1-.1V25l-.1-.1c-.1.1-.1.1-.2.1h-.1v.2h.1v.2c-.2.6-.2.6-.3.7h-.1c0-.1 0-.1.1-.1-.1.1-.1.1-.2.1-.1.1-.1.1-.1.2s0 .1-.1.1h-.1v-.1c0-.1 0-.1.1-.1v-.1c0-.1 0-.1.1-.1l.2-.2h.1l.1-.1H16h-.1v.1h-.1v-.1-.1l.1-.1v-.1h-.1l-.1.1v-.1l.1-.1h.1l.1-.1h.1l.1-.1.1-.1c.1-.1.1-.1.2-.1h.2v-.1h-.1v-.1c-.1.1-.1.1-.3.2l-.3.1-.1.1-.1.1-.1.1v-.1h-.1l.1-.1c-.1 0-.1 0-.1-.1v-.1l.1-.1h.1l.1-.1h.2l.1-.1h.1l-.1.1-.1.1-.1-.1h-.1c0 .1 0 .1-.1.1v-.1-.1l.1-.1.1-.1c.1-.1.1-.1.2-.1l.1-.1.2-.2c.1-.1.1-.1.2-.1h.1l.1-.1h-.1c-.1 0-.1 0-.2.1-.2.1-.2.1-.3.3l-.2.2c-.1 0-.1 0-.2.1l-.2.2c-.1 0-.1 0-.2.1v-.1c0-.1 0-.1.1-.1v-.2l.1-.1.1.1c.1 0 .1 0 .2-.1h.1l-.1-.1h-.1l-.1-.1.1-.1H16.2v-.1h-.1v-.1l.1-.1h.2v-.1h-.1l-.1.1H16l-.1-.1.1-.1v-.1c.1 0 .1 0 .3-.1.2-.1.2-.1.3-.1l-.1-.1c-.1 0-.1 0-.2.1h-.2l-.1.1-.1.1c0-.1 0-.1.1-.1l.1-.1.2-.2c.1-.1.1-.1.1-.2h.4c.1 0 .1 0 .1.1h.2c.1 0 .1 0 .1.1.1.1.1.1.2.1h.2l.1-.1c-.1 0-.1 0-.1.1h-.1c-.1 0-.1 0-.1-.1h.1c.1-.1.1-.1.2-.1v-.1-.1c-.1 0-.1 0-.1.1v.1h-.1l-.1-.1h.1v-.1c-.1 0-.1 0-.1.1v.2l-.4-.2h-.1l-.1-.1h-.1v-.1l-.1.1c-.1 0-.1 0-.1.1-.1 0-.1 0-.1.1l-.1.1-.1.1V23l.1-.1c.1-.1.1-.1.2-.1l.1-.1v-.1-.1H16.8l-.1-.1c0-.1 0-.1-.1-.2h.1l.1.1c0 .1 0 .1.1.1v-.1-.1.1c.1.1.1.1.2.1s.1 0 .1-.1h.1c.1 0 .1 0 .1.1h.1c0-.1 0-.1-.1-.1l-.1-.1v-.1h.1l.1-.1.1-.1h-.1-.2l-.1.1h0c-.1 0-.1 0-.2.1h-.1V22h-.1v-.1l.1-.1.1-.1h.5l.1-.1.1-.1h.1v-.1l-.1.1h-.1v-.1c.1-.1.1-.1.1-.2s0-.1.1-.2h.1v.1l-.1.1h.4c-.1 0-.1 0-.1.1v-.1h.1v-.1l-.1.1H18v-.1h.1c0-.1 0-.1.1-.1h.1l.1-.1h-.1-.1l.1-.1.2-.2h.1v-.1h-.1v-.1h.1v-.1c-.1 0-.1 0-.1.1h-.1c-.1 0-.1 0-.2.1-.1 0-.1 0-.1.1l-.1-.1h-.1v-.2l-.1-.1h-.3v-.1-.1-.1h-.1v-.1c.1-.1.1-.1.2-.1s.1 0 .2-.1l.1.1c.2 0 .2 0 .3-.1h.1v.4c.1 0 .1 0 .1.1h.1l.1-.1v-.1l-.1.1-.1-.1v-.1h.2v-.1c-.1 0-.1 0-.1-.1v-.1l.1-.1.1.1h.1v-.1c-.1-.1-.1-.1-.2-.1h.4v-.1h-.1l-.1.1h-.1l.1-.1H19.1v-.1H19c-.1.1-.1.1-.3.2h-.1l.2-.2V19l.1-.1.1-.1.1-.1h-.2l-.1.1c-.1 0-.1 0-.1.1h-.1c.1-.1.1-.1.2-.1s.1 0 .2-.1c.1 0 .1 0 .2-.1l.1-.1-.1.1h-.1l-.1-.1h-.1l.1-.1.1-.1.1-.1-.1.1c-.1.1-.1.1-.1.2l-.1.1h-.1c0-.1 0-.1.1-.2v-.1-.1-.1l.1-.1-.1.1v.2c0 .1 0 .1-.1.2v.1l-.1.1h-.1v-.1.1l-.1.1h.1v.1c0 .1 0 .1-.1.1s-.1 0-.2.1l-.1.1h-.1v-.1 0c0-.1 0-.1.1-.2l.1-.1.1-.1.1-.1c.1 0 .1 0 .2-.1l.1-.1.2-.2.1-.1-.2.2-.1.1h-.1l-.1-.1v-.1l.1-.1.1-.1h.1v-.1l.1-.1h.1v-.1H19h-.1l-.1.1.1-.1h.2l.1-.1v-.1l.1-.1.1-.1v-.1c0-.1 0-.1.1-.1H19.2V17h.1l.1-.1v-.1l.1-.1v-.1h-.1v-.1l-.1-.1.1-.1h.1v-.1-.1l.1-.1v-.1c0-.1 0-.1.1-.1l.1-.1v-.1l-.1.1h-.1l-.1.1h-.1l.1-.1h.1l.1-.1.1-.1.1-.1h.1v-.1l-.1-.1v-.1h-.1c.1-.1.1-.1.1-.3 0-.1 0-.1-.1-.1v-.1c.1-.1.1-.1.3-.2v-.1c-.1 0-.1 0-.1.1l.1-.1.1-.1h-.1l-.7-.2-.1.1h-.1V14l-.1-.1-.1.1v-.1l-.1-.1-.1.1H18.5l-.2.2-.1.1-.1.1v-.1l.1-.1V14h-.1l-.1.1-.1.1h-.1v-.1-.1l-.1.1c-.1.1-.1.1-.1.2h-.1c0-.1 0-.1.1-.1l.1-.1.1-.1h-.1l-.1.1-.1.1v-.1-.1h-.1c-.1.1-.1.1-.1.2-.1.1-.1.1-.1.2h-.1-.1v-.1h-.1v-.1-.1-.1l.1-.1.1-.1h.1l.1-.1.1-.1.1-.1h-.1-.1-.2l.1-.1.1-.1.1-.1-.1.1-.1.1-.1.1H17v-.1l.1-.1-.1.1.1-.1.1-.1h.1l.1-.1h.2c.1 0 .1 0 .2-.1.1 0 .1 0 .1-.1h.4l.1-.1-.1.1h-.2c-.1 0-.1 0-.2.1l.1-.1c.1 0 .1 0 .2-.1.1 0 .1 0 .2-.1v-.1c.1-.1.1-.1.2-.1v-.1h-.1-.1l-.1.1c-.1 0-.1 0-.1.1h-.1v-.1H18v.1l-.1.1h-.1-.1v-.1h-.1l.1-.1.1-.1-.1.1h-.1l.1-.1.1-.1.1-.1.1-.1-.1.1-.1.1h-.1-.1l.1-.1v-.1h-.1-.1l.1-.1.1-.1.1-.1c.1-.1.1-.1.2-.1l.1-.1.1-.1h.1l.1-.1h.1l.1-.1.6-.4h.1v-.1l.1-.1c.1-.1.1-.1.3-.1h.1l.1-.1c.1 0 .1 0 .2-.1h.2l.1-.1c.1-.1.1-.1.3-.2.1-.1.1-.1.2-.1l.1-.1.1-.1.1-.1.1-.1c.1 0 .1 0 .2-.1s.1-.1.2-.1h-.2l.1-.1c.1 0 .1 0 .1-.1l.2-.2-.1.1-.1.1h-.1l-.1.1h-.1-.1c-.1 0-.1 0-.2.1l.1-.1c.1-.1.1-.1.2-.1.1-.1.1-.1.2-.1h-.1c.1-.1.1-.1.2-.1l.1-.1.1-.1c.1-.1.1-.1.2-.1h0l.1-.1c.5.4.5.4.6.3l.1-.1c.1 0 .1 0 .1-.1.1-.1.1-.1.2-.1v.1l-.1.1v.1L23 9v.1l.2-.2v-.1l.1-.1v-.1c.1 0 .1 0 .1-.1h.1v.1h.1c.1 0 .1 0 .2-.1h.1v-.1l.1-.1c.1 0 .1 0 .2-.1l.1-.1.1-.1.1-.1.1-.1v-.1l.1-.1c.1 0 .1 0 .2-.1s.1-.1.2-.1v.1h.1l-.1.1-.2.2h.1v.1h.1l.1-.1v-.1-.1-.1c.1-.1.1-.1.2-.1h-.1l.1-.1c.1 0 .1 0 .2-.1.1 0 .1 0 .2-.1h.1c.1-.1.1-.1.2-.1h.1c.1 0 .1 0 .2-.1l-.1.1.1-.1.1-.1.1-.1h.1v.1h.2c.1 0 .1 0 .2-.1.1 0 .1 0 .2-.1l-.1.1v.1l-.1.1c-.1.1-.1.1-.2.1v.1c-.1 0-.1 0-.1.1h.1c-.2-.2-.2-.2-.3-.1l-.1.1c-.1 0-.1 0-.1.1l-.1.1-.1.1v.1c.1-.1.1-.1.2-.1l.2-.2v-.1c.1 0 .1 0 .2-.1l.1-.1c.1-.1.1-.1.2-.1V7h.1v.1h.1l-.1.1h.2l.1-.1h-.1c.1 0 .1 0 .2-.1h.1l.1-.1c0-.1 0-.1.1-.1.1-.1.1-.1.1-.2v-.1c0-.1 0-.1.1-.2l.1-.1h.2c.1 0 .1 0 .1-.1h.1v.2l.1.1-.1.1-.1.1-.1.1h.1c-.1.1-.1.1-.1.2h.4c.1-.1.1-.1.2-.1h.1l-.1.1h.2V7H29.5h-.1v-.1h-.1v-.1h-.1v-.1-.1l.1-.1v-.1c0-.1 0-.1.1-.1 0-.1 0-.1.1-.1l.1-.1c.1 0 .1 0 .2-.1h.4l.1-.1h-.1l.1-.1h.2c.1 0 .1 0 .2-.1H31v.1h.1l-.1.1V6l-.1.1h.4V6h-.1-.1v-.1l.1-.1v-.1h-.1-.1c-.1 0-.1 0-.2.1h-.1l.1-.1.1-.1h-.1l.1-.1h.1l-.2-.5c.1 0 .1 0 .2-.1l.1-.1c.1 0 .1 0 .2-.1-.1 0-.1 0-.2.1.1 0 .1 0 .2-.1v.1h.1c-.1 0-.1 0-.1.1.1 0 .1 0 .1-.1l.1-.1h.1v.1l-.1.1h.1l.1-.1h-.1v-.1h.4-.2v-.1l.1-.1c.1 0 .1 0 .2-.1h.1c.1 0 .1 0 .2-.1h-.1l.1-.1h.1l.1-.1H32.9L33 4l.1-.1H35c.1 0 .1 0 .2-.1h.2c.1 0 .1 0 .2.1h.2l-.1.1h-.2l-.1.1h-.1-.4-.2-.2c-.2.1-.2.1-.4.1H34c-.1 0-.1 0-.2.1h-.2c.1 0 .1 0 .1-.1h-.2l-.1.1h.1c-.1 0-.1 0-.3.1-.2 0-.2 0-.4.1l-.4.2c0 .1 0 .1-.1.1l-.1.1h.1l.1-.1v-.1l.1-.1h.1l-.1.1.1-.1c.1-.1.1-.1.2-.1.2-.1.2-.1.5-.1.1 0 .1 0 .1.1H33.7c.3-.1.3-.1.5-.1.1 0 .1 0 .2-.1h.9l.1-.1c.1 0 .1 0 .2-.1.4-.1.4-.1.5-.2h.2l-.1.1h.1c-.2.1-.2.1-.4.1H35.6h.1-.2v.1H35.8c.2.1.2.1.3.1.1 0 .1 0 .3-.1h.7c.2 0 .2 0 .3.1h-.1v.1c-.1 0-.1 0-.2.1H37h-.1v.1c-.2.1-.2.1-.3.1-.2 0-.2 0-.3.1H36h-.2c-.1 0-.1 0-.3.1H35.2h-.1-.1H34.7c-.2 0-.2 0-.4.1h-.1c-.1.1-.1.1-.2.1h-.2c-.1 0-.1 0-.1.1h-.2.2l-.1.1h-.1c-.1.1-.1.1-.2.1h-.2c-.1.1-.1.1-.2.1h-.2c-.1 0-.1 0-.2.1l-.1.1h.1v.1h.2l.1-.1c.1 0 .1 0 .2-.1.1 0 .1 0 .2-.1l.1-.1c.1 0 .1 0 .3-.1.1 0 .1 0 .2-.1h.1v.1h.1l.1-.1.1-.1h.5c.2 0 .2 0 .3-.1h.3c.1 0 .1 0 .3-.1h.1V5l-.1.1v.1c-.1 0-.1 0-.1.1-.2.1-.2.1-.4.1H35c0 .1 0 .1-.1.1h.1l.1-.1c.2 0 .2 0 .4-.1h.4c.1 0 .1 0 .1-.1h.2l.1-.1.2-.2h-.1l.1-.1h.6c0 .1 0 .1-.1.1V5c-.1.1-.1.1-.2.1l-.1.1c-.7.5-.7.5-.9.6h-.1l-.1.1h-.1l-.1.1h-.1l-.1.1h-.1v.1c-.2.1-.2.1-.3.2l-.4.2c-.1.1-.1.1-.2.1-.1.1-.1.1-.1.2V7c.1 0 .1 0 .2-.1l.2-.2h.1c.1-.1.1-.1.3-.2h.1v-.1c0-.1 0-.1.2-.2h.2l.1-.1c.2 0 .2 0 .4-.1.1-.1.1-.1.2-.1s.1 0 .2-.1l.1-.1h.1l.2-.2.1-.1c.1-.1.1-.1.2-.1v.2h.1c0 .1 0 .1-.1.1l.1-.1v-.1l.1-.1v.1h.2c0-.1 0-.1.1-.1h.1c0-.1 0-.1.1-.2h.2c.1 0 .1 0 .3-.1.1 0 .1 0 .3-.1h.5c.1 0 .1 0 .1.1h.1c.1 0 .1 0 .1.1.1 0 .1 0 .2.1v.1c.1 0 .1 0 .2.1v.1c-.1 0-.1 0-.2.1h-.1l-.1.1h-.1c-.2 0-.2 0-.3.1h-.4c-.1 0-.1 0-.2.1.1 0 .1 0 .1.1v.1h.1v.1h-.2c-.2.1-.2.1-.3.1h-.6-.1c-.1 0-.1 0-.2.1h-.2H36.6c-.1 0-.1 0-.3.1H37.2l.1.1c.1 0 .1 0 .2-.1h.2c.1 0 .1 0 .1.1v.1h-.2v.1c-.1 0-.1 0-.2.1-.3 0-.3 0-.6.1-.1-.1-.1-.1-.3-.1-.1 0-.1 0-.2.1-.2-.1-.2-.1-.3 0l-.2.1h-.1.2v.1c-.1 0-.1 0-.1.1h.1c.1 0 .1 0 .3-.1.1 0 .1 0 .1-.1.3-.1.3-.1.5-.1h.2l.1.1c-.1 0-.1 0-.2.1l-.2.2c-.1 0-.1 0-.2.1-.3.2-.3.2-.5.5v.1l-.2.2v.2l-.2.2V9c-.1.1-.1.1-.3.1.1 0 .1 0 .1.1v.1c-.1.1-.1.1-.1.2-.1 0-.1 0-.2.1H35v-.1h-.1v-.1c-.1 0-.1 0-.3.1h.1l-.1.1c.1 0 .1 0 .2.1 0 .1 0 .1.1.2.1 0 .1 0 .2.1l.1.1c0-.1 0-.1-.1-.1s-.1 0-.1-.1l-.1-.1h-.1l-.1.1c.1 0 .1 0 .1.1h-.1v.2h.2v.1l.1.1.1-.1.1-.1v.1h.1c.1 0 .1 0 .2.1v.1h-.1V10.8l-.2.2v.2c-.2-.1-.2-.1-.3-.2h-.1v-.1h-.2l-.1-.1c-.1 0-.1 0-.2.1v.1H34c.1 0 .1 0 .2.1-.1.1-.1.1-.2.1-.1.1-.1.1-.2.1 0-.1 0-.1-.1-.1l-.1.1c0 .1 0 .1.1.1l-.1.1h.1l-.1.1h-.2v.1h.3v.2c.1-.1.1-.1.2-.1s.1 0 .2.1h.3l.1-.1v.2h-.2-.4c-.1 0-.1 0-.2.1-.1 0-.1 0-.1-.1v.1h.1l.2-.1h.4l.2.2h-.1c0 .1 0 .1.1.1 0 .1 0 .1-.1.3-.1.1-.1.1-.2.3-.1 0-.1 0-.1-.1l.1-.1H33.9c-.1-.1-.1-.1-.3-.2v-.1l-.1-.1h-.1c0 .1 0 .1.1.2l-.1.1h-.2c0-.1 0-.1-.1-.1v.2h.3l.4.2v.1h-.2c-.1.1-.1.1-.3.2h-.1V13h-.1v.3h.2l.2-.2h.1c0 .1 0 .1-.1.3-.1.1-.1.1-.2.1.1 0 .1 0 .3-.1.1.1.1.1.2.1l.1-.1h.1c0 .1 0 .1-.1.2.1 0 .1 0 .1.1-.1.1-.1.1-.2.3-.1 0-.1 0-.1.1 0-.1 0-.1-.1-.2v-.1c-.2 0-.2 0-.3-.1h-.2-.1c-.1 0-.1 0-.1-.1h-.1v.2l-.1.1h-.2.1c0 .1 0 .1-.1.1-.1.1-.1.1-.2.1.1 0 .1 0 .2.1v.1h.1v-.2l.2.2h.2c.1 0 .1 0 .1-.1h.1v.1l-.2.2v.2l-.1.1h-.4l-.1.1v.1h-.2l-.1.1H32c0-.1 0-.1-.2-.1-.1-.1-.1-.1-.2-.3v-.1h.1c.2.1.2.1.3.1h.1c.1 0 .1 0 .2-.1-.1 0-.1 0-.2.1-.1-.1-.1-.1-.2-.1h-.3v-.2c-.1 0-.1 0-.2.1v.3c-.1-.1-.1-.1-.2-.1-.1-.1-.1-.1-.1-.2s0-.1-.1-.1h-.1v.1c.1.1.1.1.2.1 0 .1 0 .1.1.1v.1c.1 0 .1 0 .1.1l-.1.1h-.1l-.4.2h-.2c-.1 0-.1 0-.1-.1h-.1c0-.1 0-.1-.1-.1s-.1 0-.1-.1 0-.1-.1-.1l-.1.1v.1c.1.1.1.1.2.1l.1.1c-.1 0-.1 0-.1.1h-.4l-.1.1c0 .1 0 .1.1.1.1-.1.1-.1.2-.1h.1v.1c.1-.1.1-.1.2-.1s.1 0 .3-.1c0 .1 0 .1.1.1h.2l.1.1c-.1.1-.1.1-.2.1l-.1.1h-.1l-.2.2h-.1c-.1 0-.1 0-.1-.1-.1 0-.1 0-.2.1h-.1-.1H30h-.1v.1h.1c.1 0 .1 0 .1-.1h.1v.1h.1l.1-.1h.1c.1-.1.1-.1.2-.1.1.1.1.1.3.1v.2l-.1.1h-.5c-.1 0-.1 0-.1.1h.4v.1l-.2.2c0 .1 0 .1.1.1l.1-.1v-.1l.1-.1c.2 0 .2 0 .3-.1.1.1.1.1.1.2h.1v.1h.1c.1.1.1.1.3.1.1 0 .1 0 .2.1 0 .1 0 .1-.1.1-.1.1-.1.1-.2.1v.1c.1 0 .1 0 .1-.1l.2-.2h.1l-.3.2c.1 0 .1 0 .2-.1v.1l-.1.1c-.1.1-.1.1-.2.1v.2c0 .1 0 .1-.1.1v.1c.1 0 .1 0 .1-.1v-.1l.2-.2v.1l-.1.1v.1h.1v.2c-.1.1-.1.1-.2.1v.1h.1v.1h.1c-.1.3-.1.3-.1.5v.1h-.2v-.2c-.1 0-.1 0-.2.1v-.1-.1-.2h-.1c0 .1 0 .1-.1.3v.2l-.1.1h-.2c-.1-.1-.1-.1-.3-.2v-.1c-.1 0-.1 0-.1-.1v-.2c-.1-.1-.1-.1-.1-.2v-.2c.1-.1.1-.1.1-.2-.1 0-.1 0-.2.1H30l-.2-.4c-.1.1-.1.1-.2.1h-.1c-.1 0-.1 0-.1.1-.2-.2-.2-.2-.3-.4v-.1l-.1.1v.1c0-.1 0-.1 0 0h.2c.1.1.1.1.1.2h-.1c-.1.1-.1.1-.2.1h-.1c0 .1 0 .1.1.1l.2-.2h.2v.2c.1 0 .1 0 .2-.1.2 0 .2 0 .5.1.1.1.1.1.1.2-.2.1-.2.1-.3.2h-.2c-.2.1-.2.1-.4.1H29v-.1h-.1v.2c-.1 0-.1 0-.3.1h.2v.1c-.1 0-.1 0-.2.1h-.1l-.1.2c-.1.1-.1.1-.2.1H28l-.2.2v.1c.1-.1.1-.1.2-.1H28.3v.1h.4c.1 0 .1 0 .2-.1h.4v.1H29l-.1.1c-.2 0-.2 0-.4.1h-.1c-.1.1-.1.1-.2.1v.1c.1 0 .1 0 .1-.1H28.6v.1l.5-.5h.3c.1 0 .1 0 .1-.1h.2c.2-.1.2-.1.3-.2v.1l.1-.1c0 .1 0 .1.1.1.2 0 .2 0 .4.1v.1h.4c.2-.1.2-.1.4-.1l-.2.2c-.2 0-.2 0-.3.1l-.1.1c.1 0 .1 0 .1.1h-.1c-.1 0-.1 0-.1-.1v.2c-.1 0-.1 0-.1.1v-.2h-.2l.1.1c0 .1 0 .1-.1.1h-.2v.2h-.1l-.1.1h-.1v-.1.2h-.1c-.1 0-.1 0-.1-.1l-.1.1c0 .1 0 .1.1.1l-.2.2c-.1-.1-.1-.1-.2-.1v.2l-.2.2H29c-.1.1-.1.1-.2.1zm-13.1 7.9c-.1 0-.1 0 0 0-.1.1-.1.1 0 0-.1.1-.1.1 0 0-.1 0-.1 0 0 0-.1 0-.1 0 0 0zm0 .1zm-.1-.6v-.1c.1 0 .1 0 0 .1.1 0 .1 0 0 0zm.2-1.7l-.1.1h-.1l.2-.1c0-.1 0-.1 0 0 .1-.1.1-.1 0 0zm.1 0c0-.1 0-.1 0 0 0-.1 0-.1 0 0-.1.1-.1.1-.1.2 0-.1 0-.1.1-.2zm2.2-5.9l.1-.1h.1c0 .1 0 .1-.2.1.1.1.1.1 0 .2V20.4c.1 0 .1 0 0 0zm-.2-1.2v-.1l.2-.2v.2c-.1 0-.1 0-.2.1zm.5-.4l.1.1c-.1.1-.1.1-.2.1h-.1c0-.1 0-.1.1-.2h.1zm-.1-.2c.1-.1.1-.1.1-.2.1 0 .1 0 .1-.1l-.1.1-.1.1c.1.1.1.1 0 .1.1 0 .1 0 0 0zm.2.8h-.1v-.1c.1-.1.1-.1.1.1 0-.1 0-.1 0 0zm0 .1l-.1.1v-.1h.1zm-.8-1.2h0c0 .1 0 .1 0 0zm.2-.2c0-.1 0-.1 0 0 .1-.1.1-.1.1-.2h.2l-.1.1H18l-.1.1zm.5-.9c.1 0 .1 0 0 0 .1 0 .1 0 0 0 0 .1 0 .1-.1.2h-.1l.1-.1.1-.1zm0-.2c.1 0 .1 0 0 0zm.1 0h0c0 .1 0 .1 0 0zm0 .4l-.1.1c0-.1 0-.1.1-.1zm-.2.1c.1 0 .1 0 0 0zm-.1.1c0-.1 0-.1 0 0-.1 0-.1 0 0 0-.1 0-.1 0 0 0zm.5-1.5c.1 0 .1 0 0 0 .1-.1.1-.1.2-.1l-.1.1V16c0 .1 0 .1-.1.1zm0 .1c0 .1 0 .1 0 0l-.1.1c.1.1.1.1.1-.1-.1.1-.1.1-.2.1.1 0 .1 0 .2-.1 0 .1 0 .1 0 0zm0 .4c-.1 0-.1 0 0 0-.1 0-.1 0 0 0-.1 0-.1 0 0 0-.1-.1-.1-.1 0 0 0-.1 0-.1 0 0zm.1-1.2c.1 0 .1 0 0 0 .1-.1.1-.1.2-.1h.1l.1.1h-.4c.1 0 .1 0 0 0zM36.5 7c-.1 0-.1 0-.3.1h-.1V7l.1-.1h.2c.1 0 .1 0 .1.1-.1 0-.1 0 0 0zm-1.4 2.6h.2v.1c-.2 0-.2 0-.2-.1H35h.1c-.1 0-.1 0 0 0zM34 11.4v-.1h.1l-.1.1c.1 0 .1 0 0 0zm.1.1zm-.2-.3l.1-.1c0 .1 0 .1-.1.1zm.3.2c0 .1 0 .1 0 0 0 .1 0 .1 0 0 0 .1 0 .1 0 0zm0 0c.1-.1.1-.1 0 0l.1-.1c0 .1 0 .1-.1.1zm.2 1.9c-.1.1-.1.2-.2.2l.1-.1c0-.1 0-.1.1-.1zm-.5-.2c-.1.1-.1.1-.1.2h-.1v-.1-.1h.2zm-.4.6c0 .1 0 .1 0 0-.1.1-.1.1-.1.2l-.1.1c-.2 0-.2 0-.3.1v-.2h-.2v-.1l.1-.1.1-.1h.2c.1 0 .1 0 .1-.1l.2.2c.1 0 .1 0 0 0zm-.7 1.5h-.1.1c-.1 0-.1 0 0 0zm-.5.4c0 .1 0 .1 0 0-.1.1-.1.1-.2.1h-.2c0-.1 0-.1-.1-.1h-.1c-.1 0-.1 0-.1-.1h-.5c.2 0 .2 0 .3-.1h.1c.2 0 .2 0 .4-.1.2 0 .2 0 .3.1h.1v.2zm-.3.5c0 .1 0 .1 0 0V16.4c-.1 0-.1 0-.1-.1v-.1h-.2l-.1-.1h-.2V16c-.1-.1-.1-.1-.2-.1 0-.1 0-.1.1-.1v-.1h.4c.1 0 .1 0 .2.1h.1c.1.1.1.1.1.2.1 0 .1 0 .2.1v.1l-.1.1c-.1-.3-.1-.3-.2-.3h-.2l-.1.1h.3zM31 15h.5c.1.1.1.1.3.2h-.4c-.1 0-.1 0-.1-.1h-.1.2c.1 0 .1 0 .2.1l.3-.1h.2l-.1.1c-.2 0-.2 0-.3.1h-.1-.8-.1l.1-.1.2-.2c0 .1 0 .1 0 0zm0 .6v.1h-.1v-.1h.1c-.1 0-.1 0 0 0zm-1.5 2.9l-.2.1h-.4c-.1 0-.1 0-.2.1h-.2c0-.1 0-.1.1-.2.1 0 .1 0 .2-.1l.3-.3c.2 0 .2 0 .3-.1.2-.1.2-.1.4-.3v.2h.1v.4c-.1 0-.1 0-.2.1h-.2c.1.2.1.2 0 .1.1 0 .1 0 0 0zm.1.1h-.2l.1-.1c0 .1 0 .1.1.1zm.5-.8l.1-.1c0 .1 0 .1.1.1-.2.1-.2.1-.2 0 0 .1 0 .1 0 0 0 .1 0 .1 0 0zm.4 8.1c-.1 0-.1 0-.1.1h-.1l-.1.1c-.1 0-.1 0-.3.1l-.1-.1c-.1.1-.1.1-.2.1h-.1c0-.1 0-.1.1-.3v-.1c0-.1 0-.1.1-.1 0 .1 0 .1.1.2.1 0 .1 0 .1-.1h.1l.1-.1v-.1c.2-.1.2-.1.4-.1l.1-.1h-.2l-.1.1h-.2v-.1l.2-.2v-.1c-.2.1-.2.1-.3.1-.1-.1-.1-.1-.1-.2l.1-.1v-.1h-.5l-.1.1h-.2c0-.1 0-.1-.1-.2.1 0 .1 0 .1-.1h.2c.1 0 .1 0 .2-.1v.1c.1-.1.1-.1.2-.1l.1.1.1-.1h.3c.1 0 .1 0 .1-.1s0-.1.1-.2c-.1.1-.1.1-.2.1H30h-.1c.3-.1.3-.1.6-.3-.1 0-.1 0-.1-.1l-.1.1h-.1c.1-.1.1-.1.1-.2-.1.1-.1.1-.2.1v-.1c0 .2 0 .2-.1.3h-.1V24c-.1 0-.1 0-.1.1h-.1V24l-.1.1h-.1l-.1.1h-.1l-.2-.2c.1 0 .1 0 .1-.1l.1.1h.1c0-.1 0-.1-.1-.2v-.1h.1l.2.2.2-.2h-.2l-.1-.1c0-.1 0-.1.1-.1h.2c0-.1 0-.1-.1-.1v-.1c.1 0 .1 0 .1.1 0-.1 0-.1-.1-.2l.1-.1c.1.1.1.1.2.1v.2c.1-.1.1-.1.2-.1l.1.1v.1l.1-.1c-.2-.1-.2-.1-.3-.2v-.1c.1.1.1.1.2.1l.1-.1c-.1 0-.1 0-.2-.1h-.3l.1-.1h.2c.1 0 .1 0 .1-.1.1 0 .1 0 .1.1v.2h.1c0 .1 0 .1.1.2.1 0 .1 0 .1-.1v.1l-.1.1h.1c0 .1 0 .1-.1.2h-.1v.2h.1v.1c-.1.1-.1.1-.1.2h.1v0l.1-.1v-.1c.3.1.3.1.4 0v.2h.1c.1-.1.1-.1.1-.2 0-.3 0-.3-.1-.5.1-.1.1-.1.3-.2v.3l.2.2.2-.2c0-.1 0-.1-.1-.2.2-.1.2-.1.4-.3.1 0 .1 0 .2.1v.2c.1.1.1.1.1.2v.3c.1-.2.1-.2.1-.3-.1-.1-.1-.1-.1-.2s0-.1.1-.2H32.9c.1.1.1.1.2.3.1-.1.1-.1.2-.3l.1-.1c0 .1 0 .1.1.2.1 0 .1 0 .1-.1h.2V23v-.1H34.1v.1c.1 0 .1 0 .1.1l-.1.1.1.1c0-.1 0-.1.1-.1.1-.1.1-.1.3-.2h.1c-.1 0-.1 0-.1.1v.1c-.1 0-.1 0-.2.1.1.1.1.1.2.1s.1 0 .2-.1v.2l-.2.2h.2v.2h.2c.1.1.1.1.2.1v.1c-.1 0-.1 0-.2.1l-.1.1h.1l.1.1H35c-.1 0-.1 0-.1.1h.1c.1 0 .1 0 .1.1-.1.1-.1.1-.1.2-.1 0-.1 0-.2-.1.1.1.1.1.1.2s0 .1-.1.1c-.1.1-.1.1-.2.1-.1-.1-.1-.1-.1-.2 0 .1 0 .1.1.3h-.1c.1 0 .1 0 .1.1l-.3.3c-.1 0-.1 0-.1-.1l-.1-.1v.2c-.2.1-.2.1-.4.1l-.2.2h-.1l-.2.2h-.1V26H33c-.1.1-.1.1-.1.2-.1 0-.1 0-.2.1v-.1h-.1v.2c-.2.1-.2.1-.3.2v-.1c0 .1 0 .1-.1.2H31.6c-.1-.1-.1-.1-.2-.1h-.1c-.1 0-.1 0-.1.1l-.2-.2v-.1l-.1.1h-.2c-.2-.5-.2-.5-.2-.6zm44.8 60.2c-.1.2-.1.2-.3.4-.1 0-.1 0-.1-.1v-.1c-.1 0-.1 0-.2.1 0 .1 0 .1-.1.2v.1l-.1.1-.2.2c-.1.1-.1.1-.1.3-.1.2-.1.2-.3.4.1.3.1.3 0 .4l-.2.2c0 .1 0 .1-.1.1-.2.3-.2.3-.5.6l-.1.1v.1l-.2.2c-.1.1-.1.1-.1.2l-.3.3v.1h-.1c0 .1 0 .1-.1.1l-.1.1v.1l-.1.1c0 .1 0 .1-.1.1s-.1 0-.1.1c-.1.1-.1.1-.2.1-.2.1-.2.1-.4.1-.1.1-.1.1-.2.1-.2.1-.2.1-.3.2-.1-.1-.1-.1-.2-.1h-.1l-.2-.2c.1-.2.1-.2.1-.4l.1-.1h-.1v-.1c0-.1 0-.1-.1-.1.1-.1.1-.1.1-.3.1 0 .1 0 .2-.1v-.2c.1 0 .1 0 .3-.1 0-.1 0-.1.1-.2.2-.1.2-.1.3-.3.2-.2.2-.2.4-.5-.1-.2-.1-.2-.1-.5l.1-.1v-.1l.4-.4v-.2h.2c.1-.1.1-.1.3-.2v.1l.1-.1h.1l.1-.1h.2l.2-.2v.2h.2l-.1-.1v-.1c.2-.1.2-.1.4-.3v.1h.2-.1v-.1l.1-.1v-.1l.1-.1c0 .1 0 .1-.1.1.1-.1.1-.1.3-.2v-.1h.1v.1l.1-.1h-.1v-.1c.1 0 .1 0 .2-.1l.1-.1c-.1 0-.1 0-.2-.1.1-.1.1-.1.1-.2l.1-.1v.2h.1c.1-.1.1-.1.1-.2.1 0 .1 0 .2-.1 0-.1 0-.1.1-.2l.2-.2h-.1v-.1h-.1.2l.1-.1.2-.2c0 .1 0 .1-.1.2h.1v.1l.1.1V84.9c-.4.8-.4.8-.4 1.2zm16.9-15.8c0 .1 0 .1-.1.3v.1c-.1.2-.1.2-.2.3l-.1.1-.1.1-.1.1v-.4c0-.1 0-.1.1-.2v-.1c0-.1 0-.1.1-.2v-.1c0-.1 0-.1.1-.2h.1c0-.1 0-.1.1-.3v-.1.1c0-.1 0-.1.1-.3h.1c0-.1 0-.1-.1-.1v-.1h.1c0 .1 0 .1.1.2v.2c0 .1 0 .1-.1.1v.3c-.1.1-.1.1-.1.2z"/><path id="Shape_8_" class="st1" d="M80.5 63.7c.1 0 .1 0 .1-.1v-.2c-.1-.4-.1-.4-.3-.8v-.3c0-.1 0-.1-.1-.2v-.4l-.1-.1c-.1-.1-.1-.1-.1-.2h-.1l-.1-.1v.2c0-.1 0-.1-.1-.3l.1-.1v.1h.2c0-.1 0-.1-.1-.2h-.1l-.1-.1c0-.1 0-.1.1-.2-.1.1-.1.1-.2.1 0-.1 0-.1-.1-.1h-.1c0 .1 0 .1.1.2l-.2-.2v-.1c0-.2 0-.2-.1-.4 0-.2 0-.2.1-.4-.1-.1-.1-.1-.1-.3v-.1c-.1-.1-.1-.1-.2-.3v-.3c.1-.2.1-.2.1-.4v-.1-.1h-.3c0-.1 0-.1-.1-.1h-.2c-.1-.2-.1-.2-.2-.3-.1 0-.1 0-.1.1h-.1v-.3c-.2-.4-.2-.4-.5-.7h-.2c-.1 0-.1 0-.1-.1s0-.1.1-.2h.3c.1 0 .1 0 .2.1.1 0 .1 0 .1-.1h.1c0-.1 0-.1.1-.1H78v-.1l-.2-.2h.1V56c.1-.1.1-.1.3-.2h.5c.1.1.1.1.1.2h.2c0-.1 0-.1.1-.1h-.2l-.1-.1v-.2l.1-.1-.1-.1v-.1c.1-.1.1-.1.1-.2-.1-.1-.1-.1-.1-.2s0-.1.1-.2h-.1c-.1-.1-.1-.1-.1-.2h-.3c-.1 0-.1 0-.1.1v.2l-.2-.2H78v-.1h-.4l-.2.2v-.1l-.5.5-.1-.1c-.1 0-.1 0-.2.1V55c-.1 0-.1 0-.1-.1l-.1.1h.1v.1h-.1c0 .1 0 .1.1.2v.1h-.1v-.1h-.2c-.1 0-.1 0-.1.1.1.1.1.1.2.1 0 .1 0 .1.1.1v.1l-.1-.1h-.2l.1.1v.1H76h-.1v.1h-.1l-.1-.1v.4c-.1.1-.1.1-.1.3v.3h-.1v.3c.1 0 .1 0 .1.1h.1l.1.1h.2v.3c.1.1.1.1.1.2l.1-.1v.3l-.1-.1H76c.1.1.1.1.1.2h.1c.1.2.1.2.1.4.2.3.2.3.3.6l.6.6c.1.2.1.2.1.4.1.1.1.1.3.2.1.2.1.2.1.3.1-.1.1-.1.2-.1.1.1.1.1.2.1 0 .1 0 .1.1.1-.1 0-.1 0-.2-.1l-.1.1c-.1 0-.1 0-.1-.1-.1.1-.1.1-.2.3v.3c0 .1 0 .1-.1.2 0 .1 0 .1.1.1v.4c0 .1 0 .1-.1.1l-.1-.1v-.2c0-.1 0-.1-.1-.1 0 .1 0 .1-.1.2 0 .1 0 .1.1.2v.4c.1.1.1.1.1.3v.4l.2.2h.4c0 .1 0 .1.1.1h.2c.1.1.1.1.1.2.2.1.2.1.4.3.3.1.3.1.5.1.4-.1.4-.1.7-.2.2 0 .2 0 .4-.1h.1-.3.3z"/><path id="Shape_10_" class="st1" d="M86.7 28.5l-.2-.2c-.1-.1-.1-.1-.1-.2h.1c-.1-.2-.3-.3-.4-.5H86l.1.1c.1.1.1.1.1.2l.1.1.1.1.1.1v.1l-.1-.1c.1.2.1.2.2.3h-.1l.2.2c.1.1.1.1.1.2s0 .1.1.2V29l.1.1-.3-.3v-.1c.1.1.1.1.2.1l-.1-.1v-.1c0 .1 0 .1-.1-.1l.1.2-.1-.1c.1 0 .1-.1 0-.1z"/></g></g></g><circle class="st2" cx="49.3" cy="49.3" r="48.8"/></svg>