<svg id="Capa_1" xmlns="http://www.w3.org/2000/svg" viewBox="0 0 124.7 124.9"><style>.st0{fill:#fff}.st1{fill:none;stroke:#fff;stroke-miterlimit:10}</style><title>Group</title><g id="Presenta-Final"><g id="Nuestro-Proyecto---S2"><g id="Group"><path class="st0" d="M100.8 48.4c-.1-1.1-.3-2.1-.6-3.1-.1-.3-.1-.5-.2-.8-.2-.8-.4-1.5-.7-2.3-.1-.2-.2-.5-.3-.7-.8-2.2-1.9-4.3-3.1-6.2-.1-.2-.3-.4-.4-.6-1.2-1.7-2.5-3.3-4-4.8l-1.1-1.1c-.4-.3-.8-.7-1.2-1-.2-.2-.4-.3-.6-.5-.4-.3-.8-.6-1.3-.9-.2-.1-.4-.3-.6-.4-.4-.3-.9-.6-1.3-.8-1.1-.7-2.3-1.3-3.5-1.8l-1.5-.6c-.2-.1-.5-.2-.8-.3-1.3-.5-2.6-.8-3.9-1.1-.8-.2-1.6-.3-2.4-.4-.3 0-.7-.1-1-.1H72c-.3 0-.5-.1-.8-.1H71c-.3 0-.7 0-1-.1H67.2c-.4 0-.9.1-1.3.1h-.1c-.4 0-.9.1-1.3.2s-.9.1-1.3.2h-.1l-1.2.3h-.2l-1.2.3c-.1 0-.1 0-.2.1-.4.1-.8.2-1.2.4-.1 0-.1 0-.2.1-.4.1-.8.3-1.2.4 0 0-.1 0-.1.1-.4.2-.8.3-1.2.5h-.1c-.4.2-.8.3-1.2.5-.1 0-.1.1-.2.1-.4.2-.7.4-1.1.6-.1 0-.1.1-.2.1-.3.2-.7.4-1 .6-.1 0-.1.1-.2.1-.3.2-.7.4-1 .6-.1 0-.1.1-.2.1-.3.2-.7.5-1 .7l-.1.1c-.3.2-.6.5-1 .7l-.1.1c-.3.3-.6.5-.9.8-.1 0-.1.1-.2.1-.3.3-.6.5-.9.8l-.2.2c-.3.3-.6.5-.8.8l-.2.2c-.3.3-.5.6-.8.9 0 .1-.1.1-.1.2-.3.3-.5.6-.8.9l-.1.1c-.3.3-.5.6-.7 1l-.1.1c-.2.3-.5.7-.7 1 0 .1-.1.1-.1.2-.2.3-.4.7-.7 1 0 .1-.1.1-.1.2-.2.3-.4.7-.6 1.1 0 .1-.1.1-.1.2-.2.4-.4.7-.6 1.1 0 .1-.1.1-.1.2l-.6 1.2v.1c-.2.4-.3.8-.5 1.2 0 0 0 .1-.1.1-.2.4-.3.8-.4 1.2 0 .1 0 .1-.1.2-.1.4-.3.8-.4 1.2 0 .1 0 .1-.1.2-.1.4-.2.8-.3 1.3v.2c-.1.4-.2.9-.3 1.3v.1c-.1.5-.2.9-.2 1.4-.1.8-.2 1.7-.3 2.5-.1.8-.1 1.6-.1 2.5 0 1.6.2 3.2.4 4.8.1.5.2 1 .3 1.6.2.8.4 1.5.6 2.3.1.3.1.5.2.8.2.5.3 1 .5 1.5.3.7.6 1.5.9 2.2.2.5.4.9.7 1.4 1.2 2.3 2.7 4.5 4.3 6.4.3.3.5.6.8.9.2.2.3.4.5.5l.3.3c1-.3 2.2-.7 3.4-1.1 5.6-1.8 11.3-3.6 12.9-3.9.8-.2 1.6-.3 2.4-.3 3.5 0 6.3 1.6 6.7 3.9.3 1.8-.8 3.3-3.1 4.2-2 .8-3.2 1.4-4.2 1.9-1.2.6-2.2 1.1-4 1.6-.3.1-.9.2-1.5.3-.2.1-.5.1-.8.2 4.5.5 8.7.7 12.5.7 4.1 0 7.6-.3 10.8-.7.1 0 .1-.1.2-.1h.1c.4-.2.8-.3 1.2-.5.1 0 .1-.1.2-.1.4-.2.7-.4 1.1-.6.1 0 .1-.1.2-.1.3-.2.7-.4 1-.6.1 0 .1-.1.2-.1.3-.2.7-.4 1-.6.1 0 .1-.1.2-.1.3-.2.7-.5 1-.7l.1-.1c.3-.2.6-.5 1-.7l.1-.1c.3-.3.6-.5.9-.8.1 0 .1-.1.2-.1.3-.3.6-.5.9-.8l.2-.2c.3-.3.6-.5.8-.8l.2-.2c.3-.3.5-.6.8-.9 0-.1.1-.1.1-.2.3-.3.5-.6.8-.9l.1-.1c.3-.3.5-.6.7-1l.1-.1c.2-.3.5-.7.7-1 0-.1.1-.1.1-.2.2-.3.4-.7.7-1 0-.1.1-.1.1-.2.2-.3.4-.7.6-1.1 0-.1.1-.1.1-.2.2-.4.4-.7.6-1.1 0-.1.1-.1.1-.2l.6-1.2v-.1c.2-.4.3-.8.5-1.2 0 0 0-.1.1-.1.2-.4.3-.8.4-1.2 0-.1 0-.1.1-.2.1-.4.3-.8.4-1.2 0-.1 0-.1.1-.2.1-.4.2-.8.3-1.3v-.2c.1-.4.2-.9.3-1.3v-.1c.1-.5.2-.9.2-1.4.1-.6.1-1.1.2-1.7 0-.5.1-1.1.1-1.6v-.8-1.6c-.1-1.6-.2-2.6-.3-3.7z"/><path class="st0" d="M36.5 111.5c3.9-6.3 8-10.3 14-12.4.3-.1.6-.2.8-.3H57.3c3.1-.4 6.2-.8 9-1.3 1.7-.3 3.4-.5 5.1-.8.5-.1 1.1-.2 1.6-.3 1-.2 1.9-.4 2.9-.5 1.2-.2 2.5-.5 3.6-.8l2.4-.6 2.1-.6c1.3-.4 2.6-.8 3.8-1.3.6-.2 1.2-.5 1.7-.7.6-.3 1.2-.5 1.8-.8 3.1-1.5 6-3.3 8.7-5.6 1.1-.9 2.2-2 3.2-3.1.2-.2 1.6-1.5 2.1-2l.2-.2.1-.1c.1-.1.1-.1.1-.2v-.1c.1-.1.1-.2.2-.2 0-.1.1-.1.1-.2v-.1c0-.1.1-.1.1-.2s0-.1.1-.2v-.1-.2-.1-.2-.2-.1-.2-.1c0-.1 0-.1-.1-.2 0-.1 0-.1-.1-.2v-.1l-.1-.1c0-.1-.1-.1-.1-.2l-.1-.1-.1-.1c-.1 0-.1-.1-.2-.1l-.1-.1h-.1c-.1 0-.1-.1-.2-.1s-.1-.1-.2-.1H104.5h-.5-.1H103.6 103.3 103h-.1c-.1 0-.1 0-.2.1h-.1c-.1 0-.1.1-.2.1 0 0-.1 0-.1.1-.1 0-.1.1-.2.1 0 0-.1 0-.1.1-.1 0-.1.1-.2.1 0 0-.1 0-.1.1-.1.1-.2.2-.3.2-3.6 3.3-7.6 5-12.1 6-.3.1-.7.1-1 .2-.1 0-.2 0-.3.1-.2 0-.4.1-.7.1-.1 0-.3 0-.4.1-.2 0-.4.1-.6.1-.1 0-.3 0-.4.1-.2 0-.4.1-.6.1-.1 0-.3 0-.4.1-.2 0-.4.1-.7.1-.1 0-.3 0-.4.1-.3 0-.5.1-.8.1h-.3c-.3.1-.7.1-1.1.1h-.4c-.2 0-.4.1-.6.1h-.4c-.2 0-.5.1-.7.1h-.4c-.2 0-.5 0-.7.1H78c-.2 0-.5 0-.7.1h-.4c-.3 0-.5 0-.8.1h-.4c-.4 0-.8 0-1.1.1H67.3h-4.2c-.3 0-.6 0-.9-.1h-.5c-.3 0-.7-.1-1-.1h-.3c-.5 0-.9-.1-1.4-.1h-.4c-.4 0-.7-.1-1.1-.1-.2 0-.4 0-.5-.1-.3 0-.6-.1-1-.1h-.6c-.3 0-.6-.1-1-.1-.2 0-.4 0-.6-.1-.4 0-.7-.1-1.1-.1-.2 0-.3 0-.5-.1-.5-.1-1.1-.2-1.6-.2.5-.3 1.2-.6 2-.8.2-.1.4-.1.6-.2.3-.1.7-.2 1-.3.5-.1.9-.2 1.4-.3.1 0 .2-.1.3-.1 1.7-.4 3.2-.7 3.9-.8.7-.2 1.2-.3 1.7-.5.3-.1.5-.2.8-.3.1-.1.3-.1.4-.2.7-.3 1.4-.7 2.4-1.2.7-.3 1.6-.7 2.8-1.2.1-.1.3-.1.4-.2 0 0 .1 0 .1-.1.1 0 .2-.1.2-.1l.1-.1c.1 0 .1-.1.2-.1l.1-.1c.1 0 .1-.1.2-.1l.1-.1.1-.1.1-.1.1-.1.1-.1c0-.1.1-.1.1-.2s.1-.2.1-.2v-.1-.2-.1-.1-.1-.1-.1-.1-.1s0-.1-.1-.1v-.1c0-.1-.1-.1-.1-.2v-.1c0-.1-.1-.1-.2-.2l-.1-.1-.1-.1-.1-.1-.1-.1-.1-.1-.1-.1-.1-.1c-.1 0-.1-.1-.2-.1 0 0-.1 0-.1-.1-.1 0-.1-.1-.2-.1 0 0-.1 0-.1-.1-.1 0-.2-.1-.2-.1h-.1c-.1 0-.2-.1-.3-.1h-.1c-.1 0-.2-.1-.3-.1H67c-.1 0-.2 0-.2-.1h-2-1.7c-.2 0-.4.1-.6.1h-.1c-.1 0-.2 0-.3.1-.2.1-.5.1-.9.2-.2 0-.3.1-.5.1-.1 0-.2.1-.3.1 0-.7-.2-.7-.4-.6-.9.3-2 .6-3.2 1-.5.2-1.1.3-1.6.5-.3.1-.6.2-.8.3l-.9.3c-.6.2-1.2.4-1.7.5l-.9.3c-1.1.4-2.3.7-3.3 1-.3.1-.5.2-.8.2-.8.2-1.5.5-2.1.7-.4.1-.8.3-1.2.4-.2.1-.3.1-.5.2-.5.2-1 .3-1.2.3-2.8.7-5.1 1.4-6.9 2.1-.2.1-.4.1-.6.2-.9.4-1.7.7-2.4 1.1-.4.2-.8.5-1.2.7-.6.4-1.2.8-1.7 1.3l-.3.3-.6.6c-.9 1-1.7 2.2-2.4 3.6-.1.3-.3.6-.4.9-.8 1.6-1.5 3.6-2.4 5.9-.2.6-.5 1.3-.8 2-.4.9-.7 1.9-1.2 3-.6 1.5-1.3 3.2-2.1 5 4.4 4.4 9.4 8.1 14.9 11.1.4-.8.8-1.5 1.2-2.2.5-1.2 1-2 1.6-2.9z"/></g></g></g><circle class="st1" cx="62.2" cy="62.2" r="61.2"/></svg>