<svg id="Capa_1" xmlns="http://www.w3.org/2000/svg" viewBox="0 0 72 72"><style>.st0{fill:#fff}.st1{fill:none;stroke:#fff}</style><title>Slice 1</title><g id="Group_2_"><path id="Shape_17_" class="st0" d="M11.5 34.5c-.1.1-.3.2-.5.2l-2.4.2-5.1 7.4 1.1 1.1.3.3.7.7 7.4-5.1.2-2.4c0-.2.2-.5.3-.6l4.8-4.6-2.3-2-4.5 4.8z" transform="translate(12 12)"/><path id="Shape_16_" class="st0" d="M42.6 5.3c-2.4-2.4-6.3-2.4-8.7 0l-9.6 9.6c-.8.8-1.3 1.9-1.3 2.9-.2 2.4-2.4 4.3-4.8 4.1-2.8-.3-4.4 3-2.4 5l1.6 1.6 2 2 1.6 1.6c2 2 5.3.4 5-2.4-.2-2.4 1.5-4.6 4.1-4.8 1.1-.1 2.2-.6 2.9-1.3l9.6-9.6c2.5-2.4 2.5-6.3 0-8.7zM27 18.5c-.8-.8-.8-2.1 0-2.9l8.9-8.9c.8-.8 2.1-.8 2.9 0L27 18.5zm14.2-6.7l-9 8.9c-.8.8-2.1.8-2.9 0L41.1 8.8c.9.8.9 2.1.1 3z" transform="translate(12 12)"/></g><circle id="Oval-1_2_" class="st1" cx="36" cy="36" r="35"/></svg>