<svg width="72" height="72" viewBox="0 0 72 72" xmlns="http://www.w3.org/2000/svg"><title>Slice 1</title><g transform="translate(1 1)" fill="none" fill-rule="evenodd"><circle stroke="#FFF" cx="35" cy="35" r="35"/><path d="M41.788 53.872c1.16 1.179 2.341 2.338 3.532 3.487.595.574 1.193 1.146 1.791 1.717l.898.856c.217.206.286-.111.392-.246.102-.13.206-.26.31-.39l.272-.343c.103-.13-.056-.166-.134-.228a118.926 118.926 0 0 1-2.102-1.704c-3.928-3.26-7.575-6.715-10.827-10.675-5.968-7.269-10.392-16.176-8.769-26.194a27.158 27.158 0 0 1 .433-2.124 29.469 29.469 0 0 0-.119.573 24.445 24.445 0 0 0-.48 4.644 23.693 23.693 0 0 0 .972 6.91c1.357 4.654 3.736 8.393 6.787 12.048 2.402 2.878 4.704 5.818 7.522 8.271a138.362 138.362 0 0 0 4.23 3.523 253.184 253.184 0 0 0 3.129 2.473l.51.398c.082.064.123.347.249.184.094-.12.55-.62.644-.74.278-.358-.18-.441-.39-.606-.483-.376-.964-.753-1.445-1.131a220.727 220.727 0 0 1-2.868-2.292c-.146-.12-.784-.338-.49-.558a14.705 14.705 0 0 0 4.022-4.603c1.235-2.218 1.812-4.398 1.822-6.94.02-4.85-2.42-9.345-6.474-11.995-2-1.309-4.3-1.831-6.378-2.919-2.207-1.155-4.11-2.54-5.795-4.395-1.656-1.821-2.765-3.72-3.343-6.14a17.22 17.22 0 0 1-.444-3.479l-.006-.219c-.002-.108-.088.064-.124.106a37.118 37.118 0 0 0-.867 1.04c-.374.468-.736.945-1.086 1.431-4.975 6.922-8.43 18.328-6.719 27.01.462 2.343 1.346 4.409 2.56 6.444 1.306 2.19 2.921 3.807 5.088 5.142 3.927 2.421 9.274 3.191 13.697 1.664z" fill="#FFF"/></g></svg>