<svg width="206" height="206" viewBox="0 0 206 206" xmlns="http://www.w3.org/2000/svg"><title>Slice 1</title><path d="M144.727 112.656h-41.81c-5.329 0-9.648-4.323-9.648-9.656V45.062c0-5.333 4.319-9.656 9.648-9.656 5.33 0 9.649 4.323 9.649 9.657v48.28h32.161c5.33 0 9.649 4.324 9.649 9.657s-4.32 9.656-9.649 9.656m-41.81-93.344c-46.18 0-83.62 37.47-83.62 83.688 0 46.221 37.44 83.688 83.62 83.688 46.181 0 83.62-37.467 83.62-83.688 0-46.218-37.439-83.688-83.62-83.688m0 186.688C46.078 206 0 159.885 0 103S46.078 0 102.917 0c56.84 0 102.917 46.115 102.917 103s-46.078 103-102.917 103" fill="#00BD9C" fill-rule="evenodd"/></svg>