<svg width="492" height="378" viewBox="0 0 492 378" xmlns="http://www.w3.org/2000/svg"><title>Group</title><g fill="#FFF" fill-rule="evenodd"><path d="M377.472 167.957H201.319v58.718H308.79c-16.032 51.048-63.714 88.077-120.055 88.077-69.492 0-125.823-56.335-125.823-125.824 0-69.492 56.333-125.823 125.823-125.823 34.994 0 66.645 14.289 89.452 37.346l42.622-46.328C286.769 20.768 240.159.194 188.735.194 84.5.193 0 84.693 0 188.928c0 104.235 84.5 188.737 188.736 188.737 91.307 0 171.248-64.844 188.737-150.989v-58.718l-.001-.001zM491.858 167.857h-36.031v-36.031h-30.886v36.031H388.91v30.883h36.031v36.032h30.886V198.74h36.031v-30.883z"/></g></svg>