<?xml version="1.0" encoding="UTF-8" standalone="no"?>
<svg width="25px" height="20px" viewBox="0 0 25 20" version="1.1" xmlns="http://www.w3.org/2000/svg" xmlns:xlink="http://www.w3.org/1999/xlink" xmlns:sketch="http://www.bohemiancoding.com/sketch/ns">
    <!-- Generator: Sketch 3.5.2 (25235) - http://www.bohemiancoding.com/sketch -->
    <title>Fill 14</title>
    <desc>Created with Sketch.</desc>
    <defs></defs>
    <g id="HTML" stroke="none" stroke-width="1" fill="none" fill-rule="evenodd" sketch:type="MSPage">
        <g id="1-Home" sketch:type="MSArtboardGroup" transform="translate(-1268.000000, -4178.000000)" fill="#F5F6F7">
            <g id="Group" sketch:type="MSLayerGroup" transform="translate(2.000000, 4147.000000)">
                <path d="M1286.73964,32.5874854 C1287.58369,32.515102 1288.68088,32.0426847 1289.32719,31.7142643 C1289.53685,31.5995289 1289.74613,31.4847935 1289.9558,31.3700581 C1289.58648,32.3687951 1289.08597,33.1499968 1288.31656,33.7433097 C1288.14613,33.8749859 1287.97647,34.0528643 1287.76219,34.1367982 C1288.85823,34.1375682 1289.76229,33.64282 1290.62135,33.3744624 C1290.17008,34.1044567 1289.55955,34.8321409 1288.90824,35.3542254 C1288.64548,35.5629052 1288.38234,35.7719701 1288.11959,35.9810349 C1288.13382,37.1426345 1288.10266,38.2511016 1287.8853,39.2271225 C1286.62384,44.9015193 1283.28149,48.7540104 1277.99021,50.404198 C1276.09014,50.9967409 1273.01978,51.2400723 1270.84271,50.6991219 C1269.76322,50.4311493 1268.78798,50.1285251 1267.87276,49.7277212 C1267.36456,49.5055658 1266.89368,49.2649295 1266.44357,48.9904116 C1266.29546,48.8999323 1266.14773,48.8098381 1266,48.7197438 C1266.49089,48.7343745 1267.06526,48.8699009 1267.61424,48.7813467 C1268.1109,48.7008779 1268.59794,48.7220539 1269.05574,48.6211792 C1270.19871,48.3705324 1271.21319,48.0386468 1272.08724,47.5269578 C1272.51119,47.2790061 1273.15404,46.9871624 1273.45527,46.6294806 C1272.88782,46.639491 1272.37347,46.5078148 1271.95183,46.3588128 C1270.31758,45.7812857 1269.36658,44.7197908 1268.74797,43.1250458 C1269.24309,43.1789483 1270.66921,43.3083144 1271.00313,43.0264812 C1270.37952,42.9922145 1269.78015,42.6310676 1269.35158,42.36271 C1268.03742,41.5395412 1266.96523,40.1588663 1266.97331,38.0343364 C1267.14566,38.1167303 1267.3184,38.1983542 1267.49075,38.280363 C1267.82083,38.4197396 1268.15668,38.4944331 1268.55062,38.5756719 C1268.7172,38.6099385 1269.04958,38.7077331 1269.24078,38.6368898 C1268.96187,38.3408109 1268.54754,38.1432966 1268.29171,37.8256566 C1267.44843,36.7764823 1266.65824,35.1617164 1267.15836,33.238936 C1267.28493,32.751118 1267.48613,32.3206678 1267.70041,31.9233291 C1267.82313,32.1416344 1268.04203,32.2925615 1268.18091,32.4646646 C1268.61179,32.9986847 1269.14307,33.4791873 1269.68435,33.9030922 C1271.52903,35.3469101 1273.1902,36.2339918 1275.85816,36.8908327 C1276.53486,37.0575455 1277.31736,37.1849865 1278.12563,37.1861416 C1277.89865,36.5242954 1277.97136,35.4535601 1278.15025,34.81289 C1278.59997,33.2023593 1279.57636,32.0415297 1281.0094,31.4193404 C1281.35179,31.2707234 1281.73189,31.1621483 1282.13044,31.0751342 C1282.33588,31.0504931 1282.54131,31.0258519 1282.74675,31.0012108 C1284.70337,30.9665591 1285.74478,31.6799977 1286.73964,32.5874854 Z" id="Fill-14" sketch:type="MSShapeGroup"></path>
            </g>
        </g>
    </g>
</svg>