<?xml version="1.0" encoding="UTF-8" standalone="no"?>
<svg width="12px" height="24px" viewBox="0 0 12 24" version="1.1" xmlns="http://www.w3.org/2000/svg" xmlns:xlink="http://www.w3.org/1999/xlink" xmlns:sketch="http://www.bohemiancoding.com/sketch/ns">
    <!-- Generator: Sketch 3.5.2 (25235) - http://www.bohemiancoding.com/sketch -->
    <title>Fill 16</title>
    <desc>Created with Sketch.</desc>
    <defs></defs>
    <g id="HTML" stroke="none" stroke-width="1" fill="none" fill-rule="evenodd" sketch:type="MSPage">
        <g id="1-Home" sketch:type="MSArtboardGroup" transform="translate(-1234.000000, -4176.000000)" fill="#F5F6F7">
            <g id="Group" sketch:type="MSLayerGroup" transform="translate(2.000000, 4147.000000)">
                <path d="M1243.22125,29.0070325 L1243.22125,32.8691633 C1243.22125,32.8691633 1240.37689,32.5853981 1239.66449,33.676601 C1239.27495,34.2726204 1239.50643,36.0186948 1239.47197,37.2725847 L1243.24447,37.2725847 C1242.92573,38.7386425 1242.69725,39.7323831 1242.46278,41.0012671 L1239.45062,41.0012671 L1239.45062,53 L1234.2241,53 C1234.22522,49.3009311 1234.22335,44.9852258 1234.2241,41.048124 L1232,41.048124 L1232,37.2725847 L1234.19938,37.2725847 C1234.31212,34.5121527 1234.35482,31.7772108 1235.72456,30.3846246 C1237.26472,28.8192302 1238.73335,29.0070325 1243.22125,29.0070325" id="Fill-16" sketch:type="MSShapeGroup"></path>
            </g>
        </g>
    </g>
</svg>