<svg id="Capa_1" xmlns="http://www.w3.org/2000/svg" viewBox="0 0 25 20"><style>.st0{fill:#fff}</style><title>Fill 14</title><g id="HTML"><g id="_x31_-Home"><g id="Group"><path id="Fill-14" class="st0" d="M1286.7 32.6c.8-.1 1.9-.5 2.6-.9l.6-.3c-.4 1-.9 1.8-1.6 2.4-.2.1-.3.3-.6.4 1.1 0 2-.5 2.9-.8-.5.7-1.1 1.5-1.7 2-.3.2-.5.4-.8.6 0 1.2 0 2.3-.2 3.2-1.3 5.7-4.6 9.5-9.9 11.2-1.9.6-5 .8-7.1.3-1.1-.3-2.1-.6-3-1-.5-.2-1-.5-1.4-.7-.1-.1-.3-.2-.4-.3.5 0 1.1.2 1.6.1s1-.1 1.4-.2c1.1-.3 2.2-.6 3-1.1.4-.2 1.1-.5 1.4-.9-.6 0-1.1-.1-1.5-.3-1.6-.6-2.6-1.6-3.2-3.2.5.1 1.9.2 2.3-.1-.6 0-1.2-.4-1.7-.7-1.3-.8-2.4-2.2-2.4-4.3.2.1.3.2.5.2.3.1.7.2 1.1.3.2 0 .5.1.7.1-.3-.3-.7-.5-.9-.8-.8-1-1.6-2.7-1.1-4.6.1-.5.3-.9.5-1.3.1.2.3.4.5.5.4.5 1 1 1.5 1.4 1.8 1.4 3.5 2.3 6.2 3 .7.2 1.5.3 2.3.3-.2-.7-.2-1.7 0-2.4.4-1.6 1.4-2.8 2.9-3.4.3-.1.7-.3 1.1-.3.2 0 .4 0 .6-.1 1.8.1 2.8.8 3.8 1.7z" transform="translate(-1266 -31)"/></g></g></g></svg>